%TF.GenerationSoftware,KiCad,Pcbnew,10.0.0*%
%TF.CreationDate,2026-04-06T11:07:20+02:00*%
%TF.ProjectId,artix-dc-scm,61727469-782d-4646-932d-73636d2e6b69,1.1.3*%
%TF.SameCoordinates,PX3950da0PYaafe6a0*%
%TF.FileFunction,Paste,Top*%
%TF.FilePolarity,Positive*%
%FSLAX46Y46*%
G04 Gerber Fmt 4.6, Leading zero omitted, Abs format (unit mm)*
G04 Created by KiCad (PCBNEW 10.0.0) date 2026-04-06 11:07:20*
%MOMM*%
%LPD*%
G01*
G04 APERTURE LIST*
G04 Aperture macros list*
%AMRoundRect*
0 Rectangle with rounded corners*
0 $1 Rounding radius*
0 $2 $3 $4 $5 $6 $7 $8 $9 X,Y pos of 4 corners*
0 Add a 4 corners polygon primitive as box body*
4,1,4,$2,$3,$4,$5,$6,$7,$8,$9,$2,$3,0*
0 Add four circle primitives for the rounded corners*
1,1,$1+$1,$2,$3*
1,1,$1+$1,$4,$5*
1,1,$1+$1,$6,$7*
1,1,$1+$1,$8,$9*
0 Add four rect primitives between the rounded corners*
20,1,$1+$1,$2,$3,$4,$5,0*
20,1,$1+$1,$4,$5,$6,$7,0*
20,1,$1+$1,$6,$7,$8,$9,0*
20,1,$1+$1,$8,$9,$2,$3,0*%
%AMOutline5P*
0 Free polygon, 5 corners , with rotation*
0 The origin of the aperture is its center*
0 number of corners: always 5*
0 $1 to $10 corner X, Y*
0 $11 Rotation angle, in degrees counterclockwise*
0 create outline with 5 corners*
4,1,5,$1,$2,$3,$4,$5,$6,$7,$8,$9,$10,$1,$2,$11*%
%AMOutline6P*
0 Free polygon, 6 corners , with rotation*
0 The origin of the aperture is its center*
0 number of corners: always 6*
0 $1 to $12 corner X, Y*
0 $13 Rotation angle, in degrees counterclockwise*
0 create outline with 6 corners*
4,1,6,$1,$2,$3,$4,$5,$6,$7,$8,$9,$10,$11,$12,$1,$2,$13*%
%AMOutline7P*
0 Free polygon, 7 corners , with rotation*
0 The origin of the aperture is its center*
0 number of corners: always 7*
0 $1 to $14 corner X, Y*
0 $15 Rotation angle, in degrees counterclockwise*
0 create outline with 7 corners*
4,1,7,$1,$2,$3,$4,$5,$6,$7,$8,$9,$10,$11,$12,$13,$14,$1,$2,$15*%
%AMOutline8P*
0 Free polygon, 8 corners , with rotation*
0 The origin of the aperture is its center*
0 number of corners: always 8*
0 $1 to $16 corner X, Y*
0 $17 Rotation angle, in degrees counterclockwise*
0 create outline with 8 corners*
4,1,8,$1,$2,$3,$4,$5,$6,$7,$8,$9,$10,$11,$12,$13,$14,$15,$16,$1,$2,$17*%
%AMFreePoly0*
4,1,18,-0.500000,0.270000,-0.320000,0.450000,0.410000,0.450000,0.444442,0.443149,0.473640,0.423640,0.493149,0.394442,0.500000,0.360000,0.500000,-0.360000,0.493149,-0.394442,0.473640,-0.423640,0.444442,-0.443149,0.410000,-0.450000,-0.410000,-0.450000,-0.444442,-0.443149,-0.473640,-0.423640,-0.493149,-0.394442,-0.500000,-0.360000,-0.500000,0.270000,-0.500000,0.270000,$1*%
%AMFreePoly1*
4,1,18,-0.100000,0.200000,-0.096194,0.219134,-0.085355,0.235355,-0.069134,0.246194,-0.050000,0.250000,0.050000,0.250000,0.069134,0.246194,0.085355,0.235355,0.096194,0.219134,0.100000,0.200000,0.100000,-0.200000,0.096194,-0.219134,0.085355,-0.235355,0.069134,-0.246194,0.050000,-0.250000,-0.060000,-0.250000,-0.100000,-0.210000,-0.100000,0.200000,-0.100000,0.200000,$1*%
%AMFreePoly2*
4,1,67,1.334684,1.166810,1.362274,1.139220,1.377206,1.103172,1.379127,1.083663,1.379127,0.250195,1.377206,0.230686,1.362274,0.194638,1.334684,0.167048,1.298636,0.152116,1.292905,0.152116,1.288653,0.149890,1.171476,0.123596,0.945585,0.041984,0.731768,-0.067421,0.533428,-0.202877,0.353721,-0.362228,0.195509,-0.542938,0.061309,-0.742130,-0.046743,-0.956634,-0.126926,-1.183036,
-0.152479,-1.300377,-0.154302,-1.303915,-0.167048,-1.334684,-0.173475,-1.341111,-0.176195,-1.346388,-0.183352,-1.350988,-0.194638,-1.362274,-0.212278,-1.369581,-0.219740,-1.374377,-0.224392,-1.374598,-0.230686,-1.377206,-0.250195,-1.379127,-1.083663,-1.379127,-1.097101,-1.377803,-1.098734,-1.377985,-1.099740,-1.377543,-1.103172,-1.377206,-1.139220,-1.362274,-1.142841,-1.358652,-1.146144,-1.357205,
-1.151300,-1.350193,-1.166810,-1.334684,-1.172101,-1.321908,-1.176812,-1.315504,-1.177564,-1.308720,-1.181742,-1.298636,-1.181742,-1.271076,-1.182521,-1.264056,-1.181742,-1.260289,-1.181742,-1.259618,-1.181464,-1.258948,-1.120278,-0.963088,-1.026745,-0.670328,-0.902960,-0.389021,-0.750293,-0.122283,-0.570436,0.126931,-0.365380,0.355861,-0.137399,0.561969,0.110983,0.742974,0.377015,0.896869,
0.657748,1.021950,0.950073,1.116831,1.250752,1.180461,1.255346,1.179972,1.259618,1.181742,1.298636,1.181742,1.334684,1.166810,1.334684,1.166810,$1*%
G04 Aperture macros list end*
%ADD10C,0.200000*%
%ADD11RoundRect,0.147500X0.172500X-0.147500X0.172500X0.147500X-0.172500X0.147500X-0.172500X-0.147500X0*%
%ADD12RoundRect,0.140000X0.170000X-0.140000X0.170000X0.140000X-0.170000X0.140000X-0.170000X-0.140000X0*%
%ADD13R,0.300000X1.550000*%
%ADD14R,1.200000X2.750000*%
%ADD15RoundRect,0.140000X-0.170000X0.140000X-0.170000X-0.140000X0.170000X-0.140000X0.170000X0.140000X0*%
%ADD16RoundRect,0.160000X0.340000X-0.240000X0.340000X0.240000X-0.340000X0.240000X-0.340000X-0.240000X0*%
%ADD17RoundRect,0.147500X-0.172500X0.147500X-0.172500X-0.147500X0.172500X-0.147500X0.172500X0.147500X0*%
%ADD18RoundRect,0.147500X-0.147500X-0.172500X0.147500X-0.172500X0.147500X0.172500X-0.147500X0.172500X0*%
%ADD19RoundRect,0.140000X0.140000X0.170000X-0.140000X0.170000X-0.140000X-0.170000X0.140000X-0.170000X0*%
%ADD20RoundRect,0.147500X0.147500X0.172500X-0.147500X0.172500X-0.147500X-0.172500X0.147500X-0.172500X0*%
%ADD21RoundRect,0.120000X-0.120000X-0.285000X0.120000X-0.285000X0.120000X0.285000X-0.120000X0.285000X0*%
%ADD22RoundRect,0.062500X-0.375000X-0.062500X0.375000X-0.062500X0.375000X0.062500X-0.375000X0.062500X0*%
%ADD23RoundRect,0.225000X-0.250000X0.225000X-0.250000X-0.225000X0.250000X-0.225000X0.250000X0.225000X0*%
%ADD24R,0.550000X0.250000*%
%ADD25R,1.000000X0.900000*%
%ADD26RoundRect,0.231000X0.924000X1.029000X-0.924000X1.029000X-0.924000X-1.029000X0.924000X-1.029000X0*%
%ADD27R,0.457986X1.556504*%
%ADD28RoundRect,0.228993X-0.000010X0.549259X-0.000010X-0.549259X0.000010X-0.549259X0.000010X0.549259X0*%
%ADD29RoundRect,0.140000X-0.140000X-0.170000X0.140000X-0.170000X0.140000X0.170000X-0.140000X0.170000X0*%
%ADD30RoundRect,0.160000X-0.240000X-0.340000X0.240000X-0.340000X0.240000X0.340000X-0.240000X0.340000X0*%
%ADD31O,0.300000X0.900000*%
%ADD32O,0.900000X0.300000*%
%ADD33R,3.500000X3.500000*%
%ADD34R,0.850000X0.280000*%
%ADD35R,0.280000X0.850000*%
%ADD36RoundRect,0.162500X0.162500X0.662500X-0.162500X0.662500X-0.162500X-0.662500X0.162500X-0.662500X0*%
%ADD37C,0.500000*%
%ADD38RoundRect,0.160000X-0.340000X0.240000X-0.340000X-0.240000X0.340000X-0.240000X0.340000X0.240000X0*%
%ADD39RoundRect,0.090000X-0.410000X-0.210000X0.410000X-0.210000X0.410000X0.210000X-0.410000X0.210000X0*%
%ADD40C,0.370000*%
%ADD41RoundRect,0.120000X0.480000X-0.630000X0.480000X0.630000X-0.480000X0.630000X-0.480000X-0.630000X0*%
%ADD42R,1.520000X3.050000*%
%ADD43R,0.600000X0.600000*%
%ADD44RoundRect,0.240000X0.960000X-1.460000X0.960000X1.460000X-0.960000X1.460000X-0.960000X-1.460000X0*%
%ADD45RoundRect,0.287500X0.287500X0.612500X-0.287500X0.612500X-0.287500X-0.612500X0.287500X-0.612500X0*%
%ADD46RoundRect,0.050000X-0.250000X0.100000X-0.250000X-0.100000X0.250000X-0.100000X0.250000X0.100000X0*%
%ADD47RoundRect,0.050000X1.250000X1.450000X-1.250000X1.450000X-1.250000X-1.450000X1.250000X-1.450000X0*%
%ADD48RoundRect,0.168000X2.262000X-1.512000X2.262000X1.512000X-2.262000X1.512000X-2.262000X-1.512000X0*%
%ADD49RoundRect,0.347500X-0.352500X0.347500X-0.352500X-0.347500X0.352500X-0.347500X0.352500X0.347500X0*%
%ADD50RoundRect,0.347500X0.352500X-0.347500X0.352500X0.347500X-0.352500X0.347500X-0.352500X-0.347500X0*%
%ADD51FreePoly0,0.000000*%
%ADD52RoundRect,0.090000X-0.410000X-0.360000X0.410000X-0.360000X0.410000X0.360000X-0.410000X0.360000X0*%
%ADD53R,0.400000X1.350000*%
%ADD54RoundRect,0.180000X0.720000X0.770000X-0.720000X0.770000X-0.720000X-0.770000X0.720000X-0.770000X0*%
%ADD55RoundRect,0.160000X0.890000X0.640000X-0.890000X0.640000X-0.890000X-0.640000X0.890000X-0.640000X0*%
%ADD56RoundRect,0.190000X0.760000X0.760000X-0.760000X0.760000X-0.760000X-0.760000X0.760000X-0.760000X0*%
%ADD57R,0.300000X1.800000*%
%ADD58RoundRect,0.225000X0.225000X0.250000X-0.225000X0.250000X-0.225000X-0.250000X0.225000X-0.250000X0*%
%ADD59RoundRect,0.150000X0.150000X0.350000X-0.150000X0.350000X-0.150000X-0.350000X0.150000X-0.350000X0*%
%ADD60RoundRect,0.312500X0.312500X0.587500X-0.312500X0.587500X-0.312500X-0.587500X0.312500X-0.587500X0*%
%ADD61RoundRect,0.150000X0.350000X-0.150000X0.350000X0.150000X-0.350000X0.150000X-0.350000X-0.150000X0*%
%ADD62RoundRect,0.312500X0.587500X-0.312500X0.587500X0.312500X-0.587500X0.312500X-0.587500X-0.312500X0*%
%ADD63RoundRect,0.047500X-0.607500X-0.427500X0.607500X-0.427500X0.607500X0.427500X-0.607500X0.427500X0*%
%ADD64RoundRect,0.050000X0.350000X-0.075000X0.350000X0.075000X-0.350000X0.075000X-0.350000X-0.075000X0*%
%ADD65RoundRect,0.050000X-0.075000X-0.350000X0.075000X-0.350000X0.075000X0.350000X-0.075000X0.350000X0*%
%ADD66Outline5P,-0.210000X0.060000X-0.120000X0.150000X0.210000X0.150000X0.210000X-0.150000X-0.210000X-0.150000X270.000000*%
%ADD67R,0.300000X0.410000*%
%ADD68FreePoly1,180.000000*%
%ADD69RoundRect,0.050000X0.050000X0.200000X-0.050000X0.200000X-0.050000X-0.200000X0.050000X-0.200000X0*%
%ADD70R,0.900000X1.000000*%
%ADD71Outline5P,-0.650000X0.550000X0.650000X0.550000X0.650000X-0.550000X-0.430000X-0.550000X-0.650000X-0.330000X90.000000*%
%ADD72R,1.100000X1.300000*%
%ADD73R,0.300000X0.400000*%
%ADD74Outline5P,-0.650000X0.550000X0.650000X0.550000X0.650000X-0.550000X-0.430000X-0.550000X-0.650000X-0.330000X180.000000*%
%ADD75R,1.300000X1.100000*%
%ADD76RoundRect,0.250000X-0.335000X0.335000X-0.335000X-0.335000X0.335000X-0.335000X0.335000X0.335000X0*%
%ADD77RoundRect,0.062500X-0.062500X0.337500X-0.062500X-0.337500X0.062500X-0.337500X0.062500X0.337500X0*%
%ADD78RoundRect,0.062500X-0.337500X0.062500X-0.337500X-0.062500X0.337500X-0.062500X0.337500X0.062500X0*%
%ADD79FreePoly2,0.000000*%
%ADD80FreePoly2,90.000000*%
%ADD81FreePoly2,270.000000*%
%ADD82FreePoly2,180.000000*%
%ADD83RoundRect,0.135000X0.185000X-0.135000X0.185000X0.135000X-0.185000X0.135000X-0.185000X-0.135000X0*%
%ADD84RoundRect,0.135000X-0.185000X0.135000X-0.185000X-0.135000X0.185000X-0.135000X0.185000X0.135000X0*%
%ADD85RoundRect,0.135000X-0.135000X-0.185000X0.135000X-0.185000X0.135000X0.185000X-0.135000X0.185000X0*%
%ADD86RoundRect,0.135000X0.135000X0.185000X-0.135000X0.185000X-0.135000X-0.185000X0.135000X-0.185000X0*%
%ADD87C,0.426000*%
%ADD88RoundRect,0.150000X-0.512500X-0.150000X0.512500X-0.150000X0.512500X0.150000X-0.512500X0.150000X0*%
G04 APERTURE END LIST*
%TO.C,U17*%
D10*
X63672000Y69399000D02*
X64872000Y69399000D01*
X64872000Y68199000D01*
X63672000Y68199000D01*
X63672000Y69399000D01*
G36*
X63672000Y69399000D02*
G01*
X64872000Y69399000D01*
X64872000Y68199000D01*
X63672000Y68199000D01*
X63672000Y69399000D01*
G37*
X63672000Y67750000D02*
X64872000Y67750000D01*
X64872000Y66550000D01*
X63672000Y66550000D01*
X63672000Y67750000D01*
G36*
X63672000Y67750000D02*
G01*
X64872000Y67750000D01*
X64872000Y66550000D01*
X63672000Y66550000D01*
X63672000Y67750000D01*
G37*
X65321000Y69399000D02*
X66521000Y69399000D01*
X66521000Y68199000D01*
X65321000Y68199000D01*
X65321000Y69399000D01*
G36*
X65321000Y69399000D02*
G01*
X66521000Y69399000D01*
X66521000Y68199000D01*
X65321000Y68199000D01*
X65321000Y69399000D01*
G37*
X65321000Y67750000D02*
X66521000Y67750000D01*
X66521000Y66550000D01*
X65321000Y66550000D01*
X65321000Y67750000D01*
G36*
X65321000Y67750000D02*
G01*
X66521000Y67750000D01*
X66521000Y66550000D01*
X65321000Y66550000D01*
X65321000Y67750000D01*
G37*
%TO.C,U18*%
X63492000Y53249000D02*
X64692000Y53249000D01*
X64692000Y52049000D01*
X63492000Y52049000D01*
X63492000Y53249000D01*
G36*
X63492000Y53249000D02*
G01*
X64692000Y53249000D01*
X64692000Y52049000D01*
X63492000Y52049000D01*
X63492000Y53249000D01*
G37*
X63492000Y51600000D02*
X64692000Y51600000D01*
X64692000Y50400000D01*
X63492000Y50400000D01*
X63492000Y51600000D01*
G36*
X63492000Y51600000D02*
G01*
X64692000Y51600000D01*
X64692000Y50400000D01*
X63492000Y50400000D01*
X63492000Y51600000D01*
G37*
X65141000Y53249000D02*
X66341000Y53249000D01*
X66341000Y52049000D01*
X65141000Y52049000D01*
X65141000Y53249000D01*
G36*
X65141000Y53249000D02*
G01*
X66341000Y53249000D01*
X66341000Y52049000D01*
X65141000Y52049000D01*
X65141000Y53249000D01*
G37*
X65141000Y51600000D02*
X66341000Y51600000D01*
X66341000Y50400000D01*
X65141000Y50400000D01*
X65141000Y51600000D01*
G36*
X65141000Y51600000D02*
G01*
X66341000Y51600000D01*
X66341000Y50400000D01*
X65141000Y50400000D01*
X65141000Y51600000D01*
G37*
%TD*%
D11*
%TO.C,R60*%
X39150000Y37620000D03*
X39150000Y38580000D03*
%TD*%
D12*
%TO.C,C62*%
X38474000Y23620000D03*
X38474000Y24580000D03*
%TD*%
D13*
%TO.C,J2*%
X75149000Y14550000D03*
X74902000Y22098000D03*
X74652000Y14550000D03*
X74402000Y22098000D03*
X74152000Y14550000D03*
X73900000Y22098000D03*
X73651000Y14550000D03*
X73401000Y22098000D03*
X73151000Y14550000D03*
X72901000Y22098000D03*
X72651000Y14550000D03*
X72401000Y22098000D03*
X72151000Y14550000D03*
X71901000Y22098000D03*
X71651000Y14550000D03*
X71401000Y22098000D03*
X71151000Y14550000D03*
X70901000Y22098000D03*
X70651000Y14550000D03*
X70401000Y22098000D03*
X70151000Y14550000D03*
X69901000Y22098000D03*
X69650000Y14550000D03*
X69400000Y22098000D03*
X69150000Y14550000D03*
X68900000Y22098000D03*
X68650000Y14550000D03*
X68400000Y22098000D03*
X68150000Y14550000D03*
X67900000Y22098000D03*
X67651000Y14550000D03*
X67401000Y22098000D03*
X67151000Y14550000D03*
X66901000Y22098000D03*
X66650000Y14550000D03*
X66400000Y22098000D03*
X66150000Y14550000D03*
X65900000Y22098000D03*
X65651000Y14550000D03*
X65401000Y22098000D03*
X65151000Y14550000D03*
X64901000Y22098000D03*
X64650000Y14550000D03*
X64400000Y22098000D03*
X64150000Y14550000D03*
X63900000Y22098000D03*
X63650000Y14550000D03*
X63400000Y22098000D03*
X63150000Y14550000D03*
X62900000Y22098000D03*
X62650000Y14550000D03*
X62400000Y22098000D03*
X62150000Y14550000D03*
X61900000Y22098000D03*
X61651000Y14550000D03*
X61401000Y22098000D03*
X61151000Y14550000D03*
X60901000Y22098000D03*
X58651000Y14550000D03*
X58401000Y22098000D03*
X58151000Y14550000D03*
X57901000Y22098000D03*
X57652000Y14550000D03*
X57402000Y22098000D03*
X57152000Y14550000D03*
X56902000Y22098000D03*
X56652000Y14550000D03*
D14*
X76251000Y15325000D03*
X55550000Y15325000D03*
%TD*%
D15*
%TO.C,C34*%
X71200000Y25380000D03*
X71200000Y24420000D03*
%TD*%
%TO.C,C28*%
X65895000Y11599000D03*
X65895000Y10639000D03*
%TD*%
%TO.C,C30*%
X66905000Y11599000D03*
X66905000Y10639000D03*
%TD*%
%TO.C,C32*%
X74670000Y25300000D03*
X74670000Y24340000D03*
%TD*%
%TO.C,C33*%
X57375000Y25205000D03*
X57375000Y24245000D03*
%TD*%
D16*
%TO.C,D1*%
X78475000Y22125000D03*
X78475000Y20725000D03*
%TD*%
D17*
%TO.C,R17*%
X62400000Y25570000D03*
X62400000Y24610000D03*
%TD*%
D18*
%TO.C,R18*%
X78485000Y18835000D03*
X79445000Y18835000D03*
%TD*%
D17*
%TO.C,R19*%
X63440000Y25570000D03*
X63440000Y24610000D03*
%TD*%
D12*
%TO.C,C40*%
X39275000Y16945000D03*
X39275000Y17905000D03*
%TD*%
%TO.C,C41*%
X38100000Y18620000D03*
X38100000Y19580000D03*
%TD*%
D19*
%TO.C,C44*%
X45805000Y16775000D03*
X44845000Y16775000D03*
%TD*%
%TO.C,C47*%
X45655000Y21025000D03*
X44695000Y21025000D03*
%TD*%
D17*
%TO.C,R57*%
X39575000Y24580000D03*
X39575000Y23620000D03*
%TD*%
%TO.C,R58*%
X40575000Y24580000D03*
X40575000Y23620000D03*
%TD*%
D20*
%TO.C,R59*%
X45655000Y20025000D03*
X44695000Y20025000D03*
%TD*%
D21*
%TO.C,U8*%
X41675500Y20025000D03*
X41675500Y19027000D03*
X42274500Y20025000D03*
X42274500Y19027000D03*
D22*
X40537500Y20525000D03*
X40537500Y20025000D03*
X40537500Y19526000D03*
X40537500Y19027000D03*
X40537500Y18527000D03*
X43412500Y18527000D03*
X43412500Y19027000D03*
X43412500Y19526000D03*
X43412500Y20025000D03*
X43412500Y20525000D03*
%TD*%
D12*
%TO.C,C80*%
X31445000Y82245000D03*
X31445000Y83205000D03*
%TD*%
%TO.C,C79*%
X31445000Y74895000D03*
X31445000Y75855000D03*
%TD*%
D23*
%TO.C,C75*%
X25000000Y76175000D03*
X25000000Y74625000D03*
%TD*%
D19*
%TO.C,C84*%
X26275000Y85125000D03*
X25315000Y85125000D03*
%TD*%
%TO.C,C83*%
X27169000Y77786000D03*
X26209000Y77786000D03*
%TD*%
D11*
%TO.C,R74*%
X29449000Y74893000D03*
X29449000Y75853000D03*
%TD*%
%TO.C,R75*%
X30445000Y82245000D03*
X30445000Y83205000D03*
%TD*%
D19*
%TO.C,C87*%
X27154000Y79186000D03*
X26194000Y79186000D03*
%TD*%
D23*
%TO.C,C76*%
X25000000Y83575000D03*
X25000000Y82025000D03*
%TD*%
D19*
%TO.C,C88*%
X26275000Y86525000D03*
X25315000Y86525000D03*
%TD*%
D17*
%TO.C,R73*%
X30445000Y75855000D03*
X30445000Y74895000D03*
%TD*%
D11*
%TO.C,R76*%
X29445000Y82245000D03*
X29445000Y83205000D03*
%TD*%
D24*
%TO.C,U11*%
X27572000Y81775000D03*
X27572000Y82275000D03*
X27572000Y82773000D03*
X27572000Y83273000D03*
X26220000Y83273000D03*
X26220000Y82773000D03*
X26220000Y82275000D03*
X26220000Y81775000D03*
%TD*%
D15*
%TO.C,C179*%
X68896000Y11599000D03*
X68896000Y10639000D03*
%TD*%
%TO.C,C181*%
X69905000Y11599000D03*
X69905000Y10639000D03*
%TD*%
D20*
%TO.C,R98*%
X13530000Y81305000D03*
X12570000Y81305000D03*
%TD*%
%TO.C,R97*%
X13530000Y85369000D03*
X12570000Y85369000D03*
%TD*%
%TO.C,R96*%
X13530000Y83337000D03*
X12570000Y83337000D03*
%TD*%
%TO.C,R94*%
X13530000Y87400000D03*
X12570000Y87400000D03*
%TD*%
D17*
%TO.C,R81*%
X78525000Y72720000D03*
X78525000Y71760000D03*
%TD*%
%TO.C,R82*%
X77525000Y72720000D03*
X77525000Y71760000D03*
%TD*%
%TO.C,R83*%
X79525000Y72720000D03*
X79525000Y71760000D03*
%TD*%
%TO.C,R84*%
X80525000Y72720000D03*
X80525000Y71760000D03*
%TD*%
D25*
%TO.C,PROG_B1*%
X5725000Y88963000D03*
X5725000Y84865000D03*
X4123000Y88963000D03*
X4123000Y84865000D03*
%TD*%
D12*
%TO.C,C46*%
X39275000Y19045000D03*
X39275000Y20005000D03*
%TD*%
D19*
%TO.C,C43*%
X45780000Y22200000D03*
X44820000Y22200000D03*
%TD*%
D26*
%TO.C,C150*%
X17000000Y99000000D03*
X10800000Y99000000D03*
%TD*%
D19*
%TO.C,C85*%
X26275000Y99875000D03*
X25315000Y99875000D03*
%TD*%
D11*
%TO.C,R78*%
X29449000Y96993000D03*
X29449000Y97953000D03*
%TD*%
D24*
%TO.C,U12*%
X27572000Y96525000D03*
X27572000Y97025000D03*
X27572000Y97523000D03*
X27572000Y98023000D03*
X26220000Y98023000D03*
X26220000Y97523000D03*
X26220000Y97025000D03*
X26220000Y96525000D03*
%TD*%
D12*
%TO.C,C81*%
X31445000Y96995000D03*
X31445000Y97955000D03*
%TD*%
D23*
%TO.C,C77*%
X25000000Y98275000D03*
X25000000Y96725000D03*
%TD*%
D19*
%TO.C,C90*%
X26285000Y93915000D03*
X25325000Y93915000D03*
%TD*%
D23*
%TO.C,C78*%
X25000000Y90900000D03*
X25000000Y89350000D03*
%TD*%
D24*
%TO.C,U13*%
X27582000Y89115000D03*
X27582000Y89615000D03*
X27582000Y90113000D03*
X27582000Y90613000D03*
X26230000Y90613000D03*
X26230000Y90113000D03*
X26230000Y89615000D03*
X26230000Y89115000D03*
%TD*%
D17*
%TO.C,R79*%
X30455000Y90545000D03*
X30455000Y89585000D03*
%TD*%
D12*
%TO.C,C82*%
X31455000Y89585000D03*
X31455000Y90545000D03*
%TD*%
D11*
%TO.C,R80*%
X29455000Y89585000D03*
X29455000Y90545000D03*
%TD*%
D27*
%TO.C,U9*%
X10591000Y88594857D03*
D28*
X9942000Y88594857D03*
X9291000Y88594857D03*
X8642000Y88594857D03*
X8642000Y84393857D03*
X9291000Y84393857D03*
X9942000Y84393857D03*
X10591000Y84393857D03*
%TD*%
D19*
%TO.C,C49*%
X37080000Y26500000D03*
X36120000Y26500000D03*
%TD*%
D29*
%TO.C,C116*%
X27420000Y65200000D03*
X28380000Y65200000D03*
%TD*%
D15*
%TO.C,C128*%
X35710000Y73080000D03*
X35710000Y72120000D03*
%TD*%
%TO.C,C124*%
X46400000Y73030000D03*
X46400000Y72070000D03*
%TD*%
D29*
%TO.C,C1*%
X39595000Y21825000D03*
X40555000Y21825000D03*
%TD*%
D30*
%TO.C,D9*%
X8066000Y93035000D03*
X6666000Y93035000D03*
%TD*%
D17*
%TO.C,R45*%
X16100000Y15580000D03*
X16100000Y14620000D03*
%TD*%
%TO.C,R46*%
X15100000Y15580000D03*
X15100000Y14620000D03*
%TD*%
%TO.C,R49*%
X20100000Y15600000D03*
X20100000Y14640000D03*
%TD*%
%TO.C,R50*%
X19100000Y15580000D03*
X19100000Y14620000D03*
%TD*%
%TO.C,R51*%
X22030000Y15600000D03*
X22030000Y14640000D03*
%TD*%
%TO.C,R52*%
X21080000Y15600000D03*
X21080000Y14640000D03*
%TD*%
%TO.C,R77*%
X30445000Y97955000D03*
X30445000Y96995000D03*
%TD*%
D11*
%TO.C,R136*%
X50374000Y12145000D03*
X50374000Y13105000D03*
%TD*%
D17*
%TO.C,R137*%
X47490000Y13105000D03*
X47490000Y12145000D03*
%TD*%
D29*
%TO.C,C120*%
X31670000Y47049999D03*
X32630000Y47049999D03*
%TD*%
%TO.C,C126*%
X41690000Y47100000D03*
X42650000Y47100000D03*
%TD*%
D17*
%TO.C,R114*%
X10200000Y11980000D03*
X10200000Y11020000D03*
%TD*%
D30*
%TO.C,D10*%
X8066000Y95085000D03*
X6666000Y95085000D03*
%TD*%
D19*
%TO.C,C52*%
X44630000Y26550000D03*
X43670000Y26550000D03*
%TD*%
D29*
%TO.C,C56*%
X34240000Y37700000D03*
X35200000Y37700000D03*
%TD*%
%TO.C,C59*%
X36140000Y37700000D03*
X37100000Y37700000D03*
%TD*%
D19*
%TO.C,C60*%
X44368273Y37700000D03*
X43408273Y37700000D03*
%TD*%
D29*
%TO.C,C61*%
X32340000Y37700000D03*
X33300000Y37700000D03*
%TD*%
D19*
%TO.C,C54*%
X36100000Y38700000D03*
X35140000Y38700000D03*
%TD*%
%TO.C,C51*%
X34780000Y26500000D03*
X33820000Y26500000D03*
%TD*%
%TO.C,C50*%
X42570000Y26550000D03*
X41610000Y26550000D03*
%TD*%
D20*
%TO.C,R157*%
X36380000Y84800000D03*
X35420000Y84800000D03*
%TD*%
%TO.C,R158*%
X36380000Y85800000D03*
X35420000Y85800000D03*
%TD*%
D31*
%TO.C,U20*%
X44750000Y86575000D03*
X44250000Y86575000D03*
X43750000Y86575000D03*
X43250000Y86575000D03*
X42750000Y86575000D03*
X42250000Y86575000D03*
X41752000Y86575000D03*
X41252000Y86575000D03*
X40751000Y86575000D03*
X40251000Y86575000D03*
X39751000Y86575000D03*
X39251000Y86575000D03*
D32*
X38501000Y85825000D03*
X38501000Y85325000D03*
X38501000Y84825000D03*
X38501000Y84325000D03*
X38501000Y83825000D03*
X38501000Y83325000D03*
X38501000Y82827000D03*
X38501000Y82327000D03*
X38501000Y81826000D03*
X38501000Y81326000D03*
X38501000Y80826000D03*
X38501000Y80326000D03*
D31*
X39251000Y79576000D03*
X39751000Y79576000D03*
X40251000Y79576000D03*
X40751000Y79576000D03*
X41252000Y79576000D03*
X41752000Y79576000D03*
X42250000Y79576000D03*
X42750000Y79576000D03*
X43250000Y79576000D03*
X43750000Y79576000D03*
X44250000Y79576000D03*
X44750000Y79576000D03*
D32*
X45500000Y80326000D03*
X45500000Y80826000D03*
X45500000Y81326000D03*
X45500000Y81826000D03*
X45500000Y82327000D03*
X45500000Y82827000D03*
X45500000Y83325000D03*
X45500000Y83825000D03*
X45500000Y84325000D03*
X45500000Y84825000D03*
X45500000Y85325000D03*
X45500000Y85825000D03*
D33*
X42000000Y83075000D03*
%TD*%
D17*
%TO.C,R20*%
X64470000Y25560000D03*
X64470000Y24600000D03*
%TD*%
D20*
%TO.C,R5*%
X70355000Y63625000D03*
X69395000Y63625000D03*
%TD*%
%TO.C,R7*%
X68955000Y47925000D03*
X67995000Y47925000D03*
%TD*%
%TO.C,R10*%
X70355000Y62525000D03*
X69395000Y62525000D03*
%TD*%
D18*
%TO.C,R11*%
X67995000Y46825000D03*
X68955000Y46825000D03*
%TD*%
D17*
%TO.C,R13*%
X46850000Y26110000D03*
X46850000Y25150000D03*
%TD*%
D11*
%TO.C,R6*%
X69675000Y66645000D03*
X69675000Y67605000D03*
%TD*%
%TO.C,R8*%
X68975000Y50645000D03*
X68975000Y51605000D03*
%TD*%
D34*
%TO.C,U17*%
X67570000Y66223000D03*
X67570000Y66725000D03*
X67570000Y67224000D03*
X67570000Y67724000D03*
X67570000Y68221000D03*
X67570000Y68725000D03*
X67570000Y69225000D03*
X67570000Y69725000D03*
D35*
X66843000Y70448000D03*
X66344000Y70448000D03*
X65847000Y70448000D03*
X65347000Y70448000D03*
X64846000Y70448000D03*
X64347000Y70448000D03*
X63845000Y70448000D03*
X63345000Y70448000D03*
D34*
X62619000Y69725000D03*
X62619000Y69225000D03*
X62619000Y68725000D03*
X62619000Y68221000D03*
X62619000Y67724000D03*
X62619000Y67224000D03*
X62619000Y66725000D03*
X62619000Y66223000D03*
D35*
X63345000Y65499000D03*
X63845000Y65499000D03*
X64347000Y65499000D03*
X64846000Y65499000D03*
X65347000Y65499000D03*
X65847000Y65499000D03*
X66344000Y65499000D03*
X66843000Y65499000D03*
%TD*%
D34*
%TO.C,U18*%
X67390000Y50073000D03*
X67390000Y50575000D03*
X67390000Y51074000D03*
X67390000Y51574000D03*
X67390000Y52071000D03*
X67390000Y52575000D03*
X67390000Y53075000D03*
X67390000Y53575000D03*
D35*
X66663000Y54298000D03*
X66164000Y54298000D03*
X65667000Y54298000D03*
X65167000Y54298000D03*
X64666000Y54298000D03*
X64167000Y54298000D03*
X63665000Y54298000D03*
X63165000Y54298000D03*
D34*
X62439000Y53575000D03*
X62439000Y53075000D03*
X62439000Y52575000D03*
X62439000Y52071000D03*
X62439000Y51574000D03*
X62439000Y51074000D03*
X62439000Y50575000D03*
X62439000Y50073000D03*
D35*
X63165000Y49349000D03*
X63665000Y49349000D03*
X64167000Y49349000D03*
X64666000Y49349000D03*
X65167000Y49349000D03*
X65667000Y49349000D03*
X66164000Y49349000D03*
X66663000Y49349000D03*
%TD*%
D19*
%TO.C,C8*%
X42380000Y37700000D03*
X41420000Y37700000D03*
%TD*%
D15*
%TO.C,C9*%
X38200000Y38580000D03*
X38200000Y37620000D03*
%TD*%
D36*
%TO.C,U5*%
X4445000Y28294000D03*
X5715000Y28294000D03*
X6983000Y28294000D03*
X8254000Y28294000D03*
X8254000Y35495000D03*
X6983000Y35495000D03*
X5715000Y35495000D03*
X4445000Y35495000D03*
%TD*%
D17*
%TO.C,R48*%
X17100000Y15580000D03*
X17100000Y14620000D03*
%TD*%
D37*
%TO.C,U14*%
X30675000Y49125000D03*
X30675000Y50125000D03*
X30675000Y51125000D03*
X30675000Y52125000D03*
X30675000Y53125000D03*
X30675000Y54125000D03*
X30675000Y55125000D03*
X30675000Y56125000D03*
X30675000Y57125000D03*
X30675000Y58125000D03*
X30675000Y59125000D03*
X30675000Y60123000D03*
X30675000Y61124000D03*
X30675000Y62124000D03*
X30675000Y63124000D03*
X30675000Y64123000D03*
X30675000Y65124000D03*
X30675000Y66124000D03*
X30675000Y67124000D03*
X30675000Y68124000D03*
X30675000Y69124000D03*
X30675000Y70124000D03*
X50674000Y49125000D03*
X50674000Y50125000D03*
X50674000Y51125000D03*
X50674000Y52125000D03*
X50674000Y53125000D03*
X50674000Y54125000D03*
X50674000Y55125000D03*
X50674000Y56125000D03*
X50674000Y57125000D03*
X50674000Y58125000D03*
X50674000Y59125000D03*
X50674000Y60123000D03*
X50674000Y61124000D03*
X50674000Y62124000D03*
X50674000Y63124000D03*
X50674000Y64123000D03*
X50674000Y65124000D03*
X50674000Y66124000D03*
X50674000Y67124000D03*
X50674000Y68124000D03*
X50674000Y69124000D03*
X50674000Y70124000D03*
X51674000Y49125000D03*
X51674000Y50125000D03*
X51674000Y51125000D03*
X51674000Y52125000D03*
X51674000Y53125000D03*
X51674000Y54125000D03*
X51674000Y55125000D03*
X51674000Y56125000D03*
X51674000Y57125000D03*
X51674000Y58125000D03*
X51674000Y59125000D03*
X51674000Y60123000D03*
X51674000Y61124000D03*
X51674000Y62124000D03*
X51674000Y63124000D03*
X51674000Y64123000D03*
X51674000Y65124000D03*
X51674000Y66124000D03*
X51674000Y67124000D03*
X51674000Y68124000D03*
X51674000Y69124000D03*
X51674000Y70124000D03*
X31675000Y49125000D03*
X31675000Y50125000D03*
X31675000Y51125000D03*
X31675000Y52125000D03*
X31675000Y53125000D03*
X31675000Y54125000D03*
X31675000Y55125000D03*
X31675000Y56125000D03*
X31675000Y57125000D03*
X31675000Y58125000D03*
X31675000Y59125000D03*
X31675000Y60123000D03*
X31675000Y61124000D03*
X31675000Y62124000D03*
X31675000Y63124000D03*
X31675000Y64123000D03*
X31675000Y65124000D03*
X31675000Y66124000D03*
X31675000Y67124000D03*
X31675000Y68124000D03*
X31675000Y69124000D03*
X31675000Y70124000D03*
X32675000Y49125000D03*
X32675000Y50125000D03*
X32675000Y51125000D03*
X32675000Y52125000D03*
X32675000Y53125000D03*
X32675000Y54125000D03*
X32675000Y55125000D03*
X32675000Y56125000D03*
X32675000Y57125000D03*
X32675000Y58125000D03*
X32675000Y59125000D03*
X32675000Y60123000D03*
X32675000Y61124000D03*
X32675000Y62124000D03*
X32675000Y63124000D03*
X32675000Y64123000D03*
X32675000Y65124000D03*
X32675000Y66124000D03*
X32675000Y67124000D03*
X32675000Y68124000D03*
X32675000Y69124000D03*
X32675000Y70124000D03*
X33675000Y49125000D03*
X33675000Y50125000D03*
X33675000Y51125000D03*
X33675000Y52125000D03*
X33675000Y53125000D03*
X33675000Y54125000D03*
X33675000Y55125000D03*
X33675000Y56125000D03*
X33675000Y57125000D03*
X33675000Y58125000D03*
X33675000Y59125000D03*
X33675000Y60123000D03*
X33675000Y61124000D03*
X33675000Y62124000D03*
X33675000Y63124000D03*
X33675000Y64123000D03*
X33675000Y65124000D03*
X33675000Y66124000D03*
X33675000Y67124000D03*
X33675000Y68124000D03*
X33675000Y69124000D03*
X33675000Y70124000D03*
X34675000Y49125000D03*
X34675000Y50125000D03*
X34675000Y51125000D03*
X34675000Y52125000D03*
X34675000Y53125000D03*
X34675000Y54125000D03*
X34675000Y55125000D03*
X34675000Y56125000D03*
X34675000Y57125000D03*
X34675000Y58125000D03*
X34675000Y59125000D03*
X34675000Y60123000D03*
X34675000Y61124000D03*
X34675000Y62124000D03*
X34675000Y63124000D03*
X34675000Y64123000D03*
X34675000Y65124000D03*
X34675000Y66124000D03*
X34675000Y67124000D03*
X34675000Y68124000D03*
X34675000Y69124000D03*
X34675000Y70124000D03*
X35675000Y49125000D03*
X35675000Y50125000D03*
X35675000Y51125000D03*
X35675000Y52125000D03*
X35675000Y53125000D03*
X35675000Y54125000D03*
X35675000Y55125000D03*
X35675000Y56125000D03*
X35675000Y57125000D03*
X35675000Y58125000D03*
X35675000Y59125000D03*
X35675000Y60123000D03*
X35675000Y61124000D03*
X35675000Y62124000D03*
X35675000Y63124000D03*
X35675000Y64123000D03*
X35675000Y65124000D03*
X35675000Y66124000D03*
X35675000Y67124000D03*
X35675000Y68124000D03*
X35675000Y69124000D03*
X35675000Y70124000D03*
X36675000Y49125000D03*
X36675000Y50125000D03*
X36675000Y51125000D03*
X36675000Y52125000D03*
X36675000Y53125000D03*
X36675000Y54125000D03*
X36675000Y55125000D03*
X36675000Y56125000D03*
X36675000Y57125000D03*
X36675000Y58125000D03*
X36675000Y59125000D03*
X36675000Y60123000D03*
X36675000Y61124000D03*
X36675000Y62124000D03*
X36675000Y63124000D03*
X36675000Y64123000D03*
X36675000Y65124000D03*
X36675000Y66124000D03*
X36675000Y67124000D03*
X36675000Y68124000D03*
X36675000Y69124000D03*
X36675000Y70124000D03*
X37675000Y49125000D03*
X37675000Y50125000D03*
X37675000Y51125000D03*
X37675000Y52125000D03*
X37675000Y53125000D03*
X37675000Y54125000D03*
X37675000Y55125000D03*
X37675000Y56125000D03*
X37675000Y57125000D03*
X37675000Y58125000D03*
X37675000Y59125000D03*
X37675000Y60123000D03*
X37675000Y61124000D03*
X37675000Y62124000D03*
X37675000Y63124000D03*
X37675000Y64123000D03*
X37675000Y65124000D03*
X37675000Y66124000D03*
X37675000Y67124000D03*
X37675000Y68124000D03*
X37675000Y69124000D03*
X37675000Y70124000D03*
X38675000Y49125000D03*
X38675000Y50125000D03*
X38675000Y51125000D03*
X38675000Y52125000D03*
X38675000Y53125000D03*
X38675000Y54125000D03*
X38675000Y55125000D03*
X38675000Y56125000D03*
X38675000Y57125000D03*
X38675000Y58125000D03*
X38675000Y59125000D03*
X38675000Y60123000D03*
X38675000Y61124000D03*
X38675000Y62124000D03*
X38675000Y63124000D03*
X38675000Y64123000D03*
X38675000Y65124000D03*
X38675000Y66124000D03*
X38675000Y67124000D03*
X38675000Y68124000D03*
X38675000Y69124000D03*
X38675000Y70124000D03*
X39675000Y49125000D03*
X39675000Y50125000D03*
X39675000Y51125000D03*
X39675000Y52125000D03*
X39675000Y53125000D03*
X39675000Y54125000D03*
X39675000Y55125000D03*
X39675000Y56125000D03*
X39675000Y57125000D03*
X39675000Y58125000D03*
X39675000Y59125000D03*
X39675000Y60123000D03*
X39675000Y61124000D03*
X39675000Y62124000D03*
X39675000Y63124000D03*
X39675000Y64123000D03*
X39675000Y65124000D03*
X39675000Y66124000D03*
X39675000Y67124000D03*
X39675000Y68124000D03*
X39675000Y69124000D03*
X39675000Y70124000D03*
X40675000Y49125000D03*
X40675000Y50125000D03*
X40675000Y51125000D03*
X40675000Y52125000D03*
X40675000Y53125000D03*
X40675000Y54125000D03*
X40675000Y55125000D03*
X40675000Y56125000D03*
X40675000Y57125000D03*
X40675000Y58125000D03*
X40675000Y59125000D03*
X40675000Y60123000D03*
X40675000Y61124000D03*
X40675000Y62124000D03*
X40675000Y63124000D03*
X40675000Y64123000D03*
X40675000Y65124000D03*
X40675000Y66124000D03*
X40675000Y67124000D03*
X40675000Y68124000D03*
X40675000Y69124000D03*
X40675000Y70124000D03*
X41673000Y49125000D03*
X41673000Y50125000D03*
X41673000Y51125000D03*
X41673000Y52125000D03*
X41673000Y53125000D03*
X41673000Y54125000D03*
X41673000Y55125000D03*
X41673000Y56125000D03*
X41673000Y57125000D03*
X41673000Y58125000D03*
X41673000Y59125000D03*
X41673000Y60123000D03*
X41673000Y61124000D03*
X41673000Y62124000D03*
X41673000Y63124000D03*
X41673000Y64123000D03*
X41673000Y65124000D03*
X41673000Y66124000D03*
X41673000Y67124000D03*
X41673000Y68124000D03*
X41673000Y69124000D03*
X41673000Y70124000D03*
X42674000Y49125000D03*
X42674000Y50125000D03*
X42674000Y51125000D03*
X42674000Y52125000D03*
X42674000Y53125000D03*
X42674000Y54125000D03*
X42674000Y55125000D03*
X42674000Y56125000D03*
X42674000Y57125000D03*
X42674000Y58125000D03*
X42674000Y59125000D03*
X42674000Y60123000D03*
X42674000Y61124000D03*
X42674000Y62124000D03*
X42674000Y63124000D03*
X42674000Y64123000D03*
X42674000Y65124000D03*
X42674000Y66124000D03*
X42674000Y67124000D03*
X42674000Y68124000D03*
X42674000Y69124000D03*
X42674000Y70124000D03*
X43674000Y49125000D03*
X43674000Y50125000D03*
X43674000Y51125000D03*
X43674000Y52125000D03*
X43674000Y53125000D03*
X43674000Y54125000D03*
X43674000Y55125000D03*
X43674000Y56125000D03*
X43674000Y57125000D03*
X43674000Y58125000D03*
X43674000Y59125000D03*
X43674000Y60123000D03*
X43674000Y61124000D03*
X43674000Y62124000D03*
X43674000Y63124000D03*
X43674000Y64123000D03*
X43674000Y65124000D03*
X43674000Y66124000D03*
X43674000Y67124000D03*
X43674000Y68124000D03*
X43674000Y69124000D03*
X43674000Y70124000D03*
X44674000Y49125000D03*
X44674000Y50125000D03*
X44674000Y51125000D03*
X44674000Y52125000D03*
X44674000Y53125000D03*
X44674000Y54125000D03*
X44674000Y55125000D03*
X44674000Y56125000D03*
X44674000Y57125000D03*
X44674000Y58125000D03*
X44674000Y59125000D03*
X44674000Y60123000D03*
X44674000Y61124000D03*
X44674000Y62124000D03*
X44674000Y63124000D03*
X44674000Y64123000D03*
X44674000Y65124000D03*
X44674000Y66124000D03*
X44674000Y67124000D03*
X44674000Y68124000D03*
X44674000Y69124000D03*
X44674000Y70124000D03*
X45673000Y49125000D03*
X45673000Y50125000D03*
X45673000Y51125000D03*
X45673000Y52125000D03*
X45673000Y53125000D03*
X45673000Y54125000D03*
X45673000Y55125000D03*
X45673000Y56125000D03*
X45673000Y57125000D03*
X45673000Y58125000D03*
X45673000Y59125000D03*
X45673000Y60123000D03*
X45673000Y61124000D03*
X45673000Y62124000D03*
X45673000Y63124000D03*
X45673000Y64123000D03*
X45673000Y65124000D03*
X45673000Y66124000D03*
X45673000Y67124000D03*
X45673000Y68124000D03*
X45673000Y69124000D03*
X45673000Y70124000D03*
X46674000Y49125000D03*
X46674000Y50125000D03*
X46674000Y51125000D03*
X46674000Y52125000D03*
X46674000Y53125000D03*
X46674000Y54125000D03*
X46674000Y55125000D03*
X46674000Y56125000D03*
X46674000Y57125000D03*
X46674000Y58125000D03*
X46674000Y59125000D03*
X46674000Y60123000D03*
X46674000Y61124000D03*
X46674000Y62124000D03*
X46674000Y63124000D03*
X46674000Y64123000D03*
X46674000Y65124000D03*
X46674000Y66124000D03*
X46674000Y67124000D03*
X46674000Y68124000D03*
X46674000Y69124000D03*
X46674000Y70124000D03*
X47674000Y49125000D03*
X47674000Y50125000D03*
X47674000Y51125000D03*
X47674000Y52125000D03*
X47674000Y53125000D03*
X47674000Y54125000D03*
X47674000Y55125000D03*
X47674000Y56125000D03*
X47674000Y57125000D03*
X47674000Y58125000D03*
X47674000Y59125000D03*
X47674000Y60123000D03*
X47674000Y61124000D03*
X47674000Y62124000D03*
X47674000Y63124000D03*
X47674000Y64123000D03*
X47674000Y65124000D03*
X47674000Y66124000D03*
X47674000Y67124000D03*
X47674000Y68124000D03*
X47674000Y69124000D03*
X47674000Y70124000D03*
X48674000Y49125000D03*
X48674000Y50125000D03*
X48674000Y51125000D03*
X48674000Y52125000D03*
X48674000Y53125000D03*
X48674000Y54125000D03*
X48674000Y55125000D03*
X48674000Y56125000D03*
X48674000Y57125000D03*
X48674000Y58125000D03*
X48674000Y59125000D03*
X48674000Y60123000D03*
X48674000Y61124000D03*
X48674000Y62124000D03*
X48674000Y63124000D03*
X48674000Y64123000D03*
X48674000Y65124000D03*
X48674000Y66124000D03*
X48674000Y67124000D03*
X48674000Y68124000D03*
X48674000Y69124000D03*
X48674000Y70124000D03*
X49674000Y49125000D03*
X49674000Y50125000D03*
X49674000Y51125000D03*
X49674000Y52125000D03*
X49674000Y53125000D03*
X49674000Y54125000D03*
X49674000Y55125000D03*
X49674000Y56125000D03*
X49674000Y57125000D03*
X49674000Y58125000D03*
X49674000Y59125000D03*
X49674000Y60123000D03*
X49674000Y61124000D03*
X49674000Y62124000D03*
X49674000Y63124000D03*
X49674000Y64123000D03*
X49674000Y65124000D03*
X49674000Y66124000D03*
X49674000Y67124000D03*
X49674000Y68124000D03*
X49674000Y69124000D03*
X49674000Y70124000D03*
%TD*%
D18*
%TO.C,R14*%
X29395000Y73825000D03*
X30355000Y73825000D03*
%TD*%
%TO.C,R15*%
X29395000Y81225000D03*
X30355000Y81225000D03*
%TD*%
%TO.C,R16*%
X29395000Y95925000D03*
X30355000Y95925000D03*
%TD*%
%TO.C,R138*%
X29395000Y88525000D03*
X30355000Y88525000D03*
%TD*%
D36*
%TO.C,U4*%
X4465000Y37904000D03*
X5735000Y37904000D03*
X7003000Y37904000D03*
X8274000Y37904000D03*
X8274000Y45105000D03*
X7003000Y45105000D03*
X5735000Y45105000D03*
X4465000Y45105000D03*
%TD*%
D38*
%TO.C,D12*%
X80925000Y117435000D03*
X80925000Y118835000D03*
%TD*%
%TO.C,D13*%
X82940000Y117435000D03*
X82940000Y118835000D03*
%TD*%
D39*
%TO.C,Q14*%
X60175000Y112121000D03*
X60175000Y110221000D03*
X62375000Y111170500D03*
%TD*%
%TO.C,Q15*%
X60175000Y108171000D03*
X60175000Y106271000D03*
X62375000Y107220500D03*
%TD*%
%TO.C,Q16*%
X60150000Y104196000D03*
X60150000Y102296000D03*
X62350000Y103245500D03*
%TD*%
D17*
%TO.C,R130*%
X78875000Y116075000D03*
X78875000Y115115000D03*
%TD*%
%TO.C,R131*%
X80925000Y116075000D03*
X80925000Y115115000D03*
%TD*%
%TO.C,R132*%
X82950000Y116075000D03*
X82950000Y115115000D03*
%TD*%
D36*
%TO.C,U2*%
X4495000Y57094000D03*
X5765000Y57094000D03*
X7033000Y57094000D03*
X8304000Y57094000D03*
X8304000Y64295000D03*
X7033000Y64295000D03*
X5765000Y64295000D03*
X4495000Y64295000D03*
%TD*%
%TO.C,U3*%
X4455000Y47544000D03*
X5725000Y47544000D03*
X6993000Y47544000D03*
X8264000Y47544000D03*
X8264000Y54745000D03*
X6993000Y54745000D03*
X5725000Y54745000D03*
X4455000Y54745000D03*
%TD*%
D19*
%TO.C,C42*%
X45780000Y17800000D03*
X44820000Y17800000D03*
%TD*%
D20*
%TO.C,R190*%
X13530000Y91433000D03*
X12570000Y91433000D03*
%TD*%
D30*
%TO.C,D14*%
X16319000Y91443000D03*
X14919000Y91443000D03*
%TD*%
D19*
%TO.C,C155*%
X45780000Y23300000D03*
X44820000Y23300000D03*
%TD*%
D12*
%TO.C,C64*%
X8639000Y81763000D03*
X8639000Y82723000D03*
%TD*%
D15*
%TO.C,C57*%
X40100000Y38580000D03*
X40100000Y37620000D03*
%TD*%
D17*
%TO.C,R144*%
X11800000Y14680000D03*
X11800000Y13720000D03*
%TD*%
D20*
%TO.C,R159*%
X48266000Y87669831D03*
X47306000Y87669831D03*
%TD*%
D40*
%TO.C,U1*%
X83174000Y46286000D03*
X82174000Y46286000D03*
X75175000Y46286000D03*
X74175000Y46286000D03*
X83174000Y47286000D03*
X74175000Y47286000D03*
X82174000Y49286000D03*
X81174000Y49286000D03*
X80174000Y49286000D03*
X79174000Y49286000D03*
X78175000Y49286000D03*
X77175000Y49286000D03*
X76175000Y49286000D03*
X75175000Y49286000D03*
X82174000Y50286000D03*
X81174000Y50286000D03*
X80174000Y50286000D03*
X79174000Y50286000D03*
X78175000Y50286000D03*
X77175000Y50286000D03*
X76175000Y50286000D03*
X75175000Y50286000D03*
X82174000Y51286000D03*
X81174000Y51286000D03*
X80174000Y51286000D03*
X79174000Y51286000D03*
X78175000Y51286000D03*
X77175000Y51286000D03*
X76175000Y51286000D03*
X75175000Y51286000D03*
X82174000Y52286000D03*
X81174000Y52286000D03*
X80174000Y52286000D03*
X79174000Y52286000D03*
X78175000Y52286000D03*
X77175000Y52286000D03*
X76175000Y52286000D03*
X75175000Y52286000D03*
X82174000Y53286000D03*
X81174000Y53286000D03*
X80174000Y53286000D03*
X79174000Y53286000D03*
X78175000Y53286000D03*
X77175000Y53286000D03*
X76175000Y53286000D03*
X75175000Y53286000D03*
X82174000Y54286000D03*
X81174000Y54286000D03*
X80174000Y54286000D03*
X79174000Y54286000D03*
X78175000Y54286000D03*
X77175000Y54286000D03*
X76175000Y54286000D03*
X75175000Y54286000D03*
X82174000Y55285000D03*
X81174000Y55285000D03*
X80174000Y55285000D03*
X79174000Y55285000D03*
X78175000Y55285000D03*
X77175000Y55285000D03*
X76175000Y55285000D03*
X75175000Y55285000D03*
X82174000Y56285000D03*
X81174000Y56285000D03*
X80174000Y56285000D03*
X79174000Y56285000D03*
X78175000Y56285000D03*
X77175000Y56285000D03*
X76175000Y56285000D03*
X75175000Y56285000D03*
X82174000Y57285000D03*
X81174000Y57285000D03*
X80174000Y57285000D03*
X79174000Y57285000D03*
X78175000Y57285000D03*
X77175000Y57285000D03*
X76175000Y57285000D03*
X75175000Y57285000D03*
X82174000Y58285000D03*
X81174000Y58285000D03*
X80174000Y58285000D03*
X79174000Y58285000D03*
X78175000Y58285000D03*
X77175000Y58285000D03*
X76175000Y58285000D03*
X75175000Y58285000D03*
X82174000Y59285000D03*
X81174000Y59285000D03*
X80174000Y59285000D03*
X79174000Y59285000D03*
X78175000Y59285000D03*
X77175000Y59285000D03*
X76175000Y59285000D03*
X75175000Y59285000D03*
X83174000Y61284000D03*
X74175000Y61284000D03*
X83174000Y62284000D03*
X82174000Y62284000D03*
X75175000Y62284000D03*
X74175000Y62284000D03*
%TD*%
D17*
%TO.C,R161*%
X18700000Y27980000D03*
X18700000Y27020000D03*
%TD*%
%TO.C,R47*%
X18100000Y15580000D03*
X18100000Y14620000D03*
%TD*%
D18*
%TO.C,R113*%
X44695000Y19025000D03*
X45655000Y19025000D03*
%TD*%
D15*
%TO.C,C29*%
X63905000Y11599000D03*
X63905000Y10639000D03*
%TD*%
%TO.C,C27*%
X62895000Y11599000D03*
X62895000Y10639000D03*
%TD*%
D19*
%TO.C,C89*%
X26180000Y101275000D03*
X25220000Y101275000D03*
%TD*%
%TO.C,C86*%
X26285000Y92465000D03*
X25325000Y92465000D03*
%TD*%
D24*
%TO.C,U10*%
X27572000Y74425000D03*
X27572000Y74925000D03*
X27572000Y75423000D03*
X27572000Y75923000D03*
X26220000Y75923000D03*
X26220000Y75423000D03*
X26220000Y74925000D03*
X26220000Y74425000D03*
%TD*%
D41*
%TO.C,L4*%
X22300000Y97750000D03*
X22300000Y100450000D03*
%TD*%
%TO.C,L2*%
X22400000Y76150000D03*
X22400000Y78850000D03*
%TD*%
%TO.C,L3*%
X22400000Y83350000D03*
X22400000Y86050000D03*
%TD*%
%TO.C,L5*%
X22400000Y90750000D03*
X22400000Y93450000D03*
%TD*%
D38*
%TO.C,R139*%
X19900000Y79700000D03*
X19900000Y78300000D03*
%TD*%
D16*
%TO.C,R141*%
X19800000Y99200000D03*
X19800000Y100600000D03*
%TD*%
D38*
%TO.C,R142*%
X19675000Y94625000D03*
X19675000Y93225000D03*
%TD*%
%TO.C,R140*%
X19575000Y87425000D03*
X19575000Y86025000D03*
%TD*%
D42*
%TO.C,C151*%
X15154000Y94800000D03*
X17444000Y94800000D03*
%TD*%
D30*
%TO.C,D4*%
X16319000Y87401000D03*
X14919000Y87401000D03*
%TD*%
%TO.C,D5*%
X16319000Y89433000D03*
X14919000Y89433000D03*
%TD*%
%TO.C,D6*%
X16319000Y83337000D03*
X14919000Y83337000D03*
%TD*%
%TO.C,D7*%
X16319000Y85369000D03*
X14919000Y85369000D03*
%TD*%
%TO.C,D8*%
X16319000Y81305000D03*
X14919000Y81305000D03*
%TD*%
D20*
%TO.C,R95*%
X13530000Y89400000D03*
X12570000Y89400000D03*
%TD*%
D19*
%TO.C,C115*%
X56080000Y51400000D03*
X55120000Y51400000D03*
%TD*%
D18*
%TO.C,R56*%
X39220000Y26500000D03*
X40180000Y26500000D03*
%TD*%
D17*
%TO.C,R147*%
X12800000Y14680000D03*
X12800000Y13720000D03*
%TD*%
%TO.C,R146*%
X10800000Y14680000D03*
X10800000Y13720000D03*
%TD*%
%TO.C,R145*%
X9800000Y14680000D03*
X9800000Y13720000D03*
%TD*%
D16*
%TO.C,R188*%
X19800000Y106200000D03*
X19800000Y107600000D03*
%TD*%
D24*
%TO.C,U16*%
X27477000Y104010000D03*
X27477000Y104510000D03*
X27477000Y105008000D03*
X27477000Y105508000D03*
X26125000Y105508000D03*
X26125000Y105008000D03*
X26125000Y104510000D03*
X26125000Y104010000D03*
%TD*%
D41*
%TO.C,L6*%
X22300000Y104950000D03*
X22300000Y107650000D03*
%TD*%
D11*
%TO.C,R187*%
X29420000Y104420000D03*
X29420000Y105380000D03*
%TD*%
D12*
%TO.C,C3*%
X31420000Y104420000D03*
X31420000Y105380000D03*
%TD*%
D19*
%TO.C,C101*%
X26250000Y107300000D03*
X25290000Y107300000D03*
%TD*%
%TO.C,C103*%
X26255000Y108400000D03*
X25295000Y108400000D03*
%TD*%
D43*
%TO.C,Q6*%
X28750000Y102351000D03*
X27450000Y102351000D03*
X28100000Y100250000D03*
%TD*%
D18*
%TO.C,R189*%
X25070000Y102550000D03*
X26030000Y102550000D03*
%TD*%
%TO.C,R185*%
X29370000Y103350000D03*
X30330000Y103350000D03*
%TD*%
D17*
%TO.C,R186*%
X30425000Y105380000D03*
X30425000Y104420000D03*
%TD*%
D23*
%TO.C,C2*%
X24900000Y105725000D03*
X24900000Y104175000D03*
%TD*%
D11*
%TO.C,R53*%
X14015000Y11635000D03*
X14015000Y12595000D03*
%TD*%
D12*
%TO.C,C39*%
X15015000Y11635000D03*
X15015000Y12595000D03*
%TD*%
D23*
%TO.C,C74*%
X22480000Y110975000D03*
X22480000Y109425000D03*
%TD*%
%TO.C,C73*%
X21000000Y110975000D03*
X21000000Y109425000D03*
%TD*%
%TO.C,C72*%
X19500000Y110975000D03*
X19500000Y109425000D03*
%TD*%
D44*
%TO.C,L1*%
X6800000Y107595000D03*
X15000000Y107595000D03*
%TD*%
D45*
%TO.C,R69*%
X20400000Y102701000D03*
X17400000Y102701000D03*
%TD*%
D29*
%TO.C,C17*%
X14020000Y10600000D03*
X14980000Y10600000D03*
%TD*%
D46*
%TO.C,U25*%
X21511000Y113263000D03*
X21511000Y114063000D03*
X21511000Y114863000D03*
X21511000Y115663000D03*
X21511000Y116463000D03*
X17711000Y116463000D03*
X17711000Y115663000D03*
X17711000Y114863000D03*
X17711000Y114063000D03*
X17711000Y113263000D03*
D47*
X19611000Y114863000D03*
%TD*%
D48*
%TO.C,D3*%
X8000400Y116595200D03*
D49*
X11962400Y115655200D03*
D50*
X11962400Y117536200D03*
%TD*%
D45*
%TO.C,F1*%
X33065000Y111811000D03*
X30065000Y111811000D03*
%TD*%
D17*
%TO.C,R72*%
X13825000Y115755000D03*
X13825000Y114795000D03*
%TD*%
D11*
%TO.C,R71*%
X18400000Y107220000D03*
X18400000Y108180000D03*
%TD*%
D18*
%TO.C,R67*%
X20685000Y117600000D03*
X21645000Y117600000D03*
%TD*%
D20*
%TO.C,R66*%
X15905000Y116775000D03*
X14945000Y116775000D03*
%TD*%
D29*
%TO.C,C71*%
X21520000Y112200000D03*
X22480000Y112200000D03*
%TD*%
D12*
%TO.C,C70*%
X16025000Y114795000D03*
X16025000Y115755000D03*
%TD*%
D15*
%TO.C,C69*%
X22665000Y118330000D03*
X22665000Y117370000D03*
%TD*%
D12*
%TO.C,C68*%
X14925000Y114795000D03*
X14925000Y115755000D03*
%TD*%
D38*
%TO.C,D11*%
X78890000Y117435000D03*
X78890000Y118835000D03*
%TD*%
D12*
%TO.C,C233*%
X20700000Y67120000D03*
X20700000Y68080000D03*
%TD*%
D51*
%TO.C,U15*%
X21962000Y68721000D03*
D52*
X21962000Y66620000D03*
X23760000Y66620000D03*
X23760000Y68721000D03*
%TD*%
D15*
%TO.C,C31*%
X72175000Y25350000D03*
X72175000Y24390000D03*
%TD*%
D18*
%TO.C,R70*%
X17420000Y105595000D03*
X18380000Y105595000D03*
%TD*%
D53*
%TO.C,J3*%
X67426000Y115419000D03*
X66776000Y115419000D03*
X66125000Y115419000D03*
X65475000Y115419000D03*
X64825000Y115419000D03*
D54*
X69926000Y118094000D03*
D55*
X69226000Y115544000D03*
D56*
X67325000Y118094000D03*
X64926000Y118094000D03*
D55*
X63025000Y115544000D03*
D54*
X62325000Y118094000D03*
%TD*%
D57*
%TO.C,J8*%
X7964000Y24946880D03*
X7964000Y20847880D03*
X8464000Y24946880D03*
X8464000Y20847880D03*
X8965000Y24955880D03*
X8965000Y20847880D03*
X9465000Y24946880D03*
X9465000Y20847880D03*
X9964000Y24946880D03*
X9964000Y20847880D03*
X10464000Y24946880D03*
X10464000Y20847880D03*
X10964000Y24946880D03*
X10964000Y20847880D03*
X11464000Y24946880D03*
X11464000Y20847880D03*
X11966000Y24946880D03*
X11966000Y20847880D03*
X12466000Y24946880D03*
X12466000Y20847880D03*
X12966000Y24946880D03*
X12966000Y20847880D03*
X13466000Y24946880D03*
X13466000Y20847880D03*
X13966000Y24946880D03*
X13966000Y20847880D03*
X14464000Y24946880D03*
X14464000Y20847880D03*
X14965000Y24946880D03*
X14965000Y20847880D03*
X15465000Y24946880D03*
X15465000Y20847880D03*
X15964000Y24946880D03*
X15964000Y20847880D03*
X16464000Y24946880D03*
X16464000Y20847880D03*
X16964000Y24946880D03*
X16964000Y20847880D03*
X17464000Y24946880D03*
X17464000Y20847880D03*
X17965000Y24946880D03*
X17965000Y20847880D03*
X18465000Y24946880D03*
X18465000Y20847880D03*
X18965000Y24946880D03*
X18965000Y20847880D03*
X19465000Y24946880D03*
X19465000Y20847880D03*
X19965000Y24946880D03*
X19965000Y20847880D03*
%TD*%
D58*
%TO.C,C67*%
X25175000Y112700000D03*
X23625000Y112700000D03*
%TD*%
%TO.C,C66*%
X25175000Y114200000D03*
X23625000Y114200000D03*
%TD*%
%TO.C,C65*%
X25175000Y115700000D03*
X23625000Y115700000D03*
%TD*%
D23*
%TO.C,C14*%
X25165000Y111175000D03*
X25165000Y109625000D03*
%TD*%
%TO.C,C15*%
X28115000Y111175000D03*
X28115000Y109625000D03*
%TD*%
%TO.C,C16*%
X26640000Y111175000D03*
X26640000Y109625000D03*
%TD*%
D59*
%TO.C,J5*%
X30249000Y113900000D03*
X28750000Y113900000D03*
D60*
X32854000Y119088000D03*
X26144000Y119088000D03*
%TD*%
D61*
%TO.C,J10*%
X80250000Y36851000D03*
X80250000Y38350000D03*
D62*
X85438000Y34246000D03*
X85438000Y40956000D03*
%TD*%
D15*
%TO.C,C251*%
X23700000Y16580000D03*
X23700000Y15620000D03*
%TD*%
%TO.C,C252*%
X32530500Y16713500D03*
X32530500Y15753500D03*
%TD*%
D11*
%TO.C,R12*%
X23200000Y13320000D03*
X23200000Y14280000D03*
%TD*%
D20*
%TO.C,R62*%
X31610500Y14933500D03*
X30650500Y14933500D03*
%TD*%
D63*
%TO.C,U21*%
X25780000Y13285000D03*
X27300000Y13285000D03*
D64*
X24390000Y13035000D03*
D65*
X24790000Y12135000D03*
X25290000Y12135000D03*
X25790000Y12135000D03*
X26290000Y12135000D03*
X26790000Y12135000D03*
X27290000Y12135000D03*
X27790000Y12135000D03*
X28290000Y12135000D03*
D64*
X28690000Y13035000D03*
X28690000Y13535000D03*
D65*
X28290000Y14435000D03*
X27790000Y14435000D03*
X27290000Y14435000D03*
X26790000Y14435000D03*
X26290000Y14435000D03*
X25790000Y14435000D03*
X25290000Y14435000D03*
X24790000Y14435000D03*
D64*
X24390000Y13535000D03*
%TD*%
D66*
%TO.C,U22*%
X31530000Y16423000D03*
D67*
X31032000Y16429000D03*
X30532000Y16429000D03*
X30532000Y15840000D03*
X31032000Y15840000D03*
X31530000Y15840000D03*
%TD*%
D19*
%TO.C,C250*%
X18770000Y112160000D03*
X17810000Y112160000D03*
%TD*%
D15*
%TO.C,C182*%
X72905000Y11599000D03*
X72905000Y10639000D03*
%TD*%
%TO.C,C180*%
X71895000Y11599000D03*
X71895000Y10639000D03*
%TD*%
D63*
%TO.C,U6*%
X17755000Y11865000D03*
X19275000Y11865000D03*
D64*
X16365000Y11615000D03*
D65*
X16765000Y10715000D03*
X17265000Y10715000D03*
X17765000Y10715000D03*
X18265000Y10715000D03*
X18765000Y10715000D03*
X19265000Y10715000D03*
X19765000Y10715000D03*
X20265000Y10715000D03*
D64*
X20665000Y11615000D03*
X20665000Y12115000D03*
D65*
X20265000Y13015000D03*
X19765000Y13015000D03*
X19265000Y13015000D03*
X18765000Y13015000D03*
X18265000Y13015000D03*
X17765000Y13015000D03*
X17265000Y13015000D03*
X16765000Y13015000D03*
D64*
X16365000Y12115000D03*
%TD*%
D18*
%TO.C,R68*%
X16790000Y111220000D03*
X17750000Y111220000D03*
%TD*%
D68*
%TO.C,D2*%
X78915000Y104658000D03*
D69*
X78415000Y104658000D03*
X77915000Y104658000D03*
X77415000Y104658000D03*
X76917000Y104658000D03*
X76417000Y104658000D03*
X75916000Y104658000D03*
X75916000Y103410000D03*
X76417000Y103410000D03*
X76917000Y103410000D03*
X77415000Y103410000D03*
X77915000Y103410000D03*
X78415000Y103410000D03*
X78915000Y103410000D03*
%TD*%
D15*
%TO.C,C253*%
X23200000Y12380000D03*
X23200000Y11420000D03*
%TD*%
D19*
%TO.C,C254*%
X31435500Y17298500D03*
X30475500Y17298500D03*
%TD*%
D12*
%TO.C,C4*%
X60865000Y45220000D03*
X60865000Y46180000D03*
%TD*%
D15*
%TO.C,C5*%
X61205000Y63365000D03*
X61205000Y62405000D03*
%TD*%
D70*
%TO.C,U23*%
X62586000Y44716000D03*
X64685000Y44716000D03*
X64685000Y46615000D03*
X62586000Y46615000D03*
%TD*%
%TO.C,U24*%
X62741000Y61789000D03*
X64840000Y61789000D03*
X64840000Y63688000D03*
X62741000Y63688000D03*
%TD*%
D12*
%TO.C,C176*%
X48560000Y83090000D03*
X48560000Y84050000D03*
%TD*%
D15*
%TO.C,C220*%
X48550000Y86570000D03*
X48550000Y85610000D03*
%TD*%
D11*
%TO.C,R194*%
X47540000Y84090000D03*
X47540000Y85050000D03*
%TD*%
D71*
%TO.C,Y2*%
X51759000Y83019000D03*
D72*
X51759000Y85319000D03*
X49960000Y85319000D03*
X49960000Y83019000D03*
%TD*%
D15*
%TO.C,C6*%
X80300000Y88980000D03*
X80300000Y88020000D03*
%TD*%
D19*
%TO.C,C7*%
X72980000Y90100000D03*
X72020000Y90100000D03*
%TD*%
D29*
%TO.C,C107*%
X71620000Y78100000D03*
X72580000Y78100000D03*
%TD*%
D19*
%TO.C,C135*%
X81780000Y79700000D03*
X80820000Y79700000D03*
%TD*%
D15*
%TO.C,C139*%
X76787500Y91580000D03*
X76787500Y90620000D03*
%TD*%
D19*
%TO.C,C149*%
X74980000Y90100000D03*
X74020000Y90100000D03*
%TD*%
%TO.C,C154*%
X74980000Y91100000D03*
X74020000Y91100000D03*
%TD*%
D15*
%TO.C,C162*%
X77700000Y91580000D03*
X77700000Y90620000D03*
%TD*%
D19*
%TO.C,C166*%
X83980000Y89300000D03*
X83020000Y89300000D03*
%TD*%
D15*
%TO.C,C168*%
X80100000Y92580000D03*
X80100000Y91620000D03*
%TD*%
%TO.C,C169*%
X80900000Y81780000D03*
X80900000Y80820000D03*
%TD*%
D19*
%TO.C,C170*%
X81730000Y83787500D03*
X80770000Y83787500D03*
%TD*%
%TO.C,C172*%
X76180000Y78100000D03*
X75220000Y78100000D03*
%TD*%
D15*
%TO.C,C173*%
X68700000Y81780000D03*
X68700000Y80820000D03*
%TD*%
D29*
%TO.C,C174*%
X66870000Y85187500D03*
X67830000Y85187500D03*
%TD*%
D73*
%TO.C,D15*%
X66851000Y110788500D03*
X66051000Y110788500D03*
X66451000Y109788500D03*
%TD*%
D20*
%TO.C,FB1*%
X74980000Y92100000D03*
X74020000Y92100000D03*
%TD*%
D17*
%TO.C,FB2*%
X78700000Y91580000D03*
X78700000Y90620000D03*
%TD*%
%TO.C,R3*%
X75900000Y93580000D03*
X75900000Y92620000D03*
%TD*%
D20*
%TO.C,R160*%
X67830000Y89587500D03*
X66870000Y89587500D03*
%TD*%
%TO.C,R192*%
X67830000Y87320834D03*
X66870000Y87320834D03*
%TD*%
D74*
%TO.C,Y1*%
X84201000Y92649000D03*
D75*
X81901000Y92649000D03*
X81901000Y90850000D03*
X84201000Y90850000D03*
%TD*%
D20*
%TO.C,R193*%
X67830000Y86187500D03*
X66870000Y86187500D03*
%TD*%
%TO.C,R191*%
X67830000Y88454167D03*
X66870000Y88454167D03*
%TD*%
D17*
%TO.C,R196*%
X74100000Y77180000D03*
X74100000Y76220000D03*
%TD*%
%TO.C,R195*%
X73100000Y77180000D03*
X73100000Y76220000D03*
%TD*%
D76*
%TO.C,U26*%
X75940000Y85460000D03*
X74490000Y85460000D03*
X73040000Y85460000D03*
X75940000Y84010000D03*
X74490000Y84010000D03*
X73040000Y84010000D03*
X75940000Y82560000D03*
X74490000Y82560000D03*
X73040000Y82560000D03*
D77*
X78240000Y88460000D03*
X77740000Y88460000D03*
X77240000Y88460000D03*
X76740000Y88460000D03*
X76240000Y88460000D03*
X75740000Y88460000D03*
X75240000Y88460000D03*
X74740000Y88460000D03*
X74240000Y88460000D03*
X73740000Y88460000D03*
X73240000Y88460000D03*
X72740000Y88460000D03*
X72240000Y88460000D03*
X71740000Y88460000D03*
X71240000Y88460000D03*
X70740000Y88460000D03*
D78*
X70040000Y87760000D03*
X70040000Y87260000D03*
X70040000Y86760000D03*
X70040000Y86260000D03*
X70040000Y85760000D03*
X70040000Y85260000D03*
X70040000Y84760000D03*
X70040000Y84260000D03*
X70040000Y83760000D03*
X70040000Y83260000D03*
X70040000Y82760000D03*
X70040000Y82260000D03*
X70040000Y81760000D03*
X70040000Y81260000D03*
X70040000Y80760000D03*
X70040000Y80260000D03*
D77*
X70740000Y79560000D03*
X71240000Y79560000D03*
X71740000Y79560000D03*
X72240000Y79560000D03*
X72740000Y79560000D03*
X73240000Y79560000D03*
X73740000Y79560000D03*
X74240000Y79560000D03*
X74740000Y79560000D03*
X75240000Y79560000D03*
X75740000Y79560000D03*
X76240000Y79560000D03*
X76740000Y79560000D03*
X77240000Y79560000D03*
X77740000Y79560000D03*
X78240000Y79560000D03*
D78*
X78940000Y80260000D03*
X78940000Y80760000D03*
X78940000Y81260000D03*
X78940000Y81760000D03*
X78940000Y82260000D03*
X78940000Y82760000D03*
X78940000Y83260000D03*
X78940000Y83760000D03*
X78940000Y84260000D03*
X78940000Y84760000D03*
X78940000Y85260000D03*
X78940000Y85760000D03*
X78940000Y86260000D03*
X78940000Y86760000D03*
X78940000Y87260000D03*
X78940000Y87760000D03*
%TD*%
D19*
%TO.C,C221*%
X32780000Y26400000D03*
X31820000Y26400000D03*
%TD*%
D79*
%TO.C,H1*%
X64170000Y99620000D03*
D80*
X64170000Y96220000D03*
D81*
X67570000Y99620000D03*
D82*
X67570000Y96220000D03*
%TD*%
D83*
%TO.C,R214*%
X71100000Y90390000D03*
X71100000Y91410000D03*
%TD*%
D84*
%TO.C,R207*%
X44300000Y73510000D03*
X44300000Y72490000D03*
%TD*%
D85*
%TO.C,R201*%
X35140000Y81050000D03*
X36160000Y81050000D03*
%TD*%
D84*
%TO.C,R209*%
X43300000Y73510000D03*
X43300000Y72490000D03*
%TD*%
%TO.C,R205*%
X39300000Y73510000D03*
X39300000Y72490000D03*
%TD*%
D86*
%TO.C,R210*%
X84210000Y84300000D03*
X83190000Y84300000D03*
%TD*%
D85*
%TO.C,R212*%
X85390000Y84300000D03*
X86410000Y84300000D03*
%TD*%
D79*
%TO.C,H2*%
X12020000Y68600000D03*
D80*
X12020000Y65200000D03*
D81*
X15420000Y68600000D03*
D82*
X15420000Y65200000D03*
%TD*%
D87*
%TO.C,U7*%
X32075000Y28925000D03*
X32075000Y29725000D03*
X32075000Y30525000D03*
X32075000Y33725000D03*
X32075000Y34525000D03*
X32075000Y35325000D03*
X32875000Y28925000D03*
X32875000Y29725000D03*
X32875000Y30525000D03*
X32875000Y33725000D03*
X32875000Y34525000D03*
X32875000Y35325000D03*
X33675000Y28925000D03*
X33675000Y29725000D03*
X33675000Y30525000D03*
X33675000Y33725000D03*
X33675000Y34525000D03*
X33675000Y35325000D03*
X34475000Y28925000D03*
X34475000Y29725000D03*
X34475000Y30525000D03*
X34475000Y33725000D03*
X34475000Y34525000D03*
X34475000Y35325000D03*
X35275000Y28925000D03*
X35275000Y29725000D03*
X35275000Y30525000D03*
X35275000Y33725000D03*
X35275000Y34525000D03*
X35275000Y35325000D03*
X36075000Y28925000D03*
X36075000Y29725000D03*
X36075000Y30525000D03*
X36075000Y33725000D03*
X36075000Y34525000D03*
X36075000Y35325000D03*
X36875000Y28925000D03*
X36875000Y29725000D03*
X36875000Y30525000D03*
X36875000Y33725000D03*
X36875000Y34525000D03*
X36875000Y35325000D03*
X37675000Y28925000D03*
X37675000Y29725000D03*
X37675000Y30525000D03*
X37675000Y33725000D03*
X37675000Y34525000D03*
X37675000Y35325000D03*
X38475000Y28925000D03*
X38475000Y29725000D03*
X38475000Y30525000D03*
X38475000Y33725000D03*
X38475000Y34525000D03*
X38475000Y35325000D03*
X39275000Y28925000D03*
X39275000Y29725000D03*
X39275000Y30525000D03*
X39275000Y33725000D03*
X39275000Y34525000D03*
X39275000Y35325000D03*
X40075000Y28925000D03*
X40075000Y29725000D03*
X40075000Y30525000D03*
X40075000Y33725000D03*
X40075000Y34525000D03*
X40075000Y35325000D03*
X40875000Y28925000D03*
X40875000Y29725000D03*
X40875000Y30525000D03*
X40875000Y33725000D03*
X40875000Y34525000D03*
X40875000Y35325000D03*
X41675000Y28925000D03*
X41675000Y29725000D03*
X41675000Y30525000D03*
X41675000Y33725000D03*
X41675000Y34525000D03*
X41675000Y35325000D03*
X42475000Y28925000D03*
X42475000Y29725000D03*
X42475000Y30525000D03*
X42475000Y33725000D03*
X42475000Y34525000D03*
X42475000Y35325000D03*
X43275000Y28925000D03*
X43275000Y29725000D03*
X43275000Y30525000D03*
X43275000Y33725000D03*
X43275000Y34525000D03*
X43275000Y35325000D03*
X44075000Y28925000D03*
X44075000Y29725000D03*
X44075000Y30525000D03*
X44075000Y33725000D03*
X44075000Y34525000D03*
X44075000Y35325000D03*
%TD*%
D85*
%TO.C,R203*%
X35140000Y79050000D03*
X36160000Y79050000D03*
%TD*%
D83*
%TO.C,R198*%
X39150000Y77050000D03*
X39150000Y78070000D03*
%TD*%
D19*
%TO.C,C258*%
X81780000Y78700000D03*
X80820000Y78700000D03*
%TD*%
D84*
%TO.C,R211*%
X86500000Y86810000D03*
X86500000Y85790000D03*
%TD*%
D15*
%TO.C,C256*%
X29500000Y35380000D03*
X29500000Y34420000D03*
%TD*%
D85*
%TO.C,R200*%
X35150000Y82050000D03*
X36170000Y82050000D03*
%TD*%
%TO.C,R199*%
X35150000Y83050000D03*
X36170000Y83050000D03*
%TD*%
%TO.C,R202*%
X35140000Y80050000D03*
X36160000Y80050000D03*
%TD*%
D83*
%TO.C,R213*%
X85500000Y88790000D03*
X85500000Y89810000D03*
%TD*%
D19*
%TO.C,C48*%
X32780000Y25400000D03*
X31820000Y25400000D03*
%TD*%
D84*
%TO.C,R204*%
X40300000Y73510000D03*
X40300000Y72490000D03*
%TD*%
D88*
%TO.C,U27*%
X82562500Y87650000D03*
X82562500Y86700000D03*
X82562500Y85750000D03*
X84837500Y85750000D03*
X84837500Y86700000D03*
X84837500Y87650000D03*
%TD*%
D84*
%TO.C,R206*%
X41300000Y73510000D03*
X41300000Y72490000D03*
%TD*%
%TO.C,R208*%
X42300000Y73510000D03*
X42300000Y72490000D03*
%TD*%
D15*
%TO.C,C261*%
X86500000Y88780000D03*
X86500000Y87820000D03*
%TD*%
M02*
