%TF.GenerationSoftware,KiCad,Pcbnew,10.0.0*%
%TF.CreationDate,2026-04-06T11:07:20+02:00*%
%TF.ProjectId,artix-dc-scm,61727469-782d-4646-932d-73636d2e6b69,1.1.3*%
%TF.SameCoordinates,PX3950da0PYaafe6a0*%
%TF.FileFunction,Copper,L3,Inr*%
%TF.FilePolarity,Positive*%
%FSLAX46Y46*%
G04 Gerber Fmt 4.6, Leading zero omitted, Abs format (unit mm)*
G04 Created by KiCad (PCBNEW 10.0.0) date 2026-04-06 11:07:20*
%MOMM*%
%LPD*%
G01*
G04 APERTURE LIST*
%TA.AperFunction,ComponentPad*%
%ADD10R,1.700000X1.700000*%
%TD*%
%TA.AperFunction,ComponentPad*%
%ADD11C,1.700000*%
%TD*%
%TA.AperFunction,ComponentPad*%
%ADD12C,1.800000*%
%TD*%
%TA.AperFunction,ComponentPad*%
%ADD13R,1.530000X1.530000*%
%TD*%
%TA.AperFunction,ComponentPad*%
%ADD14C,1.530000*%
%TD*%
%TA.AperFunction,ComponentPad*%
%ADD15C,1.725000*%
%TD*%
%TA.AperFunction,ComponentPad*%
%ADD16C,2.100000*%
%TD*%
%TA.AperFunction,ComponentPad*%
%ADD17C,1.900000*%
%TD*%
%TA.AperFunction,ComponentPad*%
%ADD18R,1.600000X1.600000*%
%TD*%
%TA.AperFunction,ComponentPad*%
%ADD19C,1.600000*%
%TD*%
%TA.AperFunction,ComponentPad*%
%ADD20C,5.500000*%
%TD*%
%TA.AperFunction,ComponentPad*%
%ADD21C,6.000000*%
%TD*%
%TA.AperFunction,ViaPad*%
%ADD22C,0.400000*%
%TD*%
%TA.AperFunction,ViaPad*%
%ADD23C,0.500000*%
%TD*%
%TA.AperFunction,Conductor*%
%ADD24C,0.153000*%
%TD*%
%TA.AperFunction,Conductor*%
%ADD25C,0.110000*%
%TD*%
%TA.AperFunction,Conductor*%
%ADD26C,0.200000*%
%TD*%
%TA.AperFunction,Conductor*%
%ADD27C,0.100000*%
%TD*%
%TA.AperFunction,Conductor*%
%ADD28C,0.150000*%
%TD*%
%TA.AperFunction,Conductor*%
%ADD29C,0.800000*%
%TD*%
%TA.AperFunction,Conductor*%
%ADD30C,0.600000*%
%TD*%
%TA.AperFunction,Conductor*%
%ADD31C,0.175000*%
%TD*%
G04 APERTURE END LIST*
D10*
%TO.N,VCC3V3*%
%TO.C,J13*%
X84465000Y72114000D03*
D11*
%TO.N,/FPGA banks 34-35 & CFG/MODE2*%
X84465000Y69575000D03*
%TO.N,GND*%
X84465000Y67036000D03*
%TD*%
D12*
%TO.N,SPI0_CS_N*%
%TO.C,J4*%
X5030000Y76250000D03*
%TO.N,SPI0_MOSI*%
X7569000Y76250000D03*
%TO.N,SPI0_MISO*%
X10108000Y76250000D03*
%TO.N,SPI0_CLK*%
X12648000Y76250000D03*
%TO.N,GND*%
X15189000Y76250000D03*
%TO.N,VCC3V3*%
X17728000Y76250000D03*
%TO.N,TPM_PIRQ#*%
X5030000Y78789000D03*
%TO.N,TPM_RST*%
X7569000Y78789000D03*
%TO.N,TPM_GPIO*%
X10108000Y78789000D03*
%TO.N,TPM_PP*%
X12648000Y78789000D03*
%TO.N,GND*%
X15189000Y78789000D03*
%TO.N,VCC3V3*%
X17728000Y78789000D03*
%TD*%
D13*
%TO.N,Net-(J1-TRCT3)*%
%TO.C,J1*%
X39495000Y98465000D03*
D14*
%TO.N,/Ethernet/ETH3_N*%
X41527000Y98465000D03*
%TO.N,/Ethernet/ETH3_P*%
X43559000Y98465000D03*
%TO.N,/Ethernet/ETH2_P*%
X45591000Y98465000D03*
%TO.N,/Ethernet/ETH2_N*%
X47623000Y98465000D03*
%TO.N,Net-(J1-TRCT2)*%
X49655000Y98465000D03*
%TO.N,Net-(J1-TRCT4)*%
X38480000Y95925000D03*
%TO.N,/Ethernet/ETH4_P*%
X40511000Y95925000D03*
%TO.N,/Ethernet/ETH4_N*%
X42543000Y95925000D03*
%TO.N,/Ethernet/ETH1_N*%
X46607000Y95925000D03*
%TO.N,/Ethernet/ETH1_P*%
X48639000Y95925000D03*
%TO.N,Net-(J1-TRCT1)*%
X50671000Y95925000D03*
D15*
%TO.N,Net-(J1-Pad13)*%
X37550000Y112435000D03*
%TO.N,VCC3V3*%
X37550000Y114973000D03*
%TO.N,Net-(J1-Pad15)*%
X51601000Y112435000D03*
%TO.N,VCC3V3*%
X51601000Y114973000D03*
D16*
%TO.N,GND*%
X52730000Y103793000D03*
X36422000Y105195000D03*
%TD*%
D17*
%TO.N,VCC3V3*%
%TO.C,J7*%
X5026000Y72625000D03*
%TO.N,SPI0_MOSI*%
X7565000Y72625000D03*
%TO.N,SPI0_MISO*%
X10104000Y72625000D03*
%TO.N,SPI0_CLK*%
X12644000Y72625000D03*
%TO.N,SPI0_CS_N*%
X15185000Y72625000D03*
%TO.N,GND*%
X17724000Y72625000D03*
%TD*%
D18*
%TO.N,GND*%
%TO.C,J6*%
X82525000Y110745000D03*
D19*
%TO.N,VCC3V3*%
X82525000Y108745000D03*
%TO.N,GND*%
X80525000Y110745000D03*
%TO.N,JTAG_TMS*%
X80525000Y108745000D03*
%TO.N,GND*%
X78525000Y110745000D03*
%TO.N,JTAG_TCK*%
X78525000Y108745000D03*
%TO.N,GND*%
X76525000Y110745000D03*
%TO.N,JTAG_TDO*%
X76525000Y108745000D03*
%TO.N,GND*%
X74525000Y110745000D03*
%TO.N,JTAG_TDI*%
X74525000Y108745000D03*
%TO.N,GND*%
X72525000Y110745000D03*
%TO.N,unconnected-(J6-Pad12)*%
X72525000Y108745000D03*
%TO.N,GND*%
X70525000Y110745000D03*
%TO.N,unconnected-(J6-Pad14)*%
X70525000Y108745000D03*
%TD*%
D20*
%TO.N,unconnected-(MP1-Pad1)*%
%TO.C,MP1*%
X5500000Y99195000D03*
%TD*%
%TO.N,unconnected-(MP2-Pad1)*%
%TO.C,MP2*%
X84500000Y99195000D03*
%TD*%
D21*
%TO.N,unconnected-(H1-Pad1)*%
%TO.C,H1*%
X65870000Y97920000D03*
%TD*%
%TO.N,unconnected-(H2-Pad1)*%
%TO.C,H2*%
X13720000Y66900000D03*
%TD*%
D22*
%TO.N,GND*%
X31500000Y101300000D03*
X27700000Y116600000D03*
D23*
X79700000Y52800000D03*
D22*
X37700000Y25700000D03*
X70100000Y15700000D03*
X76900000Y102700000D03*
X31500000Y101800000D03*
X50122500Y52677500D03*
X65900000Y85200000D03*
X46559937Y34635294D03*
X34000000Y87000000D03*
D23*
X79700000Y54800000D03*
D22*
X81900000Y93900000D03*
X56600000Y16400000D03*
X24200000Y79000000D03*
X34247500Y54717500D03*
D23*
X82600000Y59700000D03*
D22*
X39247500Y58717500D03*
X36247500Y53717500D03*
X45500000Y26212500D03*
X43122500Y55677500D03*
X23200000Y89400000D03*
X72090000Y3900000D03*
X30500000Y108200000D03*
X36900000Y35980000D03*
X10000000Y94500000D03*
X15100000Y117900000D03*
X33200000Y59650000D03*
X28200000Y87000000D03*
X77500000Y73600000D03*
X60000000Y45200000D03*
X36247500Y55717500D03*
X55300000Y77600000D03*
X44122500Y50677500D03*
X48900000Y80000000D03*
X27200000Y117100000D03*
X16600000Y5430000D03*
X68200000Y50600000D03*
X36247500Y56717500D03*
X75690000Y3900000D03*
X46122500Y56677500D03*
X40247500Y56717500D03*
X37247500Y56717500D03*
X19100000Y90500000D03*
X39247500Y52717500D03*
X35247500Y58717500D03*
X44122500Y56677500D03*
X57000000Y51400000D03*
X73100000Y82800000D03*
X27500000Y94400000D03*
X59120000Y110230000D03*
X15800000Y117900000D03*
X15600000Y5900000D03*
X68600000Y66100000D03*
X30000000Y55100000D03*
X75900000Y85300000D03*
X46000000Y16000000D03*
X16400000Y117900000D03*
X28200000Y87500000D03*
X39200000Y6700000D03*
X36250000Y62550000D03*
X35710000Y74450000D03*
X29500000Y37000000D03*
X13900000Y94800000D03*
X19000000Y11865000D03*
X41252000Y78602000D03*
D23*
X64900000Y119400000D03*
D22*
X33200000Y63650000D03*
X27700000Y87500000D03*
X32247500Y57717500D03*
X75200000Y83400000D03*
X71651000Y15700000D03*
X55300000Y79300000D03*
X64800000Y67112500D03*
X49090000Y66570000D03*
X44200000Y19530000D03*
X31500000Y100700000D03*
X36247500Y52717500D03*
X16900000Y117900000D03*
X51800000Y86600000D03*
X33247500Y55717500D03*
X68200000Y50100000D03*
X36500000Y89000000D03*
D23*
X64800000Y114200000D03*
D22*
X75200000Y82800000D03*
X23700000Y79000000D03*
X14100000Y9900000D03*
X9310000Y89880000D03*
X22500000Y12300000D03*
X37400000Y22100000D03*
X35247500Y52717500D03*
X8300000Y58500000D03*
X64750000Y5200000D03*
X33900000Y10400000D03*
X45790000Y24000000D03*
X21900000Y67600000D03*
X43090000Y64570000D03*
X70300000Y3800000D03*
X73151000Y15700000D03*
X75900000Y84600000D03*
D23*
X80558739Y56656757D03*
D22*
X57200000Y16300000D03*
X31000000Y108700000D03*
X42500000Y82700000D03*
X18515000Y11865000D03*
X73500000Y25350000D03*
X81300000Y38400000D03*
X44122500Y54677500D03*
X36250000Y60550000D03*
X23700000Y79500000D03*
D23*
X61400000Y115500000D03*
D22*
X75149000Y15849000D03*
X46090000Y65570000D03*
X30250000Y70550000D03*
X36800000Y20700000D03*
X28000000Y94900000D03*
X55300000Y78700000D03*
X36900000Y78500000D03*
X32000000Y6500000D03*
X73100000Y84600000D03*
D23*
X60300000Y62400000D03*
D22*
X65916000Y44716000D03*
X55300000Y78100000D03*
X75200000Y84600000D03*
X51150000Y60510000D03*
D23*
X75700000Y56800000D03*
D22*
X76900000Y105400000D03*
D23*
X77700000Y51800000D03*
D22*
X71500000Y77100000D03*
X85400000Y42300000D03*
X83100000Y66000000D03*
X40247500Y57717500D03*
X34250000Y68550000D03*
X32220000Y59650000D03*
X65300000Y51200000D03*
D23*
X74800000Y59700000D03*
D22*
X41600000Y6600000D03*
X33200000Y60600000D03*
X70000000Y51600000D03*
D23*
X60900000Y118100000D03*
D22*
X68500000Y3800000D03*
X73890000Y3800000D03*
X31868638Y38272462D03*
X34845000Y34087748D03*
X17990000Y4400000D03*
X73532843Y87600000D03*
X38800000Y21900000D03*
X39247500Y56717500D03*
X45122500Y55677500D03*
X33247500Y51717500D03*
X39200000Y25475000D03*
X5900000Y87400000D03*
X65800000Y62400000D03*
X47122500Y51677500D03*
X38247500Y55717500D03*
X75900000Y82800000D03*
X64500000Y68687500D03*
X47100000Y62580000D03*
X34600000Y18600000D03*
X39250000Y63550000D03*
D23*
X67400000Y119500000D03*
D22*
X8260000Y49140000D03*
X43122500Y56677500D03*
X31500000Y102300000D03*
X38250000Y60550000D03*
D23*
X69200000Y114200000D03*
D22*
X42122500Y57677500D03*
X7800000Y81800000D03*
X50600000Y91100000D03*
X75200000Y84000000D03*
X36200000Y20700000D03*
X37400000Y11100000D03*
X52300000Y57400000D03*
X50120000Y63500000D03*
X38250000Y66550000D03*
X81700000Y81700000D03*
X4100000Y85800000D03*
X44200000Y68700000D03*
X46122500Y58677500D03*
X27500000Y94900000D03*
X48122500Y58677500D03*
X46500000Y73700000D03*
X65800000Y68687500D03*
D23*
X71300000Y118200000D03*
D22*
X29900000Y60100000D03*
X10700000Y97400000D03*
X76300000Y77300000D03*
X42580000Y25760000D03*
X70300000Y64500000D03*
X73100000Y85300000D03*
X8270000Y39500000D03*
X37400000Y20900000D03*
X36300000Y86600000D03*
X40920000Y28370000D03*
X68600000Y15900000D03*
X75500000Y91500000D03*
X73100000Y84000000D03*
X18200000Y117900000D03*
X75200000Y85300000D03*
X62700000Y15800000D03*
X30000000Y57100000D03*
X40247500Y55717500D03*
X75900000Y83400000D03*
X8500000Y19500000D03*
X67100000Y108600000D03*
X63400000Y15800000D03*
X45122500Y57677500D03*
X44122500Y58677500D03*
D23*
X74600000Y51800000D03*
D22*
X57400000Y25950000D03*
X45090000Y60570000D03*
X85500000Y32900000D03*
X74500000Y84600000D03*
X34247500Y51717500D03*
X74500000Y85300000D03*
X8260000Y29797500D03*
D23*
X82700000Y52800000D03*
D22*
X40247500Y49717500D03*
X86500000Y89500000D03*
X4500000Y31700000D03*
X85300000Y90900000D03*
X47200000Y68700000D03*
X74500000Y83400000D03*
X14500000Y117900000D03*
X73800000Y84000000D03*
X36300000Y18100000D03*
X27700000Y87000000D03*
X23200000Y96600000D03*
X39247500Y54717500D03*
X12500000Y99000000D03*
X38247500Y57717500D03*
X38445147Y40850469D03*
X34600000Y14900000D03*
X32480000Y30970000D03*
X48600000Y82300000D03*
X81300000Y89100000D03*
X54600000Y7200000D03*
X32247500Y53717500D03*
X46800000Y89000000D03*
X74652000Y15848000D03*
X81700000Y77900000D03*
X40660000Y71580000D03*
X35250000Y65550000D03*
X37250000Y69550000D03*
X49200000Y6800000D03*
X4500000Y51100000D03*
X32987500Y24560500D03*
X35810000Y6550000D03*
X59140000Y102290000D03*
X42122500Y54677500D03*
X42000000Y18100000D03*
X80100000Y93700000D03*
X7900000Y19500000D03*
X44868835Y40125753D03*
X37247500Y58717500D03*
D23*
X75700000Y51800000D03*
D22*
X34870000Y29320000D03*
X73800000Y84600000D03*
X30500000Y108700000D03*
X71100000Y83700000D03*
X73800000Y82800000D03*
X84700000Y89300000D03*
X74500000Y82800000D03*
X30500000Y29112500D03*
X32250000Y60550000D03*
X76578184Y56783350D03*
D23*
X79700000Y56700000D03*
D22*
X57300000Y33500000D03*
X36247500Y57717500D03*
X52400000Y67100000D03*
X19800000Y6000000D03*
X27200000Y116600000D03*
X23700000Y78500000D03*
X42122500Y56677500D03*
X81500000Y86700000D03*
X33247500Y50717500D03*
X17900000Y11865000D03*
X56652000Y15852000D03*
X61100000Y15900000D03*
X43122500Y57677500D03*
X67100000Y15800000D03*
X48300000Y88400000D03*
X34574973Y36798187D03*
X31247500Y50717500D03*
X4600000Y60200000D03*
X31000000Y108200000D03*
X73800000Y83400000D03*
X42090000Y67570000D03*
X46122500Y54677500D03*
X44090000Y61570000D03*
D23*
X69800000Y47900000D03*
D22*
X49122500Y55677500D03*
X57600000Y15800000D03*
X21600000Y5900000D03*
X13900000Y117900000D03*
X34247500Y52717500D03*
X27700000Y117100000D03*
X76900000Y92500000D03*
X58950000Y106250000D03*
X74500000Y84000000D03*
X81700000Y83100000D03*
X82700000Y50800000D03*
X4500000Y41100000D03*
X63100000Y6250000D03*
D23*
X75700000Y52800000D03*
D22*
X39100000Y9100000D03*
X75900000Y84000000D03*
X51122500Y49677500D03*
X79700000Y50800000D03*
X36700000Y91800000D03*
X43122500Y53677500D03*
X49350000Y73567960D03*
X28000000Y94400000D03*
X29847488Y59052512D03*
X71900000Y87100000D03*
X73100000Y83400000D03*
X52200000Y7000000D03*
X40800000Y89700000D03*
X46800000Y24300000D03*
X22900000Y16600000D03*
X34247500Y58717500D03*
X51200000Y70900000D03*
X37745000Y23620000D03*
X73100000Y90900000D03*
X34247500Y56717500D03*
X65100000Y15800000D03*
X38090000Y29350000D03*
X32247500Y50717500D03*
X63900000Y51700000D03*
X24200000Y78500000D03*
X37400000Y21500000D03*
X73800000Y85300000D03*
X84232385Y75012500D03*
X42122500Y58677500D03*
X77200000Y15300000D03*
X24200000Y79500000D03*
X33300000Y15900000D03*
X37247500Y54717500D03*
X31150000Y67450000D03*
X36247500Y54717500D03*
X17600000Y117900000D03*
X80500000Y73600000D03*
X26797488Y65202512D03*
D23*
%TO.N,VCC3V3*%
X81700000Y51800000D03*
D22*
X67500000Y80900000D03*
D23*
X82900000Y56300000D03*
D22*
X29400000Y78000000D03*
X45600000Y90400000D03*
X53746697Y51691556D03*
X78700000Y92300000D03*
D23*
X76600000Y52900000D03*
D22*
X46500000Y19000000D03*
X19500000Y68100000D03*
D23*
X81700000Y52800000D03*
D22*
X83000000Y114200000D03*
X29400000Y79550000D03*
X35500000Y84000000D03*
X19300000Y81300000D03*
X63600000Y44700000D03*
X32400000Y69600000D03*
X50200000Y78700000D03*
X48150000Y64510000D03*
X18700000Y102300000D03*
X4430000Y34150000D03*
X45122500Y52677500D03*
X46500000Y81800000D03*
X46090000Y60570000D03*
X29400000Y79050000D03*
X39250000Y68550000D03*
X33250000Y66550000D03*
X42090000Y62570000D03*
D23*
X82600000Y51700000D03*
D22*
X19900000Y81800000D03*
X46122500Y49677500D03*
X56900000Y23200000D03*
X72400000Y23300000D03*
X37250000Y64550000D03*
X46200000Y79700000D03*
X50200000Y79300000D03*
X83610000Y56810000D03*
D23*
X75700000Y59800000D03*
D22*
X9200000Y92000000D03*
X61300000Y41800000D03*
X80700000Y83100000D03*
X9600000Y56000000D03*
X20500000Y81300000D03*
X8500000Y23500000D03*
X20500000Y81800000D03*
X32177575Y61619573D03*
X46485000Y74400000D03*
X77600000Y56700000D03*
X28600000Y76212653D03*
X48122500Y53677500D03*
X71400000Y23300000D03*
X29400000Y78550000D03*
X43800000Y78400000D03*
X81700000Y80900000D03*
X51200000Y55600000D03*
D23*
X69800000Y46800000D03*
D22*
X78500000Y73500000D03*
X28600000Y75700000D03*
D23*
X63600000Y61422500D03*
D22*
X29500000Y65124000D03*
X44090000Y66570000D03*
D23*
X81600000Y59700000D03*
D22*
X38250000Y61550000D03*
X79500000Y19700000D03*
X75000000Y23300000D03*
X49122500Y50677500D03*
X62800000Y71200000D03*
X30600000Y12550000D03*
X36250000Y67550000D03*
X4460000Y43760000D03*
X47090000Y67570000D03*
X29400000Y77000000D03*
X50200000Y80700000D03*
X68200000Y52500000D03*
X29400000Y77500000D03*
X71900000Y23300000D03*
X9135000Y94100000D03*
D23*
X63700000Y63700000D03*
D22*
X50200000Y81400000D03*
X10480000Y36280000D03*
X51090000Y65570000D03*
X50090000Y68570000D03*
X58100000Y42000000D03*
X78700000Y52800000D03*
X40250000Y65550000D03*
X69400000Y68900000D03*
X57901000Y23229000D03*
D23*
X74700000Y50800000D03*
D22*
X74300000Y23300000D03*
X7900000Y23500000D03*
X67700000Y84500000D03*
D23*
X79700000Y51800000D03*
D22*
X50122500Y57677500D03*
X84500000Y74000000D03*
D23*
X79700000Y55800000D03*
D22*
X4510000Y62770000D03*
X49155000Y61505000D03*
X75300000Y77300000D03*
D23*
X74300000Y56900000D03*
X71200000Y62600000D03*
X60400000Y63800000D03*
D22*
X85900000Y90700000D03*
X46500000Y20000000D03*
X37700000Y84400000D03*
X35250000Y60550000D03*
D23*
X66100000Y63800000D03*
D22*
X42150000Y68650000D03*
X14500000Y22100000D03*
X19300000Y81800000D03*
X73000000Y58900000D03*
D23*
X65600000Y47500000D03*
D22*
X86300000Y83500000D03*
D23*
X75700000Y50800000D03*
D22*
X45090000Y63570000D03*
X57400000Y23200000D03*
X74500000Y92900000D03*
X70900000Y23300000D03*
X50200000Y80000000D03*
X35247488Y71447488D03*
X68800000Y67100000D03*
X11800000Y91400000D03*
X23000000Y15937500D03*
X52224000Y62124000D03*
X62800000Y55100000D03*
X61780594Y25219406D03*
X44200000Y21600000D03*
X50200000Y82000000D03*
X19900000Y81300000D03*
X4450000Y53540000D03*
D23*
X77700000Y50800000D03*
D22*
X84700000Y88300000D03*
X71100000Y92300000D03*
X34250000Y63550000D03*
%TO.N,PCIE_HPM_RX[3]_N*%
X74161500Y12900000D03*
%TO.N,PCIE_HPM_RX[3]_P*%
X73641500Y12900000D03*
%TO.N,PCIE_HPM_RX[2]_N*%
X71161000Y13000000D03*
%TO.N,PCIE_HPM_RX[2]_P*%
X70641000Y13000000D03*
%TO.N,PCIE_HPM_RX[1]_N*%
X68160500Y12800000D03*
%TO.N,PCIE_HPM_RX[1]_P*%
X67640500Y12800000D03*
%TO.N,PCIE_HPM_RX[0]_N*%
X65160500Y13000000D03*
%TO.N,PCIE_HPM_RX[0]_P*%
X64640500Y13000000D03*
%TO.N,PRSNT1_N*%
X64700000Y18500000D03*
%TO.N,/DDR3/DDR3_VTT*%
X40900000Y25900000D03*
X38050000Y20370000D03*
X40400000Y17930000D03*
X44830000Y23970000D03*
%TO.N,VCC1V35*%
X19700000Y95500000D03*
X37247500Y53717500D03*
X20700000Y95500000D03*
X20700000Y96000000D03*
X29454381Y36287529D03*
X20200000Y95500000D03*
X30813656Y37165462D03*
X44787500Y38900000D03*
X41600000Y25900000D03*
X35000000Y25700000D03*
X35247500Y49717500D03*
X34080000Y29320000D03*
X42122500Y51677500D03*
X41400000Y25075000D03*
X35700000Y25700000D03*
X36500000Y33300000D03*
X36900000Y25700000D03*
X37589493Y35962500D03*
X37270000Y29320000D03*
X34400000Y25700000D03*
X33270000Y29330000D03*
X31170000Y45010000D03*
X38247500Y50717500D03*
X34400000Y36000000D03*
X36300000Y25700000D03*
X33900000Y25700000D03*
X38800000Y36827500D03*
X20200000Y96000000D03*
X32470000Y30120000D03*
X43700000Y25800000D03*
X39680000Y30130000D03*
X39300000Y20800000D03*
X19700000Y96000000D03*
%TO.N,Net-(C80-Pad2)*%
X24700000Y85100000D03*
X29900000Y84000000D03*
%TO.N,Net-(C79-Pad2)*%
X22412746Y77800000D03*
X30650000Y76500000D03*
%TO.N,VCC5V0*%
X22600000Y103500000D03*
X22900000Y74100000D03*
X21600000Y74500000D03*
X23400000Y87700000D03*
X69000000Y49900000D03*
X24100000Y103500000D03*
X22800000Y87700000D03*
X24100000Y103000000D03*
X22600000Y102500000D03*
X21600000Y102500000D03*
X22800000Y88200000D03*
X23400000Y88200000D03*
X23100000Y103500000D03*
X23400000Y80500000D03*
X23400000Y81000000D03*
X23900000Y95500000D03*
X22100000Y103000000D03*
X23100000Y103000000D03*
X22900000Y95500000D03*
X69700000Y65887500D03*
X24000000Y80500000D03*
X23600000Y103000000D03*
X22100000Y102500000D03*
X22100000Y103500000D03*
X24000000Y87700000D03*
X21600000Y103500000D03*
X21600000Y103000000D03*
X23600000Y103500000D03*
X22900000Y95000000D03*
X16050000Y111300000D03*
X22400000Y74074998D03*
X24100000Y102500000D03*
X22600000Y103000000D03*
X20700000Y91600000D03*
X22400000Y73600000D03*
X22800000Y81000000D03*
X23600000Y102500000D03*
X23400000Y95000000D03*
X23900000Y95000000D03*
X23400000Y95500000D03*
X22900000Y73600000D03*
X23100000Y102500000D03*
X24000000Y88200000D03*
X7900000Y88300000D03*
X22800000Y80500000D03*
X24000000Y81000000D03*
%TO.N,/Power supply/1V8_PG*%
X21773170Y82324121D03*
%TO.N,/FPGA banks 34-35 & CFG/MODE2*%
X47122500Y56677500D03*
%TO.N,/FPGA banks 34-35 & CFG/MODE0*%
X76700000Y71700000D03*
X47122500Y58677500D03*
%TO.N,/FPGA banks 34-35 & CFG/MODE1*%
X47122500Y57677500D03*
X81400000Y71700000D03*
%TO.N,PROGRAM*%
X43090000Y60570000D03*
X12975996Y60124004D03*
X17500000Y22200000D03*
X5700000Y85900000D03*
%TO.N,VCC1V0*%
X17400000Y96900000D03*
X35247500Y54717500D03*
X42122500Y55677500D03*
X43122500Y54677500D03*
X37247500Y55717500D03*
X32300000Y76100000D03*
X21200000Y98200000D03*
X44122500Y55677500D03*
X33199554Y54808000D03*
X35247500Y56717500D03*
X18500000Y97700000D03*
X40247500Y58717500D03*
X38247500Y56717500D03*
X32300000Y77600000D03*
X38247500Y58717500D03*
X34247500Y55717500D03*
X33247500Y57717500D03*
X18500000Y98200000D03*
X40247500Y54717500D03*
X32300000Y75600000D03*
X19500000Y98200000D03*
X43122500Y58677500D03*
X38247500Y54717500D03*
X45122500Y56677500D03*
X46122500Y57677500D03*
X37247500Y57717500D03*
X45122500Y54677500D03*
X16000000Y10500000D03*
X20600000Y98200000D03*
X46122500Y55677500D03*
X32300000Y77100000D03*
X32300000Y76600000D03*
X39247500Y55717500D03*
X20000000Y98200000D03*
X44122500Y57677500D03*
%TO.N,Net-(C81-Pad2)*%
X30400000Y98900000D03*
X24600000Y99900000D03*
%TO.N,1V0_PG*%
X26230000Y96030000D03*
X13300000Y11600000D03*
%TO.N,Net-(C82-Pad2)*%
X30400000Y91200000D03*
X25300000Y93200000D03*
%TO.N,/Power supply/1V35_PG*%
X26300000Y88600000D03*
%TO.N,/Power supply/5V0_PG*%
X10280000Y91020000D03*
X18480000Y111210000D03*
%TO.N,/Power supply/VCCIO_EN*%
X30000000Y74300000D03*
X31200000Y103400000D03*
X31100000Y88500000D03*
X8870000Y86030000D03*
%TO.N,/Power supply/VCCAUX_EN*%
X31200000Y81200000D03*
X9880000Y85970000D03*
%TO.N,/Power supply/VCCINT_EN*%
X31300000Y95900000D03*
X10840000Y86040000D03*
%TO.N,Net-(D9-C)*%
X9000000Y93400000D03*
%TO.N,Net-(D9-A)*%
X6670000Y91990000D03*
%TO.N,I3C[0]_SDA_3V3*%
X23400000Y70100000D03*
X16700000Y14000000D03*
%TO.N,I3C[0]_SCL_3V3*%
X15774004Y13974004D03*
X22600000Y70200000D03*
%TO.N,I3C[2]_SDA_3V3*%
X20100000Y13900000D03*
X26200000Y70000000D03*
%TO.N,I3C[2]_SCL_3V3*%
X19266408Y13897472D03*
X25700000Y70000000D03*
%TO.N,I3C[3]_SDA_3V3*%
X25000000Y67200000D03*
X22030000Y13800000D03*
%TO.N,I3C[3]_SCL_3V3*%
X27500000Y69700000D03*
X20750000Y13950000D03*
%TO.N,RSVD2*%
X50311906Y13878094D03*
X55400000Y18300000D03*
X52150000Y15550000D03*
X47480000Y13830000D03*
%TO.N,SGPIO0_CLK*%
X54500000Y19200000D03*
X47490000Y11400000D03*
%TO.N,DONE*%
X36200000Y58700000D03*
X9200000Y96970000D03*
%TO.N,INIT*%
X5700000Y93000000D03*
X18375002Y22325001D03*
X47090000Y60570000D03*
X16675996Y55624004D03*
%TO.N,Net-(D10-C)*%
X8120000Y96190000D03*
%TO.N,Net-(D10-A)*%
X6670000Y94110000D03*
%TO.N,/Ethernet/ETH_LED1*%
X35500000Y86600000D03*
%TO.N,/Ethernet/ETH_LED2*%
X37000000Y86600000D03*
%TO.N,/Ethernet/AVDDH*%
X39300000Y87300000D03*
X45100000Y87300000D03*
%TO.N,/Ethernet/AVDDL*%
X40700000Y87300000D03*
X43200000Y87300000D03*
%TO.N,VCC1V2*%
X46500000Y81300000D03*
X20900000Y105100000D03*
X34600000Y90400000D03*
X32200000Y56600000D03*
X19900000Y105100000D03*
X19400000Y105100000D03*
X41800000Y78550000D03*
X37800000Y83331626D03*
X32144458Y52700500D03*
X20400000Y104600000D03*
X7300000Y67600000D03*
X7850000Y67100000D03*
X37700000Y85300000D03*
D23*
X39400000Y80800000D03*
D22*
X19900000Y104600000D03*
X31247500Y58717500D03*
X32247500Y51717500D03*
X20400000Y105100000D03*
X20900000Y104600000D03*
D23*
X39650000Y78800000D03*
D22*
X7300000Y67050000D03*
X19400000Y104600000D03*
X31247500Y54717500D03*
%TO.N,RGMII_RXD3*%
X39900000Y77550000D03*
%TO.N,RGMII_RXD2*%
X40775000Y77800000D03*
%TO.N,RGMII_RXD1*%
X41900000Y77550000D03*
%TO.N,RGMII_RXD0*%
X42900000Y77550000D03*
%TO.N,RGMII_RX_DV*%
X43650000Y77550000D03*
%TO.N,RGMII_RX_CLK*%
X44900000Y77550000D03*
%TO.N,ETH_MDIO*%
X45725996Y77974004D03*
%TO.N,ETH_INT_N*%
X43090000Y68570000D03*
X43900000Y80800000D03*
%TO.N,RGMII_REF_CLK*%
X37250000Y67550000D03*
X46600000Y82300000D03*
X46600000Y78300000D03*
%TO.N,ETH_~{RESET}*%
X43090000Y66570000D03*
X48200000Y77600000D03*
%TO.N,/Ethernet/AVDDL_PLL*%
X46400000Y83800000D03*
%TO.N,SPI0_CS_N*%
X4700000Y68400000D03*
X11600000Y12100000D03*
%TO.N,SPI0_MOSI*%
X12100000Y11800000D03*
X4700000Y67600000D03*
%TO.N,SPI0_MISO*%
X4700000Y66900000D03*
X12800000Y12000000D03*
%TO.N,SPI0_CLK*%
X11100000Y11700000D03*
X4700000Y69200000D03*
%TO.N,TPM_PIRQ#*%
X17050000Y68550000D03*
X40250000Y64550000D03*
%TO.N,TPM_RST*%
X45090000Y67570000D03*
X17022488Y69250000D03*
%TO.N,TPM_GPIO*%
X50090000Y69570000D03*
X17050000Y69900000D03*
%TO.N,TPM_PP*%
X42090000Y65570000D03*
%TO.N,VCC1V8*%
X21300000Y87400000D03*
X32230000Y78110000D03*
X24620000Y16587500D03*
X45122500Y58677500D03*
X20800000Y87400000D03*
X32240000Y78640000D03*
X21300000Y87900000D03*
X31700000Y78620000D03*
X44090000Y60570000D03*
X21800000Y87400000D03*
X21300000Y88400000D03*
X23220000Y10690000D03*
X39247500Y57717500D03*
X20800000Y88400000D03*
X20800000Y87900000D03*
X21800000Y87900000D03*
X34250000Y60550000D03*
X42090000Y60570000D03*
X9800000Y81500000D03*
X39250000Y60550000D03*
X21800000Y88400000D03*
X31690000Y78120000D03*
X66600000Y25600000D03*
X37250000Y60550000D03*
%TO.N,USB1_D_P*%
X65525000Y4200000D03*
X68700000Y69200000D03*
%TO.N,USB1_D_N*%
X68700000Y69750000D03*
X66075000Y4200000D03*
%TO.N,ULPI1_CLKOUT*%
X49090000Y67570000D03*
X64200000Y71400000D03*
D23*
%TO.N,Net-(C20-Pad2)*%
X63900000Y64600000D03*
D22*
X63500000Y71300000D03*
%TO.N,Net-(U17-VDDA1.8)*%
X65400000Y64700000D03*
%TO.N,USB2_D_P*%
X63725000Y4100000D03*
X68433507Y53050000D03*
%TO.N,USB2_D_N*%
X68433507Y53600000D03*
X64275000Y4100000D03*
%TO.N,ULPI2_CLKOUT*%
X48122500Y51677500D03*
X64100000Y55100000D03*
%TO.N,Net-(C177-Pad2)*%
X63415166Y55115166D03*
X63700000Y48400000D03*
D23*
%TO.N,Net-(U18-VDDA1.8)*%
X65300000Y48200000D03*
D22*
%TO.N,QSPIA1_CS_N*%
X4600000Y29700000D03*
%TO.N,QSPIA1_D1*%
X5700000Y29700000D03*
%TO.N,QSPIA1_D2*%
X7100000Y29600000D03*
%TO.N,QSPIA1_D0*%
X8300000Y34200000D03*
X11440000Y22240000D03*
%TO.N,QSPIA_CLK*%
X7100000Y43800000D03*
X7000000Y34000000D03*
%TO.N,QSPIA1_D3*%
X5700000Y33500000D03*
%TO.N,Net-(J1-Pad13)*%
X33800000Y89500000D03*
%TO.N,Net-(J1-Pad15)*%
X35200000Y89500000D03*
%TO.N,I3C[1]_SCL_3V3*%
X17995297Y13904703D03*
X24100000Y70100000D03*
%TO.N,DDR3_DQ12*%
X30660000Y48420000D03*
X31620000Y33300000D03*
%TO.N,/Interfaces/PCIE_BMC_TX_C_N*%
X35580000Y18100000D03*
X30200000Y51700000D03*
%TO.N,PCIE_BMC_RX_N*%
X31150000Y55750000D03*
X38455000Y10200000D03*
%TO.N,NCSI_RXER*%
X26400000Y59800000D03*
X35900000Y11300000D03*
%TO.N,NCSI_TXD0*%
X35850000Y9550000D03*
X24400000Y59800000D03*
%TO.N,NCSI_CRS_DV*%
X35850000Y8050000D03*
X22400000Y59800000D03*
%TO.N,UART1_SCM_TX*%
X24100000Y65400000D03*
X16612496Y5929847D03*
%TO.N,UART0_SCM_TX*%
X26700000Y67200000D03*
X16600000Y7300000D03*
%TO.N,SGPIO1_DI*%
X48150000Y15800000D03*
X53449999Y20255026D03*
%TO.N,SGPIO1_DO*%
X48150000Y14940000D03*
X54100000Y19700000D03*
%TO.N,DDR3_DQ8*%
X31690000Y48420000D03*
X34080000Y33340000D03*
%TO.N,DDR3_DQ9*%
X33530000Y31090000D03*
X31247500Y49717500D03*
%TO.N,/Interfaces/PCIE_BMC_TX_C_P*%
X35020000Y18100000D03*
X31247500Y51717500D03*
%TO.N,PCIE_BMC_RX_P*%
X31200000Y56600000D03*
X37945000Y10200000D03*
%TO.N,NCSI_TXEN*%
X23400000Y59800000D03*
X35867500Y8800000D03*
%TO.N,VIRTUAL_RESEAT_R*%
X25800000Y65087500D03*
%TO.N,NCSI_CLK*%
X35830000Y7300000D03*
X21400000Y59800000D03*
%TO.N,DDR3_DQ15*%
X32247500Y49717500D03*
X31700000Y31000000D03*
%TO.N,ESPI_IO0*%
X28100000Y18400000D03*
X33172554Y61634347D03*
%TO.N,NCSI_TXD1*%
X25400000Y59800000D03*
X35900000Y10300000D03*
%TO.N,UART1_SCM_RX*%
X16635000Y6597500D03*
X25900000Y67200000D03*
%TO.N,I3C[1]_SDA_3V3*%
X25000000Y70100000D03*
X18650000Y13950000D03*
%TO.N,DDR3_DQS1_N*%
X32480000Y34120000D03*
X33380000Y48410000D03*
%TO.N,DDR3_DM1*%
X34250000Y31050000D03*
X33247500Y49717500D03*
%TO.N,NCSI_RXD1*%
X35863464Y13513464D03*
X28650000Y59800000D03*
X33250000Y62550000D03*
%TO.N,ESPI_ALERT_N*%
X25300000Y17500000D03*
X33250000Y64550000D03*
%TO.N,ESPI_CLK*%
X33250000Y65550000D03*
X25400000Y15800000D03*
%TO.N,UART0_SCM_RX*%
X28200000Y67700000D03*
X16600000Y7905000D03*
%TO.N,SPI0_CLK_R*%
X21600000Y70100000D03*
X9800000Y15300000D03*
%TO.N,SPI0_MISO_R*%
X12775996Y15275996D03*
X20800000Y70100000D03*
%TO.N,DDR3_DQS1_P*%
X33345000Y34065000D03*
X34100000Y48410000D03*
%TO.N,DDR3_DQ14*%
X32500000Y34910000D03*
X34247500Y49717500D03*
%TO.N,DDR3_DQ13*%
X31500000Y30100000D03*
X34247500Y50717500D03*
%TO.N,PCIE_BMC_CLK_100_N*%
X34247500Y53717500D03*
X34155000Y15400000D03*
%TO.N,ESPI_IO1*%
X28200000Y17400000D03*
X34250000Y61550000D03*
%TO.N,NCSI_RXD0*%
X35900000Y12300000D03*
X27650000Y59800000D03*
X34250000Y62550000D03*
%TO.N,ESPI_CS0_N*%
X25400000Y16550000D03*
X34250000Y64550000D03*
%TO.N,ESPI_IO2*%
X28377500Y15600000D03*
X34250000Y65550000D03*
%TO.N,SPI0_MOSI_R*%
X19900000Y70100000D03*
X11800000Y15300000D03*
%TO.N,SPI0_CS_N_R*%
X19200000Y70100000D03*
X10800000Y15300000D03*
%TO.N,DDR3_DQ10*%
X34080000Y34120000D03*
X35240000Y48580000D03*
%TO.N,DDR3_DQ11*%
X33300000Y30100000D03*
X35247500Y50717500D03*
%TO.N,PCIE_BMC_CLK_100_P*%
X33645000Y15400000D03*
X35247500Y53717500D03*
%TO.N,Net-(U14E-MGTRREF_216)*%
X35247500Y55717500D03*
%TO.N,ESPI_IO3*%
X35250000Y61550000D03*
X28300000Y16400000D03*
%TO.N,I2C[3]_SDA*%
X35250000Y66550000D03*
%TO.N,DDR3_DQ3*%
X36247500Y49717500D03*
X35690000Y34920000D03*
%TO.N,DDR3_DM0*%
X35250000Y33170000D03*
X36247500Y50717500D03*
%TO.N,ESPI_RESET_N*%
X36250000Y61550000D03*
X25307843Y18392157D03*
%TO.N,I2C[7]_SCL*%
X36250000Y63550000D03*
%TO.N,I2C[4]_SCL*%
X36250000Y65550000D03*
%TO.N,I2C[2]_SCL*%
X36250000Y66550000D03*
%TO.N,RGMII_TXD0*%
X34400000Y83050000D03*
X36250000Y68550000D03*
%TO.N,DDR3_DQ0*%
X37247500Y49717500D03*
X34930000Y30890000D03*
%TO.N,DDR3_DQ1*%
X35670000Y34120000D03*
X37247500Y50717500D03*
%TO.N,DDR3_DQ4*%
X37247500Y51717500D03*
X37620000Y31110000D03*
%TO.N,DDR3_DQ6*%
X36470000Y29320000D03*
X37247500Y52717500D03*
%TO.N,ESPI_CS1_N*%
X37250000Y61550000D03*
X30000000Y15780000D03*
%TO.N,I2C[2]_SDA*%
X37250000Y66550000D03*
%TO.N,RGMII_TXD1*%
X34400000Y82050000D03*
X37250000Y68550000D03*
%TO.N,RGMII_TXD2*%
X34400000Y81050000D03*
X37650000Y71050000D03*
%TO.N,DDR3_DQ5*%
X37270000Y34120000D03*
X38920000Y48540000D03*
%TO.N,DDR3_DQS0_N*%
X36470000Y30120000D03*
X38247500Y49717500D03*
%TO.N,DDR3_CAS*%
X38247500Y51717500D03*
X39300000Y31100000D03*
%TO.N,DDR3_DQ2*%
X35730000Y29380000D03*
X38247500Y52717500D03*
%TO.N,DDR3_BA0*%
X38247500Y53717500D03*
X40510000Y30100000D03*
%TO.N,I2C[7]_SDA*%
X38250000Y62550000D03*
%TO.N,I2C[4]_SDA*%
X38250000Y63550000D03*
%TO.N,I2C[3]_SCL*%
X38250000Y64550000D03*
%TO.N,RGMII_TX_CLK*%
X38150000Y67650000D03*
X35150000Y78300000D03*
%TO.N,RGMII_TXD3*%
X34400000Y79800000D03*
X37650000Y72050000D03*
%TO.N,RGMII_TX_DV*%
X38900000Y76300000D03*
X38650000Y70800000D03*
%TO.N,DDR3_DQ7*%
X39530000Y48530000D03*
X37300000Y33350000D03*
%TO.N,DDR3_DQS0_P*%
X36470000Y30940000D03*
X39247500Y49717500D03*
%TO.N,DDR3_WE*%
X39900000Y31050000D03*
X39247500Y50717500D03*
%TO.N,DDR3_RAS*%
X39247500Y51717500D03*
X38220000Y30940000D03*
%TO.N,DDR3_ODT*%
X39247500Y53717500D03*
X39150000Y28300000D03*
%TO.N,ROT_MISO*%
X39250000Y61550000D03*
X13277379Y62899464D03*
%TO.N,I2C[8]_SCL*%
X39250000Y62550000D03*
%TO.N,I2C[1]_SDA*%
X39250000Y64550000D03*
%TO.N,I2C[1]_SCL*%
X39250000Y65550000D03*
%TO.N,I2C[0]_SDA*%
X39250000Y66550000D03*
%TO.N,/FPGA banks 13-16/RGMII_CLK_FPGA*%
X44300000Y71800000D03*
X40100000Y67500000D03*
%TO.N,DDR3_A3*%
X40690000Y48460000D03*
X41300000Y30120000D03*
%TO.N,DDR3_A10*%
X40247500Y50717500D03*
X40330000Y33340000D03*
%TO.N,DDR3_BA2*%
X40247500Y51717500D03*
X40790000Y30980000D03*
%TO.N,DDR3_CKE*%
X40247500Y52717500D03*
X39230000Y35740000D03*
%TO.N,DDR3_A12*%
X41290000Y33340000D03*
X40247500Y53717500D03*
%TO.N,ROT_QSPI_SCK*%
X15000003Y19100000D03*
X40250000Y60550000D03*
%TO.N,I2C[8]_SDA*%
X40250000Y61550000D03*
%TO.N,I2C[6]_SDA*%
X40250000Y62550000D03*
%TO.N,I2C[6]_SCL*%
X40250000Y63550000D03*
%TO.N,I2C[0]_SCL*%
X40250000Y66550000D03*
%TO.N,/FPGA banks 13-16/RGMII_RXD0_FPGA*%
X40200000Y68600000D03*
X42300000Y71800000D03*
%TO.N,DDR3_BA1*%
X41260000Y48830000D03*
X41280000Y34910000D03*
%TO.N,DDR3_A0*%
X41750000Y31030000D03*
X42122500Y49677500D03*
%TO.N,DDR3_A2*%
X42475000Y31000000D03*
X42122500Y50677500D03*
%TO.N,DDR3_A1*%
X42122500Y52677500D03*
X42370000Y33290000D03*
%TO.N,DDR3_A9*%
X43275000Y31000000D03*
X42122500Y53677500D03*
%TO.N,ROT_SS*%
X12777377Y62900025D03*
X42090000Y61570000D03*
%TO.N,SGPIO_INTR_N*%
X53160000Y15550000D03*
X55947488Y18052512D03*
%TO.N,ROT_SCLK*%
X42090000Y64570000D03*
X15775996Y62924004D03*
%TO.N,DDR3_A4*%
X42830000Y34860000D03*
X43122500Y49677500D03*
%TO.N,DDR3_A6*%
X43122500Y50677500D03*
X43660000Y34150000D03*
%TO.N,DDR3_A14*%
X44580000Y33760000D03*
X43122500Y51677500D03*
%TO.N,DDR3_A7*%
X43122500Y52677500D03*
X43680000Y29330000D03*
%TO.N,I2C[12]_SCL*%
X74200000Y44700000D03*
X43090000Y61570000D03*
X59600000Y18000000D03*
X53370000Y9190000D03*
%TO.N,ROT_GPIO1*%
X43090000Y62570000D03*
X14277334Y62894927D03*
%TO.N,DDR3_CLK_N*%
X44000000Y48500000D03*
X39500000Y33300000D03*
%TO.N,DDR3_A8*%
X44122500Y49677500D03*
X44710000Y34550000D03*
%TO.N,DDR3_A11*%
X43570000Y33410000D03*
X44122500Y51677500D03*
%TO.N,DDR3_A13*%
X44490000Y30930000D03*
X44122500Y52677500D03*
%TO.N,DDR3_A5*%
X42790000Y29400000D03*
X44122500Y53677500D03*
%TO.N,I2C[9]_SCL*%
X56522216Y18027241D03*
X52150000Y14600000D03*
D23*
%TO.N,MMC_DAT0*%
X81700000Y54800000D03*
D22*
X44090000Y65570000D03*
%TO.N,DBG_UART_RX*%
X48900000Y76600000D03*
X57700000Y76600000D03*
X44100000Y67700000D03*
%TO.N,ROT_QSPI_DQ2*%
X16000009Y19100000D03*
X44090000Y69570000D03*
%TO.N,ROT_QSPI_DQ0*%
X44100000Y70600000D03*
X17000015Y19100000D03*
%TO.N,DDR3_CLK_P*%
X44550003Y48500000D03*
X38890000Y33320000D03*
%TO.N,QSPI1_D0*%
X58300000Y9400000D03*
X45122500Y50677500D03*
%TO.N,QSPI1_CLK*%
X45122500Y51677500D03*
X57400000Y8600000D03*
%TO.N,JTAG_TDI*%
X70000009Y25600000D03*
X45090000Y61570000D03*
X52230000Y11149082D03*
X66000000Y88400000D03*
X72200000Y97900000D03*
D23*
%TO.N,MMC_DAT7*%
X74700000Y54800000D03*
D22*
X45090000Y65570000D03*
D23*
%TO.N,MMC_DAT2*%
X80700000Y54800000D03*
D22*
X45090000Y66570000D03*
%TO.N,ROT_QSPI_DQ3*%
X15500006Y19100000D03*
X45090000Y69570000D03*
%TO.N,ROT_QSPI_DQ1*%
X16500012Y19100000D03*
X45150000Y70650000D03*
%TO.N,QSPI1_D2*%
X46122500Y50677500D03*
X58935000Y10474933D03*
%TO.N,QSPI1_D1*%
X58600000Y10000000D03*
X46122500Y51677500D03*
%TO.N,I2C[11]_SDA*%
X73500000Y44700000D03*
X46122500Y52677500D03*
X52230000Y8800000D03*
X59100000Y17900000D03*
%TO.N,I2C[11]_SCL*%
X52230000Y9780000D03*
X58554787Y17895263D03*
X46122500Y53677500D03*
X72900000Y44700000D03*
%TO.N,JTAG_TMS*%
X69000003Y25600000D03*
X65900000Y86200000D03*
X72300000Y95300000D03*
X53380000Y11840000D03*
X46090000Y61570000D03*
%TO.N,MMC_DAT6*%
X46090000Y66570000D03*
D23*
X74655019Y57410890D03*
D22*
%TO.N,Net-(U14A-IO_L6P_T0_FCS_B_14)*%
X18700000Y28700000D03*
X12200000Y62900000D03*
X46090000Y67570000D03*
%TO.N,DBG_UART_TX*%
X69300000Y74500000D03*
X45200000Y68600000D03*
%TO.N,I2C[12]_SDA*%
X50650000Y23600000D03*
X54400000Y8825000D03*
X60200000Y17900000D03*
%TO.N,I2C[5]_SCL*%
X50800000Y23100000D03*
X42650000Y14550000D03*
X48100000Y20800000D03*
X30800000Y12000000D03*
%TO.N,HPM_FW_RECOVERY_R*%
X47122500Y50677500D03*
%TO.N,HPM_STBY_RDY_R*%
X47122500Y52677500D03*
%TO.N,HPM_STBY_EN_R*%
X47122500Y53677500D03*
%TO.N,I2C[10]_SDA*%
X47122500Y54677500D03*
X53340000Y12950000D03*
X72349005Y44696901D03*
X58056643Y17938333D03*
%TO.N,Net-(U14D-CFGBVS_0)*%
X47122500Y55677500D03*
%TO.N,JTAG_TDO*%
X47200000Y61600000D03*
X72300000Y97000000D03*
X69500006Y25600000D03*
X65900000Y87300000D03*
X53393008Y10689408D03*
%TO.N,MMC_DAT5*%
X47090000Y65570000D03*
D23*
X75700000Y54800000D03*
D22*
%TO.N,MMC_DAT4*%
X47090000Y66570000D03*
D23*
X75604816Y57603569D03*
D22*
%TO.N,ROT_GPIO2*%
X46200000Y68600000D03*
X15277009Y62892148D03*
%TO.N,/FPGA banks 13-16/PUDC_B*%
X48300000Y74300000D03*
%TO.N,I2C[5]_SDA*%
X51353555Y22648957D03*
X48100000Y20000000D03*
X42650000Y13800000D03*
X31200000Y11500000D03*
%TO.N,HPM_STBY_RST_N_R*%
X48122500Y50677500D03*
%TO.N,SYS_PWRBTN_N_R*%
X48122500Y52677500D03*
%TO.N,RoT_CPU_RST_N_R*%
X48122500Y54677500D03*
%TO.N,I2C[10]_SCL*%
X71850000Y44728459D03*
X48122500Y55677500D03*
X57561513Y18009598D03*
X52060000Y13410000D03*
%TO.N,JTAG_TCK*%
X65900000Y89600000D03*
X48108496Y60551504D03*
X72300000Y96200000D03*
X68500000Y25600000D03*
X52078094Y12201906D03*
%TO.N,I2C[9]_SDA*%
X53190000Y14050000D03*
X57067490Y17932514D03*
D23*
%TO.N,MMC_DAT3*%
X80700000Y57800000D03*
D22*
X48090000Y66570000D03*
D23*
%TO.N,MMC_RSTN*%
X78800000Y57700000D03*
D22*
X48090000Y67570000D03*
%TO.N,SGPIO0_DO*%
X48150000Y19300000D03*
X51753987Y22294127D03*
%TO.N,SGPIO0_DI*%
X48150000Y18300000D03*
X52150000Y21910596D03*
%TO.N,SYS_PWROK_R*%
X49122500Y51677500D03*
%TO.N,DBP_PRDY_N_R*%
X49122500Y52677500D03*
%TO.N,RST_PLTRST_BUF_N_R*%
X49122500Y53677500D03*
%TO.N,SPARE0_R*%
X49122500Y54677500D03*
%TO.N,SGPIO_RESET_N*%
X53150000Y16800000D03*
X55000000Y18600000D03*
%TO.N,MMC_DAT1*%
X49090000Y65570000D03*
D23*
X82808254Y58614438D03*
D22*
%TO.N,ROT_MOSI*%
X49090000Y68570000D03*
X13777377Y62901649D03*
%TO.N,SGPIO0_LD*%
X52550000Y21588464D03*
X48150000Y17300000D03*
%TO.N,SGPIO1_LD*%
X48150000Y16550000D03*
X53100000Y20800000D03*
%TO.N,DBP_PREQ_N_R*%
X50122500Y50677500D03*
%TO.N,SPARE1_R*%
X50122500Y53677500D03*
%TO.N,CHASI#_R*%
X50122500Y54677500D03*
%TO.N,IRQ_N_R*%
X50122500Y55677500D03*
%TO.N,MMC_CLK*%
X50090000Y66570000D03*
D23*
X77100000Y61400000D03*
D22*
%TO.N,MMC_CMD*%
X50090000Y67570000D03*
D23*
X79200000Y60100000D03*
D22*
%TO.N,QSPIA2_CS_N*%
X4500000Y39200000D03*
%TO.N,QSPIA2_D1*%
X5700000Y39200000D03*
%TO.N,QSPIA2_D2*%
X7000000Y39300000D03*
%TO.N,QSPIA2_D0*%
X8300000Y43700000D03*
%TO.N,QSPIA2_D3*%
X5700000Y43800000D03*
%TO.N,Net-(D12-C)*%
X62600000Y108100000D03*
X80100000Y117435000D03*
%TO.N,Net-(D13-C)*%
X82035000Y117435000D03*
X62500000Y104200000D03*
%TO.N,Net-(D11-C)*%
X77900000Y117400000D03*
X63600000Y111200000D03*
%TO.N,QSPIB2_CS_N*%
X4500000Y58300000D03*
%TO.N,QSPIB2_D1*%
X5800000Y58400000D03*
%TO.N,QSPIB2_D2*%
X7000000Y58400000D03*
%TO.N,QSPIB2_D0*%
X8300000Y62900000D03*
%TO.N,QSPIB_CLK*%
X7000000Y62800000D03*
X7100000Y53400000D03*
%TO.N,QSPIB2_D3*%
X5800000Y62900000D03*
%TO.N,QSPIB1_CS_N*%
X4500000Y48900000D03*
%TO.N,QSPIB1_D1*%
X5800000Y48800000D03*
%TO.N,QSPIB1_D2*%
X7100000Y48900000D03*
%TO.N,QSPIB1_D0*%
X8300000Y53500000D03*
%TO.N,QSPIB1_D3*%
X5800000Y53400000D03*
%TO.N,Net-(D14-C)*%
X16360000Y90510000D03*
X27400000Y100300000D03*
D23*
%TO.N,Net-(U1-VDDIM)*%
X79700000Y49800000D03*
%TO.N,Net-(U1-DS)*%
X84500000Y63700000D03*
X78800000Y54800000D03*
%TO.N,Net-(U1-CLK)*%
X78200000Y59900000D03*
D22*
%TO.N,Net-(D4-C)*%
X19800000Y97200000D03*
X17290000Y87370000D03*
%TO.N,Net-(D5-C)*%
X17500000Y89600000D03*
%TO.N,Net-(D6-C)*%
X17300000Y83340000D03*
%TO.N,Net-(D7-C)*%
X18700000Y89700000D03*
%TO.N,Net-(D8-C)*%
X17360000Y81310000D03*
%TO.N,Net-(C101-Pad2)*%
X24570000Y107320000D03*
X30410000Y106150000D03*
%TO.N,/Power supply/1V2_PG*%
X26050000Y103230000D03*
X28630000Y103000000D03*
%TO.N,Net-(D3-C)*%
X22480000Y112910000D03*
X16350000Y112920000D03*
%TO.N,Net-(U25-FB)*%
X16880000Y116460000D03*
X19540000Y108470000D03*
X13920000Y116460000D03*
D23*
%TO.N,P12V_AUX*%
X13850000Y4400000D03*
X14950000Y4400000D03*
X14950000Y5000000D03*
X15000000Y3700000D03*
D22*
X32000000Y109800000D03*
X32700000Y114400000D03*
X33400000Y115000000D03*
D23*
X13850000Y5600000D03*
D22*
X33400000Y109800000D03*
X33400000Y114400000D03*
D23*
X13850000Y3800000D03*
X14950000Y5600000D03*
D22*
X32700000Y115000000D03*
X32000000Y114400000D03*
D23*
X14400000Y4400000D03*
D22*
X32000000Y113900000D03*
X32000000Y113300000D03*
D23*
X14400000Y5000000D03*
D22*
X33400000Y108700000D03*
X33400000Y110400000D03*
X32700000Y109300000D03*
X32700000Y109800000D03*
D23*
X13850000Y5000000D03*
D22*
X32700000Y110400000D03*
X33400000Y113900000D03*
D23*
X14400000Y3700000D03*
D22*
X32700000Y108700000D03*
D23*
X14900000Y6300000D03*
D22*
X32000000Y109300000D03*
X32000000Y108700000D03*
X32000000Y115000000D03*
X32700000Y113900000D03*
X32700000Y113300000D03*
X33400000Y109300000D03*
D23*
X14400000Y5600000D03*
X14350000Y6300000D03*
D22*
X33400000Y113300000D03*
X32000000Y110400000D03*
D23*
X13800000Y6300000D03*
D22*
%TO.N,/Interfaces/DBG_USB_D_N*%
X66675000Y111550000D03*
X66675000Y114300000D03*
X75400000Y89300000D03*
%TO.N,/Interfaces/DBG_USB_D_P*%
X66125000Y114300000D03*
X66125000Y111550000D03*
X74650000Y89300000D03*
%TO.N,QSPI0_CS1_N*%
X9500000Y23500000D03*
X54700000Y8000000D03*
%TO.N,QSPI0_CLK*%
X32000000Y7300000D03*
X12000000Y19100000D03*
%TO.N,QSPI0_CS0_N*%
X32000000Y8000000D03*
X12500000Y19100000D03*
%TO.N,QSPI0_D0*%
X13000029Y19094414D03*
X31900000Y8700000D03*
%TO.N,QSPI0_D1*%
X32000000Y9500000D03*
X13500000Y19100000D03*
%TO.N,QSPI0_D2*%
X14000000Y19100000D03*
X31978732Y10114926D03*
%TO.N,QSPI0_D3*%
X14500000Y19100000D03*
X32000000Y10800000D03*
%TO.N,3V0_BAT*%
X53860000Y8130000D03*
X80260000Y36080000D03*
%TO.N,I3C[0]_SCL*%
X17000000Y9900000D03*
%TO.N,I3C[0]_SDA*%
X17628025Y9897072D03*
%TO.N,I3C[1]_SCL*%
X18200000Y9800000D03*
%TO.N,I3C[1]_SDA*%
X18800000Y9900000D03*
%TO.N,I3C[2]_SCL*%
X19300000Y9900000D03*
%TO.N,I3C[2]_SDA*%
X19800000Y9700000D03*
%TO.N,I3C[3]_SCL*%
X20300000Y9900000D03*
%TO.N,I3C[3]_SDA*%
X21700000Y11600000D03*
%TO.N,DDR3_CS*%
X39670000Y29330000D03*
%TO.N,Net-(U27-DO)*%
X83900000Y85100000D03*
X83700000Y87900000D03*
%TD*%
%TO.N,PCIE_BMC_CLK_100_N*%
D24*
X34247500Y53717500D02*
X34006919Y53717500D01*
X34006919Y53717500D02*
X33357919Y53068500D01*
X33357919Y53068500D02*
X32308910Y53068500D01*
X32308910Y53068500D02*
X32300410Y53077000D01*
X32300410Y53077000D02*
X31988506Y53077000D01*
X31980006Y53068500D02*
X31835530Y53068500D01*
X31835530Y53068500D02*
X31235530Y53668500D01*
X31988506Y53077000D02*
X31980006Y53068500D01*
X31235530Y53668500D02*
X30268834Y53668500D01*
%TO.N,PCIE_BMC_CLK_100_P*%
X32417820Y53331500D02*
X33248979Y53331500D01*
X32409340Y53339980D02*
X32417820Y53331500D01*
X31935990Y53339980D02*
X32409340Y53339980D01*
X33645000Y15400000D02*
X33768499Y15523499D01*
X33248979Y53331500D02*
X34011479Y54094000D01*
X25645530Y53931500D02*
X31344470Y53931500D01*
X21937000Y27091060D02*
X21937000Y50222970D01*
X25291060Y23737000D02*
X21937000Y27091060D01*
X32463000Y23737000D02*
X25291060Y23737000D01*
X34871000Y54094000D02*
X35247500Y53717500D01*
X33768499Y22431501D02*
X32463000Y23737000D01*
X31344470Y53931500D02*
X31935990Y53339980D01*
X33768499Y15523499D02*
X33768499Y22431501D01*
X21937000Y50222970D02*
X25645530Y53931500D01*
X34011479Y54094000D02*
X34871000Y54094000D01*
%TO.N,PCIE_BMC_CLK_100_N*%
X28468834Y53668500D02*
X28268834Y53668500D01*
X28118834Y53518500D02*
G75*
G02*
X27968834Y53368466I-150034J0D01*
G01*
X28618834Y53518500D02*
G75*
G03*
X28468834Y53668534I-150034J0D01*
G01*
X27768834Y53368500D02*
G75*
G02*
X27618800Y53518500I-34J150000D01*
G01*
X28268834Y53668500D02*
G75*
G03*
X28118800Y53518500I-34J-150000D01*
G01*
X26768834Y53368500D02*
G75*
G02*
X26618800Y53518500I-34J150000D01*
G01*
X22200000Y50114030D02*
X22200000Y27200000D01*
X25400000Y24000000D02*
X32600000Y24000000D01*
X29968834Y53368500D02*
X29768834Y53368500D01*
X27618834Y53518500D02*
G75*
G03*
X27468834Y53668534I-150034J0D01*
G01*
X26468834Y53668500D02*
X26268834Y53668500D01*
X27268834Y53668500D02*
G75*
G03*
X27118800Y53518500I-34J-150000D01*
G01*
X26218100Y53668500D02*
X25754470Y53668500D01*
X25754470Y53668500D02*
X22200000Y50114030D01*
X27118834Y53518500D02*
G75*
G02*
X26968834Y53368466I-150034J0D01*
G01*
X30268834Y53668500D02*
G75*
G03*
X30118800Y53518500I-34J-150000D01*
G01*
X26618834Y53518500D02*
G75*
G03*
X26468834Y53668534I-150034J0D01*
G01*
X27468834Y53668500D02*
X27268834Y53668500D01*
X27968834Y53368500D02*
X27768834Y53368500D01*
X28968834Y53368500D02*
X28768834Y53368500D01*
X26968834Y53368500D02*
X26768834Y53368500D01*
X30118834Y53518500D02*
G75*
G02*
X29968834Y53368466I-150034J0D01*
G01*
X29768834Y53368500D02*
G75*
G02*
X29618800Y53518500I-34J150000D01*
G01*
X29618834Y53518500D02*
G75*
G03*
X29468834Y53668534I-150034J0D01*
G01*
X26268834Y53668500D02*
X26218100Y53668500D01*
X29268834Y53668500D02*
G75*
G03*
X29118800Y53518500I-34J-150000D01*
G01*
X29118834Y53518500D02*
G75*
G02*
X28968834Y53368466I-150034J0D01*
G01*
X29468834Y53668500D02*
X29268834Y53668500D01*
X28768834Y53368500D02*
G75*
G02*
X28618800Y53518500I-34J150000D01*
G01*
X22200000Y27200000D02*
X25400000Y24000000D01*
X32600000Y24000000D02*
X34031501Y22568499D01*
X34031501Y22568499D02*
X34031501Y15523499D01*
X34031501Y15523499D02*
X34155000Y15400000D01*
%TO.N,USB2_D_P*%
D25*
X70585000Y53215000D02*
X70890000Y52910000D01*
%TO.N,USB2_D_N*%
X70676126Y53435000D02*
X71110000Y53001126D01*
%TO.N,USB1_D_P*%
X70479436Y69365000D02*
X70479436Y69364998D01*
X70479436Y69364998D02*
X71690000Y68154434D01*
%TO.N,USB1_D_N*%
X70570564Y69585000D02*
X70570564Y69584996D01*
X70570564Y69584996D02*
X71910000Y68245560D01*
%TO.N,USB2_D_P*%
X63890000Y39901126D02*
X70890000Y46901126D01*
%TO.N,USB2_D_N*%
X64110000Y39810000D02*
X71110000Y46810000D01*
%TO.N,USB1_D_P*%
X65690000Y39490000D02*
X71690000Y45490000D01*
%TO.N,USB1_D_N*%
X65910000Y39398874D02*
X71910000Y45398874D01*
%TO.N,VCC3V3*%
D26*
X29500000Y65124000D02*
X31824000Y65124000D01*
X31824000Y65124000D02*
X33250000Y66550000D01*
%TO.N,VCC5V0*%
X67600000Y54900000D02*
X70400000Y57700000D01*
X70400000Y57700000D02*
X70400000Y63500000D01*
X69000000Y49900000D02*
X69000000Y50700000D01*
X69000000Y50700000D02*
X67600000Y52100000D01*
X69700000Y64200000D02*
X69700000Y65887500D01*
X70400000Y63500000D02*
X69700000Y64200000D01*
X67600000Y52100000D02*
X67600000Y54900000D01*
%TO.N,PROGRAM*%
D27*
X42720000Y60200000D02*
X30500000Y60200000D01*
X43090000Y60570000D02*
X42720000Y60200000D01*
X30500000Y60200000D02*
X29100000Y58800000D01*
X29100000Y58800000D02*
X18100000Y58800000D01*
X16775996Y60124004D02*
X12975996Y60124004D01*
X18100000Y58800000D02*
X16775996Y60124004D01*
%TO.N,VCC1V0*%
D26*
X6600000Y21600000D02*
X3800000Y24400000D01*
D28*
X16000000Y11200000D02*
X13450000Y13750000D01*
D26*
X6844314Y95790000D02*
X6817157Y95817157D01*
X3600000Y73900000D02*
X3600000Y92600000D01*
D28*
X13450000Y13750000D02*
X9250000Y13750000D01*
D26*
X16290000Y95790000D02*
X17400000Y96900000D01*
X16290000Y95790000D02*
X6844314Y95790000D01*
X3600000Y92600000D02*
X6817157Y95817157D01*
X3800000Y24400000D02*
X3800000Y73700000D01*
X3800000Y73700000D02*
X3600000Y73900000D01*
D28*
X16000000Y10500000D02*
X16000000Y11200000D01*
D26*
X6600000Y16400000D02*
X6600000Y21600000D01*
X9250000Y13750000D02*
X6600000Y16400000D01*
%TO.N,RSVD2*%
D27*
X53300000Y15900000D02*
X52500000Y15900000D01*
X55400000Y18000000D02*
X53300000Y15900000D01*
X52500000Y15900000D02*
X52150000Y15550000D01*
X55400000Y18300000D02*
X55400000Y18000000D01*
%TO.N,SGPIO0_CLK*%
X47490000Y12190000D02*
X54500000Y19200000D01*
X47490000Y11400000D02*
X47490000Y12190000D01*
%TO.N,INIT*%
X16675996Y55627988D02*
X19648008Y58600000D01*
X45100000Y60000000D02*
X45400000Y59700000D01*
X30200000Y58600000D02*
X31600000Y60000000D01*
X46220000Y59700000D02*
X47090000Y60570000D01*
X45400000Y59700000D02*
X46220000Y59700000D01*
X19648008Y58600000D02*
X30200000Y58600000D01*
X31600000Y60000000D02*
X45100000Y60000000D01*
X16675996Y55624004D02*
X16675996Y55627988D01*
%TO.N,VCC1V2*%
D29*
X7850000Y67100000D02*
X7850000Y66500000D01*
X7800000Y67100000D02*
X7300000Y67600000D01*
X20600000Y57800000D02*
X17500000Y54700000D01*
D30*
X31247500Y58247500D02*
X30800000Y57800000D01*
D29*
X32200000Y55200000D02*
X32200000Y56600000D01*
X7300000Y67600000D02*
X7300000Y67050000D01*
X7800000Y67050000D02*
X7850000Y67100000D01*
X31000000Y57800000D02*
X20600000Y57800000D01*
X9100000Y65250000D02*
X9100000Y60850000D01*
X7300000Y67050000D02*
X7800000Y67050000D01*
X17500000Y54700000D02*
X15250000Y54700000D01*
X31247500Y58717500D02*
X31247500Y57552500D01*
X31247500Y54717500D02*
X31717500Y54717500D01*
X7850000Y66500000D02*
X7300000Y67050000D01*
X32200000Y56600000D02*
X31000000Y57800000D01*
X31247500Y57552500D02*
X32200000Y56600000D01*
X9100000Y65250000D02*
X7850000Y66500000D01*
X15250000Y54700000D02*
X9100000Y60850000D01*
X31717500Y54717500D02*
X32200000Y55200000D01*
D30*
X31247500Y58717500D02*
X31247500Y58247500D01*
D29*
X7850000Y67100000D02*
X7800000Y67100000D01*
%TO.N,ETH_INT_N*%
D27*
X44100000Y80800828D02*
X44100000Y81900000D01*
X43900000Y80800000D02*
X44099172Y80800000D01*
X47200000Y78000000D02*
X46135000Y76935000D01*
X44100000Y81900000D02*
X44865000Y82665000D01*
X47200000Y82216188D02*
X47200000Y78000000D01*
X44865000Y82665000D02*
X46751188Y82665000D01*
X46751188Y82665000D02*
X47200000Y82216188D01*
X46135000Y73118812D02*
X44386188Y71370000D01*
X44386188Y71370000D02*
X43710000Y71370000D01*
X46135000Y76935000D02*
X46135000Y73118812D01*
X44099172Y80800000D02*
X44100000Y80800828D01*
X43090000Y70750000D02*
X43090000Y68570000D01*
X43710000Y71370000D02*
X43090000Y70750000D01*
%TO.N,RGMII_REF_CLK*%
D31*
X37250000Y67550000D02*
X37550000Y67250000D01*
X38800000Y67551992D02*
X38800000Y70300000D01*
X46200000Y82300000D02*
X46600000Y82300000D01*
X42200000Y73900000D02*
X46600000Y78300000D01*
X46600000Y78300000D02*
X45600000Y79300000D01*
X37550000Y67250000D02*
X38498008Y67250000D01*
X38498008Y67250000D02*
X38800000Y67551992D01*
X45600000Y81700000D02*
X46200000Y82300000D01*
X45600000Y79300000D02*
X45600000Y81700000D01*
X42200000Y73700000D02*
X42200000Y73900000D01*
X38800000Y70300000D02*
X42200000Y73700000D01*
%TO.N,ETH_~{RESET}*%
D27*
X43090000Y66570000D02*
X43470000Y66950000D01*
X46870000Y76670000D02*
X47800000Y77600000D01*
X46870000Y73430000D02*
X46870000Y76670000D01*
X43870000Y71130000D02*
X44570000Y71130000D01*
X47800000Y77600000D02*
X48200000Y77600000D01*
X43470000Y70730000D02*
X43870000Y71130000D01*
X43470000Y66950000D02*
X43470000Y70730000D01*
X44570000Y71130000D02*
X46870000Y73430000D01*
%TO.N,SPI0_CS_N*%
X6880000Y74400000D02*
X5030000Y76250000D01*
X15185000Y72625000D02*
X13410000Y74400000D01*
X13410000Y74400000D02*
X6880000Y74400000D01*
%TO.N,TPM_PIRQ#*%
X17000000Y68700000D02*
X19200000Y70900000D01*
X33700000Y65605025D02*
X35105025Y64200000D01*
X33700000Y70300000D02*
X33700000Y65605025D01*
X39900000Y64200000D02*
X40250000Y64550000D01*
X17000000Y68600000D02*
X17000000Y68700000D01*
X35105025Y64200000D02*
X39900000Y64200000D01*
X33100000Y70900000D02*
X33700000Y70300000D01*
X19200000Y70900000D02*
X33100000Y70900000D01*
X17050000Y68550000D02*
X17000000Y68600000D01*
%TO.N,TPM_RST*%
X34600000Y69800000D02*
X34600000Y65705025D01*
X45090000Y67075025D02*
X45090000Y67570000D01*
X43014975Y65000000D02*
X45090000Y67075025D01*
X19000000Y71100000D02*
X33300000Y71100000D01*
X17150000Y69250000D02*
X19000000Y71100000D01*
X35305025Y65000000D02*
X43014975Y65000000D01*
X33300000Y71100000D02*
X34600000Y69800000D01*
X34600000Y65705025D02*
X35305025Y65000000D01*
X17022488Y69250000D02*
X17150000Y69250000D01*
%TO.N,TPM_GPIO*%
X17050000Y69900000D02*
X18450001Y71300001D01*
X43700000Y66674975D02*
X44500000Y67474975D01*
X33799999Y71300001D02*
X34900000Y70200000D01*
X36105025Y65200000D02*
X42400000Y65200000D01*
X44500000Y68500000D02*
X45100000Y69100000D01*
X46670000Y69570000D02*
X50090000Y69570000D01*
X44500000Y67474975D02*
X44500000Y68500000D01*
X42400000Y65200000D02*
X43700000Y66500000D01*
X46200000Y69100000D02*
X46670000Y69570000D01*
X43700000Y66500000D02*
X43700000Y66674975D01*
X29400000Y71300000D02*
X33799999Y71300001D01*
X34900000Y70200000D02*
X34900000Y66405025D01*
X18450001Y71300001D02*
X29400000Y71300000D01*
X34900000Y66405025D02*
X36105025Y65200000D01*
X45100000Y69100000D02*
X46200000Y69100000D01*
%TO.N,TPM_PP*%
X36200000Y66100000D02*
X41560000Y66100000D01*
X19950000Y78800000D02*
X19950000Y73250000D01*
X21700000Y71500000D02*
X34700000Y71500000D01*
X35700000Y66600000D02*
X36200000Y66100000D01*
X12648000Y78789000D02*
X13759000Y79900000D01*
X35700000Y70500000D02*
X35700000Y66600000D01*
X41560000Y66100000D02*
X42090000Y65570000D01*
X13759000Y79900000D02*
X18850000Y79900000D01*
X19950000Y73250000D02*
X21700000Y71500000D01*
X18850000Y79900000D02*
X19950000Y78800000D01*
X34700000Y71500000D02*
X35700000Y70500000D01*
%TO.N,VCC1V8*%
D26*
X9800000Y81500000D02*
X15400000Y81500000D01*
X20800000Y84800000D02*
X20800000Y87400000D01*
X18300000Y82300000D02*
X20800000Y84800000D01*
X15400000Y81500000D02*
X16200000Y82300000D01*
X16200000Y82300000D02*
X18300000Y82300000D01*
%TO.N,USB1_D_P*%
D25*
X65690000Y39490000D02*
X65690000Y4365000D01*
X65690000Y4365000D02*
X65525000Y4200000D01*
X71690000Y68154434D02*
X71690000Y45490000D01*
X68700000Y69200000D02*
X68865000Y69365000D01*
X68865000Y69365000D02*
X70479436Y69365000D01*
%TO.N,USB1_D_N*%
X65910000Y39398874D02*
X65910000Y4365000D01*
X68865000Y69585000D02*
X70570564Y69585000D01*
X71910000Y68245560D02*
X71910000Y45398874D01*
X68700000Y69750000D02*
X68865000Y69585000D01*
X65910000Y4365000D02*
X66075000Y4200000D01*
%TO.N,USB2_D_P*%
X63890000Y4265000D02*
X63725000Y4100000D01*
X68598507Y53215000D02*
X70585000Y53215000D01*
X70890000Y52910000D02*
X70890000Y46901126D01*
X63890000Y39901126D02*
X63890000Y4265000D01*
X68433507Y53050000D02*
X68598507Y53215000D01*
%TO.N,USB2_D_N*%
X64110000Y4265000D02*
X64275000Y4100000D01*
X68598507Y53435000D02*
X70676126Y53435000D01*
X68433507Y53600000D02*
X68598507Y53435000D01*
X71110000Y53001126D02*
X71110000Y46810000D01*
X64110000Y39810000D02*
X64110000Y4265000D01*
%TO.N,Net-(C177-Pad2)*%
D27*
X63700000Y48500000D02*
X63700000Y48400000D01*
X63200000Y54900000D02*
X63200000Y49000000D01*
X63415166Y55115166D02*
X63200000Y54900000D01*
X63200000Y49000000D02*
X63700000Y48500000D01*
%TO.N,/Interfaces/PCIE_BMC_TX_C_N*%
D24*
X35431501Y23568499D02*
X35431501Y18248499D01*
X27663852Y52362352D02*
X27370000Y52362352D01*
X29163852Y52568500D02*
X28870000Y52568500D01*
X33800000Y25200000D02*
X35431501Y23568499D01*
X25277985Y51392015D02*
X23400000Y49514030D01*
X25566182Y51680211D02*
X25358454Y51472484D01*
X25358454Y51472484D02*
X25277985Y51392015D01*
X26454470Y52568500D02*
X26065561Y52179592D01*
X26870000Y52568500D02*
X26454470Y52568500D01*
X27163852Y52568500D02*
X26870000Y52568500D01*
X26065561Y51887938D02*
X25857834Y51680210D01*
X23400000Y27700000D02*
X25900000Y25200000D01*
X29663852Y52362352D02*
X29370000Y52362352D01*
X35431501Y18248499D02*
X35580000Y18100000D01*
X30600999Y52213031D02*
X30245530Y52568500D01*
X25900000Y25200000D02*
X33800000Y25200000D01*
X28163852Y52568500D02*
X27870000Y52568500D01*
X30245530Y52568500D02*
X29870000Y52568500D01*
X30600999Y52100999D02*
X30600999Y52213031D01*
X30200000Y51700000D02*
X30600999Y52100999D01*
X23400000Y49514030D02*
X23400000Y27700000D01*
X28663852Y52362352D02*
X28370000Y52362352D01*
X26065560Y52033764D02*
G75*
G02*
X26065512Y51887988I-72860J-72864D01*
G01*
X28766926Y52465426D02*
G75*
G02*
X28663852Y52362374I-103026J-26D01*
G01*
X29870000Y52568500D02*
G75*
G03*
X29766900Y52465426I0J-103100D01*
G01*
X28266926Y52465426D02*
G75*
G03*
X28163852Y52568426I-103026J-26D01*
G01*
X28870000Y52568500D02*
G75*
G03*
X28766900Y52465426I0J-103100D01*
G01*
X27370000Y52362352D02*
G75*
G02*
X27266952Y52465426I0J103048D01*
G01*
X25857834Y51680210D02*
G75*
G02*
X25711986Y51680189I-72934J72890D01*
G01*
X27870000Y52568500D02*
G75*
G03*
X27766900Y52465426I0J-103100D01*
G01*
X26065561Y52179592D02*
G75*
G03*
X26065582Y52033786I72939J-72892D01*
G01*
X28370000Y52362352D02*
G75*
G02*
X28266952Y52465426I0J103048D01*
G01*
X29266926Y52465426D02*
G75*
G03*
X29163852Y52568426I-103026J-26D01*
G01*
X27266926Y52465426D02*
G75*
G03*
X27163852Y52568426I-103026J-26D01*
G01*
X25712008Y51680211D02*
G75*
G03*
X25566182Y51680211I-72913J-72915D01*
G01*
X29766926Y52465426D02*
G75*
G02*
X29663852Y52362374I-103026J-26D01*
G01*
X27766926Y52465426D02*
G75*
G02*
X27663852Y52362374I-103026J-26D01*
G01*
X29370000Y52362352D02*
G75*
G02*
X29266952Y52465426I0J103048D01*
G01*
%TO.N,PCIE_BMC_RX_N*%
X28517474Y56018499D02*
X27860956Y56018499D01*
X21000000Y51514030D02*
X21000000Y27000000D01*
X25504469Y56018499D02*
X21000000Y51514030D01*
X31200000Y23000000D02*
X32800000Y21400000D01*
X31150000Y55750000D02*
X30881501Y56018499D01*
X30307474Y55808499D02*
X30017474Y55808499D01*
X29307474Y55808499D02*
X29017474Y55808499D01*
X27860956Y56018499D02*
X25504469Y56018499D01*
X30881501Y56018499D02*
X30517474Y56018499D01*
X38331501Y13368499D02*
X38331501Y10323499D01*
X37537000Y14163000D02*
X38331501Y13368499D01*
X29807474Y56018499D02*
X29517474Y56018499D01*
X21000000Y27000000D02*
X25000000Y23000000D01*
X38331501Y10323499D02*
X38455000Y10200000D01*
X32800000Y21400000D02*
X32800000Y15100000D01*
X33737000Y14163000D02*
X37537000Y14163000D01*
X28807474Y56018499D02*
X28517474Y56018499D01*
X25000000Y23000000D02*
X31200000Y23000000D01*
X32800000Y15100000D02*
X33737000Y14163000D01*
X29017474Y55808499D02*
G75*
G02*
X28912499Y55913499I26J105001D01*
G01*
X30517474Y56018499D02*
G75*
G03*
X30412501Y55913499I26J-104999D01*
G01*
X30017474Y55808499D02*
G75*
G02*
X29912499Y55913499I26J105001D01*
G01*
X30412474Y55913499D02*
G75*
G02*
X30307474Y55808526I-104974J1D01*
G01*
X29412474Y55913499D02*
G75*
G02*
X29307474Y55808526I-104974J1D01*
G01*
X29912474Y55913499D02*
G75*
G03*
X29807474Y56018474I-104974J1D01*
G01*
X29517474Y56018499D02*
G75*
G03*
X29412501Y55913499I26J-104999D01*
G01*
X28912474Y55913499D02*
G75*
G03*
X28807474Y56018474I-104974J1D01*
G01*
%TO.N,SGPIO1_DI*%
D27*
X53449999Y20255026D02*
X53449999Y19249999D01*
X53449999Y19249999D02*
X50000000Y15800000D01*
X50000000Y15800000D02*
X48150000Y15800000D01*
%TO.N,SGPIO1_DO*%
X48150000Y14940000D02*
X49440000Y14940000D01*
X54100000Y19600000D02*
X54100000Y19700000D01*
X49440000Y14940000D02*
X54100000Y19600000D01*
%TO.N,/Interfaces/PCIE_BMC_TX_C_P*%
D24*
X25791060Y24937000D02*
X33691060Y24937000D01*
X30864001Y52100999D02*
X30864001Y52321969D01*
X30354470Y52831500D02*
X26345530Y52831500D01*
X23137000Y49622970D02*
X23137000Y27591060D01*
X33691060Y24937000D02*
X35168499Y23459561D01*
X31247500Y51717500D02*
X30864001Y52100999D01*
X23137000Y27591060D02*
X25791060Y24937000D01*
X35168499Y18248499D02*
X35020000Y18100000D01*
X35168499Y23459561D02*
X35168499Y18248499D01*
X30864001Y52321969D02*
X30354470Y52831500D01*
X26345530Y52831500D02*
X23137000Y49622970D01*
%TO.N,PCIE_BMC_RX_P*%
X32537000Y21291060D02*
X32537000Y14991060D01*
X24891060Y22737000D02*
X31091060Y22737000D01*
X31200000Y56600000D02*
X30881501Y56281501D01*
X38068499Y10323499D02*
X37945000Y10200000D01*
X20737000Y51622970D02*
X20737000Y26891060D01*
X20737000Y26891060D02*
X24891060Y22737000D01*
X25395531Y56281501D02*
X20737000Y51622970D01*
X33628060Y13900000D02*
X37428060Y13900000D01*
X32537000Y14991060D02*
X33628060Y13900000D01*
X37428060Y13900000D02*
X38068499Y13259561D01*
X31091060Y22737000D02*
X32537000Y21291060D01*
X30881501Y56281501D02*
X25395531Y56281501D01*
X38068499Y13259561D02*
X38068499Y10323499D01*
%TO.N,RGMII_TXD0*%
D31*
X34400000Y83050000D02*
X32900000Y81550000D01*
X32900000Y81550000D02*
X32900000Y75300000D01*
X32900000Y75300000D02*
X36250000Y71950000D01*
X36250000Y71950000D02*
X36250000Y68550000D01*
%TO.N,RGMII_TXD1*%
X33400000Y76050000D02*
X36650000Y72800000D01*
X36650000Y69150000D02*
X37250000Y68550000D01*
X36650000Y72800000D02*
X36650000Y69150000D01*
X34400000Y82050000D02*
X33400000Y81050000D01*
X33400000Y81050000D02*
X33400000Y76050000D01*
%TO.N,RGMII_TXD2*%
X33925000Y80575000D02*
X33925000Y77275000D01*
X34400000Y81050000D02*
X33925000Y80575000D01*
X37212500Y71487500D02*
X37650000Y71050000D01*
X33925000Y77275000D02*
X37212500Y73987500D01*
X37212500Y73987500D02*
X37212500Y71487500D01*
%TO.N,DDR3_CAS*%
X27700000Y28600000D02*
X32200000Y28600000D01*
X36685000Y50773719D02*
X37066281Y51155000D01*
X30600000Y29800000D02*
X30600000Y31010000D01*
X37066281Y51155000D02*
X37470000Y51155000D01*
X30600000Y31010000D02*
X31200000Y31610000D01*
X35348719Y49200000D02*
X35685000Y49536281D01*
X26700000Y48100000D02*
X26700000Y29600000D01*
X34400000Y47900000D02*
X34537500Y48037500D01*
X36066281Y50155000D02*
X36303719Y50155000D01*
X39118719Y31100000D02*
X39300000Y31100000D01*
X27100000Y48500000D02*
X29700000Y48500000D01*
X31000000Y29400000D02*
X30600000Y29800000D01*
X35685000Y49773719D02*
X36066281Y50155000D01*
X31200000Y31610000D02*
X38608719Y31610000D01*
X29700000Y48500000D02*
X30300000Y47900000D01*
X38032500Y51717500D02*
X38247500Y51717500D01*
X36685000Y50536281D02*
X36685000Y50773719D01*
X26700000Y48100000D02*
X27100000Y48500000D01*
X38608719Y31610000D02*
X39118719Y31100000D01*
X34537500Y48496219D02*
X35241281Y49200000D01*
X30300000Y47900000D02*
X34400000Y47900000D01*
X32400000Y28800000D02*
X32400000Y29100000D01*
X32100000Y29400000D02*
X31000000Y29400000D01*
X36303719Y50155000D02*
X36685000Y50536281D01*
X35241281Y49200000D02*
X35348719Y49200000D01*
X34537500Y48037500D02*
X34537500Y48496219D01*
X26700000Y29600000D02*
X27700000Y28600000D01*
X37470000Y51155000D02*
X38032500Y51717500D01*
X32200000Y28600000D02*
X32400000Y28800000D01*
X32400000Y29100000D02*
X32100000Y29400000D01*
X35685000Y49536281D02*
X35685000Y49773719D01*
%TO.N,DDR3_BA0*%
X35685000Y52536281D02*
X34303719Y51155000D01*
X26555000Y51155000D02*
X24300000Y48900000D01*
X40510000Y28610000D02*
X40510000Y30100000D01*
X38500000Y26600000D02*
X39400000Y26600000D01*
X35685000Y52773719D02*
X35685000Y52536281D01*
X36685000Y53411281D02*
X36428719Y53155000D01*
X39950000Y27150000D02*
X39950000Y28050000D01*
X38247500Y53717500D02*
X37982500Y53717500D01*
X36428719Y53155000D02*
X36066281Y53155000D01*
X39400000Y26600000D02*
X39950000Y27150000D01*
X39950000Y28050000D02*
X40510000Y28610000D01*
X38200000Y26300000D02*
X38500000Y26600000D01*
X24300000Y28500000D02*
X26500000Y26300000D01*
X26500000Y26300000D02*
X38200000Y26300000D01*
X36066281Y53155000D02*
X35685000Y52773719D01*
X37545000Y54155000D02*
X37066281Y54155000D01*
X37982500Y53717500D02*
X37545000Y54155000D01*
X36685000Y53773719D02*
X36685000Y53411281D01*
X34303719Y51155000D02*
X26555000Y51155000D01*
X37066281Y54155000D02*
X36685000Y53773719D01*
X24300000Y48900000D02*
X24300000Y28500000D01*
%TO.N,RGMII_TX_CLK*%
X38150000Y67650000D02*
X38150000Y75300000D01*
X38150000Y75300000D02*
X35150000Y78300000D01*
%TO.N,RGMII_TXD3*%
X37650000Y72050000D02*
X37650000Y74550000D01*
X37650000Y74550000D02*
X35400000Y76800000D01*
X35150000Y76800000D02*
X34400000Y77550000D01*
X35400000Y76800000D02*
X35150000Y76800000D01*
X34400000Y77550000D02*
X34400000Y79800000D01*
%TO.N,RGMII_TX_DV*%
X38650000Y70800000D02*
X38650000Y76050000D01*
X38650000Y76050000D02*
X38900000Y76300000D01*
%TO.N,DDR3_WE*%
X27850000Y47600000D02*
X27400000Y47150000D01*
X29400000Y29400000D02*
X29800000Y29800000D01*
X35960000Y48100000D02*
X34980000Y47120000D01*
X29500000Y47600000D02*
X27850000Y47600000D01*
X38066281Y51155000D02*
X37810000Y50898719D01*
X37810000Y50898719D02*
X37810000Y50661281D01*
X36810000Y49210000D02*
X35960000Y48360000D01*
X37810000Y50661281D02*
X37303719Y50155000D01*
X39500000Y32100000D02*
X39900000Y31700000D01*
X39247500Y50717500D02*
X38810000Y51155000D01*
X36810000Y49898719D02*
X36810000Y49210000D01*
X29980000Y47120000D02*
X29500000Y47600000D01*
X29800000Y29800000D02*
X29800000Y31400000D01*
X35960000Y48360000D02*
X35960000Y48100000D01*
X34980000Y47120000D02*
X29980000Y47120000D01*
X37303719Y50155000D02*
X37066281Y50155000D01*
X37066281Y50155000D02*
X36810000Y49898719D01*
X27400000Y30100000D02*
X28100000Y29400000D01*
X29800000Y31400000D02*
X30500000Y32100000D01*
X30500000Y32100000D02*
X39500000Y32100000D01*
X39900000Y31700000D02*
X39900000Y31050000D01*
X28100000Y29400000D02*
X29400000Y29400000D01*
X27400000Y47150000D02*
X27400000Y30100000D01*
X38810000Y51155000D02*
X38066281Y51155000D01*
%TO.N,DDR3_RAS*%
X38210000Y27900000D02*
X27300000Y27900000D01*
X35810000Y50898719D02*
X37066281Y52155000D01*
X38550000Y30610000D02*
X38550000Y28240000D01*
X26700000Y49200000D02*
X34560000Y49200000D01*
X38810000Y52155000D02*
X39247500Y51717500D01*
X35303719Y50155000D02*
X35810000Y50661281D01*
X38220000Y30940000D02*
X38550000Y30610000D01*
X38550000Y28240000D02*
X38210000Y27900000D01*
X35810000Y50661281D02*
X35810000Y50898719D01*
X34670000Y49310000D02*
X34685000Y49310000D01*
X34685000Y49310000D02*
X34685000Y49812500D01*
X35027500Y50155000D02*
X35303719Y50155000D01*
X27300000Y27900000D02*
X25900000Y29300000D01*
X25900000Y48400000D02*
X26700000Y49200000D01*
X25900000Y29300000D02*
X25900000Y48400000D01*
X34560000Y49200000D02*
X34670000Y49310000D01*
X37066281Y52155000D02*
X38810000Y52155000D01*
X34685000Y49812500D02*
X35027500Y50155000D01*
%TO.N,DDR3_ODT*%
X38600000Y27200000D02*
X39150000Y27750000D01*
X26455000Y50155000D02*
X25100000Y48800000D01*
X34790521Y50879240D02*
X34790521Y50641802D01*
X39150000Y27750000D02*
X39150000Y28300000D01*
X34303719Y50155000D02*
X26455000Y50155000D01*
X35066281Y51155000D02*
X34790521Y50879240D01*
X36685000Y52773719D02*
X36685000Y52536281D01*
X35303719Y51155000D02*
X35066281Y51155000D01*
X39247500Y53717500D02*
X38810000Y53280000D01*
X36685000Y52536281D02*
X35303719Y51155000D01*
X25100000Y48800000D02*
X25100000Y28900000D01*
X37191281Y53280000D02*
X36685000Y52773719D01*
X26800000Y27200000D02*
X38600000Y27200000D01*
X34790521Y50641802D02*
X34303719Y50155000D01*
X38810000Y53280000D02*
X37191281Y53280000D01*
X25100000Y28900000D02*
X26800000Y27200000D01*
%TO.N,ROT_MISO*%
D27*
X31525998Y61774002D02*
X14325998Y61774002D01*
X38900000Y61200000D02*
X32100000Y61200000D01*
X13277379Y62822621D02*
X13277379Y62899464D01*
X14325998Y61774002D02*
X13277379Y62822621D01*
X32100000Y61200000D02*
X31525998Y61774002D01*
X39250000Y61550000D02*
X38900000Y61200000D01*
%TO.N,/FPGA banks 13-16/RGMII_CLK_FPGA*%
D31*
X41100000Y70300000D02*
X41900000Y71100000D01*
X42600000Y71100000D02*
X43300000Y71800000D01*
X43300000Y71800000D02*
X44300000Y71800000D01*
X41100000Y68500000D02*
X41100000Y70300000D01*
X40100000Y67500000D02*
X41100000Y68500000D01*
X41900000Y71100000D02*
X42600000Y71100000D01*
%TO.N,DDR3_A3*%
X35962500Y42500000D02*
X35962500Y42412500D01*
X38116801Y43516801D02*
X38054929Y43578673D01*
X41727500Y33652500D02*
X41727500Y32927500D01*
X33962500Y42587500D02*
X33962500Y42500000D01*
X33430304Y38200000D02*
X33550000Y38200000D01*
X40052512Y45700000D02*
X39822702Y45470191D01*
X32300000Y40400000D02*
X32300000Y40081111D01*
X38638294Y44285782D02*
X38408484Y44055973D01*
X32300000Y38900000D02*
X33000000Y38200000D01*
X32900000Y42500000D02*
X32511091Y42111092D01*
X39531021Y44931018D02*
X39531019Y44931019D01*
X38408484Y43932229D02*
X38470355Y43870358D01*
X37100000Y42500000D02*
X36550000Y42500000D01*
X32125000Y41725000D02*
X32125000Y41400000D01*
X40690000Y48460000D02*
X40690000Y47778403D01*
X34875000Y42325000D02*
X34550000Y42325000D01*
X39345403Y44992891D02*
X39115593Y44763082D01*
X32300000Y40725000D02*
X32300000Y40400000D01*
X32475000Y41225000D02*
X32475000Y40900000D01*
X40300000Y46540000D02*
X40300000Y45990000D01*
X40200000Y35180000D02*
X41727500Y33652500D01*
X39946446Y45098958D02*
X39716636Y44869147D01*
X35875000Y42325000D02*
X35550000Y42325000D01*
X38823912Y44223909D02*
X38823910Y44223910D01*
X38532228Y43684740D02*
X38302418Y43454929D01*
X41270000Y32470000D02*
X41270000Y30150000D01*
X39177465Y44577465D02*
X39239337Y44515593D01*
X35462500Y42412500D02*
X35462500Y42500000D01*
X40690000Y46930000D02*
X40301091Y46541092D01*
X41270000Y30150000D02*
X41300000Y30120000D01*
X33550000Y38200000D02*
X38900000Y38200000D01*
X38470356Y43870356D02*
X38532228Y43808484D01*
X37701375Y43101377D02*
X37471566Y42871567D01*
X33000000Y38200000D02*
X33430304Y38200000D01*
X40300000Y45990000D02*
X40300000Y45700000D01*
X34462500Y42500000D02*
X34462500Y42587500D01*
X33050000Y42500000D02*
X32900000Y42500000D01*
X32511091Y42111092D02*
X32300000Y41900000D01*
X38900000Y38200000D02*
X40200000Y36900000D01*
X35375000Y42675000D02*
X35050000Y42675000D01*
X38885783Y44162038D02*
X38823912Y44223909D01*
X38178674Y43454929D02*
X38116803Y43516800D01*
X36375000Y42675000D02*
X36050000Y42675000D01*
X41727500Y32927500D02*
X41270000Y32470000D01*
X33962500Y42500000D02*
X33962500Y42412500D01*
X34962500Y42500000D02*
X34962500Y42412500D01*
X32300000Y41312500D02*
X32387500Y41312500D01*
X39884574Y45284574D02*
X39946446Y45222702D01*
X39177464Y44577467D02*
X39177465Y44577465D01*
X34375000Y42675000D02*
X34050000Y42675000D01*
X38823910Y44223910D02*
X38762038Y44285782D01*
X35962500Y42587500D02*
X35962500Y42500000D01*
X39239337Y44391849D02*
X39009527Y44162038D01*
X40200000Y36900000D02*
X40200000Y35180000D01*
X37471566Y42871567D02*
X37100000Y42500000D01*
X39822702Y45346447D02*
X39884573Y45284576D01*
X34462500Y42412500D02*
X34462500Y42500000D01*
X40690000Y47778403D02*
X40690000Y46930000D01*
X32300000Y40081111D02*
X32300000Y38900000D01*
X35462500Y42500000D02*
X35462500Y42587500D01*
X33875000Y42325000D02*
X33550000Y42325000D01*
X38470355Y43870358D02*
X38470356Y43870356D01*
X38116803Y43516800D02*
X38116801Y43516801D01*
X37931185Y43578673D02*
X37701375Y43348864D01*
X39884573Y45284576D02*
X39884574Y45284574D01*
X39115593Y44639338D02*
X39177464Y44577467D01*
X32212500Y41312500D02*
X32300000Y41312500D01*
X33375000Y42500000D02*
X33050000Y42500000D01*
X39592892Y44869147D02*
X39531021Y44931018D01*
X40301091Y46541092D02*
X40300000Y46540000D01*
X39531019Y44931019D02*
X39469147Y44992891D01*
X34962500Y42587500D02*
X34962500Y42500000D01*
X39946446Y45222702D02*
G75*
G02*
X39946476Y45098928I-61846J-61902D01*
G01*
X36550000Y42500000D02*
G75*
G02*
X36462500Y42587500I0J87500D01*
G01*
X39009527Y44162038D02*
G75*
G02*
X38885783Y44162038I-61872J61873D01*
G01*
X40176256Y45700000D02*
G75*
G03*
X40052512Y45700000I-61872J-61873D01*
G01*
X34050000Y42675000D02*
G75*
G03*
X33962500Y42587500I0J-87500D01*
G01*
X35462500Y42587500D02*
G75*
G03*
X35375000Y42675000I-87500J0D01*
G01*
X32387500Y41312500D02*
G75*
G02*
X32475000Y41225000I0J-87500D01*
G01*
X35962500Y42412500D02*
G75*
G02*
X35875000Y42325000I-87500J0D01*
G01*
X33962500Y42412500D02*
G75*
G02*
X33875000Y42325000I-87500J0D01*
G01*
X32475000Y40900000D02*
G75*
G02*
X32387500Y40812500I-87500J0D01*
G01*
X32300000Y41900000D02*
G75*
G02*
X32212500Y41812500I-87500J0D01*
G01*
X37701375Y43225120D02*
G75*
G02*
X37701424Y43101329I-61875J-61920D01*
G01*
X35050000Y42675000D02*
G75*
G03*
X34962500Y42587500I0J-87500D01*
G01*
X35550000Y42325000D02*
G75*
G02*
X35462500Y42412500I0J87500D01*
G01*
X36462500Y42587500D02*
G75*
G03*
X36375000Y42675000I-87500J0D01*
G01*
X37701375Y43348864D02*
G75*
G03*
X37701383Y43225128I61825J-61864D01*
G01*
X38302418Y43454929D02*
G75*
G02*
X38178674Y43454929I-61872J61873D01*
G01*
X39716636Y44869147D02*
G75*
G02*
X39592892Y44869147I-61872J61873D01*
G01*
X32387500Y40812500D02*
G75*
G03*
X32300000Y40725000I0J-87500D01*
G01*
X40300000Y45700000D02*
G75*
G02*
X40176256Y45700000I-61872J61873D01*
G01*
X34962500Y42412500D02*
G75*
G02*
X34875000Y42325000I-87500J0D01*
G01*
X38532228Y43808484D02*
G75*
G02*
X38532240Y43684728I-61828J-61884D01*
G01*
X36050000Y42675000D02*
G75*
G03*
X35962500Y42587500I0J-87500D01*
G01*
X34550000Y42325000D02*
G75*
G02*
X34462500Y42412500I0J87500D01*
G01*
X34462500Y42587500D02*
G75*
G03*
X34375000Y42675000I-87500J0D01*
G01*
X38408484Y44055973D02*
G75*
G03*
X38408483Y43932228I61916J-61873D01*
G01*
X39822702Y45470191D02*
G75*
G03*
X39822683Y45346428I61898J-61891D01*
G01*
X32125000Y41400000D02*
G75*
G03*
X32212500Y41312500I87500J0D01*
G01*
X39239337Y44515593D02*
G75*
G02*
X39239358Y44391828I-61837J-61893D01*
G01*
X39469147Y44992891D02*
G75*
G03*
X39345403Y44992891I-61872J-61873D01*
G01*
X33550000Y42325000D02*
G75*
G02*
X33462500Y42412500I0J87500D01*
G01*
X38762038Y44285782D02*
G75*
G03*
X38638294Y44285782I-61872J-61873D01*
G01*
X39115593Y44763082D02*
G75*
G03*
X39115583Y44639328I61907J-61882D01*
G01*
X33462500Y42412500D02*
G75*
G03*
X33375000Y42500000I-87500J0D01*
G01*
X32212500Y41812500D02*
G75*
G03*
X32125000Y41725000I0J-87500D01*
G01*
X38054929Y43578673D02*
G75*
G03*
X37931185Y43578673I-61872J-61873D01*
G01*
%TO.N,DDR3_A10*%
X37380000Y48310000D02*
X38350000Y49280000D01*
X38350000Y49280000D02*
X39428719Y49280000D01*
X32000000Y35400000D02*
X31373903Y34773903D01*
X35700000Y45500000D02*
X37380000Y47180000D01*
X28900000Y33800000D02*
X28900000Y44600000D01*
X40290000Y33380000D02*
X40290000Y33520000D01*
X37380000Y47180000D02*
X37380000Y48310000D01*
X30473903Y33300000D02*
X29400000Y33300000D01*
X38410000Y35400000D02*
X32000000Y35400000D01*
X29400000Y33300000D02*
X28900000Y33800000D01*
X40247500Y50500000D02*
X40247500Y50717500D01*
X39810000Y49661281D02*
X39810000Y50062500D01*
X31373903Y34200000D02*
X30473903Y33300000D01*
X39428719Y49280000D02*
X39810000Y49661281D01*
X29800000Y45500000D02*
X35700000Y45500000D01*
X28900000Y44600000D02*
X29800000Y45500000D01*
X40290000Y33520000D02*
X38410000Y35400000D01*
X39810000Y50062500D02*
X40247500Y50500000D01*
X40330000Y33340000D02*
X40290000Y33380000D01*
X31373903Y34773903D02*
X31373903Y34200000D01*
%TO.N,DDR3_BA2*%
X32200000Y32700000D02*
X30200000Y32700000D01*
X40790000Y30980000D02*
X40790000Y32110000D01*
X33900000Y32700000D02*
X33642500Y32957500D01*
X39428719Y50155000D02*
X38066281Y50155000D01*
X36730000Y48450000D02*
X37685000Y49405000D01*
X38066281Y50155000D02*
X37685000Y49773719D01*
X28550000Y30150000D02*
X28200000Y30500000D01*
X29200000Y30400000D02*
X28950000Y30150000D01*
X33642500Y33257500D02*
X33300000Y33600000D01*
X32400000Y32900000D02*
X32200000Y32700000D01*
X33642500Y32957500D02*
X33642500Y33257500D01*
X33300000Y33600000D02*
X32600000Y33600000D01*
X40790000Y32110000D02*
X40200000Y32700000D01*
X40200000Y32700000D02*
X33900000Y32700000D01*
X35400000Y46300000D02*
X36730000Y47630000D01*
X28200000Y45700000D02*
X28800000Y46300000D01*
X29200000Y31700000D02*
X29200000Y30400000D01*
X32600000Y33600000D02*
X32400000Y33400000D01*
X36730000Y47630000D02*
X36730000Y48450000D01*
X28200000Y30500000D02*
X28200000Y45700000D01*
X39428719Y50155000D02*
X39685000Y50411281D01*
X39685000Y51155000D02*
X39685000Y50411281D01*
X28800000Y46300000D02*
X35400000Y46300000D01*
X37685000Y49773719D02*
X37685000Y49405000D01*
X32400000Y33400000D02*
X32400000Y32900000D01*
X28950000Y30150000D02*
X28550000Y30150000D01*
X40247500Y51717500D02*
X39685000Y51155000D01*
X30200000Y32700000D02*
X29200000Y31700000D01*
%TO.N,DDR3_CKE*%
X34950000Y36150000D02*
X35150000Y36150000D01*
X30750000Y36250000D02*
X30950000Y36250000D01*
X37700000Y36400000D02*
X38100000Y36000000D01*
X33200000Y36500000D02*
X33300000Y36400000D01*
X34000000Y36400000D02*
X34200000Y36400000D01*
X31975000Y36375000D02*
X31975000Y36500000D01*
X31075000Y36375000D02*
X31075000Y36500000D01*
X35725000Y36400000D02*
X35725000Y36275000D01*
X32750000Y36500000D02*
X33200000Y36500000D01*
X38970000Y36000000D02*
X39230000Y35740000D01*
X36175000Y36275000D02*
X36175000Y36400000D01*
X36950000Y36400000D02*
X37700000Y36400000D01*
X36200000Y44400000D02*
X30500000Y44400000D01*
X30453553Y36546447D02*
X30500000Y36500000D01*
X38100000Y36000000D02*
X38425262Y36000000D01*
X40685000Y52280000D02*
X40685000Y49536281D01*
X35275000Y36400000D02*
X35275000Y36525000D01*
X32100000Y36750000D02*
X32300000Y36750000D01*
X30100000Y37300000D02*
X30100000Y36900000D01*
X31525000Y36625000D02*
X31525000Y36500000D01*
X35725000Y36525000D02*
X35725000Y36400000D01*
X35400000Y36650000D02*
X35600000Y36650000D01*
X30100000Y37500000D02*
X30100000Y37300000D01*
X31075000Y36500000D02*
X31075000Y36625000D01*
X35275000Y36275000D02*
X35275000Y36400000D01*
X31650000Y36250000D02*
X31850000Y36250000D01*
X40247500Y52717500D02*
X40685000Y52280000D01*
X36175000Y36400000D02*
X36175000Y36525000D01*
X30100000Y44000000D02*
X30100000Y38200000D01*
X40685000Y49536281D02*
X40126218Y48977500D01*
X34200000Y36400000D02*
X34700000Y36400000D01*
X30100000Y36900000D02*
X30453553Y36546447D01*
X40126218Y48977500D02*
X38557500Y48977500D01*
X38300000Y48720000D02*
X38300000Y46500000D01*
X33550000Y36150000D02*
X33750000Y36150000D01*
X29850000Y37950000D02*
X29850000Y37750000D01*
X35850000Y36150000D02*
X36050000Y36150000D01*
X32550000Y36500000D02*
X32750000Y36500000D01*
X31975000Y36500000D02*
X31975000Y36625000D01*
X31200000Y36750000D02*
X31400000Y36750000D01*
X36750000Y36400000D02*
X36950000Y36400000D01*
X31525000Y36500000D02*
X31525000Y36375000D01*
X38557500Y48977500D02*
X38300000Y48720000D01*
X30500000Y44400000D02*
X30100000Y44000000D01*
X38425262Y36000000D02*
X38970000Y36000000D01*
X36300000Y36650000D02*
X36500000Y36650000D01*
X38300000Y46500000D02*
X36200000Y44400000D01*
X34700000Y36400000D02*
G75*
G02*
X34825000Y36275000I0J-125000D01*
G01*
X35150000Y36150000D02*
G75*
G03*
X35275000Y36275000I0J125000D01*
G01*
X30950000Y36250000D02*
G75*
G03*
X31075000Y36375000I0J125000D01*
G01*
X32425000Y36625000D02*
G75*
G03*
X32550000Y36500000I125000J0D01*
G01*
X31975000Y36625000D02*
G75*
G02*
X32100000Y36750000I125000J0D01*
G01*
X35275000Y36525000D02*
G75*
G02*
X35400000Y36650000I125000J0D01*
G01*
X35600000Y36650000D02*
G75*
G02*
X35725000Y36525000I0J-125000D01*
G01*
X31850000Y36250000D02*
G75*
G03*
X31975000Y36375000I0J125000D01*
G01*
X33300000Y36400000D02*
G75*
G02*
X33425000Y36275000I0J-125000D01*
G01*
X30625000Y36375000D02*
G75*
G03*
X30750000Y36250000I125000J0D01*
G01*
X29975000Y37625000D02*
G75*
G02*
X30100000Y37500000I0J-125000D01*
G01*
X31525000Y36375000D02*
G75*
G03*
X31650000Y36250000I125000J0D01*
G01*
X36500000Y36650000D02*
G75*
G02*
X36625000Y36525000I0J-125000D01*
G01*
X35725000Y36275000D02*
G75*
G03*
X35850000Y36150000I125000J0D01*
G01*
X29850000Y37750000D02*
G75*
G03*
X29975000Y37625000I125000J0D01*
G01*
X34825000Y36275000D02*
G75*
G03*
X34950000Y36150000I125000J0D01*
G01*
X30100000Y38200000D02*
G75*
G02*
X29975000Y38075000I-125000J0D01*
G01*
X33875000Y36275000D02*
G75*
G02*
X34000000Y36400000I125000J0D01*
G01*
X31400000Y36750000D02*
G75*
G02*
X31525000Y36625000I0J-125000D01*
G01*
X31075000Y36625000D02*
G75*
G02*
X31200000Y36750000I125000J0D01*
G01*
X36625000Y36525000D02*
G75*
G03*
X36750000Y36400000I125000J0D01*
G01*
X33425000Y36275000D02*
G75*
G03*
X33550000Y36150000I125000J0D01*
G01*
X29975000Y38075000D02*
G75*
G03*
X29850000Y37950000I0J-125000D01*
G01*
X33750000Y36150000D02*
G75*
G03*
X33875000Y36275000I0J125000D01*
G01*
X36175000Y36525000D02*
G75*
G02*
X36300000Y36650000I125000J0D01*
G01*
X32300000Y36750000D02*
G75*
G02*
X32425000Y36625000I0J-125000D01*
G01*
X30500000Y36500000D02*
G75*
G02*
X30625000Y36375000I0J-125000D01*
G01*
X36050000Y36150000D02*
G75*
G03*
X36175000Y36275000I0J125000D01*
G01*
%TO.N,DDR3_A12*%
X39100000Y47500000D02*
X39400000Y47800000D01*
X38850000Y37350000D02*
X37990000Y37350000D01*
X38320281Y45120281D02*
X38249571Y45190991D01*
X39967500Y48367500D02*
X41150000Y49550000D01*
X31400000Y40550000D02*
X31300000Y40550000D01*
X31500000Y41150000D02*
X31500000Y41450000D01*
X31300000Y40550000D02*
X31200000Y40550000D01*
X31300000Y41550000D02*
X31200000Y41550000D01*
X37542463Y44625305D02*
X37754597Y44837438D01*
X35700000Y43500000D02*
X35700000Y43600000D01*
X32700000Y43500000D02*
X32700000Y43600000D01*
X31300000Y42450000D02*
X31300000Y42800000D01*
X33200000Y43700000D02*
X33200000Y43600000D01*
X38390991Y45049571D02*
X38320280Y45120282D01*
X34300000Y43400000D02*
X34600000Y43400000D01*
X34200000Y43600000D02*
X34200000Y43500000D01*
X39700000Y47800000D02*
X39967500Y48067500D01*
X32800000Y43800000D02*
X33100000Y43800000D01*
X33700000Y43600000D02*
X33700000Y43700000D01*
X33300000Y43400000D02*
X33600000Y43400000D01*
X39100000Y47150000D02*
X39100000Y47450000D01*
X34200000Y43700000D02*
X34200000Y43600000D01*
X34800000Y43800000D02*
X35100000Y43800000D01*
X38178859Y44696017D02*
X38390991Y44908150D01*
X31800000Y37500000D02*
X31300000Y38000000D01*
X31400000Y41550000D02*
X31300000Y41550000D01*
X34700000Y43600000D02*
X34700000Y43700000D01*
X37613173Y44413173D02*
X37542463Y44483883D01*
X31500000Y39150000D02*
X31500000Y39450000D01*
X39967500Y48296138D02*
X39967500Y48356219D01*
X37966727Y44766727D02*
X38037437Y44696017D01*
X32077816Y43577818D02*
X32100000Y43600000D01*
X37966728Y44766726D02*
X37966727Y44766727D01*
X39667500Y34962500D02*
X39667500Y36532500D01*
X34700000Y43500000D02*
X34700000Y43600000D01*
X32300000Y43400000D02*
X32600000Y43400000D01*
X37683882Y44342463D02*
X37613171Y44413174D01*
X38744547Y45544545D02*
X38956679Y45756678D01*
X32700000Y43600000D02*
X32700000Y43700000D01*
X31100000Y40650000D02*
X31100000Y40950000D01*
X35200000Y43600000D02*
X35200000Y43500000D01*
X39967500Y48356219D02*
X41150000Y49538719D01*
X37471750Y43988909D02*
X37683882Y44201042D01*
X36600000Y43600000D02*
X36800000Y43600000D01*
X31300000Y38000000D02*
X31300000Y38950000D01*
X36300000Y43600000D02*
X36600000Y43600000D01*
X33200000Y43600000D02*
X33200000Y43500000D01*
X33700000Y43500000D02*
X33700000Y43600000D01*
X39400000Y47800000D02*
X39700000Y47800000D01*
X35300000Y43400000D02*
X35600000Y43400000D01*
X31400000Y39550000D02*
X31300000Y39550000D01*
X39967500Y48067500D02*
X39967500Y48296138D01*
X35200000Y43700000D02*
X35200000Y43600000D01*
X38320280Y45120282D02*
X38320281Y45120281D01*
X37613171Y44413174D02*
X37613173Y44413173D01*
X39100000Y45900000D02*
X39100000Y46450000D01*
X31300000Y41050000D02*
X31400000Y41050000D01*
X33800000Y43800000D02*
X34100000Y43800000D01*
X41150000Y49538719D02*
X41150000Y50500000D01*
X31300000Y39550000D02*
X31200000Y39550000D01*
X37896017Y44837437D02*
X37966728Y44766726D01*
X31300000Y42800000D02*
X32077816Y43577818D01*
X31300000Y42150000D02*
X31300000Y42450000D01*
X39667500Y36532500D02*
X38850000Y37350000D01*
X41150000Y49550000D02*
X41150000Y50500000D01*
X31100000Y41650000D02*
X31100000Y41950000D01*
X36800000Y43600000D02*
X37188908Y43988909D01*
X35700000Y43600000D02*
X35700000Y43700000D01*
X38956679Y45756678D02*
X39100000Y45900000D01*
X35800000Y43800000D02*
X36100000Y43800000D01*
X37840000Y37500000D02*
X31800000Y37500000D01*
X31500000Y40150000D02*
X31500000Y40450000D01*
X37990000Y37350000D02*
X37840000Y37500000D01*
X31200000Y40050000D02*
X31300000Y40050000D01*
X41150000Y52815000D02*
X40247500Y53717500D01*
X41150000Y50500000D02*
X41150000Y52815000D01*
X41290000Y33340000D02*
X39667500Y34962500D01*
X31300000Y40050000D02*
X31400000Y40050000D01*
X39100000Y47450000D02*
X39100000Y47500000D01*
X31100000Y39650000D02*
X31100000Y39950000D01*
X31200000Y41050000D02*
X31300000Y41050000D01*
X38249571Y45332413D02*
X38461705Y45544546D01*
X39300000Y46650000D02*
X39300000Y46950000D01*
X32700000Y43700000D02*
G75*
G02*
X32800000Y43800000I100000J0D01*
G01*
X32200000Y43500000D02*
G75*
G03*
X32300000Y43400000I100000J0D01*
G01*
X31100000Y40950000D02*
G75*
G02*
X31200000Y41050000I100000J0D01*
G01*
X37542463Y44483883D02*
G75*
G02*
X37542457Y44625311I70737J70717D01*
G01*
X31200000Y42050000D02*
G75*
G03*
X31300000Y42150000I0J100000D01*
G01*
X37683882Y44201042D02*
G75*
G03*
X37683930Y44342511I-70682J70758D01*
G01*
X39200000Y47050000D02*
G75*
G02*
X39100000Y47150000I0J100000D01*
G01*
X39300000Y46950000D02*
G75*
G03*
X39200000Y47050000I-100000J0D01*
G01*
X31200000Y40550000D02*
G75*
G02*
X31100000Y40650000I0J100000D01*
G01*
X38603125Y45544545D02*
G75*
G03*
X38744547Y45544545I70711J70713D01*
G01*
X38390991Y44908150D02*
G75*
G03*
X38391031Y45049610I-70691J70750D01*
G01*
X39200000Y46550000D02*
G75*
G03*
X39300000Y46650000I0J100000D01*
G01*
X35700000Y43700000D02*
G75*
G02*
X35800000Y43800000I100000J0D01*
G01*
X31500000Y40450000D02*
G75*
G03*
X31400000Y40550000I-100000J0D01*
G01*
X31300000Y38950000D02*
G75*
G02*
X31400000Y39050000I100000J0D01*
G01*
X34200000Y43500000D02*
G75*
G03*
X34300000Y43400000I100000J0D01*
G01*
X33600000Y43400000D02*
G75*
G03*
X33700000Y43500000I0J100000D01*
G01*
X31100000Y39950000D02*
G75*
G02*
X31200000Y40050000I100000J0D01*
G01*
X36100000Y43800000D02*
G75*
G02*
X36200000Y43700000I0J-100000D01*
G01*
X33700000Y43700000D02*
G75*
G02*
X33800000Y43800000I100000J0D01*
G01*
X31400000Y39050000D02*
G75*
G03*
X31500000Y39150000I0J100000D01*
G01*
X33200000Y43500000D02*
G75*
G03*
X33300000Y43400000I100000J0D01*
G01*
X34700000Y43700000D02*
G75*
G02*
X34800000Y43800000I100000J0D01*
G01*
X38461705Y45544546D02*
G75*
G02*
X38603111Y45544531I70695J-70746D01*
G01*
X32100000Y43600000D02*
G75*
G02*
X32200000Y43500000I0J-100000D01*
G01*
X31100000Y41950000D02*
G75*
G02*
X31200000Y42050000I100000J0D01*
G01*
X38249571Y45190991D02*
G75*
G02*
X38249573Y45332411I70729J70709D01*
G01*
X37754597Y44837438D02*
G75*
G02*
X37896011Y44837431I70703J-70738D01*
G01*
X31200000Y39550000D02*
G75*
G02*
X31100000Y39650000I0J100000D01*
G01*
X36200000Y43700000D02*
G75*
G03*
X36300000Y43600000I100000J0D01*
G01*
X37188908Y43988909D02*
G75*
G02*
X37330329Y43988910I70711J-70711D01*
G01*
X35100000Y43800000D02*
G75*
G02*
X35200000Y43700000I0J-100000D01*
G01*
X31400000Y41050000D02*
G75*
G03*
X31500000Y41150000I0J100000D01*
G01*
X35600000Y43400000D02*
G75*
G03*
X35700000Y43500000I0J100000D01*
G01*
X32600000Y43400000D02*
G75*
G03*
X32700000Y43500000I0J100000D01*
G01*
X33100000Y43800000D02*
G75*
G02*
X33200000Y43700000I0J-100000D01*
G01*
X39100000Y46450000D02*
G75*
G02*
X39200000Y46550000I100000J0D01*
G01*
X38037437Y44696017D02*
G75*
G03*
X38178859Y44696017I70711J70713D01*
G01*
X35200000Y43500000D02*
G75*
G03*
X35300000Y43400000I100000J0D01*
G01*
X31200000Y41550000D02*
G75*
G02*
X31100000Y41650000I0J100000D01*
G01*
X37330329Y43988909D02*
G75*
G03*
X37471750Y43988908I70711J70711D01*
G01*
X31400000Y40050000D02*
G75*
G03*
X31500000Y40150000I0J100000D01*
G01*
X31500000Y39450000D02*
G75*
G03*
X31400000Y39550000I-100000J0D01*
G01*
X34600000Y43400000D02*
G75*
G03*
X34700000Y43500000I0J100000D01*
G01*
X34100000Y43800000D02*
G75*
G02*
X34200000Y43700000I0J-100000D01*
G01*
X31500000Y41450000D02*
G75*
G03*
X31400000Y41550000I-100000J0D01*
G01*
%TO.N,ROT_QSPI_SCK*%
X15851998Y20000000D02*
X20600000Y20000000D01*
X24800000Y17000000D02*
X26000000Y17000000D01*
X42500000Y7600000D02*
X43400000Y8500000D01*
X60900000Y33179674D02*
X60100000Y33179674D01*
X61700000Y22179674D02*
X60900000Y22179674D01*
X60900000Y20679674D02*
X61700000Y20679674D01*
X59900000Y21379674D02*
X59900000Y21479674D01*
X60900000Y34679674D02*
X61700000Y34679674D01*
X47900000Y59500000D02*
X47720996Y59679004D01*
X15000003Y19148005D02*
X15851998Y20000000D01*
X60100000Y22679674D02*
X60900000Y22679674D01*
X60900000Y24679674D02*
X61200000Y24679674D01*
X60100000Y29679674D02*
X60900000Y29679674D01*
X60100000Y25679674D02*
X60900000Y25679674D01*
X61700000Y27179674D02*
X60900000Y27179674D01*
X59000000Y57700000D02*
X57200000Y59500000D01*
X21400000Y19200000D02*
X22600000Y19200000D01*
X48500000Y6400000D02*
X53400000Y6400000D01*
X61900000Y22879674D02*
X61900000Y22979674D01*
X60900000Y22679674D02*
X61700000Y22679674D01*
X61700000Y29179674D02*
X60900000Y29179674D01*
X61900000Y29879674D02*
X61900000Y29979674D01*
X59900000Y27379674D02*
X59900000Y27479674D01*
X60900000Y29679674D02*
X61700000Y29679674D01*
X60900000Y32179674D02*
X60100000Y32179674D01*
X59900000Y31379674D02*
X59900000Y31479674D01*
X59900000Y26379674D02*
X59900000Y26479674D01*
X20600000Y20000000D02*
X21400000Y19200000D01*
X60900000Y25179674D02*
X60100000Y25179674D01*
X60900000Y21179674D02*
X60100000Y21179674D01*
X61900000Y23879674D02*
X61900000Y23979674D01*
X61100000Y19679674D02*
X61700000Y19679674D01*
X54987500Y7039492D02*
X54987500Y7100000D01*
X60100000Y26679674D02*
X60900000Y26679674D01*
X60900000Y37479674D02*
X60900000Y37700000D01*
X53500000Y6500000D02*
X54448008Y6500000D01*
X61700000Y23179674D02*
X60900000Y23179674D01*
X57200000Y59500000D02*
X47900000Y59500000D01*
X60900000Y30179674D02*
X60100000Y30179674D01*
X53400000Y6400000D02*
X53500000Y6500000D01*
X60900000Y22179674D02*
X60100000Y22179674D01*
X60900000Y32679674D02*
X61700000Y32679674D01*
X60100000Y30679674D02*
X60900000Y30679674D01*
X60900000Y30679674D02*
X61700000Y30679674D01*
X60900000Y35679674D02*
X61700000Y35679674D01*
X61900000Y19879674D02*
X61900000Y19979674D01*
X60100000Y24679674D02*
X60900000Y24679674D01*
X41521992Y60550000D02*
X40250000Y60550000D01*
X60900000Y27179674D02*
X60100000Y27179674D01*
X60900000Y26179674D02*
X60100000Y26179674D01*
X60900000Y36179674D02*
X60100000Y36179674D01*
X60437500Y17589492D02*
X61200000Y18351992D01*
X28200000Y14800000D02*
X29500000Y14800000D01*
X60900000Y36679674D02*
X61100000Y36679674D01*
X60900000Y33679674D02*
X61700000Y33679674D01*
X29500000Y14800000D02*
X32900000Y11400000D01*
X60100000Y34679674D02*
X60900000Y34679674D01*
X60900000Y21679674D02*
X61700000Y21679674D01*
X59900000Y23379674D02*
X59900000Y23479674D01*
X61700000Y33179674D02*
X60900000Y33179674D01*
X61900000Y28879674D02*
X61900000Y28979674D01*
X61900000Y20879674D02*
X61900000Y20979674D01*
X59900000Y28379674D02*
X59900000Y28479674D01*
X61900000Y36879674D02*
X61900000Y36979674D01*
X60100000Y23679674D02*
X60900000Y23679674D01*
X61700000Y31179674D02*
X60900000Y31179674D01*
X46400000Y8500000D02*
X48500000Y6400000D01*
X60100000Y31679674D02*
X60900000Y31679674D01*
X61900000Y32879674D02*
X61900000Y32979674D01*
X60900000Y34179674D02*
X60100000Y34179674D01*
X60437500Y12550000D02*
X60437500Y17589492D01*
X59000000Y56200000D02*
X59000000Y57700000D01*
X60900000Y37700000D02*
X60900000Y54300000D01*
X15000003Y19100000D02*
X15000003Y19148005D01*
X60900000Y37379674D02*
X60900000Y37479674D01*
X60100000Y33679674D02*
X60900000Y33679674D01*
X61900000Y26879674D02*
X61900000Y26979674D01*
X36711992Y5100000D02*
X41500000Y5100000D01*
X60900000Y19100000D02*
X60900000Y19479674D01*
X61900000Y31879674D02*
X61900000Y31979674D01*
X60100000Y27679674D02*
X60900000Y27679674D01*
X60900000Y27679674D02*
X61700000Y27679674D01*
X60900000Y20179674D02*
X60100000Y20179674D01*
X43400000Y8500000D02*
X46400000Y8500000D01*
X60100000Y20679674D02*
X60900000Y20679674D01*
X61900000Y25879674D02*
X61900000Y25979674D01*
X22600000Y19200000D02*
X24800000Y17000000D01*
X59900000Y35379674D02*
X59900000Y35479674D01*
X61700000Y37179674D02*
X61100000Y37179674D01*
X60100000Y36679674D02*
X60900000Y36679674D01*
X42500000Y6100000D02*
X42500000Y7600000D01*
X61700000Y26179674D02*
X60900000Y26179674D01*
X47720996Y60487012D02*
X47250508Y60957500D01*
X60900000Y35179674D02*
X60100000Y35179674D01*
X61700000Y28179674D02*
X60900000Y28179674D01*
X61700000Y24179674D02*
X60900000Y24179674D01*
X60900000Y31679674D02*
X61700000Y31679674D01*
X59900000Y34379674D02*
X59900000Y34479674D01*
X59900000Y24379674D02*
X59900000Y24479674D01*
X61200000Y25179674D02*
X60900000Y25179674D01*
X61700000Y20179674D02*
X61100000Y20179674D01*
X61700000Y30179674D02*
X60900000Y30179674D01*
X61900000Y34879674D02*
X61900000Y34979674D01*
X32900000Y8911992D02*
X36711992Y5100000D01*
X61400000Y24879674D02*
X61400000Y24979674D01*
X60900000Y28179674D02*
X60100000Y28179674D01*
X60900000Y31179674D02*
X60100000Y31179674D01*
X61200000Y18351992D02*
X61200000Y18800000D01*
X59900000Y36379674D02*
X59900000Y36479674D01*
X47720996Y59679004D02*
X47720996Y60487012D01*
X60900000Y26679674D02*
X61700000Y26679674D01*
X61900000Y33879674D02*
X61900000Y33979674D01*
X54448008Y6500000D02*
X54987500Y7039492D01*
X60900000Y24179674D02*
X60100000Y24179674D01*
X59900000Y30379674D02*
X59900000Y30479674D01*
X61900000Y21879674D02*
X61900000Y21979674D01*
X60100000Y35679674D02*
X60900000Y35679674D01*
X61200000Y18800000D02*
X60900000Y19100000D01*
X59900000Y25379674D02*
X59900000Y25479674D01*
X61700000Y34179674D02*
X60900000Y34179674D01*
X60100000Y28679674D02*
X60900000Y28679674D01*
X60900000Y25679674D02*
X61700000Y25679674D01*
X60900000Y29179674D02*
X60100000Y29179674D01*
X61700000Y35179674D02*
X60900000Y35179674D01*
X54987500Y7100000D02*
X60437500Y12550000D01*
X61700000Y32179674D02*
X60900000Y32179674D01*
X59900000Y22379674D02*
X59900000Y22479674D01*
X60900000Y54300000D02*
X59000000Y56200000D01*
X60900000Y28679674D02*
X61700000Y28679674D01*
X61700000Y21179674D02*
X60900000Y21179674D01*
X61900000Y30879674D02*
X61900000Y30979674D01*
X60900000Y23679674D02*
X61700000Y23679674D01*
X60900000Y23179674D02*
X60100000Y23179674D01*
X47250508Y60957500D02*
X41929492Y60957500D01*
X59900000Y20379674D02*
X59900000Y20479674D01*
X59900000Y29379674D02*
X59900000Y29479674D01*
X61700000Y36179674D02*
X60900000Y36179674D01*
X41500000Y5100000D02*
X42500000Y6100000D01*
X61900000Y27879674D02*
X61900000Y27979674D01*
X61900000Y35879674D02*
X61900000Y35979674D01*
X32900000Y11400000D02*
X32900000Y8911992D01*
X60100000Y21679674D02*
X60900000Y21679674D01*
X59900000Y32379674D02*
X59900000Y32479674D01*
X26000000Y17000000D02*
X28200000Y14800000D01*
X41929492Y60957500D02*
X41521992Y60550000D01*
X61100000Y20179674D02*
X60900000Y20179674D01*
X60100000Y32679674D02*
X60900000Y32679674D01*
X59900000Y33379674D02*
X59900000Y33479674D01*
X61100000Y36679674D02*
X61700000Y36679674D01*
X59900000Y23479674D02*
G75*
G02*
X60100000Y23679700I200000J26D01*
G01*
X59900000Y26479674D02*
G75*
G02*
X60100000Y26679700I200000J26D01*
G01*
X61900000Y27979674D02*
G75*
G03*
X61700000Y28179700I-200000J26D01*
G01*
X60100000Y22179674D02*
G75*
G02*
X59899974Y22379674I0J200026D01*
G01*
X59900000Y28479674D02*
G75*
G02*
X60100000Y28679700I200000J26D01*
G01*
X61900000Y26979674D02*
G75*
G03*
X61700000Y27179700I-200000J26D01*
G01*
X59900000Y25479674D02*
G75*
G02*
X60100000Y25679700I200000J26D01*
G01*
X61700000Y31679674D02*
G75*
G03*
X61900026Y31879674I0J200026D01*
G01*
X60100000Y21179674D02*
G75*
G02*
X59899974Y21379674I0J200026D01*
G01*
X61700000Y20679674D02*
G75*
G03*
X61900026Y20879674I0J200026D01*
G01*
X59900000Y22479674D02*
G75*
G02*
X60100000Y22679700I200000J26D01*
G01*
X61900000Y22979674D02*
G75*
G03*
X61700000Y23179700I-200000J26D01*
G01*
X61900000Y31979674D02*
G75*
G03*
X61700000Y32179700I-200000J26D01*
G01*
X61900000Y30979674D02*
G75*
G03*
X61700000Y31179700I-200000J26D01*
G01*
X61700000Y23679674D02*
G75*
G03*
X61900026Y23879674I0J200026D01*
G01*
X61700000Y26679674D02*
G75*
G03*
X61900026Y26879674I0J200026D01*
G01*
X61700000Y28679674D02*
G75*
G03*
X61900026Y28879674I0J200026D01*
G01*
X60100000Y33179674D02*
G75*
G02*
X59899974Y33379674I0J200026D01*
G01*
X61900000Y36979674D02*
G75*
G03*
X61700000Y37179700I-200000J26D01*
G01*
X61700000Y27679674D02*
G75*
G03*
X61900026Y27879674I0J200026D01*
G01*
X61900000Y28979674D02*
G75*
G03*
X61700000Y29179700I-200000J26D01*
G01*
X60100000Y34179674D02*
G75*
G02*
X59899974Y34379674I0J200026D01*
G01*
X61700000Y32679674D02*
G75*
G03*
X61900026Y32879674I0J200026D01*
G01*
X61900000Y23979674D02*
G75*
G03*
X61700000Y24179700I-200000J26D01*
G01*
X61700000Y33679674D02*
G75*
G03*
X61900026Y33879674I0J200026D01*
G01*
X60100000Y28179674D02*
G75*
G02*
X59899974Y28379674I0J200026D01*
G01*
X59900000Y33479674D02*
G75*
G02*
X60100000Y33679700I200000J26D01*
G01*
X59900000Y35479674D02*
G75*
G02*
X60100000Y35679700I200000J26D01*
G01*
X59900000Y32479674D02*
G75*
G02*
X60100000Y32679700I200000J26D01*
G01*
X61700000Y25679674D02*
G75*
G03*
X61900026Y25879674I0J200026D01*
G01*
X59900000Y20479674D02*
G75*
G02*
X60100000Y20679700I200000J26D01*
G01*
X60100000Y29179674D02*
G75*
G02*
X59899974Y29379674I0J200026D01*
G01*
X61700000Y21679674D02*
G75*
G03*
X61900026Y21879674I0J200026D01*
G01*
X61700000Y34679674D02*
G75*
G03*
X61900026Y34879674I0J200026D01*
G01*
X60100000Y36179674D02*
G75*
G02*
X59899974Y36379674I0J200026D01*
G01*
X59900000Y29479674D02*
G75*
G02*
X60100000Y29679700I200000J26D01*
G01*
X61900000Y19979674D02*
G75*
G03*
X61700000Y20179700I-200000J26D01*
G01*
X61200000Y24679674D02*
G75*
G03*
X61400026Y24879674I0J200026D01*
G01*
X61700000Y36679674D02*
G75*
G03*
X61900026Y36879674I0J200026D01*
G01*
X61900000Y34979674D02*
G75*
G03*
X61700000Y35179700I-200000J26D01*
G01*
X61700000Y35679674D02*
G75*
G03*
X61900026Y35879674I0J200026D01*
G01*
X61900000Y32979674D02*
G75*
G03*
X61700000Y33179700I-200000J26D01*
G01*
X61700000Y19679674D02*
G75*
G03*
X61900026Y19879674I0J200026D01*
G01*
X59900000Y24479674D02*
G75*
G02*
X60100000Y24679700I200000J26D01*
G01*
X59900000Y27479674D02*
G75*
G02*
X60100000Y27679700I200000J26D01*
G01*
X61900000Y29979674D02*
G75*
G03*
X61700000Y30179700I-200000J26D01*
G01*
X61700000Y29679674D02*
G75*
G03*
X61900026Y29879674I0J200026D01*
G01*
X60100000Y32179674D02*
G75*
G02*
X59899974Y32379674I0J200026D01*
G01*
X61900000Y35979674D02*
G75*
G03*
X61700000Y36179700I-200000J26D01*
G01*
X59900000Y36479674D02*
G75*
G02*
X60100000Y36679700I200000J26D01*
G01*
X61100000Y37179674D02*
G75*
G02*
X60899974Y37379674I0J200026D01*
G01*
X61400000Y24979674D02*
G75*
G03*
X61200000Y25179700I-200000J26D01*
G01*
X60100000Y24179674D02*
G75*
G02*
X59899974Y24379674I0J200026D01*
G01*
X60100000Y25179674D02*
G75*
G02*
X59899974Y25379674I0J200026D01*
G01*
X61700000Y22679674D02*
G75*
G03*
X61900026Y22879674I0J200026D01*
G01*
X59900000Y21479674D02*
G75*
G02*
X60100000Y21679700I200000J26D01*
G01*
X60100000Y27179674D02*
G75*
G02*
X59899974Y27379674I0J200026D01*
G01*
X60100000Y35179674D02*
G75*
G02*
X59899974Y35379674I0J200026D01*
G01*
X61900000Y33979674D02*
G75*
G03*
X61700000Y34179700I-200000J26D01*
G01*
X60100000Y26179674D02*
G75*
G02*
X59899974Y26379674I0J200026D01*
G01*
X61900000Y20979674D02*
G75*
G03*
X61700000Y21179700I-200000J26D01*
G01*
X61700000Y30679674D02*
G75*
G03*
X61900026Y30879674I0J200026D01*
G01*
X60100000Y20179674D02*
G75*
G02*
X59899974Y20379674I0J200026D01*
G01*
X59900000Y31479674D02*
G75*
G02*
X60100000Y31679700I200000J26D01*
G01*
X61900000Y21979674D02*
G75*
G03*
X61700000Y22179700I-200000J26D01*
G01*
X61900000Y25979674D02*
G75*
G03*
X61700000Y26179700I-200000J26D01*
G01*
X60100000Y31179674D02*
G75*
G02*
X59899974Y31379674I0J200026D01*
G01*
X60900000Y19479674D02*
G75*
G02*
X61100000Y19679700I200000J26D01*
G01*
X59900000Y30479674D02*
G75*
G02*
X60100000Y30679700I200000J26D01*
G01*
X60100000Y23179674D02*
G75*
G02*
X59899974Y23379674I0J200026D01*
G01*
X60100000Y30179674D02*
G75*
G02*
X59899974Y30379674I0J200026D01*
G01*
X59900000Y34479674D02*
G75*
G02*
X60100000Y34679700I200000J26D01*
G01*
%TO.N,/FPGA banks 13-16/RGMII_RXD0_FPGA*%
X40400000Y68800000D02*
X40400000Y70600000D01*
X41600000Y71800000D02*
X42300000Y71800000D01*
X40400000Y70600000D02*
X41600000Y71800000D01*
X40200000Y68600000D02*
X40400000Y68800000D01*
%TO.N,DDR3_BA1*%
X40447828Y44647828D02*
X40447828Y44947828D01*
X39483619Y38916381D02*
X39280000Y39120000D01*
X41150000Y45850000D02*
X41150000Y46143654D01*
X41145000Y46573259D02*
X41145000Y46581658D01*
X39706616Y43906616D02*
X40447828Y44647828D01*
X38741892Y39790000D02*
X38635892Y39790000D01*
X41139932Y46360086D02*
X41134476Y46366127D01*
X39533229Y42785707D02*
X39608182Y42860661D01*
X36662000Y41342000D02*
X36662000Y41588000D01*
X33559878Y39530122D02*
X33450000Y39640000D01*
X39483619Y38416381D02*
X39483619Y38916381D01*
X40447828Y44947828D02*
X40464868Y44964868D01*
X39608182Y43160474D02*
X39434233Y43334423D01*
X35561892Y39790000D02*
X35455892Y39790000D01*
X41145000Y46581658D02*
X41145450Y46582108D01*
X35773892Y39332000D02*
X35773892Y39578000D01*
X36874000Y41800000D02*
X36980000Y41800000D01*
X35814000Y41800000D02*
X35920000Y41800000D01*
X33908000Y40382000D02*
X33662000Y40382000D01*
X34925892Y39120000D02*
X33970000Y39120000D01*
X33662000Y39852000D02*
X33908000Y39852000D01*
X38211892Y39120000D02*
X38105892Y39120000D01*
X36303892Y39578000D02*
X36303892Y39332000D01*
X38309934Y42210122D02*
X38483882Y42036174D01*
X38858648Y42410941D02*
X38684699Y42584890D01*
X37600000Y41800000D02*
X38010121Y42210122D01*
X35243892Y39578000D02*
X35243892Y39332000D01*
X33450000Y40700000D02*
X33450000Y41450000D01*
X34754000Y41800000D02*
X34860000Y41800000D01*
X41134476Y46366127D02*
X41145000Y46573259D01*
X35602000Y41342000D02*
X35602000Y41588000D01*
X41145450Y46582108D02*
X41149745Y46666649D01*
X36344000Y41130000D02*
X36450000Y41130000D01*
X41141005Y46152651D02*
X41139932Y46360086D01*
X41280000Y34910000D02*
X41000000Y35190000D01*
X36621892Y39790000D02*
X36515892Y39790000D01*
X37681892Y39790000D02*
X37575892Y39790000D01*
X36980000Y41800000D02*
X37600000Y41800000D01*
X38759654Y42959656D02*
X38759655Y42959655D01*
X34224000Y41130000D02*
X34330000Y41130000D01*
X41000000Y35190000D02*
X41000000Y36900000D01*
X35072000Y41588000D02*
X35072000Y41342000D01*
X40464868Y45164868D02*
X41150000Y45850000D01*
X33450000Y40594000D02*
X33450000Y40700000D01*
X41149745Y46666649D02*
X41150000Y46666904D01*
X40464868Y44964868D02*
X40464868Y45164868D01*
X39280000Y39120000D02*
X39165892Y39120000D01*
X41150000Y46143654D02*
X41141005Y46152651D01*
X39434233Y43634236D02*
X39509188Y43709189D01*
X33450000Y41450000D02*
X33800000Y41800000D01*
X35031892Y39120000D02*
X34925892Y39120000D01*
X36833892Y39332000D02*
X36833892Y39578000D01*
X34120000Y40064000D02*
X34120000Y40170000D01*
X33970000Y39120000D02*
X33559878Y39530122D01*
X34542000Y41342000D02*
X34542000Y41588000D01*
X36132000Y41588000D02*
X36132000Y41342000D01*
X38423892Y39578000D02*
X38423892Y39332000D01*
X41000000Y36900000D02*
X39483619Y38416381D01*
X36091892Y39120000D02*
X35985892Y39120000D01*
X38953892Y39332000D02*
X38953892Y39578000D01*
X37151892Y39120000D02*
X37045892Y39120000D01*
X38783695Y42036174D02*
X38858648Y42111128D01*
X37363892Y39578000D02*
X37363892Y39332000D01*
X39059468Y42959655D02*
X39233416Y42785707D01*
X38684699Y42884703D02*
X38759654Y42959656D01*
X37893892Y39332000D02*
X37893892Y39578000D01*
X39509188Y43709189D02*
X39706616Y43906616D01*
X34012000Y41588000D02*
X34012000Y41342000D01*
X41150000Y48720000D02*
X41260000Y48830000D01*
X35284000Y41130000D02*
X35390000Y41130000D01*
X41150000Y46666904D02*
X41150000Y48720000D01*
X35455892Y39790000D02*
G75*
G03*
X35243900Y39578000I8J-212000D01*
G01*
X35773892Y39578000D02*
G75*
G03*
X35561892Y39789992I-211992J0D01*
G01*
X33800000Y41800000D02*
G75*
G02*
X34012000Y41588000I0J-212000D01*
G01*
X36450000Y41130000D02*
G75*
G03*
X36662000Y41342000I0J212000D01*
G01*
X35920000Y41800000D02*
G75*
G02*
X36132000Y41588000I0J-212000D01*
G01*
X35390000Y41130000D02*
G75*
G03*
X35602000Y41342000I0J212000D01*
G01*
X38010121Y42210122D02*
G75*
G02*
X38309934Y42210123I149907J-149908D01*
G01*
X34012000Y41342000D02*
G75*
G03*
X34224000Y41130000I212000J0D01*
G01*
X39165892Y39120000D02*
G75*
G02*
X38953900Y39332000I8J212000D01*
G01*
X37575892Y39790000D02*
G75*
G03*
X37363900Y39578000I8J-212000D01*
G01*
X39608182Y42860661D02*
G75*
G03*
X39608215Y43160507I-149882J149939D01*
G01*
X34860000Y41800000D02*
G75*
G02*
X35072000Y41588000I0J-212000D01*
G01*
X36515892Y39790000D02*
G75*
G03*
X36303900Y39578000I8J-212000D01*
G01*
X35602000Y41588000D02*
G75*
G02*
X35814000Y41800000I212000J0D01*
G01*
X33662000Y40382000D02*
G75*
G02*
X33450000Y40594000I0J212000D01*
G01*
X38635892Y39790000D02*
G75*
G03*
X38423900Y39578000I8J-212000D01*
G01*
X33908000Y39852000D02*
G75*
G03*
X34120000Y40064000I0J212000D01*
G01*
X36833892Y39578000D02*
G75*
G03*
X36621892Y39789992I-211992J0D01*
G01*
X37363892Y39332000D02*
G75*
G02*
X37151892Y39120008I-211992J0D01*
G01*
X37893892Y39578000D02*
G75*
G03*
X37681892Y39789992I-211992J0D01*
G01*
X38953892Y39578000D02*
G75*
G03*
X38741892Y39789992I-211992J0D01*
G01*
X34330000Y41130000D02*
G75*
G03*
X34542000Y41342000I0J212000D01*
G01*
X33450000Y39640000D02*
G75*
G02*
X33662000Y39852000I212000J0D01*
G01*
X38759655Y42959655D02*
G75*
G02*
X39059468Y42959656I149907J-149908D01*
G01*
X36132000Y41342000D02*
G75*
G03*
X36344000Y41130000I212000J0D01*
G01*
X34542000Y41588000D02*
G75*
G02*
X34754000Y41800000I212000J0D01*
G01*
X36303892Y39332000D02*
G75*
G02*
X36091892Y39120008I-211992J0D01*
G01*
X39233416Y42785707D02*
G75*
G03*
X39533229Y42785706I149907J149908D01*
G01*
X37045892Y39120000D02*
G75*
G02*
X36833900Y39332000I8J212000D01*
G01*
X38858648Y42111128D02*
G75*
G03*
X38858614Y42410907I-149948J149872D01*
G01*
X38684699Y42584890D02*
G75*
G02*
X38684695Y42884707I149901J149910D01*
G01*
X36662000Y41588000D02*
G75*
G02*
X36874000Y41800000I212000J0D01*
G01*
X34120000Y40170000D02*
G75*
G03*
X33908000Y40382000I-212000J0D01*
G01*
X38483882Y42036174D02*
G75*
G03*
X38783695Y42036173I149907J149908D01*
G01*
X38423892Y39332000D02*
G75*
G02*
X38211892Y39120008I-211992J0D01*
G01*
X38105892Y39120000D02*
G75*
G02*
X37893900Y39332000I8J212000D01*
G01*
X35243892Y39332000D02*
G75*
G02*
X35031892Y39120008I-211992J0D01*
G01*
X35985892Y39120000D02*
G75*
G02*
X35773900Y39332000I8J212000D01*
G01*
X39434233Y43334423D02*
G75*
G02*
X39434262Y43634206I149867J149877D01*
G01*
X35072000Y41342000D02*
G75*
G03*
X35284000Y41130000I212000J0D01*
G01*
%TO.N,DDR3_A0*%
X41780000Y31890000D02*
X41780000Y31060000D01*
X44180000Y38500000D02*
X43550000Y38500000D01*
X44630000Y43800000D02*
X44630000Y43700000D01*
X43350000Y40300000D02*
X43350000Y40200000D01*
X43550000Y44000000D02*
X44430000Y44000000D01*
X43550000Y39000000D02*
X44180000Y39000000D01*
X42845000Y33525000D02*
X42845000Y32955000D01*
X44430000Y43500000D02*
X43550000Y43500000D01*
X43350000Y37200000D02*
X43350000Y37050000D01*
X42122500Y49677500D02*
X42122500Y47577500D01*
X44430000Y40500000D02*
X43550000Y40500000D01*
X43350000Y38300000D02*
X43350000Y38200000D01*
X41780000Y31060000D02*
X41750000Y31030000D01*
X42080000Y35780000D02*
X42080000Y34388908D01*
X43350000Y42300000D02*
X43350000Y42200000D01*
X44630000Y37800000D02*
X44630000Y37700000D01*
X42080000Y34388908D02*
X42277500Y34191408D01*
X42540000Y47160000D02*
X42540000Y46010000D01*
X44630000Y44800000D02*
X44630000Y44700000D01*
X42845000Y32955000D02*
X41780000Y31890000D01*
X42277500Y34191408D02*
X42277500Y34092500D01*
X43550000Y41000000D02*
X44430000Y41000000D01*
X43350000Y39300000D02*
X43350000Y39200000D01*
X43550000Y43000000D02*
X44430000Y43000000D01*
X44630000Y41800000D02*
X44630000Y41700000D01*
X44430000Y42500000D02*
X43550000Y42500000D01*
X44430000Y44500000D02*
X43550000Y44500000D01*
X44430000Y37500000D02*
X43550000Y37500000D01*
X44380000Y38800000D02*
X44380000Y38700000D01*
X42122500Y47577500D02*
X42540000Y47160000D01*
X43550000Y45000000D02*
X44430000Y45000000D01*
X43350000Y43300000D02*
X43350000Y43200000D01*
X43350000Y37300000D02*
X43350000Y37200000D01*
X44430000Y41500000D02*
X43550000Y41500000D01*
X43050000Y45500000D02*
X43350000Y45200000D01*
X42277500Y34092500D02*
X42845000Y33525000D01*
X43550000Y38000000D02*
X44430000Y38000000D01*
X44380000Y39500000D02*
X43550000Y39500000D01*
X43350000Y37050000D02*
X42975000Y36675000D01*
X44580000Y39800000D02*
X44580000Y39700000D01*
X43350000Y44300000D02*
X43350000Y44200000D01*
X42540000Y46010000D02*
X43050000Y45500000D01*
X43550000Y40000000D02*
X44380000Y40000000D01*
X43350000Y41300000D02*
X43350000Y41200000D01*
X43550000Y42000000D02*
X44430000Y42000000D01*
X44630000Y40800000D02*
X44630000Y40700000D01*
X42975000Y36675000D02*
X42080000Y35780000D01*
X44630000Y42800000D02*
X44630000Y42700000D01*
X43550000Y41500000D02*
G75*
G03*
X43350000Y41300000I0J-200000D01*
G01*
X44430000Y43000000D02*
G75*
G02*
X44630000Y42800000I0J-200000D01*
G01*
X43350000Y41200000D02*
G75*
G03*
X43550000Y41000000I200000J0D01*
G01*
X44380000Y40000000D02*
G75*
G02*
X44580000Y39800000I0J-200000D01*
G01*
X43350000Y44200000D02*
G75*
G03*
X43550000Y44000000I200000J0D01*
G01*
X44430000Y42000000D02*
G75*
G02*
X44630000Y41800000I0J-200000D01*
G01*
X44630000Y43700000D02*
G75*
G02*
X44430000Y43500000I-200000J0D01*
G01*
X44630000Y37700000D02*
G75*
G02*
X44430000Y37500000I-200000J0D01*
G01*
X44430000Y44000000D02*
G75*
G02*
X44630000Y43800000I0J-200000D01*
G01*
X44430000Y38000000D02*
G75*
G02*
X44630000Y37800000I0J-200000D01*
G01*
X44380000Y38700000D02*
G75*
G02*
X44180000Y38500000I-200000J0D01*
G01*
X43350000Y39200000D02*
G75*
G03*
X43550000Y39000000I200000J0D01*
G01*
X43550000Y37500000D02*
G75*
G03*
X43350000Y37300000I0J-200000D01*
G01*
X43550000Y39500000D02*
G75*
G03*
X43350000Y39300000I0J-200000D01*
G01*
X43350000Y42200000D02*
G75*
G03*
X43550000Y42000000I200000J0D01*
G01*
X44180000Y39000000D02*
G75*
G02*
X44380000Y38800000I0J-200000D01*
G01*
X43550000Y43500000D02*
G75*
G03*
X43350000Y43300000I0J-200000D01*
G01*
X44430000Y41000000D02*
G75*
G02*
X44630000Y40800000I0J-200000D01*
G01*
X43350000Y38200000D02*
G75*
G03*
X43550000Y38000000I200000J0D01*
G01*
X43550000Y38500000D02*
G75*
G03*
X43350000Y38300000I0J-200000D01*
G01*
X44630000Y40700000D02*
G75*
G02*
X44430000Y40500000I-200000J0D01*
G01*
X43550000Y40500000D02*
G75*
G03*
X43350000Y40300000I0J-200000D01*
G01*
X43550000Y44500000D02*
G75*
G03*
X43350000Y44300000I0J-200000D01*
G01*
X44630000Y41700000D02*
G75*
G02*
X44430000Y41500000I-200000J0D01*
G01*
X44630000Y42700000D02*
G75*
G02*
X44430000Y42500000I-200000J0D01*
G01*
X44630000Y44700000D02*
G75*
G02*
X44430000Y44500000I-200000J0D01*
G01*
X43550000Y42500000D02*
G75*
G03*
X43350000Y42300000I0J-200000D01*
G01*
X44580000Y39700000D02*
G75*
G02*
X44380000Y39500000I-200000J0D01*
G01*
X43350000Y40200000D02*
G75*
G03*
X43550000Y40000000I200000J0D01*
G01*
X44430000Y45000000D02*
G75*
G02*
X44630000Y44800000I0J-200000D01*
G01*
X43350000Y45200000D02*
G75*
G03*
X43550000Y45000000I200000J0D01*
G01*
X43350000Y43200000D02*
G75*
G03*
X43550000Y43000000I200000J0D01*
G01*
%TO.N,DDR3_A2*%
X45640000Y38765351D02*
X46480000Y38765351D01*
X43600000Y36600000D02*
X43600000Y36570000D01*
X45640000Y41165351D02*
X46480000Y41165351D01*
X45640000Y39965351D02*
X46480000Y39965351D01*
X42590000Y31110000D02*
X42585000Y31110000D01*
X45400000Y45300000D02*
X45400000Y45005351D01*
X42560000Y47840000D02*
X43050000Y47350000D01*
X46720000Y44525351D02*
X46720000Y44405351D01*
X43120000Y31640000D02*
X42590000Y31110000D01*
X46480000Y44165351D02*
X45640000Y44165351D01*
X45400000Y43925351D02*
X45400000Y43805351D01*
X46720000Y38525351D02*
X46720000Y38405351D01*
X44700000Y36600000D02*
X43600000Y36600000D01*
X46720000Y42125351D02*
X46720000Y42005351D01*
X42122500Y50677500D02*
X42560000Y50240000D01*
X43500000Y46200000D02*
X44500000Y46200000D01*
X46480000Y39365351D02*
X45640000Y39365351D01*
X42560000Y50240000D02*
X42560000Y47840000D01*
X42392500Y34567500D02*
X43120000Y33840000D01*
X46480000Y40565351D02*
X45640000Y40565351D01*
X45400000Y37300000D02*
X44700000Y36600000D01*
X46720000Y39725351D02*
X46720000Y39605351D01*
X43600000Y36570000D02*
X42392500Y35362500D01*
X45400000Y40325351D02*
X45400000Y40205351D01*
X46480000Y42965351D02*
X45640000Y42965351D01*
X45400000Y41525351D02*
X45400000Y41405351D01*
X42392500Y35362500D02*
X42392500Y34567500D01*
X45400000Y37805351D02*
X45400000Y37300000D01*
X45400000Y37925351D02*
X45400000Y37805351D01*
X46720000Y43325351D02*
X46720000Y43205351D01*
X45400000Y39125351D02*
X45400000Y39005351D01*
X46480000Y38165351D02*
X45640000Y38165351D01*
X43050000Y46650000D02*
X43500000Y46200000D01*
X45400000Y42725351D02*
X45400000Y42605351D01*
X45640000Y43565351D02*
X46480000Y43565351D01*
X45640000Y42365351D02*
X46480000Y42365351D01*
X43120000Y33840000D02*
X43120000Y31640000D01*
X42585000Y31110000D02*
X42475000Y31000000D01*
X44500000Y46200000D02*
X45400000Y45300000D01*
X46720000Y40925351D02*
X46720000Y40805351D01*
X45640000Y44765351D02*
X46480000Y44765351D01*
X46480000Y41765351D02*
X45640000Y41765351D01*
X43050000Y47350000D02*
X43050000Y46650000D01*
X46720000Y40805351D02*
G75*
G02*
X46480000Y40565300I-240000J-51D01*
G01*
X45640000Y40565351D02*
G75*
G03*
X45400049Y40325351I0J-239951D01*
G01*
X45640000Y42965351D02*
G75*
G03*
X45400049Y42725351I0J-239951D01*
G01*
X46720000Y39605351D02*
G75*
G02*
X46480000Y39365300I-240000J-51D01*
G01*
X45400000Y40205351D02*
G75*
G03*
X45640000Y39965300I240000J-51D01*
G01*
X46480000Y41165351D02*
G75*
G02*
X46719951Y40925351I0J-239951D01*
G01*
X45640000Y39365351D02*
G75*
G03*
X45400049Y39125351I0J-239951D01*
G01*
X45400000Y42605351D02*
G75*
G03*
X45640000Y42365300I240000J-51D01*
G01*
X45640000Y38165351D02*
G75*
G03*
X45400049Y37925351I0J-239951D01*
G01*
X45400000Y39005351D02*
G75*
G03*
X45640000Y38765300I240000J-51D01*
G01*
X46720000Y38405351D02*
G75*
G02*
X46480000Y38165300I-240000J-51D01*
G01*
X46720000Y44405351D02*
G75*
G02*
X46480000Y44165300I-240000J-51D01*
G01*
X45640000Y44165351D02*
G75*
G03*
X45400049Y43925351I0J-239951D01*
G01*
X45400000Y43805351D02*
G75*
G03*
X45640000Y43565300I240000J-51D01*
G01*
X46720000Y43205351D02*
G75*
G02*
X46480000Y42965300I-240000J-51D01*
G01*
X46480000Y39965351D02*
G75*
G02*
X46719951Y39725351I0J-239951D01*
G01*
X46480000Y38765351D02*
G75*
G02*
X46719951Y38525351I0J-239951D01*
G01*
X45400000Y41405351D02*
G75*
G03*
X45640000Y41165300I240000J-51D01*
G01*
X46480000Y44765351D02*
G75*
G02*
X46719951Y44525351I0J-239951D01*
G01*
X45640000Y41765351D02*
G75*
G03*
X45400049Y41525351I0J-239951D01*
G01*
X46480000Y43565351D02*
G75*
G02*
X46719951Y43325351I0J-239951D01*
G01*
X46720000Y42005351D02*
G75*
G02*
X46480000Y41765300I-240000J-51D01*
G01*
X45400000Y45005351D02*
G75*
G03*
X45640000Y44765300I240000J-51D01*
G01*
X46480000Y42365351D02*
G75*
G02*
X46719951Y42125351I0J-239951D01*
G01*
%TO.N,DDR3_A1*%
X42100000Y38183851D02*
X42100000Y38283851D01*
X41500000Y52055000D02*
X42122500Y52677500D01*
X41900000Y42483851D02*
X41090000Y42483851D01*
X41090000Y43983851D02*
X41900000Y43983851D01*
X40890000Y38683851D02*
X40890000Y38783851D01*
X42081092Y33900000D02*
X42000000Y33900000D01*
X41800000Y36600000D02*
X42100000Y36900000D01*
X41090000Y44983851D02*
X41900000Y44983851D01*
X42370000Y33290000D02*
X42370000Y33611092D01*
X42100000Y42183851D02*
X42100000Y42283851D01*
X41900000Y44483851D02*
X41090000Y44483851D01*
X41090000Y39983851D02*
X41900000Y39983851D01*
X41900000Y37483851D02*
X41090000Y37483851D01*
X42100000Y45800000D02*
X41800000Y46100000D01*
X42370000Y33611092D02*
X42081092Y33900000D01*
X41090000Y42983851D02*
X41900000Y42983851D01*
X42000000Y33900000D02*
X41800000Y34100000D01*
X41900000Y38483851D02*
X41090000Y38483851D01*
X42100000Y39183851D02*
X42100000Y39283851D01*
X42100000Y45283851D02*
X42100000Y45450000D01*
X41800000Y48908719D02*
X41500000Y49208719D01*
X41500000Y49208719D02*
X41500000Y52055000D01*
X41090000Y40983851D02*
X41900000Y40983851D01*
X40890000Y37683851D02*
X40890000Y37783851D01*
X41090000Y37983851D02*
X41900000Y37983851D01*
X40890000Y41683851D02*
X40890000Y41783851D01*
X40890000Y42683851D02*
X40890000Y42783851D01*
X42100000Y45183851D02*
X42100000Y45283851D01*
X41090000Y38983851D02*
X41900000Y38983851D01*
X42100000Y45450000D02*
X42100000Y45800000D01*
X40890000Y43683851D02*
X40890000Y43783851D01*
X41900000Y40483851D02*
X41090000Y40483851D01*
X42100000Y36900000D02*
X42100000Y37283851D01*
X42100000Y44183851D02*
X42100000Y44283851D01*
X41900000Y41483851D02*
X41090000Y41483851D01*
X42100000Y40183851D02*
X42100000Y40283851D01*
X40890000Y39683851D02*
X40890000Y39783851D01*
X42100000Y41183851D02*
X42100000Y41283851D01*
X41090000Y41983851D02*
X41900000Y41983851D01*
X40890000Y40683851D02*
X40890000Y40783851D01*
X41900000Y43483851D02*
X41090000Y43483851D01*
X40890000Y44683851D02*
X40890000Y44783851D01*
X42100000Y43183851D02*
X42100000Y43283851D01*
X41800000Y46100000D02*
X41800000Y48908719D01*
X41900000Y39483851D02*
X41090000Y39483851D01*
X41800000Y34100000D02*
X41800000Y36600000D01*
X40890000Y44783851D02*
G75*
G02*
X41090000Y44983800I200000J-51D01*
G01*
X40890000Y40783851D02*
G75*
G02*
X41090000Y40983800I200000J-51D01*
G01*
X41900000Y40983851D02*
G75*
G03*
X42100049Y41183851I0J200049D01*
G01*
X40890000Y39783851D02*
G75*
G02*
X41090000Y39983800I200000J-51D01*
G01*
X41900000Y43983851D02*
G75*
G03*
X42100049Y44183851I0J200049D01*
G01*
X40890000Y38783851D02*
G75*
G02*
X41090000Y38983800I200000J-51D01*
G01*
X41090000Y39483851D02*
G75*
G02*
X40889951Y39683851I0J200049D01*
G01*
X41900000Y38983851D02*
G75*
G03*
X42100049Y39183851I0J200049D01*
G01*
X40890000Y41783851D02*
G75*
G02*
X41090000Y41983800I200000J-51D01*
G01*
X42100000Y38283851D02*
G75*
G03*
X41900000Y38483800I-200000J-51D01*
G01*
X40890000Y43783851D02*
G75*
G02*
X41090000Y43983800I200000J-51D01*
G01*
X41090000Y42483851D02*
G75*
G02*
X40889951Y42683851I0J200049D01*
G01*
X40890000Y42783851D02*
G75*
G02*
X41090000Y42983800I200000J-51D01*
G01*
X42100000Y43283851D02*
G75*
G03*
X41900000Y43483800I-200000J-51D01*
G01*
X42100000Y41283851D02*
G75*
G03*
X41900000Y41483800I-200000J-51D01*
G01*
X41900000Y37983851D02*
G75*
G03*
X42100049Y38183851I0J200049D01*
G01*
X41900000Y42983851D02*
G75*
G03*
X42100049Y43183851I0J200049D01*
G01*
X41900000Y44983851D02*
G75*
G03*
X42100049Y45183851I0J200049D01*
G01*
X41090000Y43483851D02*
G75*
G02*
X40889951Y43683851I0J200049D01*
G01*
X41090000Y38483851D02*
G75*
G02*
X40889951Y38683851I0J200049D01*
G01*
X41900000Y41983851D02*
G75*
G03*
X42100049Y42183851I0J200049D01*
G01*
X42100000Y42283851D02*
G75*
G03*
X41900000Y42483800I-200000J-51D01*
G01*
X41090000Y41483851D02*
G75*
G02*
X40889951Y41683851I0J200049D01*
G01*
X42100000Y40283851D02*
G75*
G03*
X41900000Y40483800I-200000J-51D01*
G01*
X42100000Y39283851D02*
G75*
G03*
X41900000Y39483800I-200000J-51D01*
G01*
X42100000Y44283851D02*
G75*
G03*
X41900000Y44483800I-200000J-51D01*
G01*
X41900000Y39983851D02*
G75*
G03*
X42100049Y40183851I0J200049D01*
G01*
X41090000Y44483851D02*
G75*
G02*
X40889951Y44683851I0J200049D01*
G01*
X40890000Y37783851D02*
G75*
G02*
X41090000Y37983800I200000J-51D01*
G01*
X42100000Y37283851D02*
G75*
G03*
X41900000Y37483800I-200000J-51D01*
G01*
X41090000Y40483851D02*
G75*
G02*
X40889951Y40683851I0J200049D01*
G01*
X41090000Y37483851D02*
G75*
G02*
X40889951Y37683851I0J200049D01*
G01*
%TO.N,DDR3_A9*%
X43060000Y27140000D02*
X42110000Y28090000D01*
X53185000Y54115000D02*
X56800000Y50500000D01*
X42110000Y28090000D02*
X42110000Y29960000D01*
X54840000Y27140000D02*
X43060000Y27140000D01*
X42560000Y54115000D02*
X53185000Y54115000D01*
X42122500Y53677500D02*
X42560000Y54115000D01*
X43150000Y31000000D02*
X43275000Y31000000D01*
X42110000Y29960000D02*
X43150000Y31000000D01*
X56800000Y29100000D02*
X54840000Y27140000D01*
X56800000Y50500000D02*
X56800000Y29100000D01*
%TO.N,ROT_SS*%
D27*
X31275998Y61574002D02*
X14103400Y61574002D01*
X41470000Y60950000D02*
X31900000Y60950000D01*
X42090000Y61570000D02*
X41470000Y60950000D01*
X14103400Y61574002D02*
X12777377Y62900025D01*
X31900000Y60950000D02*
X31275998Y61574002D01*
%TO.N,SGPIO_INTR_N*%
X55947488Y18052512D02*
X55947488Y17840378D01*
X55947488Y17840378D02*
X53657110Y15550000D01*
X53657110Y15550000D02*
X53160000Y15550000D01*
%TO.N,ROT_SCLK*%
X15925996Y62774004D02*
X15775996Y62924004D01*
X29674004Y62774004D02*
X15925996Y62774004D01*
X30900000Y64000000D02*
X29674004Y62774004D01*
X42090000Y64570000D02*
X41520000Y64000000D01*
X41520000Y64000000D02*
X30900000Y64000000D01*
%TO.N,DDR3_A4*%
D31*
X47030000Y35660000D02*
X47030000Y35680000D01*
X48620000Y45630000D02*
X48400000Y45630000D01*
X47440658Y46700000D02*
X48100000Y46700000D01*
X48640000Y41230000D02*
X48400000Y41230000D01*
X48160000Y41780000D02*
X48400000Y41780000D01*
X47940000Y41010000D02*
X47940000Y40900000D01*
X48860000Y39360000D02*
X48860000Y39250000D01*
X48160000Y39580000D02*
X48400000Y39580000D01*
X48860000Y44860000D02*
X48860000Y44750000D01*
X48400000Y43980000D02*
X48640000Y43980000D01*
X48640000Y37930000D02*
X48400000Y37930000D01*
X48400000Y37050000D02*
X48400000Y36500000D01*
X48400000Y36500000D02*
X47975735Y36075736D01*
X47940000Y42110000D02*
X47940000Y42000000D01*
X47940000Y37710000D02*
X47940000Y37600000D01*
X48640000Y43430000D02*
X48400000Y43430000D01*
X47940000Y38810000D02*
X47940000Y38700000D01*
X47940000Y45410000D02*
X47940000Y45300000D01*
X48400000Y41780000D02*
X48640000Y41780000D01*
X48400000Y38480000D02*
X48640000Y38480000D01*
X48640000Y39030000D02*
X48400000Y39030000D01*
X48640000Y40130000D02*
X48400000Y40130000D01*
X48860000Y38260000D02*
X48860000Y38150000D01*
X43122500Y47877500D02*
X44300000Y46700000D01*
X48400000Y45630000D02*
X48160000Y45630000D01*
X48860000Y40460000D02*
X48860000Y40350000D01*
X47940000Y44310000D02*
X47940000Y44200000D01*
X46700000Y35900000D02*
X46270776Y35900000D01*
X48400000Y40130000D02*
X48160000Y40130000D01*
X48860000Y45960000D02*
X48860000Y45850000D01*
X44300000Y46700000D02*
X47440658Y46700000D01*
X48160000Y45080000D02*
X48400000Y45080000D01*
X48620000Y46180000D02*
X48640000Y46180000D01*
X47940000Y43210000D02*
X47940000Y43100000D01*
X48400000Y39580000D02*
X48640000Y39580000D01*
X48180000Y37930000D02*
X48160000Y37930000D01*
X47940000Y39910000D02*
X47940000Y39800000D01*
X48400000Y42880000D02*
X48640000Y42880000D01*
X48400000Y41230000D02*
X48160000Y41230000D01*
X48400000Y44530000D02*
X48160000Y44530000D01*
X48640000Y45630000D02*
X48620000Y45630000D01*
X48400000Y37160000D02*
X48400000Y37050000D01*
X48860000Y41560000D02*
X48860000Y41450000D01*
X43122500Y49677500D02*
X43122500Y47877500D01*
X46810000Y35900000D02*
X46700000Y35900000D01*
X48160000Y38480000D02*
X48400000Y38480000D01*
X43870000Y35900000D02*
X42830000Y34860000D01*
X48640000Y44530000D02*
X48400000Y44530000D01*
X48860000Y42660000D02*
X48860000Y42550000D01*
X48400000Y45080000D02*
X48640000Y45080000D01*
X48640000Y42330000D02*
X48400000Y42330000D01*
X48400000Y42330000D02*
X48160000Y42330000D01*
X48160000Y43980000D02*
X48400000Y43980000D01*
X48160000Y37380000D02*
X48180000Y37380000D01*
X47360000Y35440000D02*
X47250000Y35440000D01*
X48400000Y37930000D02*
X48180000Y37930000D01*
X48400000Y43430000D02*
X48160000Y43430000D01*
X47975735Y36075736D02*
X47800000Y35900000D01*
X48160000Y42880000D02*
X48400000Y42880000D01*
X48860000Y43760000D02*
X48860000Y43650000D01*
X48160000Y40680000D02*
X48400000Y40680000D01*
X48400000Y40680000D02*
X48640000Y40680000D01*
X46270776Y35900000D02*
X43870000Y35900000D01*
X47580000Y35680000D02*
X47580000Y35660000D01*
X48100000Y46700000D02*
X48400000Y46400000D01*
X48400000Y39030000D02*
X48160000Y39030000D01*
X47940000Y45300000D02*
G75*
G03*
X48160000Y45080000I220000J0D01*
G01*
X48860000Y45850000D02*
G75*
G02*
X48640000Y45630000I-220000J0D01*
G01*
X47940000Y42000000D02*
G75*
G03*
X48160000Y41780000I220000J0D01*
G01*
X47940000Y40900000D02*
G75*
G03*
X48160000Y40680000I220000J0D01*
G01*
X47940000Y43100000D02*
G75*
G03*
X48160000Y42880000I220000J0D01*
G01*
X48860000Y39250000D02*
G75*
G02*
X48640000Y39030000I-220000J0D01*
G01*
X48160000Y40130000D02*
G75*
G03*
X47940000Y39910000I0J-220000D01*
G01*
X48160000Y43430000D02*
G75*
G03*
X47940000Y43210000I0J-220000D01*
G01*
X47800000Y35900000D02*
G75*
G03*
X47580000Y35680000I0J-220000D01*
G01*
X47250000Y35440000D02*
G75*
G02*
X47030000Y35660000I0J220000D01*
G01*
X48860000Y44750000D02*
G75*
G02*
X48640000Y44530000I-220000J0D01*
G01*
X48860000Y40350000D02*
G75*
G02*
X48640000Y40130000I-220000J0D01*
G01*
X48640000Y43980000D02*
G75*
G02*
X48860000Y43760000I0J-220000D01*
G01*
X47940000Y44200000D02*
G75*
G03*
X48160000Y43980000I220000J0D01*
G01*
X48860000Y38150000D02*
G75*
G02*
X48640000Y37930000I-220000J0D01*
G01*
X47580000Y35660000D02*
G75*
G02*
X47360000Y35440000I-220000J0D01*
G01*
X48640000Y39580000D02*
G75*
G02*
X48860000Y39360000I0J-220000D01*
G01*
X48160000Y41230000D02*
G75*
G03*
X47940000Y41010000I0J-220000D01*
G01*
X48160000Y42330000D02*
G75*
G03*
X47940000Y42110000I0J-220000D01*
G01*
X48860000Y42550000D02*
G75*
G02*
X48640000Y42330000I-220000J0D01*
G01*
X47940000Y37600000D02*
G75*
G03*
X48160000Y37380000I220000J0D01*
G01*
X48640000Y40680000D02*
G75*
G02*
X48860000Y40460000I0J-220000D01*
G01*
X48640000Y42880000D02*
G75*
G02*
X48860000Y42660000I0J-220000D01*
G01*
X47940000Y38700000D02*
G75*
G03*
X48160000Y38480000I220000J0D01*
G01*
X47940000Y39800000D02*
G75*
G03*
X48160000Y39580000I220000J0D01*
G01*
X48160000Y44530000D02*
G75*
G03*
X47940000Y44310000I0J-220000D01*
G01*
X48180000Y37380000D02*
G75*
G02*
X48400000Y37160000I0J-220000D01*
G01*
X47030000Y35680000D02*
G75*
G03*
X46810000Y35900000I-220000J0D01*
G01*
X48160000Y39030000D02*
G75*
G03*
X47940000Y38810000I0J-220000D01*
G01*
X48160000Y45630000D02*
G75*
G03*
X47940000Y45410000I0J-220000D01*
G01*
X48400000Y46400000D02*
G75*
G03*
X48620000Y46180000I220000J0D01*
G01*
X48860000Y43650000D02*
G75*
G02*
X48640000Y43430000I-220000J0D01*
G01*
X48860000Y41450000D02*
G75*
G02*
X48640000Y41230000I-220000J0D01*
G01*
X48640000Y45080000D02*
G75*
G02*
X48860000Y44860000I0J-220000D01*
G01*
X48640000Y46180000D02*
G75*
G02*
X48860000Y45960000I0J-220000D01*
G01*
X48160000Y37930000D02*
G75*
G03*
X47940000Y37710000I0J-220000D01*
G01*
X48640000Y41780000D02*
G75*
G02*
X48860000Y41560000I0J-220000D01*
G01*
X48640000Y38480000D02*
G75*
G02*
X48860000Y38260000I0J-220000D01*
G01*
%TO.N,DDR3_A6*%
X50150000Y44650000D02*
X50000000Y44650000D01*
X50300000Y45100000D02*
X50300000Y44800000D01*
X49850000Y45250000D02*
X50000000Y45250000D01*
X47500000Y32900000D02*
X45255000Y35145000D01*
X49589497Y47500000D02*
X49700000Y47500000D01*
X50000000Y45250000D02*
X50150000Y45250000D01*
X49700000Y47500000D02*
X50000000Y47200000D01*
X43122500Y50677500D02*
X43560000Y50240000D01*
X50000000Y44650000D02*
X49850000Y44650000D01*
X43560000Y50240000D02*
X43560000Y48321281D01*
X50000000Y44050000D02*
X50150000Y44050000D01*
X49700000Y46900000D02*
X49700000Y46600000D01*
X50300000Y46300000D02*
X50300000Y46000000D01*
X44381281Y47500000D02*
X49589497Y47500000D01*
X43560000Y48321281D02*
X44381281Y47500000D01*
X49700000Y43300000D02*
X49700000Y43000000D01*
X50000000Y33400000D02*
X49500000Y32900000D01*
X50150000Y43450000D02*
X50000000Y43450000D01*
X49850000Y44050000D02*
X50000000Y44050000D01*
X44655000Y35145000D02*
X43660000Y34150000D01*
X50000000Y43450000D02*
X49850000Y43450000D01*
X49500000Y32900000D02*
X47500000Y32900000D01*
X45255000Y35145000D02*
X44655000Y35145000D01*
X49700000Y45700000D02*
X49700000Y45400000D01*
X49850000Y46450000D02*
X50000000Y46450000D01*
X50000000Y45850000D02*
X49850000Y45850000D01*
X50000000Y42400000D02*
X50000000Y41955904D01*
X50150000Y45850000D02*
X50000000Y45850000D01*
X50000000Y42700000D02*
X50000000Y42400000D01*
X50000000Y46450000D02*
X50150000Y46450000D01*
X49700000Y44500000D02*
X49700000Y44200000D01*
X50000000Y41955904D02*
X50000000Y33400000D01*
X50300000Y43900000D02*
X50300000Y43600000D01*
X50150000Y46450000D02*
G75*
G02*
X50300000Y46300000I0J-150000D01*
G01*
X50150000Y45250000D02*
G75*
G02*
X50300000Y45100000I0J-150000D01*
G01*
X50300000Y43600000D02*
G75*
G02*
X50150000Y43450000I-150000J0D01*
G01*
X49850000Y43450000D02*
G75*
G03*
X49700000Y43300000I0J-150000D01*
G01*
X49850000Y45850000D02*
G75*
G03*
X49700000Y45700000I0J-150000D01*
G01*
X50150000Y44050000D02*
G75*
G02*
X50300000Y43900000I0J-150000D01*
G01*
X50300000Y44800000D02*
G75*
G02*
X50150000Y44650000I-150000J0D01*
G01*
X49700000Y46600000D02*
G75*
G03*
X49850000Y46450000I150000J0D01*
G01*
X49700000Y43000000D02*
G75*
G03*
X49850000Y42850000I150000J0D01*
G01*
X49850000Y47050000D02*
G75*
G03*
X49700000Y46900000I0J-150000D01*
G01*
X50300000Y46000000D02*
G75*
G02*
X50150000Y45850000I-150000J0D01*
G01*
X49850000Y42850000D02*
G75*
G02*
X50000000Y42700000I0J-150000D01*
G01*
X49700000Y45400000D02*
G75*
G03*
X49850000Y45250000I150000J0D01*
G01*
X49850000Y44650000D02*
G75*
G03*
X49700000Y44500000I0J-150000D01*
G01*
X49700000Y44200000D02*
G75*
G03*
X49850000Y44050000I150000J0D01*
G01*
X50000000Y47200000D02*
G75*
G02*
X49850000Y47050000I-150000J0D01*
G01*
%TO.N,DDR3_A14*%
X52200000Y32000000D02*
X51600000Y31400000D01*
X44500000Y33300000D02*
X44580000Y33380000D01*
X44500000Y32700000D02*
X44500000Y33300000D01*
X45031281Y49150000D02*
X45450000Y49150000D01*
X51400000Y49000000D02*
X52200000Y48200000D01*
X45600000Y32400000D02*
X44800000Y32400000D01*
X52200000Y48200000D02*
X52200000Y32000000D01*
X45450000Y49150000D02*
X45600000Y49000000D01*
X44685000Y49496281D02*
X45031281Y49150000D01*
X43122500Y51677500D02*
X43685000Y51115000D01*
X44685000Y50733719D02*
X44685000Y49496281D01*
X44800000Y32400000D02*
X44500000Y32700000D01*
X51600000Y31400000D02*
X46600000Y31400000D01*
X44580000Y33380000D02*
X44580000Y33760000D01*
X45600000Y49000000D02*
X51400000Y49000000D01*
X43685000Y51115000D02*
X44303719Y51115000D01*
X44303719Y51115000D02*
X44685000Y50733719D01*
X46600000Y31400000D02*
X45600000Y32400000D01*
%TO.N,DDR3_A7*%
X55000000Y49800000D02*
X55000000Y30300000D01*
X46066281Y52115000D02*
X52685000Y52115000D01*
X44210000Y28800000D02*
X43680000Y29330000D01*
X45685000Y52765000D02*
X45685000Y52496281D01*
X53500000Y28800000D02*
X44210000Y28800000D01*
X52685000Y52115000D02*
X55000000Y49800000D01*
X45335000Y53115000D02*
X45685000Y52765000D01*
X45685000Y52496281D02*
X46066281Y52115000D01*
X55000000Y30300000D02*
X53500000Y28800000D01*
X43560000Y53115000D02*
X45335000Y53115000D01*
X43122500Y52677500D02*
X43560000Y53115000D01*
%TO.N,I2C[12]_SCL*%
D27*
X59600000Y18000000D02*
X59800015Y17799985D01*
X59800015Y17799985D02*
X59800015Y15620015D01*
X59800015Y15620015D02*
X53370000Y9190000D01*
%TO.N,ROT_GPIO1*%
X30156846Y62174004D02*
X30182843Y62200000D01*
X14277334Y62894927D02*
X14998257Y62174004D01*
X30182843Y62200000D02*
X42720000Y62200000D01*
X14998257Y62174004D02*
X30156846Y62174004D01*
X42720000Y62200000D02*
X43090000Y62570000D01*
%TO.N,DDR3_A8*%
D31*
X51000000Y47800000D02*
X51000000Y42556979D01*
X51000000Y38606979D02*
X50900000Y38606979D01*
X51000000Y37506979D02*
X50900000Y37506979D01*
X51000000Y36956979D02*
X51100000Y36956979D01*
X51000000Y36406979D02*
X50900000Y36406979D01*
X51000000Y38056979D02*
X51100000Y38056979D01*
X44792372Y49000000D02*
X45000000Y48792372D01*
X51200000Y41256979D02*
X51200000Y40906979D01*
X45200000Y34300000D02*
X44950000Y34550000D01*
X51000000Y35856979D02*
X51100000Y35856979D01*
X45200000Y33800000D02*
X45200000Y34300000D01*
X51100000Y37506979D02*
X51000000Y37506979D01*
X45000000Y48792372D02*
X45000000Y48500000D01*
X51200000Y37956979D02*
X51200000Y37606979D01*
X50600000Y32100000D02*
X46900000Y32100000D01*
X51100000Y39706979D02*
X51000000Y39706979D01*
X51000000Y34311477D02*
X51000000Y32500000D01*
X51000000Y41356979D02*
X51100000Y41356979D01*
X51000000Y35206979D02*
X51000000Y34856979D01*
X46900000Y32100000D02*
X45200000Y33800000D01*
X51200000Y40156979D02*
X51200000Y39806979D01*
X51000000Y40806979D02*
X50900000Y40806979D01*
X51000000Y32500000D02*
X50600000Y32100000D01*
X50900000Y35856979D02*
X51000000Y35856979D01*
X50800000Y40706979D02*
X50800000Y40356979D01*
X51000000Y39156979D02*
X51100000Y39156979D01*
X51200000Y39056979D02*
X51200000Y38706979D01*
X45000000Y48500000D02*
X45200000Y48300000D01*
X51200000Y42356979D02*
X51200000Y42006979D01*
X51200000Y35756979D02*
X51200000Y35406979D01*
X50900000Y38056979D02*
X51000000Y38056979D01*
X51100000Y41906979D02*
X51000000Y41906979D01*
X44122500Y49677500D02*
X44122500Y49177500D01*
X50900000Y41356979D02*
X51000000Y41356979D01*
X50800000Y41806979D02*
X50800000Y41456979D01*
X50900000Y36956979D02*
X51000000Y36956979D01*
X51000000Y41906979D02*
X50900000Y41906979D01*
X51000000Y34856979D02*
X51000000Y34311477D01*
X44300000Y49000000D02*
X44792372Y49000000D01*
X51100000Y40806979D02*
X51000000Y40806979D01*
X51200000Y36856979D02*
X51200000Y36506979D01*
X44122500Y49177500D02*
X44300000Y49000000D01*
X50800000Y37406979D02*
X50800000Y37056979D01*
X50900000Y40256979D02*
X51000000Y40256979D01*
X51000000Y40256979D02*
X51100000Y40256979D01*
X51100000Y38606979D02*
X51000000Y38606979D01*
X50800000Y38506979D02*
X50800000Y38156979D01*
X50900000Y39156979D02*
X51000000Y39156979D01*
X51100000Y36406979D02*
X51000000Y36406979D01*
X51000000Y39706979D02*
X50900000Y39706979D01*
X44950000Y34550000D02*
X44710000Y34550000D01*
X50800000Y36306979D02*
X50800000Y35956979D01*
X50500000Y48300000D02*
X51000000Y47800000D01*
X50800000Y39606979D02*
X50800000Y39256979D01*
X45200000Y48300000D02*
X50500000Y48300000D01*
X51100000Y40256979D02*
G75*
G02*
X51199979Y40156979I0J-99979D01*
G01*
X51200000Y39806979D02*
G75*
G02*
X51100000Y39707000I-100000J21D01*
G01*
X50900000Y36406979D02*
G75*
G03*
X50800021Y36306979I0J-99979D01*
G01*
X51100000Y39156979D02*
G75*
G02*
X51199979Y39056979I0J-99979D01*
G01*
X50900000Y38606979D02*
G75*
G03*
X50800021Y38506979I0J-99979D01*
G01*
X50900000Y37506979D02*
G75*
G03*
X50800021Y37406979I0J-99979D01*
G01*
X50800000Y39256979D02*
G75*
G03*
X50900000Y39157000I100000J21D01*
G01*
X50900000Y39706979D02*
G75*
G03*
X50800021Y39606979I0J-99979D01*
G01*
X51200000Y40906979D02*
G75*
G02*
X51100000Y40807000I-100000J21D01*
G01*
X51200000Y36506979D02*
G75*
G02*
X51100000Y36407000I-100000J21D01*
G01*
X50900000Y40806979D02*
G75*
G03*
X50800021Y40706979I0J-99979D01*
G01*
X50800000Y37056979D02*
G75*
G03*
X50900000Y36957000I100000J21D01*
G01*
X51200000Y38706979D02*
G75*
G02*
X51100000Y38607000I-100000J21D01*
G01*
X51100000Y42456979D02*
G75*
G02*
X51199979Y42356979I0J-99979D01*
G01*
X51200000Y37606979D02*
G75*
G02*
X51100000Y37507000I-100000J21D01*
G01*
X51100000Y38056979D02*
G75*
G02*
X51199979Y37956979I0J-99979D01*
G01*
X51100000Y35306979D02*
G75*
G03*
X51000021Y35206979I0J-99979D01*
G01*
X51000000Y42556979D02*
G75*
G03*
X51100000Y42457000I100000J21D01*
G01*
X51200000Y42006979D02*
G75*
G02*
X51100000Y41907000I-100000J21D01*
G01*
X51100000Y35856979D02*
G75*
G02*
X51199979Y35756979I0J-99979D01*
G01*
X50800000Y38156979D02*
G75*
G03*
X50900000Y38057000I100000J21D01*
G01*
X50800000Y40356979D02*
G75*
G03*
X50900000Y40257000I100000J21D01*
G01*
X50900000Y41906979D02*
G75*
G03*
X50800021Y41806979I0J-99979D01*
G01*
X50800000Y35956979D02*
G75*
G03*
X50900000Y35857000I100000J21D01*
G01*
X51200000Y35406979D02*
G75*
G02*
X51100000Y35307000I-100000J21D01*
G01*
X50800000Y41456979D02*
G75*
G03*
X50900000Y41357000I100000J21D01*
G01*
X51100000Y41356979D02*
G75*
G02*
X51199979Y41256979I0J-99979D01*
G01*
X51100000Y36956979D02*
G75*
G02*
X51199979Y36856979I0J-99979D01*
G01*
%TO.N,DDR3_A11*%
X44122500Y51677500D02*
X44378781Y51677500D01*
X45303719Y51115000D02*
X45650000Y50768719D01*
X53200000Y49300000D02*
X53200000Y31600000D01*
X52100000Y30500000D02*
X46100000Y30500000D01*
X43570000Y32030000D02*
X43570000Y33410000D01*
X45650000Y50200000D02*
X52300000Y50200000D01*
X43900000Y31700000D02*
X43570000Y32030000D01*
X44941281Y51115000D02*
X45303719Y51115000D01*
X44900000Y31700000D02*
X43900000Y31700000D01*
X45650000Y50768719D02*
X45650000Y50200000D01*
X46100000Y30500000D02*
X44900000Y31700000D01*
X53200000Y31600000D02*
X52100000Y30500000D01*
X52300000Y50200000D02*
X53200000Y49300000D01*
X44378781Y51677500D02*
X44941281Y51115000D01*
%TO.N,DDR3_A13*%
X52700000Y29700000D02*
X44900000Y29700000D01*
X45178719Y52240000D02*
X45650000Y51768719D01*
X52585000Y51115000D02*
X54100000Y49600000D01*
X45941281Y51115000D02*
X52585000Y51115000D01*
X44490000Y30110000D02*
X44490000Y30930000D01*
X44560000Y52240000D02*
X45178719Y52240000D01*
X45650000Y51406281D02*
X45941281Y51115000D01*
X54100000Y31100000D02*
X52700000Y29700000D01*
X54100000Y49600000D02*
X54100000Y31100000D01*
X44900000Y29700000D02*
X44490000Y30110000D01*
X45650000Y51768719D02*
X45650000Y51406281D01*
X44122500Y52677500D02*
X44560000Y52240000D01*
%TO.N,DDR3_A5*%
X53900000Y27900000D02*
X55900000Y29900000D01*
X43300000Y27900000D02*
X53900000Y27900000D01*
X45378781Y53677500D02*
X44122500Y53677500D01*
X45941281Y53115000D02*
X45378781Y53677500D01*
X52885000Y53115000D02*
X45941281Y53115000D01*
X55900000Y29900000D02*
X55900000Y50100000D01*
X42790000Y29400000D02*
X42850000Y29340000D01*
X42850000Y28350000D02*
X43300000Y27900000D01*
X42850000Y29340000D02*
X42850000Y28350000D01*
X55900000Y50100000D02*
X52885000Y53115000D01*
%TO.N,I2C[9]_SCL*%
D27*
X56522216Y18027241D02*
X56522216Y17882216D01*
X56522216Y17882216D02*
X53240000Y14600000D01*
X53240000Y14600000D02*
X52150000Y14600000D01*
%TO.N,DBG_UART_RX*%
X44465000Y70375000D02*
X44465000Y70699731D01*
X47870000Y76600000D02*
X48900000Y76600000D01*
X44465000Y70699731D02*
X47170000Y73404731D01*
X44100000Y67700000D02*
X43960000Y67700000D01*
X43700000Y67960000D02*
X43700000Y69810000D01*
X47170000Y75900000D02*
X47870000Y76600000D01*
X47170000Y73404731D02*
X47170000Y75900000D01*
X43960000Y67700000D02*
X43700000Y67960000D01*
X44125000Y70235000D02*
X44325000Y70235000D01*
X44325000Y70235000D02*
X44465000Y70375000D01*
X43700000Y69810000D02*
X44125000Y70235000D01*
%TO.N,JTAG_TDI*%
X46820000Y63300000D02*
X47800000Y63300000D01*
X53100000Y65690708D02*
X53100000Y78865684D01*
X53100000Y78865684D02*
X60334316Y86100000D01*
X45090000Y61570000D02*
X46820000Y63300000D01*
X60334316Y86100000D02*
X60700000Y86100000D01*
X60700000Y86100000D02*
X63000000Y88400000D01*
X51259292Y63850000D02*
X53100000Y65690708D01*
X48350000Y63850000D02*
X51259292Y63850000D01*
X47800000Y63300000D02*
X48350000Y63850000D01*
X63000000Y88400000D02*
X66000000Y88400000D01*
%TO.N,I2C[11]_SDA*%
X59100000Y17855344D02*
X59335000Y17620344D01*
X52300000Y8800000D02*
X52230000Y8800000D01*
X59335000Y17620344D02*
X59335000Y15835000D01*
X59100000Y17900000D02*
X59100000Y17855344D01*
X59335000Y15835000D02*
X52300000Y8800000D01*
%TO.N,I2C[11]_SCL*%
X58554787Y17895263D02*
X58567211Y17882839D01*
X58800009Y15601434D02*
X52978575Y9780000D01*
X58800009Y15939350D02*
X58800009Y15601434D01*
X59135000Y16274341D02*
X58800009Y15939350D01*
X58567211Y17882839D02*
X58567211Y17732789D01*
X59135000Y17165000D02*
X59135000Y16274341D01*
X52978575Y9780000D02*
X52230000Y9780000D01*
X58567211Y17732789D02*
X59135000Y17165000D01*
%TO.N,JTAG_TMS*%
X65900000Y86200000D02*
X61100000Y86200000D01*
X61100000Y86200000D02*
X60800000Y85900000D01*
X49747134Y62055000D02*
X53300000Y65607866D01*
X60417158Y85900000D02*
X53300000Y78782842D01*
X46090000Y61570000D02*
X46570000Y62050000D01*
X47372157Y62055000D02*
X49747134Y62055000D01*
X53300000Y65607866D02*
X53300000Y78782842D01*
X46570000Y62050000D02*
X47367157Y62050000D01*
X60800000Y85900000D02*
X60417158Y85900000D01*
X47367157Y62050000D02*
X47372157Y62055000D01*
%TO.N,Net-(U14A-IO_L6P_T0_FCS_B_14)*%
X46090000Y67570000D02*
X45700000Y67180000D01*
X15300178Y62374004D02*
X14422533Y63251649D01*
X30074004Y62374004D02*
X15300178Y62374004D01*
X30620000Y62920000D02*
X30074004Y62374004D01*
X12551649Y63251649D02*
X12200000Y62900000D01*
X43550000Y62900000D02*
X43530000Y62920000D01*
X14422533Y63251649D02*
X12551649Y63251649D01*
X43530000Y62920000D02*
X30620000Y62920000D01*
X43617158Y62900000D02*
X43550000Y62900000D01*
X45700000Y67180000D02*
X45700000Y64982842D01*
X45700000Y64982842D02*
X43617158Y62900000D01*
%TO.N,I2C[12]_SDA*%
X54400000Y9937158D02*
X60200000Y15737158D01*
X60200000Y15737158D02*
X60200000Y17900000D01*
X54400000Y8825000D02*
X54400000Y9937158D01*
%TO.N,I2C[5]_SCL*%
X51003555Y22896445D02*
X51003555Y22203555D01*
X51003555Y22203555D02*
X49600000Y20800000D01*
X49600000Y20800000D02*
X48100000Y20800000D01*
X50800000Y23100000D02*
X51003555Y22896445D01*
%TO.N,I2C[10]_SDA*%
X58935000Y16357183D02*
X55527817Y12950000D01*
X55527817Y12950000D02*
X53340000Y12950000D01*
X58056643Y17938333D02*
X58064521Y17946211D01*
X58935000Y16865000D02*
X58935000Y16357183D01*
X58064521Y17735479D02*
X58935000Y16865000D01*
X58064521Y17946211D02*
X58064521Y17735479D01*
%TO.N,JTAG_TDO*%
X49010025Y61855000D02*
X49299975Y61855000D01*
X60500000Y85700000D02*
X66300000Y85700000D01*
X66100000Y87300000D02*
X65900000Y87300000D01*
X66300000Y85700000D02*
X66600000Y86000000D01*
X53500000Y78700000D02*
X60500000Y85700000D01*
X53500000Y65525024D02*
X53500000Y78700000D01*
X49824976Y61850000D02*
X53500000Y65525024D01*
X66600000Y86800000D02*
X66100000Y87300000D01*
X49299975Y61855000D02*
X49304975Y61850000D01*
X47450000Y61850000D02*
X49005025Y61850000D01*
X49304975Y61850000D02*
X49824976Y61850000D01*
X66600000Y86000000D02*
X66600000Y86800000D01*
X47200000Y61600000D02*
X47450000Y61850000D01*
X49005025Y61850000D02*
X49010025Y61855000D01*
%TO.N,ROT_GPIO2*%
X43634316Y63200000D02*
X30617158Y63200000D01*
X46200000Y68600000D02*
X45440000Y67840000D01*
X45440000Y67840000D02*
X45440000Y65005684D01*
X29991162Y62574004D02*
X15595153Y62574004D01*
X30617158Y63200000D02*
X29991162Y62574004D01*
X15595153Y62574004D02*
X15277009Y62892148D01*
X45440000Y65005684D02*
X43634316Y63200000D01*
%TO.N,I2C[5]_SDA*%
X51403987Y21653987D02*
X49750000Y20000000D01*
X51353555Y22648957D02*
X51403987Y22598525D01*
X51403987Y22598525D02*
X51403987Y21653987D01*
X49750000Y20000000D02*
X48100000Y20000000D01*
%TO.N,I2C[10]_SCL*%
X58400000Y17100000D02*
X58400000Y16105025D01*
X57561513Y18009598D02*
X57561513Y17938487D01*
X57561513Y17938487D02*
X58400000Y17100000D01*
X55704975Y13410000D02*
X52060000Y13410000D01*
X58400000Y16105025D02*
X55704975Y13410000D01*
%TO.N,JTAG_TCK*%
X48851504Y60551504D02*
X53700000Y65400000D01*
X53700000Y78600000D02*
X59600000Y84500000D01*
X59600000Y84500000D02*
X65900000Y84500000D01*
X65900000Y84500000D02*
X67000000Y85600000D01*
X53700000Y65400000D02*
X53700000Y78600000D01*
X67000000Y85600000D02*
X67000000Y88500000D01*
X67000000Y88500000D02*
X65900000Y89600000D01*
X48108496Y60551504D02*
X48851504Y60551504D01*
%TO.N,I2C[9]_SDA*%
X53550000Y14050000D02*
X53190000Y14050000D01*
X57067488Y17932512D02*
X57067488Y17567488D01*
X57067490Y17932514D02*
X57067488Y17932512D01*
X57067488Y17567488D02*
X53550000Y14050000D01*
%TO.N,SGPIO0_DO*%
X49850000Y19300000D02*
X48150000Y19300000D01*
X51800000Y21250000D02*
X49850000Y19300000D01*
X51753987Y22294127D02*
X51800000Y22248114D01*
X51800000Y22248114D02*
X51800000Y21250000D01*
%TO.N,SGPIO0_DI*%
X52200000Y21860596D02*
X52200000Y20700000D01*
X52200000Y20700000D02*
X49800000Y18300000D01*
X52150000Y21910596D02*
X52200000Y21860596D01*
X49800000Y18300000D02*
X48150000Y18300000D01*
%TO.N,SGPIO_RESET_N*%
X53200000Y16800000D02*
X55000000Y18600000D01*
X53150000Y16800000D02*
X53200000Y16800000D01*
%TO.N,ROT_MOSI*%
X46440000Y65425025D02*
X46440000Y65440000D01*
X13927334Y62749952D02*
X14132359Y62544927D01*
X13777377Y62901649D02*
X13927334Y62751692D01*
X43220000Y62220000D02*
X43234975Y62220000D01*
X46500000Y67474975D02*
X47595025Y68570000D01*
X46234975Y65220000D02*
X46440000Y65425025D01*
X13927334Y62751692D02*
X13927334Y62749952D01*
X46220000Y65220000D02*
X46234975Y65220000D01*
X46440000Y65440000D02*
X46500000Y65500000D01*
X14132359Y62544927D02*
X14134099Y62544927D01*
X43234975Y62220000D02*
X43440000Y62425025D01*
X30900000Y62000000D02*
X43000000Y62000000D01*
X46500000Y65500000D02*
X46500000Y67474975D01*
X14705022Y61974004D02*
X28700000Y61974004D01*
X30874002Y61974002D02*
X28700000Y61974004D01*
X30900000Y62000000D02*
X30874002Y61974002D01*
X43440000Y62425025D02*
X43440000Y62440000D01*
X43440000Y62440000D02*
X46220000Y65220000D01*
X14134099Y62544927D02*
X14705022Y61974004D01*
X47595025Y68570000D02*
X49090000Y68570000D01*
X43000000Y62000000D02*
X43220000Y62220000D01*
%TO.N,SGPIO0_LD*%
X52550000Y21588464D02*
X52600000Y21538464D01*
X49650000Y17300000D02*
X48150000Y17300000D01*
X52600000Y21538464D02*
X52600000Y20250000D01*
X52600000Y20250000D02*
X49650000Y17300000D01*
%TO.N,SGPIO1_LD*%
X53100000Y20800000D02*
X53100000Y19800000D01*
X53100000Y19800000D02*
X49850000Y16550000D01*
X49850000Y16550000D02*
X48150000Y16550000D01*
%TO.N,QSPIB_CLK*%
D31*
X7000000Y62800000D02*
X6500000Y62300000D01*
X6500000Y62300000D02*
X6500000Y54000000D01*
X6500000Y54000000D02*
X7100000Y53400000D01*
%TO.N,/Interfaces/DBG_USB_D_N*%
D25*
X75135000Y89565000D02*
X75400000Y89300000D01*
X75135000Y99120564D02*
X75135000Y89565000D01*
X66675000Y111550000D02*
X66510000Y111385000D01*
X66510000Y111385000D02*
X66510000Y107745564D01*
X66510000Y107745564D02*
X75135000Y99120564D01*
X66510000Y114135000D02*
X66510000Y111715000D01*
X66675000Y114300000D02*
X66510000Y114135000D01*
X66510000Y111715000D02*
X66675000Y111550000D01*
%TO.N,/Interfaces/DBG_USB_D_P*%
X66125000Y111550000D02*
X66290000Y111385000D01*
X66290000Y111385000D02*
X66290000Y107654436D01*
X66290000Y107654436D02*
X74915000Y99029436D01*
X66290000Y114135000D02*
X66290000Y111715000D01*
X66125000Y114300000D02*
X66290000Y114135000D01*
X66290000Y111715000D02*
X66125000Y111550000D01*
X74915000Y89565000D02*
X74650000Y89300000D01*
X74915000Y99029436D02*
X74915000Y89565000D01*
%TO.N,QSPI0_CLK*%
D31*
X12400000Y16200000D02*
X12300000Y16200000D01*
X23650000Y12700000D02*
X15900000Y12700000D01*
X26430000Y9920000D02*
X23650000Y12700000D01*
X15900000Y12700000D02*
X12400000Y16200000D01*
X28900000Y7300000D02*
X26430000Y9770000D01*
X26430000Y9770000D02*
X26430000Y9920000D01*
X12000000Y16500000D02*
X12000000Y19100000D01*
X12300000Y16200000D02*
X12000000Y16500000D01*
X32000000Y7300000D02*
X28900000Y7300000D01*
%TO.N,QSPI0_CS0_N*%
X24000000Y13200000D02*
X16000000Y13200000D01*
X16000000Y13200000D02*
X12500000Y16700000D01*
X12500000Y16700000D02*
X12500000Y19100000D01*
X29200000Y8000000D02*
X24000000Y13200000D01*
X32000000Y8000000D02*
X29200000Y8000000D01*
%TO.N,QSPI0_D0*%
X15700000Y14500000D02*
X23450000Y14500000D01*
X23450000Y14500000D02*
X29250000Y8700000D01*
X13000000Y17200000D02*
X15700000Y14500000D01*
X13000000Y19094385D02*
X13000000Y17200000D01*
X29250000Y8700000D02*
X31900000Y8700000D01*
X13000029Y19094414D02*
X13000000Y19094385D01*
%TO.N,QSPI0_D1*%
X32000000Y9500000D02*
X29200000Y9500000D01*
X15850000Y15050000D02*
X13500000Y17400000D01*
X29200000Y9500000D02*
X23650000Y15050000D01*
X23650000Y15050000D02*
X15850000Y15050000D01*
X13500000Y17400000D02*
X13500000Y19100000D01*
%TO.N,QSPI0_D2*%
X23900000Y15550000D02*
X29335074Y10114926D01*
X14000000Y17900000D02*
X16350000Y15550000D01*
X14000000Y19100000D02*
X14000000Y17900000D01*
X16350000Y15550000D02*
X23900000Y15550000D01*
X29335074Y10114926D02*
X31978732Y10114926D01*
%TO.N,QSPI0_D3*%
X29400000Y10800000D02*
X23100000Y17100000D01*
X32000000Y10800000D02*
X29400000Y10800000D01*
X23100000Y17100000D02*
X15600000Y17100000D01*
X14500000Y18200000D02*
X14500000Y19100000D01*
X15600000Y17100000D02*
X14500000Y18200000D01*
%TD*%
M02*
