%TF.GenerationSoftware,KiCad,Pcbnew,10.0.0*%
%TF.CreationDate,2026-03-28T20:46:19+01:00*%
%TF.ProjectId,artix-dc-scm,61727469-782d-4646-932d-73636d2e6b69,1.1.3*%
%TF.SameCoordinates,PX3950da0PYaafe6a0*%
%TF.FileFunction,Plated,1,8,PTH,Drill*%
%TF.FilePolarity,Positive*%
%FSLAX46Y46*%
G04 Gerber Fmt 4.6, Leading zero omitted, Abs format (unit mm)*
G04 Created by KiCad (PCBNEW 10.0.0) date 2026-03-28 20:46:19*
%MOMM*%
%LPD*%
G01*
G04 APERTURE LIST*
%TA.AperFunction,ViaDrill*%
%ADD10C,0.200000*%
%TD*%
%TA.AperFunction,ComponentDrill*%
%ADD11C,0.900000*%
%TD*%
%TA.AperFunction,ComponentDrill*%
%ADD12C,1.020000*%
%TD*%
%TA.AperFunction,ComponentDrill*%
%ADD13C,1.100000*%
%TD*%
%TA.AperFunction,ComponentDrill*%
%ADD14C,1.150000*%
%TD*%
%TA.AperFunction,ComponentDrill*%
%ADD15C,1.400000*%
%TD*%
%TA.AperFunction,ComponentDrill*%
%ADD16C,2.900000*%
%TD*%
%TA.AperFunction,ComponentDrill*%
%ADD17C,3.700000*%
%TD*%
G04 APERTURE END LIST*
D10*
X29800000Y65200000D03*
X29900000Y70900000D03*
X30200000Y51700000D03*
X30660000Y48420000D03*
X31150000Y55750000D03*
X31200000Y56600000D03*
X31247500Y58717500D03*
X31247500Y54717500D03*
X31247500Y51717500D03*
X31247500Y50717500D03*
X31247500Y49717500D03*
X31250000Y67550000D03*
X31250000Y63550000D03*
X31250000Y62550000D03*
X31250000Y61550000D03*
X31250000Y60550000D03*
X31500000Y30100000D03*
X31620000Y33300000D03*
X31690000Y48420000D03*
X31700000Y31000000D03*
X32200000Y56600000D03*
X32200000Y52700000D03*
X32247500Y57717500D03*
X32247500Y53717500D03*
X32247500Y51717500D03*
X32247500Y50717500D03*
X32247500Y49717500D03*
X32250000Y69550000D03*
X32250000Y68550000D03*
X32250000Y67550000D03*
X32250000Y66550000D03*
X32250000Y64550000D03*
X32250000Y63550000D03*
X32250000Y62550000D03*
X32250000Y61550000D03*
X32250000Y60550000D03*
X32470000Y30120000D03*
X32480000Y34120000D03*
X32480000Y30970000D03*
X32500000Y34910000D03*
X33247500Y57717500D03*
X33247500Y55717500D03*
X33247500Y53717500D03*
X33247500Y51717500D03*
X33247500Y50717500D03*
X33247500Y49717500D03*
X33250000Y68550000D03*
X33250000Y67550000D03*
X33250000Y66550000D03*
X33250000Y65550000D03*
X33250000Y64550000D03*
X33250000Y62550000D03*
X33250000Y61550000D03*
X33250000Y60550000D03*
X33270000Y29330000D03*
X33300000Y30100000D03*
X33345000Y34065000D03*
X33380000Y48410000D03*
X33530000Y31090000D03*
X34080000Y34120000D03*
X34080000Y33340000D03*
X34080000Y29320000D03*
X34100000Y48410000D03*
X34247500Y58717500D03*
X34247500Y56717500D03*
X34247500Y55717500D03*
X34247500Y54717500D03*
X34247500Y53717500D03*
X34247500Y52717500D03*
X34247500Y51717500D03*
X34247500Y50717500D03*
X34247500Y49717500D03*
X34250000Y69550000D03*
X34250000Y68550000D03*
X34250000Y65550000D03*
X34250000Y64550000D03*
X34250000Y63550000D03*
X34250000Y62550000D03*
X34250000Y61550000D03*
X34250000Y60550000D03*
X34250000Y31050000D03*
X34400000Y83050000D03*
X34400000Y82050000D03*
X34400000Y81050000D03*
X34400000Y79800000D03*
X34420646Y5174536D03*
X34870000Y29320000D03*
X34920000Y5200000D03*
X34930000Y30890000D03*
X35020000Y18100000D03*
X35150000Y78300000D03*
X35240000Y48580000D03*
X35247500Y58717500D03*
X35247500Y56717500D03*
X35247500Y55717500D03*
X35247500Y54717500D03*
X35247500Y53717500D03*
X35247500Y52717500D03*
X35247500Y50717500D03*
X35247500Y49717500D03*
X35250000Y69550000D03*
X35250000Y68550000D03*
X35250000Y67550000D03*
X35250000Y66550000D03*
X35250000Y65550000D03*
X35250000Y61550000D03*
X35250000Y60550000D03*
X35250000Y33170000D03*
X35580000Y18100000D03*
X35670000Y34120000D03*
X35690000Y34920000D03*
X35730000Y29380000D03*
X36247500Y58717500D03*
X36247500Y57717500D03*
X36247500Y56717500D03*
X36247500Y55717500D03*
X36247500Y54717500D03*
X36247500Y53717500D03*
X36247500Y52717500D03*
X36247500Y50717500D03*
X36247500Y49717500D03*
X36250000Y68550000D03*
X36250000Y67550000D03*
X36250000Y66550000D03*
X36250000Y65550000D03*
X36250000Y63550000D03*
X36250000Y62550000D03*
X36250000Y61550000D03*
X36250000Y60550000D03*
X36470000Y30940000D03*
X36470000Y30120000D03*
X36470000Y29320000D03*
X36500000Y33300000D03*
X36900000Y35980000D03*
X37200000Y18600000D03*
X37247500Y58717500D03*
X37247500Y57717500D03*
X37247500Y56717500D03*
X37247500Y55717500D03*
X37247500Y54717500D03*
X37247500Y53717500D03*
X37247500Y52717500D03*
X37247500Y51717500D03*
X37247500Y50717500D03*
X37247500Y49717500D03*
X37250000Y69550000D03*
X37250000Y68550000D03*
X37250000Y67550000D03*
X37250000Y66550000D03*
X37250000Y64550000D03*
X37250000Y61550000D03*
X37250000Y60550000D03*
X37270000Y34120000D03*
X37270000Y29320000D03*
X37300000Y33350000D03*
X37620000Y31110000D03*
X37650000Y72050000D03*
X37650000Y71050000D03*
X37700000Y23575000D03*
X37920000Y3700000D03*
X38050000Y28530000D03*
X38090000Y29350000D03*
X38220000Y30940000D03*
X38247500Y58717500D03*
X38247500Y57717500D03*
X38247500Y56717500D03*
X38247500Y55717500D03*
X38247500Y54717500D03*
X38247500Y53717500D03*
X38247500Y52717500D03*
X38247500Y51717500D03*
X38247500Y50717500D03*
X38247500Y49717500D03*
X38250000Y67550000D03*
X38250000Y66550000D03*
X38250000Y64550000D03*
X38250000Y63550000D03*
X38250000Y62550000D03*
X38250000Y61550000D03*
X38250000Y60550000D03*
X38480000Y3700000D03*
X38650000Y70800000D03*
X38800000Y21900000D03*
X38890000Y33320000D03*
X38900000Y76300000D03*
X38920000Y48540000D03*
X39150000Y28300000D03*
X39200000Y25475000D03*
X39230000Y35740000D03*
X39247500Y58717500D03*
X39247500Y57717500D03*
X39247500Y56717500D03*
X39247500Y55717500D03*
X39247500Y54717500D03*
X39247500Y53717500D03*
X39247500Y52717500D03*
X39247500Y51717500D03*
X39247500Y50717500D03*
X39247500Y49717500D03*
X39250000Y68550000D03*
X39250000Y66550000D03*
X39250000Y65550000D03*
X39250000Y64550000D03*
X39250000Y63550000D03*
X39250000Y62550000D03*
X39250000Y61550000D03*
X39250000Y60550000D03*
X39300000Y31100000D03*
X39300000Y20800000D03*
X39400000Y80800000D03*
X39500000Y33300000D03*
X39530000Y48530000D03*
X39650000Y78800000D03*
X39670000Y29330000D03*
X39680000Y30130000D03*
X39900000Y77550000D03*
X39900000Y31050000D03*
X40100000Y67500000D03*
X40200000Y68600000D03*
X40247500Y58717500D03*
X40247500Y57717500D03*
X40247500Y56717500D03*
X40247500Y55717500D03*
X40247500Y54717500D03*
X40247500Y53717500D03*
X40247500Y52717500D03*
X40247500Y51717500D03*
X40247500Y50717500D03*
X40247500Y49717500D03*
X40250000Y66550000D03*
X40250000Y65550000D03*
X40250000Y64550000D03*
X40250000Y63550000D03*
X40250000Y62550000D03*
X40250000Y61550000D03*
X40250000Y60550000D03*
X40330000Y33340000D03*
X40510000Y30100000D03*
X40690000Y48460000D03*
X40775000Y77800000D03*
X40790000Y30980000D03*
X40920000Y28370000D03*
X41252000Y78602000D03*
X41260000Y48830000D03*
X41280000Y34910000D03*
X41290000Y33340000D03*
X41300000Y30120000D03*
X41500000Y25075000D03*
X41750000Y31030000D03*
X41800000Y78550000D03*
X41900000Y77550000D03*
X42090000Y67570000D03*
X42090000Y65570000D03*
X42090000Y64570000D03*
X42090000Y63570000D03*
X42090000Y62570000D03*
X42090000Y61570000D03*
X42090000Y60570000D03*
X42100000Y68700000D03*
X42122500Y58677500D03*
X42122500Y57677500D03*
X42122500Y56677500D03*
X42122500Y55677500D03*
X42122500Y54677500D03*
X42122500Y53677500D03*
X42122500Y52677500D03*
X42122500Y51677500D03*
X42122500Y50677500D03*
X42122500Y49677500D03*
X42300000Y71800000D03*
X42370000Y33290000D03*
X42475000Y31000000D03*
X42790000Y29400000D03*
X42830000Y34860000D03*
X42900000Y77550000D03*
X43090000Y69570000D03*
X43090000Y68570000D03*
X43090000Y66570000D03*
X43090000Y64570000D03*
X43090000Y62570000D03*
X43090000Y61570000D03*
X43090000Y60570000D03*
X43122500Y58677500D03*
X43122500Y57677500D03*
X43122500Y56677500D03*
X43122500Y55677500D03*
X43122500Y54677500D03*
X43122500Y53677500D03*
X43122500Y52677500D03*
X43122500Y51677500D03*
X43122500Y50677500D03*
X43122500Y49677500D03*
X43275000Y31000000D03*
X43570000Y33410000D03*
X43650000Y77550000D03*
X43660000Y34150000D03*
X43680000Y29330000D03*
X43800000Y78400000D03*
X44000000Y48500000D03*
X44090000Y69570000D03*
X44090000Y67570000D03*
X44090000Y66570000D03*
X44090000Y65570000D03*
X44090000Y64570000D03*
X44090000Y61570000D03*
X44090000Y60570000D03*
X44122500Y58677500D03*
X44122500Y57677500D03*
X44122500Y56677500D03*
X44122500Y55677500D03*
X44122500Y54677500D03*
X44122500Y53677500D03*
X44122500Y52677500D03*
X44122500Y51677500D03*
X44122500Y50677500D03*
X44122500Y49677500D03*
X44200000Y68700000D03*
X44200000Y21600000D03*
X44300000Y71800000D03*
X44490000Y30930000D03*
X44550003Y48500000D03*
X44580000Y33760000D03*
X44710000Y34550000D03*
X44900000Y77550000D03*
X45090000Y69570000D03*
X45090000Y67570000D03*
X45090000Y66570000D03*
X45090000Y65570000D03*
X45090000Y63570000D03*
X45090000Y61570000D03*
X45090000Y60570000D03*
X45122500Y58677500D03*
X45122500Y57677500D03*
X45122500Y56677500D03*
X45122500Y55677500D03*
X45122500Y54677500D03*
X45122500Y52677500D03*
X45122500Y51677500D03*
X45122500Y50677500D03*
X45200000Y68600000D03*
X46090000Y69570000D03*
X46090000Y67570000D03*
X46090000Y66570000D03*
X46090000Y65570000D03*
X46090000Y61570000D03*
X46090000Y60570000D03*
X46122500Y58677500D03*
X46122500Y57677500D03*
X46122500Y56677500D03*
X46122500Y55677500D03*
X46122500Y54677500D03*
X46122500Y53677500D03*
X46122500Y52677500D03*
X46122500Y51677500D03*
X46122500Y50677500D03*
X46122500Y49677500D03*
X46200000Y68600000D03*
X46500000Y20000000D03*
X46500000Y19000000D03*
X46800000Y24300000D03*
X47090000Y69570000D03*
X47090000Y67570000D03*
X47090000Y66570000D03*
X47090000Y65570000D03*
X47090000Y62570000D03*
X47090000Y61570000D03*
X47090000Y60570000D03*
X47122500Y58677500D03*
X47122500Y57677500D03*
X47122500Y56677500D03*
X47122500Y55677500D03*
X47122500Y54677500D03*
X47122500Y53677500D03*
X47122500Y52677500D03*
X47122500Y51677500D03*
X47122500Y50677500D03*
X47200000Y68700000D03*
X48090000Y67570000D03*
X48090000Y66570000D03*
X48090000Y64570000D03*
X48090000Y60570000D03*
X48122500Y58677500D03*
X48122500Y56677500D03*
X48122500Y55677500D03*
X48122500Y54677500D03*
X48122500Y53677500D03*
X48122500Y52677500D03*
X48122500Y51677500D03*
X48122500Y50677500D03*
X48200000Y65700000D03*
X49090000Y68570000D03*
X49090000Y67570000D03*
X49090000Y66570000D03*
X49090000Y65570000D03*
X49090000Y61570000D03*
X49122500Y56677500D03*
X49122500Y55677500D03*
X49122500Y54677500D03*
X49122500Y53677500D03*
X49122500Y52677500D03*
X49122500Y51677500D03*
X49122500Y50677500D03*
X50090000Y69570000D03*
X50090000Y68570000D03*
X50090000Y67570000D03*
X50090000Y66570000D03*
X50090000Y63570000D03*
X50122500Y57677500D03*
X50122500Y56677500D03*
X50122500Y55677500D03*
X50122500Y54677500D03*
X50122500Y53677500D03*
X50122500Y52677500D03*
X50122500Y50677500D03*
X51090000Y65570000D03*
X51090000Y62570000D03*
X51090000Y60570000D03*
X51122500Y49677500D03*
X51200000Y70900000D03*
X51200000Y55600000D03*
X57300000Y51522500D03*
X60300000Y62400000D03*
X60400000Y63800000D03*
X60800000Y46900000D03*
X60800000Y44500000D03*
X60900000Y118100000D03*
X61400000Y115500000D03*
X62800000Y55100000D03*
X63300000Y71200000D03*
X63415166Y55115166D03*
X63600000Y61422500D03*
X63700000Y63700000D03*
X63700000Y48400000D03*
X63725000Y4100000D03*
X63800000Y71200000D03*
X63900000Y64600000D03*
X64100000Y55100000D03*
X64275000Y4100000D03*
X64300000Y71200000D03*
X64800000Y114200000D03*
X64900000Y119400000D03*
X65300000Y48200000D03*
X65525000Y4200000D03*
X65600000Y47500000D03*
X66000000Y44800000D03*
X66075000Y4200000D03*
X66100000Y63800000D03*
X66125000Y114300000D03*
X66125000Y111550000D03*
X66675000Y114300000D03*
X66675000Y111550000D03*
X67400000Y119500000D03*
X68200000Y52500000D03*
X68200000Y50600000D03*
X68200000Y50100000D03*
X68433507Y53600000D03*
X68433507Y53050000D03*
X68700000Y69750000D03*
X68700000Y69200000D03*
X69200000Y114200000D03*
X69800000Y47900000D03*
X69800000Y46800000D03*
X71200000Y62600000D03*
X71300000Y118200000D03*
X74600000Y51800000D03*
X74650000Y89300000D03*
X74700000Y57800000D03*
X74700000Y56700000D03*
X74700000Y54800000D03*
X74700000Y50800000D03*
X74800000Y59700000D03*
X75400000Y89300000D03*
X75700000Y59800000D03*
X75700000Y57800000D03*
X75700000Y56800000D03*
X75700000Y54800000D03*
X75700000Y52800000D03*
X75700000Y51800000D03*
X75700000Y50800000D03*
X76600000Y52900000D03*
X77100000Y61400000D03*
X77700000Y51800000D03*
X77700000Y50800000D03*
X78200000Y59900000D03*
X78800000Y57700000D03*
X78800000Y54800000D03*
X79200000Y59900000D03*
X79700000Y81300000D03*
X79700000Y56700000D03*
X79700000Y55800000D03*
X79700000Y54800000D03*
X79700000Y52800000D03*
X79700000Y51800000D03*
X79700000Y49800000D03*
X80700000Y57800000D03*
X80700000Y56800000D03*
X80700000Y54800000D03*
X80800000Y52700000D03*
X81600000Y59700000D03*
X81700000Y54800000D03*
X81700000Y52800000D03*
X81700000Y51800000D03*
X81757063Y56744977D03*
X82500000Y81300000D03*
X82500000Y80300000D03*
X82600000Y59700000D03*
X82600000Y51700000D03*
X82700000Y52800000D03*
X82808254Y58614438D03*
X84500000Y63700000D03*
D11*
%TO.C,J6*%
X70525000Y110745000D03*
X70525000Y108745000D03*
X72525000Y110745000D03*
X72525000Y108745000D03*
X74525000Y110745000D03*
X74525000Y108745000D03*
X76525000Y110745000D03*
X76525000Y108745000D03*
X78525000Y110745000D03*
X78525000Y108745000D03*
X80525000Y110745000D03*
X80525000Y108745000D03*
X82525000Y110745000D03*
X82525000Y108745000D03*
D12*
%TO.C,J4*%
X5030000Y78789000D03*
X5030000Y76250000D03*
X7569000Y78789000D03*
X7569000Y76250000D03*
X10108000Y78789000D03*
X10108000Y76250000D03*
X12648000Y78789000D03*
X12648000Y76250000D03*
X15189000Y78789000D03*
X15189000Y76250000D03*
X17728000Y78789000D03*
X17728000Y76250000D03*
%TO.C,J1*%
X38480000Y95925000D03*
X39495000Y98465000D03*
X40511000Y95925000D03*
X41527000Y98465000D03*
X42543000Y95925000D03*
X43559000Y98465000D03*
X45591000Y98465000D03*
X46607000Y95925000D03*
X47623000Y98465000D03*
X48639000Y95925000D03*
X49655000Y98465000D03*
X50671000Y95925000D03*
D13*
%TO.C,J7*%
X5026000Y72625000D03*
X7565000Y72625000D03*
X10104000Y72625000D03*
X12644000Y72625000D03*
X15185000Y72625000D03*
X17724000Y72625000D03*
%TO.C,J13*%
X84465000Y72114000D03*
X84465000Y69575000D03*
X84465000Y67036000D03*
D14*
%TO.C,J1*%
X37550000Y114973000D03*
X37550000Y112435000D03*
X51601000Y114973000D03*
X51601000Y112435000D03*
D15*
X36422000Y105195000D03*
X52730000Y103793000D03*
D16*
%TO.C,MP1*%
X5500000Y99195000D03*
%TO.C,MP2*%
X84500000Y99195000D03*
D17*
%TO.C,H2*%
X13720000Y66900000D03*
%TO.C,H1*%
X65870000Y97920000D03*
M02*
