%TF.GenerationSoftware,KiCad,Pcbnew,10.0.0*%
%TF.CreationDate,2026-03-28T20:46:44+01:00*%
%TF.ProjectId,artix-dc-scm,61727469-782d-4646-932d-73636d2e6b69,1.1.3*%
%TF.SameCoordinates,PX3950da0PYaafe6a0*%
%TF.FileFunction,Copper,L6,Inr*%
%TF.FilePolarity,Positive*%
%FSLAX46Y46*%
G04 Gerber Fmt 4.6, Leading zero omitted, Abs format (unit mm)*
G04 Created by KiCad (PCBNEW 10.0.0) date 2026-03-28 20:46:44*
%MOMM*%
%LPD*%
G01*
G04 APERTURE LIST*
%TA.AperFunction,ComponentPad*%
%ADD10R,1.700000X1.700000*%
%TD*%
%TA.AperFunction,ComponentPad*%
%ADD11C,1.700000*%
%TD*%
%TA.AperFunction,ComponentPad*%
%ADD12C,1.800000*%
%TD*%
%TA.AperFunction,ComponentPad*%
%ADD13R,1.530000X1.530000*%
%TD*%
%TA.AperFunction,ComponentPad*%
%ADD14C,1.530000*%
%TD*%
%TA.AperFunction,ComponentPad*%
%ADD15C,1.725000*%
%TD*%
%TA.AperFunction,ComponentPad*%
%ADD16C,2.100000*%
%TD*%
%TA.AperFunction,ComponentPad*%
%ADD17C,1.900000*%
%TD*%
%TA.AperFunction,ComponentPad*%
%ADD18R,1.600000X1.600000*%
%TD*%
%TA.AperFunction,ComponentPad*%
%ADD19C,1.600000*%
%TD*%
%TA.AperFunction,ComponentPad*%
%ADD20C,5.500000*%
%TD*%
%TA.AperFunction,ComponentPad*%
%ADD21C,6.000000*%
%TD*%
%TA.AperFunction,ViaPad*%
%ADD22C,0.400000*%
%TD*%
%TA.AperFunction,ViaPad*%
%ADD23C,0.500000*%
%TD*%
%TA.AperFunction,Conductor*%
%ADD24C,0.175000*%
%TD*%
%TA.AperFunction,Conductor*%
%ADD25C,0.100000*%
%TD*%
%TA.AperFunction,Conductor*%
%ADD26C,0.164865*%
%TD*%
G04 APERTURE END LIST*
D10*
%TO.N,VCC3V3*%
%TO.C,J13*%
X84465000Y72114000D03*
D11*
%TO.N,/FPGA banks 34-35 & CFG/MODE2*%
X84465000Y69575000D03*
%TO.N,GND*%
X84465000Y67036000D03*
%TD*%
D12*
%TO.N,SPI0_CS_N*%
%TO.C,J4*%
X5030000Y76250000D03*
%TO.N,SPI0_MOSI*%
X7569000Y76250000D03*
%TO.N,SPI0_MISO*%
X10108000Y76250000D03*
%TO.N,SPI0_CLK*%
X12648000Y76250000D03*
%TO.N,GND*%
X15189000Y76250000D03*
%TO.N,VCC3V3*%
X17728000Y76250000D03*
%TO.N,TPM_PIRQ#*%
X5030000Y78789000D03*
%TO.N,TPM_RST*%
X7569000Y78789000D03*
%TO.N,TPM_GPIO*%
X10108000Y78789000D03*
%TO.N,TPM_PP*%
X12648000Y78789000D03*
%TO.N,GND*%
X15189000Y78789000D03*
%TO.N,VCC3V3*%
X17728000Y78789000D03*
%TD*%
D13*
%TO.N,Net-(J1-TRCT3)*%
%TO.C,J1*%
X39495000Y98465000D03*
D14*
%TO.N,/Ethernet/ETH3_N*%
X41527000Y98465000D03*
%TO.N,/Ethernet/ETH3_P*%
X43559000Y98465000D03*
%TO.N,/Ethernet/ETH2_P*%
X45591000Y98465000D03*
%TO.N,/Ethernet/ETH2_N*%
X47623000Y98465000D03*
%TO.N,Net-(J1-TRCT2)*%
X49655000Y98465000D03*
%TO.N,Net-(J1-TRCT4)*%
X38480000Y95925000D03*
%TO.N,/Ethernet/ETH4_P*%
X40511000Y95925000D03*
%TO.N,/Ethernet/ETH4_N*%
X42543000Y95925000D03*
%TO.N,/Ethernet/ETH1_N*%
X46607000Y95925000D03*
%TO.N,/Ethernet/ETH1_P*%
X48639000Y95925000D03*
%TO.N,Net-(J1-TRCT1)*%
X50671000Y95925000D03*
D15*
%TO.N,Net-(J1-Pad13)*%
X37550000Y112435000D03*
%TO.N,VCC3V3*%
X37550000Y114973000D03*
%TO.N,Net-(J1-Pad15)*%
X51601000Y112435000D03*
%TO.N,VCC3V3*%
X51601000Y114973000D03*
D16*
%TO.N,GND*%
X52730000Y103793000D03*
X36422000Y105195000D03*
%TD*%
D17*
%TO.N,VCC3V3*%
%TO.C,J7*%
X5026000Y72625000D03*
%TO.N,SPI0_MOSI*%
X7565000Y72625000D03*
%TO.N,SPI0_MISO*%
X10104000Y72625000D03*
%TO.N,SPI0_CLK*%
X12644000Y72625000D03*
%TO.N,SPI0_CS_N*%
X15185000Y72625000D03*
%TO.N,GND*%
X17724000Y72625000D03*
%TD*%
D18*
%TO.N,GND*%
%TO.C,J6*%
X82525000Y110745000D03*
D19*
%TO.N,VCC3V3*%
X82525000Y108745000D03*
%TO.N,GND*%
X80525000Y110745000D03*
%TO.N,JTAG_TMS*%
X80525000Y108745000D03*
%TO.N,GND*%
X78525000Y110745000D03*
%TO.N,JTAG_TCK*%
X78525000Y108745000D03*
%TO.N,GND*%
X76525000Y110745000D03*
%TO.N,JTAG_TDO*%
X76525000Y108745000D03*
%TO.N,GND*%
X74525000Y110745000D03*
%TO.N,JTAG_TDI*%
X74525000Y108745000D03*
%TO.N,GND*%
X72525000Y110745000D03*
%TO.N,unconnected-(J6-Pad12)*%
X72525000Y108745000D03*
%TO.N,GND*%
X70525000Y110745000D03*
%TO.N,unconnected-(J6-Pad14)*%
X70525000Y108745000D03*
%TD*%
D20*
%TO.N,unconnected-(MP1-Pad1)*%
%TO.C,MP1*%
X5500000Y99195000D03*
%TD*%
%TO.N,unconnected-(MP2-Pad1)*%
%TO.C,MP2*%
X84500000Y99195000D03*
%TD*%
D21*
%TO.N,unconnected-(H1-Pad1)*%
%TO.C,H1*%
X65870000Y97920000D03*
%TD*%
%TO.N,unconnected-(H2-Pad1)*%
%TO.C,H2*%
X13720000Y66900000D03*
%TD*%
D22*
%TO.N,PCIE_BMC_CLK_100_N*%
X34920000Y5200000D03*
%TO.N,PCIE_BMC_RX_P*%
X37920000Y3700000D03*
%TO.N,PCIE_BMC_RX_N*%
X38480000Y3700000D03*
X31150000Y55750000D03*
%TO.N,PCIE_BMC_CLK_100_P*%
X34420646Y5174536D03*
%TO.N,/Interfaces/PCIE_BMC_TX_C_P*%
X35020000Y18100000D03*
%TO.N,/Interfaces/PCIE_BMC_TX_C_N*%
X35580000Y18100000D03*
%TO.N,/Interfaces/PCIE_BMC_TX_C_P*%
X31247500Y51717500D03*
%TO.N,GND*%
X51200000Y70900000D03*
%TO.N,ULPI1_CLKOUT*%
X64300000Y71200000D03*
%TO.N,VCC3V3*%
X63300000Y71200000D03*
%TO.N,Net-(C20-Pad2)*%
X63800000Y71200000D03*
%TO.N,ULPI2_CLKOUT*%
X64100000Y55100000D03*
%TO.N,VCC3V3*%
X57300000Y51522500D03*
%TO.N,GND*%
X68200000Y50100000D03*
X68200000Y50600000D03*
%TO.N,VCC3V3*%
X68200000Y52500000D03*
%TO.N,GND*%
X66000000Y44800000D03*
%TO.N,Net-(C177-Pad2)*%
X63700000Y48400000D03*
%TO.N,VCC3V3*%
X62800000Y55100000D03*
%TO.N,Net-(C177-Pad2)*%
X63415166Y55115166D03*
D23*
%TO.N,GND*%
X79700000Y52800000D03*
D22*
X50122500Y52677500D03*
D23*
X79700000Y54800000D03*
D22*
X34247500Y54717500D03*
D23*
X82600000Y59700000D03*
D22*
X39247500Y58717500D03*
X36247500Y53717500D03*
X43122500Y55677500D03*
X36900000Y35980000D03*
X33250000Y60550000D03*
X36247500Y55717500D03*
X44122500Y50677500D03*
X36247500Y56717500D03*
X46122500Y56677500D03*
X40247500Y56717500D03*
X37247500Y56717500D03*
X39247500Y52717500D03*
X35247500Y58717500D03*
X44122500Y56677500D03*
X36250000Y62550000D03*
X41252000Y78602000D03*
D23*
X64900000Y119400000D03*
D22*
X32250000Y64550000D03*
X32247500Y57717500D03*
X49090000Y66570000D03*
X36247500Y52717500D03*
X33247500Y55717500D03*
D23*
X64800000Y114200000D03*
D22*
X35247500Y52717500D03*
X43090000Y64570000D03*
D23*
X80700000Y56800000D03*
D22*
X44122500Y54677500D03*
X36250000Y60550000D03*
D23*
X61400000Y115500000D03*
D22*
X46090000Y65570000D03*
X29900000Y70900000D03*
D23*
X79700000Y81300000D03*
X60300000Y62400000D03*
D22*
X51090000Y60570000D03*
D23*
X75700000Y56800000D03*
X77700000Y51800000D03*
D22*
X40247500Y57717500D03*
X34250000Y68550000D03*
X31250000Y60550000D03*
D23*
X74800000Y59700000D03*
D22*
X33250000Y61550000D03*
D23*
X60900000Y118100000D03*
D22*
X38800000Y21900000D03*
X39247500Y56717500D03*
X45122500Y55677500D03*
X33247500Y51717500D03*
X39200000Y25475000D03*
X47122500Y51677500D03*
X38247500Y55717500D03*
X47090000Y62570000D03*
X39250000Y63550000D03*
D23*
X67400000Y119500000D03*
D22*
X43122500Y56677500D03*
X38250000Y60550000D03*
D23*
X69200000Y114200000D03*
D22*
X42122500Y57677500D03*
X60800000Y44500000D03*
X50090000Y63570000D03*
X38250000Y66550000D03*
D23*
X82500000Y80300000D03*
D22*
X44200000Y68700000D03*
X46122500Y58677500D03*
X48122500Y58677500D03*
D23*
X71300000Y118200000D03*
D22*
X40920000Y28370000D03*
X40247500Y55717500D03*
D23*
X82500000Y81300000D03*
D22*
X45122500Y57677500D03*
X44122500Y58677500D03*
D23*
X74600000Y51800000D03*
D22*
X45090000Y60570000D03*
D23*
X80800000Y52700000D03*
D22*
X34247500Y51717500D03*
D23*
X82700000Y52800000D03*
D22*
X40247500Y49717500D03*
X47200000Y68700000D03*
X39247500Y54717500D03*
X38247500Y57717500D03*
X32480000Y30970000D03*
X32247500Y53717500D03*
X35250000Y65550000D03*
X37250000Y69550000D03*
X42122500Y54677500D03*
X37247500Y58717500D03*
D23*
X75700000Y51800000D03*
D22*
X34870000Y29320000D03*
X32250000Y60550000D03*
D23*
X79700000Y56700000D03*
D22*
X36247500Y57717500D03*
X42122500Y56677500D03*
X33247500Y50717500D03*
X43122500Y57677500D03*
X31247500Y50717500D03*
X42090000Y67570000D03*
X46122500Y54677500D03*
X44090000Y61570000D03*
X37200000Y18600000D03*
D23*
X69800000Y47900000D03*
D22*
X49122500Y55677500D03*
X34247500Y52717500D03*
D23*
X75700000Y52800000D03*
D22*
X51122500Y49677500D03*
X43122500Y53677500D03*
X46800000Y24300000D03*
X34247500Y58717500D03*
X37700000Y23575000D03*
X34247500Y56717500D03*
X38090000Y29350000D03*
X32247500Y50717500D03*
X42122500Y58677500D03*
X37247500Y54717500D03*
X31250000Y67550000D03*
X36247500Y54717500D03*
%TO.N,DDR3_VREF*%
X38050000Y28530000D03*
D23*
%TO.N,VCC3V3*%
X81700000Y51800000D03*
X81757063Y56744977D03*
X76600000Y52900000D03*
D22*
X46500000Y19000000D03*
D23*
X81700000Y52800000D03*
D22*
X32250000Y69550000D03*
X48090000Y64570000D03*
X45122500Y52677500D03*
X60800000Y46900000D03*
X46090000Y60570000D03*
X39250000Y68550000D03*
X33250000Y66550000D03*
X42090000Y62570000D03*
D23*
X82600000Y51700000D03*
D22*
X46122500Y49677500D03*
X37250000Y64550000D03*
D23*
X75700000Y59800000D03*
D22*
X31250000Y62550000D03*
X29800000Y65200000D03*
X48122500Y53677500D03*
X43800000Y78400000D03*
X51200000Y55600000D03*
D23*
X69800000Y46800000D03*
X63600000Y61422500D03*
D22*
X44090000Y66570000D03*
D23*
X81600000Y59700000D03*
D22*
X38250000Y61550000D03*
X49122500Y50677500D03*
X36250000Y67550000D03*
X47090000Y67570000D03*
D23*
X63700000Y63700000D03*
D22*
X51090000Y65570000D03*
X50090000Y68570000D03*
X40250000Y65550000D03*
D23*
X74700000Y50800000D03*
X79700000Y51800000D03*
D22*
X50122500Y57677500D03*
D23*
X79700000Y55800000D03*
D22*
X49090000Y61570000D03*
D23*
X74700000Y56700000D03*
X71200000Y62600000D03*
X60400000Y63800000D03*
D22*
X46500000Y20000000D03*
X35250000Y60550000D03*
D23*
X66100000Y63800000D03*
D22*
X43090000Y69570000D03*
D23*
X65600000Y47500000D03*
X75700000Y50800000D03*
D22*
X45090000Y63570000D03*
X44200000Y21600000D03*
D23*
X77700000Y50800000D03*
D22*
X34250000Y63550000D03*
%TO.N,VCC1V35*%
X37247500Y53717500D03*
X35247500Y49717500D03*
X34080000Y29320000D03*
X42122500Y51677500D03*
X41500000Y25075000D03*
X36500000Y33300000D03*
X37270000Y29320000D03*
X33270000Y29330000D03*
X38247500Y50717500D03*
X32470000Y30120000D03*
X39680000Y30130000D03*
X39300000Y20800000D03*
%TO.N,/FPGA banks 34-35 & CFG/MODE2*%
X47122500Y56677500D03*
%TO.N,/FPGA banks 34-35 & CFG/MODE0*%
X47122500Y58677500D03*
%TO.N,/FPGA banks 34-35 & CFG/MODE1*%
X47122500Y57677500D03*
%TO.N,PROGRAM*%
X43090000Y60570000D03*
%TO.N,VCC1V0*%
X35247500Y54717500D03*
X42122500Y55677500D03*
X43122500Y54677500D03*
X37247500Y55717500D03*
X44122500Y55677500D03*
X33247500Y53717500D03*
X35247500Y56717500D03*
X40247500Y58717500D03*
X38247500Y56717500D03*
X38247500Y58717500D03*
X34247500Y55717500D03*
X33247500Y57717500D03*
X40247500Y54717500D03*
X43122500Y58677500D03*
X38247500Y54717500D03*
X45122500Y56677500D03*
X46122500Y57677500D03*
X37247500Y57717500D03*
X45122500Y54677500D03*
X46122500Y55677500D03*
X39247500Y55717500D03*
X44122500Y57677500D03*
%TO.N,I3C[2]_SDA_3V3*%
X35250000Y67550000D03*
%TO.N,I3C[2]_SCL_3V3*%
X32250000Y67550000D03*
%TO.N,I3C[3]_SDA_3V3*%
X35250000Y66550000D03*
%TO.N,I3C[3]_SCL_3V3*%
X33250000Y67550000D03*
%TO.N,RSVD2*%
X50122500Y54677500D03*
%TO.N,SGPIO0_CLK*%
X49122500Y52677500D03*
%TO.N,DONE*%
X36247500Y58717500D03*
%TO.N,INIT*%
X47090000Y60570000D03*
%TO.N,PRSNT0_N_R*%
X34250000Y69550000D03*
%TO.N,VCC1V2*%
X32200000Y56600000D03*
X41800000Y78550000D03*
X32200000Y52700000D03*
D23*
X39400000Y80800000D03*
D22*
X31247500Y58717500D03*
X32247500Y51717500D03*
D23*
X39650000Y78800000D03*
D22*
X31247500Y54717500D03*
%TO.N,RGMII_RXD3*%
X39900000Y77550000D03*
%TO.N,RGMII_RXD2*%
X40775000Y77800000D03*
%TO.N,RGMII_RXD1*%
X41900000Y77550000D03*
%TO.N,RGMII_RXD0*%
X42900000Y77550000D03*
%TO.N,RGMII_RX_DV*%
X43650000Y77550000D03*
%TO.N,RGMII_RX_CLK*%
X44900000Y77550000D03*
%TO.N,ETH_MDIO*%
X42100000Y68700000D03*
%TO.N,ETH_INT_N*%
X43090000Y68570000D03*
%TO.N,RGMII_REF_CLK*%
X37250000Y67550000D03*
%TO.N,ETH_~{RESET}*%
X43090000Y66570000D03*
%TO.N,TPM_PIRQ#*%
X36250000Y65550000D03*
%TO.N,TPM_GPIO*%
X50090000Y69570000D03*
%TO.N,TPM_PP*%
X36250000Y66550000D03*
%TO.N,VCC1V8*%
X45122500Y58677500D03*
X44090000Y60570000D03*
X39247500Y57717500D03*
X34250000Y60550000D03*
X42090000Y60570000D03*
X39250000Y60550000D03*
X37250000Y60550000D03*
%TO.N,USB1_D_P*%
X65525000Y4200000D03*
X68700000Y69200000D03*
%TO.N,USB1_D_N*%
X68700000Y69750000D03*
X66075000Y4200000D03*
%TO.N,ULPI1_CLKOUT*%
X49090000Y67570000D03*
D23*
%TO.N,Net-(C20-Pad2)*%
X63900000Y64600000D03*
D22*
%TO.N,USB2_D_P*%
X63725000Y4100000D03*
X68433507Y53050000D03*
%TO.N,USB2_D_N*%
X68433507Y53600000D03*
X64275000Y4100000D03*
%TO.N,ULPI2_CLKOUT*%
X48122500Y51677500D03*
D23*
%TO.N,Net-(U18-VDDA1.8)*%
X65300000Y48200000D03*
D22*
%TO.N,I3C[1]_SCL_3V3*%
X33250000Y68550000D03*
%TO.N,DDR3_DQ12*%
X30660000Y48420000D03*
X31620000Y33300000D03*
%TO.N,/Interfaces/PCIE_BMC_TX_C_N*%
X30200000Y51700000D03*
%TO.N,unconnected-(U14A-IO_L5N_T0_13-PadAA14)*%
X51090000Y62570000D03*
%TO.N,DDR3_DQ8*%
X31690000Y48420000D03*
X34080000Y33340000D03*
%TO.N,DDR3_DQ9*%
X33530000Y31090000D03*
X31247500Y49717500D03*
%TO.N,PCIE_BMC_RX_P*%
X31200000Y56600000D03*
%TO.N,NCSI_CLK*%
X31250000Y61550000D03*
%TO.N,NCSI_RXD1*%
X31250000Y63550000D03*
%TO.N,DDR3_DQ15*%
X32247500Y49717500D03*
X31700000Y31000000D03*
%TO.N,I2C[8]_SCL*%
X32250000Y61550000D03*
%TO.N,I2C[8]_SDA*%
X32250000Y62550000D03*
%TO.N,NCSI_RXER*%
X32250000Y63550000D03*
%TO.N,/FPGA banks 13-16/GCLK100*%
X32250000Y66550000D03*
%TO.N,ROT_MOSI*%
X32250000Y68550000D03*
%TO.N,DDR3_DQS1_N*%
X32480000Y34120000D03*
X33380000Y48410000D03*
%TO.N,DDR3_DM1*%
X34250000Y31050000D03*
X33247500Y49717500D03*
%TO.N,NCSI_TXD0*%
X33250000Y62550000D03*
%TO.N,SPI0_CS_N_R*%
X33250000Y64550000D03*
%TO.N,UART0_SCM_RX*%
X33250000Y65550000D03*
%TO.N,DDR3_DQS1_P*%
X33345000Y34065000D03*
X34100000Y48410000D03*
%TO.N,DDR3_DQ14*%
X32500000Y34910000D03*
X34247500Y49717500D03*
%TO.N,DDR3_DQ13*%
X31500000Y30100000D03*
X34247500Y50717500D03*
%TO.N,PCIE_BMC_CLK_100_N*%
X34247500Y53717500D03*
%TO.N,I2C[7]_SDA*%
X34250000Y61550000D03*
%TO.N,NCSI_TXD1*%
X34250000Y62550000D03*
%TO.N,SPI0_CLK_R*%
X34250000Y64550000D03*
%TO.N,UART0_SCM_TX*%
X34250000Y65550000D03*
%TO.N,DDR3_DQ10*%
X34080000Y34120000D03*
X35240000Y48580000D03*
%TO.N,DDR3_DQ11*%
X33300000Y30100000D03*
X35247500Y50717500D03*
%TO.N,PCIE_BMC_CLK_100_P*%
X35247500Y53717500D03*
%TO.N,Net-(U14E-MGTRREF_216)*%
X35247500Y55717500D03*
%TO.N,I2C[7]_SCL*%
X35250000Y61550000D03*
%TO.N,I3C[1]_SDA_3V3*%
X35250000Y68550000D03*
%TO.N,ROT_GPIO2*%
X35250000Y69550000D03*
%TO.N,DDR3_DQ3*%
X36247500Y49717500D03*
X35690000Y34920000D03*
%TO.N,DDR3_DM0*%
X35250000Y33170000D03*
X36247500Y50717500D03*
%TO.N,I2C[6]_SDA*%
X36250000Y61550000D03*
%TO.N,ESPI_CS1_N*%
X36250000Y63550000D03*
%TO.N,RGMII_TXD0*%
X34400000Y83050000D03*
X36250000Y68550000D03*
%TO.N,DDR3_DQ0*%
X37247500Y49717500D03*
X34930000Y30890000D03*
%TO.N,DDR3_DQ1*%
X35670000Y34120000D03*
X37247500Y50717500D03*
%TO.N,DDR3_DQ4*%
X37247500Y51717500D03*
X37620000Y31110000D03*
%TO.N,DDR3_DQ6*%
X36470000Y29320000D03*
X37247500Y52717500D03*
%TO.N,I2C[6]_SCL*%
X37250000Y61550000D03*
%TO.N,ESPI_ALERT_N*%
X37250000Y66550000D03*
%TO.N,RGMII_TXD1*%
X34400000Y82050000D03*
X37250000Y68550000D03*
%TO.N,RGMII_TXD2*%
X34400000Y81050000D03*
X37650000Y71050000D03*
%TO.N,DDR3_DQ5*%
X37270000Y34120000D03*
X38920000Y48540000D03*
%TO.N,DDR3_DQS0_N*%
X36470000Y30120000D03*
X38247500Y49717500D03*
%TO.N,DDR3_CAS*%
X38247500Y51717500D03*
X39300000Y31100000D03*
%TO.N,DDR3_DQ2*%
X35730000Y29380000D03*
X38247500Y52717500D03*
%TO.N,DDR3_BA0*%
X38247500Y53717500D03*
X40510000Y30100000D03*
%TO.N,I2C[2]_SDA*%
X38250000Y62550000D03*
%TO.N,I2C[0]_SDA*%
X38250000Y63550000D03*
%TO.N,I2C[0]_SCL*%
X38250000Y64550000D03*
%TO.N,RGMII_TX_CLK*%
X38250000Y67550000D03*
X35150000Y78300000D03*
%TO.N,RGMII_TXD3*%
X34400000Y79800000D03*
X37650000Y72050000D03*
%TO.N,RGMII_TX_DV*%
X38900000Y76300000D03*
X38650000Y70800000D03*
%TO.N,DDR3_DQ7*%
X39530000Y48530000D03*
X37300000Y33350000D03*
%TO.N,DDR3_DQS0_P*%
X36470000Y30940000D03*
X39247500Y49717500D03*
%TO.N,DDR3_WE*%
X39900000Y31050000D03*
X39247500Y50717500D03*
%TO.N,DDR3_RAS*%
X39247500Y51717500D03*
X38220000Y30940000D03*
%TO.N,DDR3_ODT*%
X39247500Y53717500D03*
X39150000Y28300000D03*
%TO.N,I2C[4]_SCL*%
X39250000Y61550000D03*
%TO.N,I2C[3]_SCL*%
X39250000Y62550000D03*
%TO.N,ESPI_IO2*%
X39250000Y64550000D03*
%TO.N,ESPI_IO0*%
X39250000Y65550000D03*
%TO.N,ESPI_CS0_N*%
X39250000Y66550000D03*
%TO.N,/FPGA banks 13-16/RGMII_CLK_FPGA*%
X44300000Y71800000D03*
X40100000Y67500000D03*
%TO.N,DDR3_A3*%
X40690000Y48460000D03*
X41300000Y30120000D03*
%TO.N,DDR3_A10*%
X40247500Y50717500D03*
X40330000Y33340000D03*
%TO.N,DDR3_BA2*%
X40247500Y51717500D03*
X40790000Y30980000D03*
%TO.N,DDR3_CKE*%
X40247500Y52717500D03*
X39230000Y35740000D03*
%TO.N,DDR3_A12*%
X41290000Y33340000D03*
X40247500Y53717500D03*
%TO.N,ROT_QSPI_SCK*%
X40250000Y60550000D03*
%TO.N,I2C[4]_SDA*%
X40250000Y61550000D03*
%TO.N,I2C[2]_SCL*%
X40250000Y62550000D03*
%TO.N,I2C[1]_SCL*%
X40250000Y63550000D03*
%TO.N,ESPI_IO3*%
X40250000Y64550000D03*
%TO.N,ESPI_CLK*%
X40250000Y66550000D03*
%TO.N,/FPGA banks 13-16/RGMII_RXD0_FPGA*%
X40200000Y68600000D03*
X42300000Y71800000D03*
%TO.N,DDR3_BA1*%
X41260000Y48830000D03*
X41280000Y34910000D03*
%TO.N,DDR3_A0*%
X41750000Y31030000D03*
X42122500Y49677500D03*
%TO.N,DDR3_A2*%
X42475000Y31000000D03*
X42122500Y50677500D03*
%TO.N,DDR3_A1*%
X42122500Y52677500D03*
X42370000Y33290000D03*
%TO.N,DDR3_A9*%
X43275000Y31000000D03*
X42122500Y53677500D03*
%TO.N,I2C[3]_SDA*%
X42090000Y61570000D03*
%TO.N,I2C[1]_SDA*%
X42090000Y63570000D03*
%TO.N,ESPI_IO1*%
X42090000Y64570000D03*
%TO.N,ESPI_RESET_N*%
X42090000Y65570000D03*
%TO.N,DDR3_A4*%
X42830000Y34860000D03*
X43122500Y49677500D03*
%TO.N,DDR3_A6*%
X43122500Y50677500D03*
X43660000Y34150000D03*
%TO.N,DDR3_A14*%
X44580000Y33760000D03*
X43122500Y51677500D03*
%TO.N,DDR3_A7*%
X43122500Y52677500D03*
X43680000Y29330000D03*
%TO.N,I2C[5]_SCL*%
X43090000Y61570000D03*
%TO.N,I2C[5]_SDA*%
X43090000Y62570000D03*
%TO.N,DDR3_CLK_N*%
X44000000Y48500000D03*
X39500000Y33300000D03*
%TO.N,DDR3_A8*%
X44122500Y49677500D03*
X44710000Y34550000D03*
%TO.N,DDR3_A11*%
X43570000Y33410000D03*
X44122500Y51677500D03*
%TO.N,DDR3_A13*%
X44490000Y30930000D03*
X44122500Y52677500D03*
%TO.N,DDR3_A5*%
X42790000Y29400000D03*
X44122500Y53677500D03*
%TO.N,HPM_STBY_RDY_R*%
X44090000Y64570000D03*
D23*
%TO.N,MMC_DAT0*%
X81700000Y54800000D03*
D22*
X44090000Y65570000D03*
%TO.N,DBG_UART_RX*%
X44090000Y67570000D03*
%TO.N,ROT_QSPI_DQ2*%
X44090000Y69570000D03*
%TO.N,DDR3_CLK_P*%
X44550003Y48500000D03*
X38890000Y33320000D03*
%TO.N,QSPI1_D0*%
X45122500Y50677500D03*
%TO.N,QSPI1_CLK*%
X45122500Y51677500D03*
%TO.N,JTAG_TDI*%
X45090000Y61570000D03*
D23*
%TO.N,MMC_DAT7*%
X74700000Y54800000D03*
D22*
X45090000Y65570000D03*
D23*
%TO.N,MMC_DAT2*%
X80700000Y54800000D03*
D22*
X45090000Y66570000D03*
%TO.N,DBG_UART_TX*%
X45090000Y67570000D03*
%TO.N,ROT_QSPI_DQ3*%
X45090000Y69570000D03*
%TO.N,QSPI1_D2*%
X46122500Y50677500D03*
%TO.N,QSPI1_D1*%
X46122500Y51677500D03*
%TO.N,I2C[9]_SCL*%
X46122500Y52677500D03*
%TO.N,I2C[9]_SDA*%
X46122500Y53677500D03*
%TO.N,JTAG_TMS*%
X46090000Y61570000D03*
%TO.N,MMC_DAT6*%
X46090000Y66570000D03*
D23*
X74700000Y57800000D03*
D22*
%TO.N,Net-(U14A-IO_L6P_T0_FCS_B_14)*%
X46090000Y67570000D03*
%TO.N,USR_LED0*%
X45200000Y68600000D03*
%TO.N,UART1_SCM_RX*%
X46090000Y69570000D03*
%TO.N,HPM_FW_RECOVERY_R*%
X47122500Y50677500D03*
%TO.N,SGPIO_RESET_N*%
X47122500Y52677500D03*
%TO.N,I2C[10]_SCL*%
X47122500Y53677500D03*
%TO.N,SGPIO_INTR_N*%
X47122500Y54677500D03*
%TO.N,Net-(U14D-CFGBVS_0)*%
X47122500Y55677500D03*
%TO.N,JTAG_TDO*%
X47090000Y61570000D03*
%TO.N,MMC_DAT5*%
X47090000Y65570000D03*
D23*
X75700000Y54800000D03*
D22*
%TO.N,MMC_DAT4*%
X47090000Y66570000D03*
D23*
X75700000Y57800000D03*
D22*
%TO.N,USR_LED1*%
X46200000Y68600000D03*
%TO.N,UART1_SCM_TX*%
X47090000Y69570000D03*
%TO.N,SYS_PWROK_R*%
X48122500Y50677500D03*
%TO.N,SGPIO0_DO*%
X48122500Y52677500D03*
%TO.N,SGPIO0_LD*%
X48122500Y54677500D03*
%TO.N,I2C[12]_SCL*%
X48122500Y55677500D03*
%TO.N,I2C[12]_SDA*%
X48122500Y56677500D03*
%TO.N,JTAG_TCK*%
X48090000Y60570000D03*
%TO.N,HPM_STBY_EN_R*%
X48200000Y65700000D03*
D23*
%TO.N,MMC_DAT3*%
X80700000Y57800000D03*
D22*
X48090000Y66570000D03*
D23*
%TO.N,MMC_RSTN*%
X78800000Y57700000D03*
D22*
X48090000Y67570000D03*
%TO.N,SGPIO0_DI*%
X49122500Y51677500D03*
%TO.N,I2C[10]_SDA*%
X49122500Y53677500D03*
%TO.N,I2C[11]_SCL*%
X49122500Y54677500D03*
%TO.N,I2C[11]_SDA*%
X49122500Y56677500D03*
%TO.N,MMC_DAT1*%
X49090000Y65570000D03*
D23*
X82808254Y58614438D03*
D22*
%TO.N,USR_LED2*%
X49090000Y68570000D03*
%TO.N,CHASI#_R*%
X50122500Y50677500D03*
%TO.N,SGPIO1_DO*%
X50122500Y53677500D03*
%TO.N,SGPIO1_DI*%
X50122500Y55677500D03*
%TO.N,SGPIO1_LD*%
X50122500Y56677500D03*
%TO.N,MMC_CLK*%
X50090000Y66570000D03*
D23*
X77100000Y61400000D03*
D22*
%TO.N,MMC_CMD*%
X50090000Y67570000D03*
D23*
X79200000Y59900000D03*
%TO.N,Net-(U1-VDDIM)*%
X79700000Y49800000D03*
%TO.N,Net-(U1-DS)*%
X84500000Y63700000D03*
X78800000Y54800000D03*
%TO.N,Net-(U1-CLK)*%
X78200000Y59900000D03*
D22*
%TO.N,/Interfaces/DBG_USB_D_N*%
X66675000Y111550000D03*
X66675000Y114300000D03*
X75400000Y89300000D03*
%TO.N,/Interfaces/DBG_USB_D_P*%
X66125000Y114300000D03*
X66125000Y111550000D03*
X74650000Y89300000D03*
%TO.N,DDR3_CS*%
X39670000Y29330000D03*
%TD*%
%TO.N,ULPI2_CLKOUT*%
D24*
X64100000Y55100000D02*
X61100000Y52100000D01*
X61100000Y52100000D02*
X48545000Y52100000D01*
X48545000Y52100000D02*
X48122500Y51677500D01*
%TO.N,DDR3_DQ12*%
X25300000Y44350000D02*
X25400000Y44350000D01*
X27368907Y32800000D02*
X26900000Y32800000D01*
X26389951Y48189951D02*
X26620000Y48420000D01*
X28618907Y32700000D02*
X28618907Y32800000D01*
X25600000Y41750000D02*
X25600000Y42000000D01*
X25600000Y46250000D02*
X25600000Y46500000D01*
X29020000Y48320000D02*
X29020000Y48420000D01*
X25400000Y38950000D02*
X25500000Y38950000D01*
X25300000Y46150000D02*
X25400000Y46150000D01*
X28120000Y48320000D02*
X28120000Y48420000D01*
X25500000Y37600000D02*
X25400000Y37600000D01*
X25400000Y43000000D02*
X25300000Y43000000D01*
X25400000Y36700000D02*
X25300000Y36700000D01*
X25600000Y39050000D02*
X25600000Y39300000D01*
X25300000Y45250000D02*
X25400000Y45250000D01*
X28570000Y48520000D02*
X28570000Y48420000D01*
X25500000Y45700000D02*
X25400000Y45700000D01*
X26213175Y48013173D02*
X26389951Y48189951D01*
X25400000Y44800000D02*
X25300000Y44800000D01*
X25400000Y46950000D02*
X25400000Y47200000D01*
X29020000Y48420000D02*
X29020000Y48520000D01*
X25400000Y44350000D02*
X25500000Y44350000D01*
X29068907Y32900000D02*
X29068907Y32800000D01*
X25200000Y44900000D02*
X25200000Y45150000D01*
X25600000Y39950000D02*
X25600000Y40200000D01*
X25500000Y35800000D02*
X25400000Y35800000D01*
X29120000Y48620000D02*
X29370000Y48620000D01*
X25600000Y40850000D02*
X25600000Y41100000D01*
X25400000Y42100000D02*
X25300000Y42100000D01*
X25600000Y38150000D02*
X25600000Y38400000D01*
X29968907Y32900000D02*
X29968907Y32800000D01*
X25400000Y35350000D02*
X25500000Y35350000D01*
X31620000Y33300000D02*
X31120000Y32800000D01*
X25400000Y45700000D02*
X25300000Y45700000D01*
X25300000Y38950000D02*
X25400000Y38950000D01*
X25400000Y39850000D02*
X25500000Y39850000D01*
X25400000Y38050000D02*
X25500000Y38050000D01*
X25753553Y47836396D02*
X25930331Y48013173D01*
X29968907Y32800000D02*
X29968907Y32700000D01*
X28518907Y33000000D02*
X28268907Y33000000D01*
X25400000Y46150000D02*
X25500000Y46150000D01*
X25200000Y35900000D02*
X25200000Y36150000D01*
X25400000Y40750000D02*
X25500000Y40750000D01*
X25600000Y35450000D02*
X25600000Y35700000D01*
X25500000Y40300000D02*
X25400000Y40300000D01*
X26157534Y33542465D02*
X26157534Y33542466D01*
X28570000Y48420000D02*
X28570000Y48320000D01*
X25200000Y36800000D02*
X25200000Y37050000D01*
X25400000Y41650000D02*
X25500000Y41650000D01*
X25300000Y42550000D02*
X25400000Y42550000D01*
X25300000Y37150000D02*
X25400000Y37150000D01*
X25300000Y43450000D02*
X25400000Y43450000D01*
X26263602Y33153554D02*
X26086825Y33330331D01*
X27770000Y48220000D02*
X28020000Y48220000D01*
X25400000Y37600000D02*
X25300000Y37600000D01*
X25400000Y45250000D02*
X25500000Y45250000D01*
X25600000Y42650000D02*
X25600000Y42900000D01*
X25768623Y33931376D02*
X25591848Y34108152D01*
X25300000Y35350000D02*
X25400000Y35350000D01*
X25200000Y43100000D02*
X25200000Y43350000D01*
X25400000Y41200000D02*
X25300000Y41200000D01*
X25400000Y43900000D02*
X25300000Y43900000D01*
X25200000Y35000000D02*
X25200000Y35250000D01*
X25500000Y39400000D02*
X25400000Y39400000D01*
X27670000Y48420000D02*
X27670000Y48320000D01*
X27670000Y48520000D02*
X27670000Y48420000D01*
X25600000Y37250000D02*
X25600000Y37500000D01*
X25200000Y38600000D02*
X25200000Y38850000D01*
X25300000Y39850000D02*
X25400000Y39850000D01*
X25400000Y36250000D02*
X25500000Y36250000D01*
X28120000Y48420000D02*
X28120000Y48520000D01*
X25500000Y38500000D02*
X25400000Y38500000D01*
X25400000Y39400000D02*
X25300000Y39400000D01*
X26620000Y48420000D02*
X27120000Y48420000D01*
X25400000Y38500000D02*
X25300000Y38500000D01*
X25500000Y44800000D02*
X25400000Y44800000D01*
X25400000Y34300000D02*
X25400000Y34800000D01*
X25400000Y46700000D02*
X25400000Y46950000D01*
X29418907Y33000000D02*
X29168907Y33000000D01*
X25200000Y45800000D02*
X25200000Y46050000D01*
X30318907Y33000000D02*
X30068907Y33000000D01*
X26228244Y33754599D02*
X26051467Y33931376D01*
X25200000Y44000000D02*
X25200000Y44250000D01*
X25600000Y44450000D02*
X25600000Y44700000D01*
X28068907Y32600000D02*
X27818907Y32600000D01*
X30277146Y48420000D02*
X30660000Y48420000D01*
X29518907Y32700000D02*
X29518907Y32800000D01*
X27320000Y48620000D02*
X27570000Y48620000D01*
X25200000Y37700000D02*
X25200000Y37950000D01*
X29518907Y32800000D02*
X29518907Y32900000D01*
X29570000Y48420000D02*
X29820000Y48420000D01*
X26900000Y32800000D02*
X26546446Y33153554D01*
X29820000Y48420000D02*
X30277146Y48420000D01*
X25500000Y42100000D02*
X25400000Y42100000D01*
X28220000Y48620000D02*
X28470000Y48620000D01*
X25600000Y43550000D02*
X25600000Y43800000D01*
X25500000Y43000000D02*
X25400000Y43000000D01*
X29868907Y32600000D02*
X29618907Y32600000D01*
X25400000Y43450000D02*
X25500000Y43450000D01*
X28968907Y32600000D02*
X28718907Y32600000D01*
X30418907Y32700000D02*
X30418907Y32800000D01*
X25300000Y36250000D02*
X25400000Y36250000D01*
X25400000Y35800000D02*
X25300000Y35800000D01*
X25500000Y41200000D02*
X25400000Y41200000D01*
X25500000Y43900000D02*
X25400000Y43900000D01*
X30418907Y32800000D02*
X30418907Y32900000D01*
X28618907Y32800000D02*
X28618907Y32900000D01*
X25400000Y37150000D02*
X25500000Y37150000D01*
X27618907Y32800000D02*
X27368907Y32800000D01*
X26157534Y33542466D02*
X26228244Y33613177D01*
X25400000Y47200000D02*
X25753553Y47553554D01*
X25600000Y36350000D02*
X25600000Y36600000D01*
X29068907Y32800000D02*
X29068907Y32700000D01*
X30768907Y32600000D02*
X30518907Y32600000D01*
X25600000Y45350000D02*
X25600000Y45600000D01*
X25200000Y39500000D02*
X25200000Y39750000D01*
X25300000Y40750000D02*
X25400000Y40750000D01*
X28670000Y48220000D02*
X28920000Y48220000D01*
X25591848Y34108152D02*
X25400000Y34300000D01*
X25400000Y42550000D02*
X25500000Y42550000D01*
X25200000Y42200000D02*
X25200000Y42450000D01*
X31120000Y32800000D02*
X30968907Y32800000D01*
X26086825Y33471753D02*
X26157534Y33542465D01*
X25200000Y40400000D02*
X25200000Y40650000D01*
X25300000Y38050000D02*
X25400000Y38050000D01*
X25300000Y41650000D02*
X25400000Y41650000D01*
X25500000Y36700000D02*
X25400000Y36700000D01*
X28168907Y32800000D02*
X28168907Y32700000D01*
X28168907Y32900000D02*
X28168907Y32800000D01*
X25200000Y41300000D02*
X25200000Y41550000D01*
X25400000Y40300000D02*
X25300000Y40300000D01*
X25500000Y43450000D02*
G75*
G03*
X25600000Y43550000I0J100000D01*
G01*
X26228244Y33613177D02*
G75*
G03*
X26228256Y33754611I-70744J70723D01*
G01*
X25600000Y39300000D02*
G75*
G03*
X25500000Y39400000I-100000J0D01*
G01*
X25200000Y44250000D02*
G75*
G02*
X25300000Y44350000I100000J0D01*
G01*
X28920000Y48220000D02*
G75*
G03*
X29020000Y48320000I0J100000D01*
G01*
X26051467Y33931376D02*
G75*
G03*
X25910045Y33931376I-70711J-70713D01*
G01*
X25200000Y37050000D02*
G75*
G02*
X25300000Y37150000I100000J0D01*
G01*
X29518907Y32900000D02*
G75*
G03*
X29418907Y33000007I-100007J0D01*
G01*
X25600000Y40200000D02*
G75*
G03*
X25500000Y40300000I-100000J0D01*
G01*
X25600000Y43800000D02*
G75*
G03*
X25500000Y43900000I-100000J0D01*
G01*
X30868907Y32700000D02*
G75*
G02*
X30768907Y32599993I-100007J0D01*
G01*
X25200000Y38850000D02*
G75*
G02*
X25300000Y38950000I100000J0D01*
G01*
X25500000Y40750000D02*
G75*
G03*
X25600000Y40850000I0J100000D01*
G01*
X25300000Y42100000D02*
G75*
G02*
X25200000Y42200000I0J100000D01*
G01*
X25500000Y38950000D02*
G75*
G03*
X25600000Y39050000I0J100000D01*
G01*
X25300000Y38500000D02*
G75*
G02*
X25200000Y38600000I0J100000D01*
G01*
X25200000Y45150000D02*
G75*
G02*
X25300000Y45250000I100000J0D01*
G01*
X25200000Y40650000D02*
G75*
G02*
X25300000Y40750000I100000J0D01*
G01*
X25500000Y39850000D02*
G75*
G03*
X25600000Y39950000I0J100000D01*
G01*
X25300000Y45700000D02*
G75*
G02*
X25200000Y45800000I0J100000D01*
G01*
X29968907Y32700000D02*
G75*
G02*
X29868907Y32599993I-100007J0D01*
G01*
X25200000Y41550000D02*
G75*
G02*
X25300000Y41650000I100000J0D01*
G01*
X25600000Y41100000D02*
G75*
G03*
X25500000Y41200000I-100000J0D01*
G01*
X25300000Y43000000D02*
G75*
G02*
X25200000Y43100000I0J100000D01*
G01*
X25753554Y47694976D02*
G75*
G02*
X25753539Y47836409I70746J70724D01*
G01*
X25300000Y40300000D02*
G75*
G02*
X25200000Y40400000I0J100000D01*
G01*
X25500000Y38050000D02*
G75*
G03*
X25600000Y38150000I0J100000D01*
G01*
X25500000Y36250000D02*
G75*
G03*
X25600000Y36350000I0J100000D01*
G01*
X28020000Y48220000D02*
G75*
G03*
X28120000Y48320000I0J100000D01*
G01*
X25200000Y37950000D02*
G75*
G02*
X25300000Y38050000I100000J0D01*
G01*
X25500000Y44350000D02*
G75*
G03*
X25600000Y44450000I0J100000D01*
G01*
X28718907Y32600000D02*
G75*
G02*
X28618900Y32700000I-7J100000D01*
G01*
X25200000Y35250000D02*
G75*
G02*
X25300000Y35350000I100000J0D01*
G01*
X25753553Y47553554D02*
G75*
G03*
X25753589Y47695010I-70753J70746D01*
G01*
X25600000Y35700000D02*
G75*
G03*
X25500000Y35800000I-100000J0D01*
G01*
X26405024Y33153554D02*
G75*
G02*
X26263602Y33153554I-70711J70713D01*
G01*
X25200000Y36150000D02*
G75*
G02*
X25300000Y36250000I100000J0D01*
G01*
X29068907Y32700000D02*
G75*
G02*
X28968907Y32599993I-100007J0D01*
G01*
X25200000Y43350000D02*
G75*
G02*
X25300000Y43450000I100000J0D01*
G01*
X25300000Y36700000D02*
G75*
G02*
X25200000Y36800000I0J100000D01*
G01*
X30968907Y32800000D02*
G75*
G03*
X30868900Y32700000I-7J-100000D01*
G01*
X25500000Y37150000D02*
G75*
G03*
X25600000Y37250000I0J100000D01*
G01*
X29618907Y32600000D02*
G75*
G02*
X29518900Y32700000I-7J100000D01*
G01*
X25200000Y42450000D02*
G75*
G02*
X25300000Y42550000I100000J0D01*
G01*
X25200000Y46050000D02*
G75*
G02*
X25300000Y46150000I100000J0D01*
G01*
X26086825Y33330331D02*
G75*
G02*
X26086867Y33471711I70675J70669D01*
G01*
X27818907Y32600000D02*
G75*
G02*
X27718900Y32700000I-7J100000D01*
G01*
X27670000Y48320000D02*
G75*
G03*
X27770000Y48220000I100000J0D01*
G01*
X25300000Y43900000D02*
G75*
G02*
X25200000Y44000000I0J100000D01*
G01*
X27570000Y48620000D02*
G75*
G02*
X27670000Y48520000I0J-100000D01*
G01*
X27120000Y48420000D02*
G75*
G03*
X27220000Y48520000I0J100000D01*
G01*
X25930331Y48013173D02*
G75*
G02*
X26071753Y48013173I70711J-70713D01*
G01*
X25600000Y37500000D02*
G75*
G03*
X25500000Y37600000I-100000J0D01*
G01*
X25300000Y35800000D02*
G75*
G02*
X25200000Y35900000I0J100000D01*
G01*
X26546446Y33153554D02*
G75*
G03*
X26405024Y33153554I-70711J-70713D01*
G01*
X27718907Y32700000D02*
G75*
G03*
X27618907Y32800007I-100007J0D01*
G01*
X28618907Y32900000D02*
G75*
G03*
X28518907Y33000007I-100007J0D01*
G01*
X25500000Y46600000D02*
G75*
G02*
X25400000Y46700000I0J100000D01*
G01*
X25400000Y34800000D02*
G75*
G03*
X25300000Y34900000I-100000J0D01*
G01*
X25910045Y33931376D02*
G75*
G02*
X25768623Y33931376I-70711J70713D01*
G01*
X28268907Y33000000D02*
G75*
G03*
X28168900Y32900000I-7J-100000D01*
G01*
X28168907Y32700000D02*
G75*
G02*
X28068907Y32599993I-100007J0D01*
G01*
X25600000Y46500000D02*
G75*
G03*
X25500000Y46600000I-100000J0D01*
G01*
X26071753Y48013173D02*
G75*
G03*
X26213175Y48013173I70711J70713D01*
G01*
X28120000Y48520000D02*
G75*
G02*
X28220000Y48620000I100000J0D01*
G01*
X25600000Y44700000D02*
G75*
G03*
X25500000Y44800000I-100000J0D01*
G01*
X25500000Y42550000D02*
G75*
G03*
X25600000Y42650000I0J100000D01*
G01*
X25500000Y46150000D02*
G75*
G03*
X25600000Y46250000I0J100000D01*
G01*
X25300000Y44800000D02*
G75*
G02*
X25200000Y44900000I0J100000D01*
G01*
X25300000Y39400000D02*
G75*
G02*
X25200000Y39500000I0J100000D01*
G01*
X25600000Y42000000D02*
G75*
G03*
X25500000Y42100000I-100000J0D01*
G01*
X25300000Y41200000D02*
G75*
G02*
X25200000Y41300000I0J100000D01*
G01*
X29470000Y48520000D02*
G75*
G03*
X29570000Y48420000I100000J0D01*
G01*
X30518907Y32600000D02*
G75*
G02*
X30418900Y32700000I-7J100000D01*
G01*
X25500000Y35350000D02*
G75*
G03*
X25600000Y35450000I0J100000D01*
G01*
X25600000Y42900000D02*
G75*
G03*
X25500000Y43000000I-100000J0D01*
G01*
X25200000Y39750000D02*
G75*
G02*
X25300000Y39850000I100000J0D01*
G01*
X28570000Y48320000D02*
G75*
G03*
X28670000Y48220000I100000J0D01*
G01*
X25600000Y36600000D02*
G75*
G03*
X25500000Y36700000I-100000J0D01*
G01*
X29020000Y48520000D02*
G75*
G02*
X29120000Y48620000I100000J0D01*
G01*
X29370000Y48620000D02*
G75*
G02*
X29470000Y48520000I0J-100000D01*
G01*
X25600000Y38400000D02*
G75*
G03*
X25500000Y38500000I-100000J0D01*
G01*
X27220000Y48520000D02*
G75*
G02*
X27320000Y48620000I100000J0D01*
G01*
X28470000Y48620000D02*
G75*
G02*
X28570000Y48520000I0J-100000D01*
G01*
X25600000Y45600000D02*
G75*
G03*
X25500000Y45700000I-100000J0D01*
G01*
X30068907Y33000000D02*
G75*
G03*
X29968900Y32900000I-7J-100000D01*
G01*
X25500000Y45250000D02*
G75*
G03*
X25600000Y45350000I0J100000D01*
G01*
X25300000Y34900000D02*
G75*
G02*
X25200000Y35000000I0J100000D01*
G01*
X30418907Y32900000D02*
G75*
G03*
X30318907Y33000007I-100007J0D01*
G01*
X25500000Y41650000D02*
G75*
G03*
X25600000Y41750000I0J100000D01*
G01*
X29168907Y33000000D02*
G75*
G03*
X29068900Y32900000I-7J-100000D01*
G01*
X25300000Y37600000D02*
G75*
G02*
X25200000Y37700000I0J100000D01*
G01*
%TO.N,DDR3_DQ8*%
X28880000Y33740000D02*
X28690000Y33740000D01*
X29010000Y34130000D02*
X29010000Y34000000D01*
X26560000Y36410000D02*
X26560000Y36600000D01*
X26300000Y45860000D02*
X26300000Y46050000D01*
X27980000Y34000000D02*
X27790000Y34000000D01*
X32500000Y33340000D02*
X32146446Y33693554D01*
X26430000Y37630000D02*
X26300000Y37630000D01*
X26560000Y41810000D02*
X26560000Y42000000D01*
X29910000Y34000000D02*
X29910000Y33870000D01*
X26300000Y45280000D02*
X26430000Y45280000D01*
X29460000Y33870000D02*
X29460000Y34000000D01*
X29780000Y33740000D02*
X29590000Y33740000D01*
X26170000Y41680000D02*
X26300000Y41680000D01*
X27400000Y47600000D02*
X27900000Y47600000D01*
X26560000Y40910000D02*
X26560000Y41100000D01*
X26430000Y38530000D02*
X26300000Y38530000D01*
X30200000Y47600000D02*
X30700000Y47600000D01*
X26170000Y43480000D02*
X26300000Y43480000D01*
X26170000Y45280000D02*
X26300000Y45280000D01*
X30700000Y47600000D02*
X30870000Y47600000D01*
X26430000Y40330000D02*
X26300000Y40330000D01*
X29910000Y34130000D02*
X29910000Y34000000D01*
X26040000Y44960000D02*
X26040000Y45150000D01*
X32730000Y33340000D02*
X32500000Y33340000D01*
X31506398Y48236397D02*
X31571885Y48301885D01*
X26560000Y42710000D02*
X26560000Y42900000D01*
X26300000Y41230000D02*
X26170000Y41230000D01*
X26300000Y40330000D02*
X26170000Y40330000D01*
X26430000Y36730000D02*
X26300000Y36730000D01*
X26644399Y34855601D02*
X26510049Y34989951D01*
X30360000Y33870000D02*
X30360000Y34000000D01*
X32920000Y33340000D02*
X32730000Y33340000D01*
X28430000Y34260000D02*
X28240000Y34260000D01*
X30230000Y34260000D02*
X30040000Y34260000D01*
X29560000Y47860000D02*
X29750000Y47860000D01*
X26170000Y40780000D02*
X26300000Y40780000D01*
X26300000Y41680000D02*
X26430000Y41680000D01*
X26300000Y38980000D02*
X26430000Y38980000D01*
X33500000Y33210000D02*
X33500000Y33340000D01*
X26170000Y37180000D02*
X26300000Y37180000D01*
X26040000Y36860000D02*
X26040000Y37050000D01*
X26560000Y43610000D02*
X26560000Y43800000D01*
X26300000Y44380000D02*
X26430000Y44380000D01*
X28560000Y34000000D02*
X28560000Y34130000D01*
X26300000Y36730000D02*
X26170000Y36730000D01*
X26300000Y44830000D02*
X26170000Y44830000D01*
X26170000Y42580000D02*
X26300000Y42580000D01*
X26300000Y36280000D02*
X26430000Y36280000D01*
X31580000Y33740000D02*
X31390000Y33740000D01*
X26300000Y35200000D02*
X26300000Y35700000D01*
X26040000Y39560000D02*
X26040000Y39750000D01*
X26560000Y44510000D02*
X26560000Y44700000D01*
X29110000Y47600000D02*
X29300000Y47600000D01*
X26300000Y37180000D02*
X26430000Y37180000D01*
X29010000Y34000000D02*
X29010000Y33870000D01*
X26430000Y43930000D02*
X26300000Y43930000D01*
X33820000Y33080000D02*
X33630000Y33080000D01*
X26778750Y34353554D02*
X26644399Y34487905D01*
X33370000Y33600000D02*
X33180000Y33600000D01*
X26170000Y39880000D02*
X26300000Y39880000D01*
X26430000Y43030000D02*
X26300000Y43030000D01*
X26653553Y47221248D02*
X26787905Y47355599D01*
X26040000Y44060000D02*
X26040000Y44250000D01*
X26170000Y36280000D02*
X26300000Y36280000D01*
X26300000Y43480000D02*
X26430000Y43480000D01*
X26560000Y39110000D02*
X26560000Y39300000D01*
X26170000Y38080000D02*
X26300000Y38080000D01*
X26430000Y39430000D02*
X26300000Y39430000D01*
X26560000Y37310000D02*
X26560000Y37500000D01*
X26300000Y43030000D02*
X26170000Y43030000D01*
X26040000Y43160000D02*
X26040000Y43350000D01*
X26560000Y40010000D02*
X26560000Y40200000D01*
X26040000Y40460000D02*
X26040000Y40650000D01*
X30680000Y33740000D02*
X30490000Y33740000D01*
X26300000Y37630000D02*
X26170000Y37630000D01*
X26560000Y38210000D02*
X26560000Y38400000D01*
X26300000Y39430000D02*
X26170000Y39430000D01*
X26170000Y44380000D02*
X26300000Y44380000D01*
X26300000Y46500000D02*
X26653553Y46853554D01*
X26300000Y38530000D02*
X26170000Y38530000D01*
X26300000Y39880000D02*
X26430000Y39880000D01*
X26300000Y40780000D02*
X26430000Y40780000D01*
X26300000Y38080000D02*
X26430000Y38080000D01*
X26430000Y41230000D02*
X26300000Y41230000D01*
X26300000Y43930000D02*
X26170000Y43930000D01*
X30360000Y34000000D02*
X30360000Y34130000D01*
X28660000Y47860000D02*
X28850000Y47860000D01*
X26040000Y37760000D02*
X26040000Y37950000D01*
X27500000Y34000000D02*
X27146446Y34353554D01*
X26510049Y34989951D02*
X26300000Y35200000D01*
X26040000Y38660000D02*
X26040000Y38850000D01*
X26300000Y42580000D02*
X26430000Y42580000D01*
X33500000Y33340000D02*
X33500000Y33470000D01*
X29330000Y34260000D02*
X29140000Y34260000D01*
X26300000Y42130000D02*
X26170000Y42130000D01*
X28560000Y33870000D02*
X28560000Y34000000D01*
X26040000Y42260000D02*
X26040000Y42450000D01*
X27900000Y47600000D02*
X28400000Y47600000D01*
X31372048Y48102045D02*
X31506398Y48236397D01*
X26040000Y41360000D02*
X26040000Y41550000D01*
X29460000Y34000000D02*
X29460000Y34130000D01*
X26430000Y42130000D02*
X26300000Y42130000D01*
X26560000Y45410000D02*
X26560000Y45600000D01*
X27155601Y47355599D02*
X27289951Y47489951D01*
X31571885Y48301885D02*
X31690000Y48420000D01*
X31130000Y34000000D02*
X30940000Y34000000D01*
X30870000Y47967694D02*
X31004352Y48102045D01*
X26170000Y38980000D02*
X26300000Y38980000D01*
X27790000Y34000000D02*
X27500000Y34000000D01*
X26300000Y46050000D02*
X26300000Y46500000D01*
X32146446Y33693554D02*
X31840000Y34000000D01*
X30010000Y47600000D02*
X30200000Y47600000D01*
X27289951Y47489951D02*
X27400000Y47600000D01*
X26040000Y35960000D02*
X26040000Y36150000D01*
X26430000Y44830000D02*
X26300000Y44830000D01*
X26430000Y41680000D02*
G75*
G03*
X26560000Y41810000I0J130000D01*
G01*
X26430000Y38080000D02*
G75*
G03*
X26560000Y38210000I0J130000D01*
G01*
X26560000Y44700000D02*
G75*
G03*
X26430000Y44830000I-130000J0D01*
G01*
X28850000Y47860000D02*
G75*
G02*
X28980000Y47730000I0J-130000D01*
G01*
X26170000Y40330000D02*
G75*
G02*
X26040000Y40460000I0J130000D01*
G01*
X26971753Y47355599D02*
G75*
G03*
X27155601Y47355599I91924J91925D01*
G01*
X26644399Y34487905D02*
G75*
G02*
X26644428Y34671724I91901J91895D01*
G01*
X29460000Y34130000D02*
G75*
G03*
X29330000Y34260000I-130000J0D01*
G01*
X26560000Y41100000D02*
G75*
G03*
X26430000Y41230000I-130000J0D01*
G01*
X26170000Y36730000D02*
G75*
G02*
X26040000Y36860000I0J130000D01*
G01*
X31710000Y33870000D02*
G75*
G02*
X31580000Y33740000I-130000J0D01*
G01*
X26653554Y47037402D02*
G75*
G02*
X26653578Y47221223I91946J91898D01*
G01*
X30870001Y47783848D02*
G75*
G02*
X30869971Y47967723I91899J91952D01*
G01*
X33180000Y33600000D02*
G75*
G03*
X33050000Y33470000I0J-130000D01*
G01*
X33950000Y33210000D02*
G75*
G02*
X33820000Y33080000I-130000J0D01*
G01*
X33630000Y33080000D02*
G75*
G02*
X33500000Y33210000I0J130000D01*
G01*
X26170000Y38530000D02*
G75*
G02*
X26040000Y38660000I0J130000D01*
G01*
X26170000Y43930000D02*
G75*
G02*
X26040000Y44060000I0J130000D01*
G01*
X26560000Y38400000D02*
G75*
G03*
X26430000Y38530000I-130000J0D01*
G01*
X28560000Y34130000D02*
G75*
G03*
X28430000Y34260000I-130000J0D01*
G01*
X26560000Y39300000D02*
G75*
G03*
X26430000Y39430000I-130000J0D01*
G01*
X26430000Y37180000D02*
G75*
G03*
X26560000Y37310000I0J130000D01*
G01*
X26430000Y43480000D02*
G75*
G03*
X26560000Y43610000I0J130000D01*
G01*
X28110000Y34130000D02*
G75*
G02*
X27980000Y34000000I-130000J0D01*
G01*
X26430000Y38980000D02*
G75*
G03*
X26560000Y39110000I0J130000D01*
G01*
X28980000Y47730000D02*
G75*
G03*
X29110000Y47600000I130000J0D01*
G01*
X30870000Y47600000D02*
G75*
G03*
X30869977Y47783823I-91900J91900D01*
G01*
X26560000Y37500000D02*
G75*
G03*
X26430000Y37630000I-130000J0D01*
G01*
X26040000Y42450000D02*
G75*
G02*
X26170000Y42580000I130000J0D01*
G01*
X29300000Y47600000D02*
G75*
G03*
X29430000Y47730000I0J130000D01*
G01*
X29590000Y33740000D02*
G75*
G02*
X29460000Y33870000I0J130000D01*
G01*
X26040000Y43350000D02*
G75*
G02*
X26170000Y43480000I130000J0D01*
G01*
X31840000Y34000000D02*
G75*
G03*
X31710000Y33870000I0J-130000D01*
G01*
X29750000Y47860000D02*
G75*
G02*
X29880000Y47730000I0J-130000D01*
G01*
X30490000Y33740000D02*
G75*
G02*
X30360000Y33870000I0J130000D01*
G01*
X27146446Y34353554D02*
G75*
G03*
X26962598Y34353554I-91924J-91925D01*
G01*
X28240000Y34260000D02*
G75*
G03*
X28110000Y34130000I0J-130000D01*
G01*
X26430000Y36280000D02*
G75*
G03*
X26560000Y36410000I0J130000D01*
G01*
X26040000Y37050000D02*
G75*
G02*
X26170000Y37180000I130000J0D01*
G01*
X30040000Y34260000D02*
G75*
G03*
X29910000Y34130000I0J-130000D01*
G01*
X26170000Y37630000D02*
G75*
G02*
X26040000Y37760000I0J130000D01*
G01*
X26560000Y36600000D02*
G75*
G03*
X26430000Y36730000I-130000J0D01*
G01*
X26560000Y42000000D02*
G75*
G03*
X26430000Y42130000I-130000J0D01*
G01*
X26040000Y41550000D02*
G75*
G02*
X26170000Y41680000I130000J0D01*
G01*
X29910000Y33870000D02*
G75*
G02*
X29780000Y33740000I-130000J0D01*
G01*
X28400000Y47600000D02*
G75*
G03*
X28530000Y47730000I0J130000D01*
G01*
X33050000Y33470000D02*
G75*
G02*
X32920000Y33340000I-130000J0D01*
G01*
X26170000Y35830000D02*
G75*
G02*
X26040000Y35960000I0J130000D01*
G01*
X31260000Y33870000D02*
G75*
G03*
X31130000Y34000000I-130000J0D01*
G01*
X26170000Y44830000D02*
G75*
G02*
X26040000Y44960000I0J130000D01*
G01*
X26560000Y42900000D02*
G75*
G03*
X26430000Y43030000I-130000J0D01*
G01*
X26300000Y35700000D02*
G75*
G03*
X26170000Y35830000I-130000J0D01*
G01*
X26653553Y46853554D02*
G75*
G03*
X26653576Y47037423I-91953J91946D01*
G01*
X26170000Y39430000D02*
G75*
G02*
X26040000Y39560000I0J130000D01*
G01*
X26644399Y34671753D02*
G75*
G03*
X26644422Y34855624I-91899J91947D01*
G01*
X26040000Y40650000D02*
G75*
G02*
X26170000Y40780000I130000J0D01*
G01*
X29430000Y47730000D02*
G75*
G02*
X29560000Y47860000I130000J0D01*
G01*
X26040000Y45150000D02*
G75*
G02*
X26170000Y45280000I130000J0D01*
G01*
X26560000Y45600000D02*
G75*
G03*
X26430000Y45730000I-130000J0D01*
G01*
X33500000Y33470000D02*
G75*
G03*
X33370000Y33600000I-130000J0D01*
G01*
X31004352Y48102045D02*
G75*
G02*
X31188200Y48102045I91924J-91925D01*
G01*
X29010000Y33870000D02*
G75*
G02*
X28880000Y33740000I-130000J0D01*
G01*
X26170000Y42130000D02*
G75*
G02*
X26040000Y42260000I0J130000D01*
G01*
X26040000Y37950000D02*
G75*
G02*
X26170000Y38080000I130000J0D01*
G01*
X28530000Y47730000D02*
G75*
G02*
X28660000Y47860000I130000J0D01*
G01*
X26430000Y42580000D02*
G75*
G03*
X26560000Y42710000I0J130000D01*
G01*
X26430000Y45280000D02*
G75*
G03*
X26560000Y45410000I0J130000D01*
G01*
X26040000Y44250000D02*
G75*
G02*
X26170000Y44380000I130000J0D01*
G01*
X31188200Y48102045D02*
G75*
G03*
X31372048Y48102045I91924J91925D01*
G01*
X26430000Y45730000D02*
G75*
G02*
X26300000Y45860000I0J130000D01*
G01*
X29140000Y34260000D02*
G75*
G03*
X29010000Y34130000I0J-130000D01*
G01*
X26040000Y39750000D02*
G75*
G02*
X26170000Y39880000I130000J0D01*
G01*
X29880000Y47730000D02*
G75*
G03*
X30010000Y47600000I130000J0D01*
G01*
X26430000Y39880000D02*
G75*
G03*
X26560000Y40010000I0J130000D01*
G01*
X26170000Y41230000D02*
G75*
G02*
X26040000Y41360000I0J130000D01*
G01*
X30940000Y34000000D02*
G75*
G03*
X30810000Y33870000I0J-130000D01*
G01*
X30360000Y34130000D02*
G75*
G03*
X30230000Y34260000I-130000J0D01*
G01*
X34080000Y33340000D02*
G75*
G03*
X33950000Y33210000I0J-130000D01*
G01*
X26560000Y43800000D02*
G75*
G03*
X26430000Y43930000I-130000J0D01*
G01*
X26040000Y38850000D02*
G75*
G02*
X26170000Y38980000I130000J0D01*
G01*
X28690000Y33740000D02*
G75*
G02*
X28560000Y33870000I0J130000D01*
G01*
X26787905Y47355599D02*
G75*
G02*
X26971753Y47355599I91924J-91925D01*
G01*
X26962598Y34353554D02*
G75*
G02*
X26778750Y34353554I-91924J91925D01*
G01*
X26170000Y43030000D02*
G75*
G02*
X26040000Y43160000I0J130000D01*
G01*
X26560000Y40200000D02*
G75*
G03*
X26430000Y40330000I-130000J0D01*
G01*
X31390000Y33740000D02*
G75*
G02*
X31260000Y33870000I0J130000D01*
G01*
X26430000Y40780000D02*
G75*
G03*
X26560000Y40910000I0J130000D01*
G01*
X26040000Y36150000D02*
G75*
G02*
X26170000Y36280000I130000J0D01*
G01*
X26430000Y44380000D02*
G75*
G03*
X26560000Y44510000I0J130000D01*
G01*
X30810000Y33870000D02*
G75*
G02*
X30680000Y33740000I-130000J0D01*
G01*
%TO.N,DDR3_DQ9*%
X33120000Y31500000D02*
X33530000Y31090000D01*
X25017500Y49717500D02*
X23700000Y48400000D01*
X23700000Y32600000D02*
X25400000Y30900000D01*
X31247500Y49717500D02*
X25017500Y49717500D01*
X23700000Y48400000D02*
X23700000Y32600000D01*
X29800000Y30900000D02*
X30400000Y31500000D01*
X25400000Y30900000D02*
X29800000Y30900000D01*
X30400000Y31500000D02*
X33120000Y31500000D01*
%TO.N,DDR3_DQ15*%
X31700000Y31000000D02*
X31200000Y31000000D01*
X22800000Y48900000D02*
X24400000Y50500000D01*
X31066281Y50280000D02*
X31685000Y50280000D01*
X22800000Y32300000D02*
X22800000Y48900000D01*
X30400000Y30200000D02*
X24900000Y30200000D01*
X30846281Y50500000D02*
X31066281Y50280000D01*
X24400000Y50500000D02*
X30846281Y50500000D01*
X31685000Y50280000D02*
X32247500Y49717500D01*
X31200000Y31000000D02*
X30400000Y30200000D01*
X24900000Y30200000D02*
X22800000Y32300000D01*
%TO.N,DDR3_DQS1_N*%
D25*
X28840000Y39966152D02*
X28840000Y39846152D01*
X30990000Y39136152D02*
X30230000Y39136152D01*
X29970000Y38276152D02*
X30230000Y38276152D01*
X30546152Y45930000D02*
X29970000Y45353848D01*
X29210000Y38276152D02*
X29970000Y38276152D01*
X30230000Y39476152D02*
X30990000Y39476152D01*
X30990000Y37936152D02*
X30230000Y37936152D01*
X28840000Y42366152D02*
X28840000Y42246152D01*
X31100000Y41766152D02*
X31100000Y41646152D01*
X31767623Y46360590D02*
X31944399Y46183814D01*
X28940000Y37566152D02*
X28940000Y37446152D01*
X29970000Y42736152D02*
X29210000Y42736152D01*
X30230000Y42736152D02*
X29970000Y42736152D01*
X30230000Y40336152D02*
X29970000Y40336152D01*
X31852476Y46968701D02*
X31767623Y46883849D01*
X30990000Y42736152D02*
X30230000Y42736152D01*
X29860000Y44276152D02*
X30230000Y44276152D01*
X31846152Y45930000D02*
X30546152Y45930000D01*
X30990000Y43936152D02*
X30230000Y43936152D01*
X29970000Y36446152D02*
X30546152Y35870000D01*
X33396296Y47480144D02*
X32708076Y46791924D01*
X29970000Y40336152D02*
X29210000Y40336152D01*
X32552512Y46791924D02*
X32375735Y46968701D01*
X30230000Y37936152D02*
X29860000Y37936152D01*
X29210000Y44276152D02*
X29860000Y44276152D01*
X30990000Y40336152D02*
X30230000Y40336152D01*
X29970000Y39476152D02*
X30230000Y39476152D01*
X29970000Y43076152D02*
X30230000Y43076152D01*
X28840000Y41166152D02*
X28840000Y41046152D01*
X32400000Y35870000D02*
X32422284Y35870000D01*
X30230000Y43936152D02*
X29970000Y43936152D01*
X30230000Y43076152D02*
X30990000Y43076152D01*
X32900000Y34744314D02*
X32755000Y34599314D01*
X30230000Y40676152D02*
X30990000Y40676152D01*
X29210000Y40676152D02*
X29970000Y40676152D01*
X31733848Y35870000D02*
X31853848Y35870000D01*
X30230000Y41536152D02*
X29970000Y41536152D01*
X28840000Y38766152D02*
X28840000Y38646152D01*
X30230000Y44276152D02*
X30990000Y44276152D01*
X32755000Y34395000D02*
X32480000Y34120000D01*
X28840000Y43566152D02*
X28840000Y43446152D01*
X33475969Y47559817D02*
X33396296Y47480144D01*
X29210000Y43076152D02*
X29970000Y43076152D01*
X29210000Y39476152D02*
X29970000Y39476152D01*
X31100000Y42966152D02*
X31100000Y42846152D01*
X29970000Y41876152D02*
X30230000Y41876152D01*
X29310000Y37076152D02*
X29860000Y37076152D01*
X33380000Y48410000D02*
X33610000Y48180000D01*
X29970000Y43936152D02*
X29210000Y43936152D01*
X31100000Y38166152D02*
X31100000Y38046152D01*
X29970000Y39136152D02*
X29210000Y39136152D01*
X29970000Y36966152D02*
X29970000Y36846152D01*
X30230000Y41876152D02*
X30990000Y41876152D01*
X31133848Y37000000D02*
X31253848Y37000000D01*
X29860000Y37936152D02*
X29310000Y37936152D01*
X31100000Y39366152D02*
X31100000Y39246152D01*
X31100000Y44166152D02*
X31100000Y44046152D01*
X30546152Y35870000D02*
X30653848Y35870000D01*
X33610000Y47693848D02*
X33475969Y47559817D01*
X29970000Y45353848D02*
X29970000Y45246152D01*
X31100000Y40566152D02*
X31100000Y40446152D01*
X31859547Y45943396D02*
X31846152Y45930000D01*
X30230000Y38276152D02*
X30990000Y38276152D01*
X32900000Y35392284D02*
X32900000Y34744314D01*
X29210000Y41876152D02*
X29970000Y41876152D01*
X31853848Y35870000D02*
X32400000Y35870000D01*
X33610000Y48180000D02*
X33610000Y47693848D01*
X29970000Y36846152D02*
X29970000Y36446152D01*
X31023848Y36240000D02*
X31023848Y36890000D01*
X31363848Y36890000D02*
X31363848Y36240000D01*
X29860000Y45136152D02*
X29210000Y45136152D01*
X29970000Y40676152D02*
X30230000Y40676152D01*
X32755000Y34599314D02*
X32755000Y34395000D01*
X30990000Y41536152D02*
X30230000Y41536152D01*
X29970000Y41536152D02*
X29210000Y41536152D01*
X28840000Y44766152D02*
X28840000Y44646152D01*
X30230000Y39136152D02*
X29970000Y39136152D01*
X31944399Y46028250D02*
X31859547Y45943396D01*
X32422284Y35870000D02*
X32900000Y35392284D01*
X28840000Y38646152D02*
G75*
G03*
X29210000Y38276200I370000J48D01*
G01*
X28940000Y37446152D02*
G75*
G03*
X29310000Y37076200I370000J48D01*
G01*
X28840000Y44646152D02*
G75*
G03*
X29210000Y44276200I370000J48D01*
G01*
X32375735Y46968701D02*
G75*
G03*
X31852477Y46968701I-261629J-261628D01*
G01*
X32708076Y46791924D02*
G75*
G02*
X32552512Y46791924I-77782J77783D01*
G01*
X28840000Y39846152D02*
G75*
G03*
X29210000Y39476200I370000J48D01*
G01*
X31944399Y46183814D02*
G75*
G02*
X31944431Y46028218I-77799J-77814D01*
G01*
X31100000Y42846152D02*
G75*
G02*
X30990000Y42736200I-110000J48D01*
G01*
X30990000Y44276152D02*
G75*
G02*
X31099952Y44166152I0J-109952D01*
G01*
X31023848Y36890000D02*
G75*
G02*
X31133848Y36999952I109952J0D01*
G01*
X30653848Y35870000D02*
G75*
G03*
X31023800Y36240000I-48J370000D01*
G01*
X29210000Y39136152D02*
G75*
G03*
X28840048Y38766152I0J-369952D01*
G01*
X31363848Y36240000D02*
G75*
G03*
X31733848Y35870048I369952J0D01*
G01*
X28840000Y42246152D02*
G75*
G03*
X29210000Y41876200I370000J48D01*
G01*
X29210000Y40336152D02*
G75*
G03*
X28840048Y39966152I0J-369952D01*
G01*
X31100000Y39246152D02*
G75*
G02*
X30990000Y39136200I-110000J48D01*
G01*
X29210000Y41536152D02*
G75*
G03*
X28840048Y41166152I0J-369952D01*
G01*
X29210000Y45136152D02*
G75*
G03*
X28840048Y44766152I0J-369952D01*
G01*
X31767623Y46883849D02*
G75*
G03*
X31767603Y46360571I261677J-261649D01*
G01*
X30990000Y41876152D02*
G75*
G02*
X31099952Y41766152I0J-109952D01*
G01*
X31100000Y41646152D02*
G75*
G02*
X30990000Y41536200I-110000J48D01*
G01*
X30990000Y43076152D02*
G75*
G02*
X31099952Y42966152I0J-109952D01*
G01*
X29860000Y37076152D02*
G75*
G02*
X29969952Y36966152I0J-109952D01*
G01*
X31253848Y37000000D02*
G75*
G02*
X31363800Y36890000I-48J-110000D01*
G01*
X30990000Y40676152D02*
G75*
G02*
X31099952Y40566152I0J-109952D01*
G01*
X30990000Y39476152D02*
G75*
G02*
X31099952Y39366152I0J-109952D01*
G01*
X29210000Y43936152D02*
G75*
G03*
X28840048Y43566152I0J-369952D01*
G01*
X29210000Y42736152D02*
G75*
G03*
X28840048Y42366152I0J-369952D01*
G01*
X31100000Y38046152D02*
G75*
G02*
X30990000Y37936200I-110000J48D01*
G01*
X29970000Y45246152D02*
G75*
G02*
X29860000Y45136200I-110000J48D01*
G01*
X31100000Y40446152D02*
G75*
G02*
X30990000Y40336200I-110000J48D01*
G01*
X31100000Y44046152D02*
G75*
G02*
X30990000Y43936200I-110000J48D01*
G01*
X28840000Y43446152D02*
G75*
G03*
X29210000Y43076200I370000J48D01*
G01*
X29310000Y37936152D02*
G75*
G03*
X28940048Y37566152I0J-369952D01*
G01*
X28840000Y41046152D02*
G75*
G03*
X29210000Y40676200I370000J48D01*
G01*
X30990000Y38276152D02*
G75*
G02*
X31099952Y38166152I0J-109952D01*
G01*
%TO.N,DDR3_DM1*%
D24*
X33900000Y31626275D02*
X34168700Y31894976D01*
X29900000Y32100000D02*
X29511091Y31711092D01*
X25145404Y32654597D02*
X25003984Y32796016D01*
X33334314Y31965686D02*
X33200000Y32100000D01*
X32190000Y32640000D02*
X32190000Y32260000D01*
X32190000Y32100000D02*
X32190000Y31950000D01*
X24500000Y33300000D02*
X24500000Y47600000D01*
X24500000Y47600000D02*
X25950000Y49050000D01*
X27850000Y31850000D02*
X27850000Y31700000D01*
X29200000Y32000000D02*
X29000000Y32000000D01*
X25711091Y32513175D02*
X25569669Y32654597D01*
X27350000Y31700000D02*
X27350000Y31850000D01*
X34168700Y32121250D02*
X34112131Y32177819D01*
X27350000Y31550000D02*
X27350000Y31700000D01*
X26500000Y31700000D02*
X26100000Y31700000D01*
X29511091Y31711092D02*
X29500000Y31700000D01*
X33885857Y32177819D02*
X33617156Y31909119D01*
X30100000Y32100000D02*
X29900000Y32100000D01*
X25950000Y49050000D02*
X32580000Y49050000D01*
X28200000Y32000000D02*
X28000000Y32000000D01*
X32430000Y32800000D02*
X32350000Y32800000D01*
X32580000Y49050000D02*
X33247500Y49717500D01*
X31000000Y32100000D02*
X30100000Y32100000D01*
X25003984Y32796016D02*
X24700000Y33100000D01*
X32040000Y31800000D02*
X31940000Y31800000D01*
X31640000Y32100000D02*
X31540000Y32100000D01*
X31540000Y32100000D02*
X31000000Y32100000D01*
X32190000Y32260000D02*
X32190000Y32100000D01*
X28700000Y31400000D02*
X28500000Y31400000D01*
X33390882Y31909119D02*
X33334314Y31965686D01*
X28350000Y31550000D02*
X28350000Y31700000D01*
X28350000Y31700000D02*
X28350000Y31850000D01*
X32590000Y32260000D02*
X32590000Y32640000D01*
X26100000Y31700000D02*
X25711091Y32088909D01*
X27850000Y31700000D02*
X27850000Y31550000D01*
X28850000Y31850000D02*
X28850000Y31700000D01*
X26700000Y31700000D02*
X26500000Y31700000D01*
X28850000Y31700000D02*
X28850000Y31550000D01*
X27700000Y31400000D02*
X27500000Y31400000D01*
X33200000Y32100000D02*
X32750000Y32100000D01*
X24700000Y33100000D02*
X24500000Y33300000D01*
X27200000Y32000000D02*
X27000000Y32000000D01*
X34250000Y31050000D02*
X33900000Y31400000D01*
X34112131Y32177819D02*
G75*
G03*
X33885857Y32177819I-113137J-113137D01*
G01*
X32590000Y32640000D02*
G75*
G03*
X32430000Y32800000I-160000J0D01*
G01*
X28000000Y32000000D02*
G75*
G03*
X27850000Y31850000I0J-150000D01*
G01*
X25711091Y32088909D02*
G75*
G02*
X25711066Y32301066I106109J106091D01*
G01*
X31790000Y31950000D02*
G75*
G03*
X31640000Y32100000I-150000J0D01*
G01*
X28500000Y31400000D02*
G75*
G02*
X28350000Y31550000I0J150000D01*
G01*
X25357537Y32654597D02*
G75*
G02*
X25145404Y32654597I-106066J106067D01*
G01*
X29500000Y31700000D02*
G75*
G02*
X29350000Y31850000I0J150000D01*
G01*
X27850000Y31550000D02*
G75*
G02*
X27700000Y31400000I-150000J0D01*
G01*
X33617156Y31909119D02*
G75*
G02*
X33390882Y31909119I-113137J113137D01*
G01*
X31940000Y31800000D02*
G75*
G02*
X31790000Y31950000I0J150000D01*
G01*
X26850000Y31850000D02*
G75*
G02*
X26700000Y31700000I-150000J0D01*
G01*
X29000000Y32000000D02*
G75*
G03*
X28850000Y31850000I0J-150000D01*
G01*
X27000000Y32000000D02*
G75*
G03*
X26850000Y31850000I0J-150000D01*
G01*
X27500000Y31400000D02*
G75*
G02*
X27350000Y31550000I0J150000D01*
G01*
X28350000Y31850000D02*
G75*
G03*
X28200000Y32000000I-150000J0D01*
G01*
X28850000Y31550000D02*
G75*
G02*
X28700000Y31400000I-150000J0D01*
G01*
X29350000Y31850000D02*
G75*
G03*
X29200000Y32000000I-150000J0D01*
G01*
X33900000Y31400000D02*
G75*
G02*
X33900037Y31626237I113100J113100D01*
G01*
X34168700Y31894976D02*
G75*
G03*
X34168687Y32121237I-113100J113124D01*
G01*
X25569669Y32654597D02*
G75*
G03*
X25357537Y32654597I-106066J-106066D01*
G01*
X32350000Y32800000D02*
G75*
G03*
X32190000Y32640000I0J-160000D01*
G01*
X32750000Y32100000D02*
G75*
G02*
X32590000Y32260000I0J160000D01*
G01*
X32190000Y31950000D02*
G75*
G02*
X32040000Y31800000I-150000J0D01*
G01*
X27350000Y31850000D02*
G75*
G03*
X27200000Y32000000I-150000J0D01*
G01*
X25711091Y32301042D02*
G75*
G03*
X25711083Y32513167I-106091J106058D01*
G01*
%TO.N,DDR3_DQS1_P*%
D25*
X29200000Y37566152D02*
X29200000Y37446152D01*
X29970000Y40076152D02*
X29210000Y40076152D01*
X30990000Y38876152D02*
X30230000Y38876152D01*
X29970000Y38876152D02*
X29210000Y38876152D01*
X32529980Y36130000D02*
X32400000Y36130000D01*
X32036323Y46784854D02*
X31951470Y46700002D01*
X31951470Y46544438D02*
X32128246Y46367662D01*
X30230000Y42476152D02*
X29970000Y42476152D01*
X33015000Y34395000D02*
X33015000Y34491646D01*
X31953848Y45670000D02*
X30653848Y45670000D01*
X31360000Y38166152D02*
X31360000Y38046152D01*
X33870000Y47586152D02*
X32891924Y46608076D01*
X30230000Y36846152D02*
X30230000Y36553848D01*
X30990000Y37676152D02*
X30230000Y37676152D01*
X31360000Y41766152D02*
X31360000Y41646152D01*
X30230000Y41276152D02*
X29970000Y41276152D01*
X29100000Y43566152D02*
X29100000Y43446152D01*
X29100000Y38766152D02*
X29100000Y38646152D01*
X33159980Y34636627D02*
X33159980Y35500000D01*
X29970000Y41276152D02*
X29210000Y41276152D01*
X33015000Y34491646D02*
X33159980Y34636627D01*
X30230000Y44536152D02*
X30990000Y44536152D01*
X29970000Y42476152D02*
X29210000Y42476152D01*
X31623848Y36890000D02*
X31623848Y36240000D01*
X33345000Y34065000D02*
X33015000Y34395000D01*
X32891924Y46608076D02*
X32891923Y46608077D01*
X31360000Y39366152D02*
X31360000Y39246152D01*
X29970000Y42136152D02*
X30230000Y42136152D01*
X30230000Y37676152D02*
X29860000Y37676152D01*
X29970000Y43336152D02*
X30230000Y43336152D01*
X30990000Y42476152D02*
X30230000Y42476152D01*
X32043395Y45759548D02*
X31953848Y45670000D01*
X29860000Y44536152D02*
X30230000Y44536152D01*
X30230000Y43676152D02*
X29970000Y43676152D01*
X29210000Y40936152D02*
X29970000Y40936152D01*
X30230000Y36966152D02*
X30230000Y36846152D01*
X30990000Y41276152D02*
X30230000Y41276152D01*
X30230000Y36553848D02*
X30653848Y36130000D01*
X29210000Y44536152D02*
X29860000Y44536152D01*
X32128246Y45844403D02*
X32043395Y45759548D01*
X29100000Y41166152D02*
X29100000Y41046152D01*
X29970000Y43676152D02*
X29210000Y43676152D01*
X29100000Y42366152D02*
X29100000Y42246152D01*
X30230000Y38876152D02*
X29970000Y38876152D01*
X29970000Y39736152D02*
X30230000Y39736152D01*
X29970000Y38536152D02*
X30230000Y38536152D01*
X29310000Y37336152D02*
X29860000Y37336152D01*
X29860000Y44876152D02*
X29210000Y44876152D01*
X29860000Y37676152D02*
X29310000Y37676152D01*
X30763848Y36240000D02*
X30763848Y36890000D01*
X30230000Y42136152D02*
X30990000Y42136152D01*
X29210000Y43336152D02*
X29970000Y43336152D01*
X30230000Y40076152D02*
X29970000Y40076152D01*
X31133848Y37260000D02*
X31253848Y37260000D01*
X30230000Y39736152D02*
X30990000Y39736152D01*
X30653848Y45670000D02*
X30230000Y45246152D01*
X29210000Y39736152D02*
X29970000Y39736152D01*
X33159980Y35500000D02*
X32529980Y36130000D01*
X29970000Y40936152D02*
X30230000Y40936152D01*
X31360000Y44166152D02*
X31360000Y44046152D01*
X29100000Y39966152D02*
X29100000Y39846152D01*
X30230000Y43336152D02*
X30990000Y43336152D01*
X33870000Y48180000D02*
X33870000Y47586152D01*
X30230000Y38536152D02*
X30990000Y38536152D01*
X30990000Y43676152D02*
X30230000Y43676152D01*
X34100000Y48410000D02*
X33870000Y48180000D01*
X29100000Y44766152D02*
X29100000Y44646152D01*
X29210000Y42136152D02*
X29970000Y42136152D01*
X31360000Y40566152D02*
X31360000Y40446152D01*
X29210000Y38536152D02*
X29970000Y38536152D01*
X30230000Y40936152D02*
X30990000Y40936152D01*
X31853848Y36130000D02*
X32400000Y36130000D01*
X30990000Y40076152D02*
X30230000Y40076152D01*
X32368664Y46608077D02*
X32191887Y46784854D01*
X31733848Y36130000D02*
X31853848Y36130000D01*
X31360000Y42966152D02*
X31360000Y42846152D01*
X31360000Y44046152D02*
G75*
G02*
X30990000Y43676200I-370000J48D01*
G01*
X32891923Y46608077D02*
G75*
G02*
X32368665Y46608077I-261629J261628D01*
G01*
X29310000Y37676152D02*
G75*
G03*
X29200048Y37566152I0J-109952D01*
G01*
X31951470Y46700002D02*
G75*
G03*
X31951450Y46544418I77830J-77802D01*
G01*
X29210000Y40076152D02*
G75*
G03*
X29100048Y39966152I0J-109952D01*
G01*
X29100000Y43446152D02*
G75*
G03*
X29210000Y43336200I110000J48D01*
G01*
X32128246Y46367662D02*
G75*
G02*
X32128279Y45844371I-261646J-261662D01*
G01*
X29100000Y41046152D02*
G75*
G03*
X29210000Y40936200I110000J48D01*
G01*
X29200000Y37446152D02*
G75*
G03*
X29310000Y37336200I110000J48D01*
G01*
X30990000Y38536152D02*
G75*
G02*
X31359952Y38166152I0J-369952D01*
G01*
X30990000Y40936152D02*
G75*
G02*
X31359952Y40566152I0J-369952D01*
G01*
X29210000Y42476152D02*
G75*
G03*
X29100048Y42366152I0J-109952D01*
G01*
X29100000Y42246152D02*
G75*
G03*
X29210000Y42136200I110000J48D01*
G01*
X29100000Y38646152D02*
G75*
G03*
X29210000Y38536200I110000J48D01*
G01*
X29100000Y44646152D02*
G75*
G03*
X29210000Y44536200I110000J48D01*
G01*
X31360000Y42846152D02*
G75*
G02*
X30990000Y42476200I-370000J48D01*
G01*
X29860000Y37336152D02*
G75*
G02*
X30229952Y36966152I0J-369952D01*
G01*
X30990000Y44536152D02*
G75*
G02*
X31359952Y44166152I0J-369952D01*
G01*
X30990000Y42136152D02*
G75*
G02*
X31359952Y41766152I0J-369952D01*
G01*
X31623848Y36240000D02*
G75*
G03*
X31733848Y36130048I109952J0D01*
G01*
X31360000Y39246152D02*
G75*
G02*
X30990000Y38876200I-370000J48D01*
G01*
X29210000Y43676152D02*
G75*
G03*
X29100048Y43566152I0J-109952D01*
G01*
X30230000Y45246152D02*
G75*
G02*
X29860000Y44876200I-370000J48D01*
G01*
X30763848Y36890000D02*
G75*
G02*
X31133848Y37259952I369952J0D01*
G01*
X31360000Y40446152D02*
G75*
G02*
X30990000Y40076200I-370000J48D01*
G01*
X30990000Y39736152D02*
G75*
G02*
X31359952Y39366152I0J-369952D01*
G01*
X29210000Y38876152D02*
G75*
G03*
X29100048Y38766152I0J-109952D01*
G01*
X32191887Y46784854D02*
G75*
G03*
X32036323Y46784854I-77782J-77783D01*
G01*
X30653848Y36130000D02*
G75*
G03*
X30763800Y36240000I-48J110000D01*
G01*
X30990000Y43336152D02*
G75*
G02*
X31359952Y42966152I0J-369952D01*
G01*
X29210000Y44876152D02*
G75*
G03*
X29100048Y44766152I0J-109952D01*
G01*
X31360000Y41646152D02*
G75*
G02*
X30990000Y41276200I-370000J48D01*
G01*
X31360000Y38046152D02*
G75*
G02*
X30990000Y37676200I-370000J48D01*
G01*
X31253848Y37260000D02*
G75*
G02*
X31623800Y36890000I-48J-370000D01*
G01*
X29100000Y39846152D02*
G75*
G03*
X29210000Y39736200I110000J48D01*
G01*
X29210000Y41276152D02*
G75*
G03*
X29100048Y41166152I0J-109952D01*
G01*
%TO.N,DDR3_DQ14*%
D24*
X30995553Y34500000D02*
X30995553Y34710000D01*
X33054405Y48703123D02*
X33443313Y49092033D01*
X30300000Y47110000D02*
X30300000Y47100000D01*
X28100000Y44100000D02*
X27540000Y44100000D01*
X28300000Y45800000D02*
X28300000Y45900000D01*
X31251281Y46900000D02*
X31640189Y47288909D01*
X28839424Y34902931D02*
X28768713Y34973642D01*
X27340000Y42300000D02*
X27340000Y42400000D01*
X28300000Y37350000D02*
X28300000Y37900000D01*
X30600000Y46900000D02*
X31251281Y46900000D01*
X28100000Y41100000D02*
X27540000Y41100000D01*
X31633118Y47861664D02*
X31703830Y47932375D01*
X32500000Y34910000D02*
X31695553Y34910000D01*
X28768714Y35256484D02*
X29164692Y35652465D01*
X28300000Y42800000D02*
X28300000Y42900000D01*
X29518247Y35298910D02*
X29122268Y34902930D01*
X28100000Y43100000D02*
X27540000Y43100000D01*
X34068781Y49717500D02*
X34247500Y49717500D01*
X27540000Y43600000D02*
X28100000Y43600000D01*
X30190000Y34910000D02*
X29801091Y35298909D01*
X29500000Y46900000D02*
X29600000Y46900000D01*
X27540000Y41600000D02*
X28100000Y41600000D01*
X28300000Y38800000D02*
X28300000Y38900000D01*
X31640189Y47571751D02*
X31633118Y47578822D01*
X27540000Y45600000D02*
X28100000Y45600000D01*
X29800000Y47100000D02*
X29800000Y47110000D01*
X28800000Y47100000D02*
X28800000Y47110000D01*
X27340000Y44300000D02*
X27340000Y44400000D01*
X27540000Y38600000D02*
X28100000Y38600000D01*
X27340000Y41300000D02*
X27340000Y41400000D01*
X31986672Y47932374D02*
X31993744Y47925302D01*
X32276586Y47925302D02*
X32347297Y47996016D01*
X27340000Y40300000D02*
X27340000Y40400000D01*
X28300000Y46600000D02*
X28600000Y46900000D01*
X28811140Y36006017D02*
X28415161Y35610037D01*
X32623071Y48710193D02*
X32700853Y48632411D01*
X28300000Y40800000D02*
X28300000Y40900000D01*
X30000000Y47310000D02*
X30100000Y47310000D01*
X30695553Y34910000D02*
X30190000Y34910000D01*
X29164693Y35935307D02*
X29093984Y36006016D01*
X29300000Y47110000D02*
X29300000Y47100000D01*
X33443313Y49092033D02*
X33657510Y49306229D01*
X31495553Y34710000D02*
X31495553Y34500000D01*
X28457586Y36642414D02*
X28386877Y36713123D01*
X28300000Y43800000D02*
X28300000Y43900000D01*
X28100000Y38100000D02*
X27540000Y38100000D01*
X27540000Y40600000D02*
X28100000Y40600000D01*
X28100000Y39100000D02*
X27540000Y39100000D01*
X28100000Y40100000D02*
X27540000Y40100000D01*
X27540000Y39600000D02*
X28100000Y39600000D01*
X27340000Y43300000D02*
X27340000Y43400000D01*
X29000000Y47310000D02*
X29100000Y47310000D01*
X27340000Y39300000D02*
X27340000Y39400000D01*
X30795553Y34910000D02*
X30695553Y34910000D01*
X27540000Y42600000D02*
X28100000Y42600000D01*
X28386877Y36713123D02*
X28300000Y36800000D01*
X28100000Y42100000D02*
X27540000Y42100000D01*
X27540000Y44600000D02*
X28100000Y44600000D01*
X28132317Y35610038D02*
X28061606Y35680749D01*
X27340000Y38300000D02*
X27340000Y38400000D01*
X28100000Y45100000D02*
X27540000Y45100000D01*
X28300000Y44800000D02*
X28300000Y44900000D01*
X28300000Y39800000D02*
X28300000Y39900000D01*
X28300000Y45900000D02*
X28300000Y46600000D01*
X32983695Y48632410D02*
X33054405Y48703123D01*
X31295553Y34300000D02*
X31195553Y34300000D01*
X30500000Y46900000D02*
X30600000Y46900000D01*
X32269517Y48639483D02*
X32340227Y48710192D01*
X27340000Y45300000D02*
X27340000Y45400000D01*
X33657510Y49306229D02*
X34068781Y49717500D01*
X32347297Y48278858D02*
X32269516Y48356639D01*
X28061607Y35963591D02*
X28457585Y36359572D01*
X28300000Y41800000D02*
X28300000Y41900000D01*
X28300000Y36800000D02*
X28300000Y37350000D01*
X28061606Y35680749D02*
G75*
G02*
X28061576Y35963622I141394J141451D01*
G01*
X28100000Y45600000D02*
G75*
G03*
X28300000Y45800000I0J200000D01*
G01*
X28300000Y37900000D02*
G75*
G03*
X28100000Y38100000I-200000J0D01*
G01*
X29093984Y36006016D02*
G75*
G03*
X28811179Y36005979I-141384J-141416D01*
G01*
X31695553Y34910000D02*
G75*
G03*
X31495600Y34710000I47J-200000D01*
G01*
X28300000Y40900000D02*
G75*
G03*
X28100000Y41100000I-200000J0D01*
G01*
X31703830Y47932375D02*
G75*
G02*
X31986722Y47932424I141470J-141375D01*
G01*
X31993744Y47925302D02*
G75*
G03*
X32276586Y47925302I141421J141426D01*
G01*
X31495553Y34500000D02*
G75*
G02*
X31295553Y34300047I-199953J0D01*
G01*
X32700853Y48632411D02*
G75*
G03*
X32983721Y48632384I141447J141389D01*
G01*
X28100000Y42600000D02*
G75*
G03*
X28300000Y42800000I0J200000D01*
G01*
X27540000Y45100000D02*
G75*
G02*
X27340000Y45300000I0J200000D01*
G01*
X28300000Y38900000D02*
G75*
G03*
X28100000Y39100000I-200000J0D01*
G01*
X31633118Y47578822D02*
G75*
G02*
X31633161Y47861621I141382J141378D01*
G01*
X28100000Y41600000D02*
G75*
G03*
X28300000Y41800000I0J200000D01*
G01*
X28100000Y39600000D02*
G75*
G03*
X28300000Y39800000I0J200000D01*
G01*
X30300000Y47100000D02*
G75*
G03*
X30500000Y46900000I200000J0D01*
G01*
X27340000Y43400000D02*
G75*
G02*
X27540000Y43600000I200000J0D01*
G01*
X28768713Y34973642D02*
G75*
G02*
X28768676Y35256522I141387J141458D01*
G01*
X27340000Y40400000D02*
G75*
G02*
X27540000Y40600000I200000J0D01*
G01*
X27340000Y42400000D02*
G75*
G02*
X27540000Y42600000I200000J0D01*
G01*
X30995553Y34710000D02*
G75*
G03*
X30795553Y34909953I-199953J0D01*
G01*
X27540000Y42100000D02*
G75*
G02*
X27340000Y42300000I0J200000D01*
G01*
X28100000Y44600000D02*
G75*
G03*
X28300000Y44800000I0J200000D01*
G01*
X28100000Y40600000D02*
G75*
G03*
X28300000Y40800000I0J200000D01*
G01*
X28300000Y43900000D02*
G75*
G03*
X28100000Y44100000I-200000J0D01*
G01*
X28100000Y43600000D02*
G75*
G03*
X28300000Y43800000I0J200000D01*
G01*
X28300000Y39900000D02*
G75*
G03*
X28100000Y40100000I-200000J0D01*
G01*
X31195553Y34300000D02*
G75*
G02*
X30995600Y34500000I47J200000D01*
G01*
X27340000Y45400000D02*
G75*
G02*
X27540000Y45600000I200000J0D01*
G01*
X27540000Y40100000D02*
G75*
G02*
X27340000Y40300000I0J200000D01*
G01*
X32269516Y48356639D02*
G75*
G02*
X32269477Y48639523I141384J141461D01*
G01*
X30100000Y47310000D02*
G75*
G02*
X30300000Y47110000I0J-200000D01*
G01*
X27340000Y41400000D02*
G75*
G02*
X27540000Y41600000I200000J0D01*
G01*
X32347297Y47996016D02*
G75*
G03*
X32347260Y48278821I-141397J141384D01*
G01*
X27540000Y39100000D02*
G75*
G02*
X27340000Y39300000I0J200000D01*
G01*
X27540000Y43100000D02*
G75*
G02*
X27340000Y43300000I0J200000D01*
G01*
X29300000Y47100000D02*
G75*
G03*
X29500000Y46900000I200000J0D01*
G01*
X28300000Y44900000D02*
G75*
G03*
X28100000Y45100000I-200000J0D01*
G01*
X28457585Y36359572D02*
G75*
G03*
X28457593Y36642421I-141385J141428D01*
G01*
X28415161Y35610037D02*
G75*
G02*
X28132278Y35609998I-141461J141463D01*
G01*
X27340000Y44400000D02*
G75*
G02*
X27540000Y44600000I200000J0D01*
G01*
X27540000Y44100000D02*
G75*
G02*
X27340000Y44300000I0J200000D01*
G01*
X29800000Y47110000D02*
G75*
G02*
X30000000Y47310000I200000J0D01*
G01*
X28600000Y46900000D02*
G75*
G03*
X28800000Y47100000I0J200000D01*
G01*
X27540000Y38100000D02*
G75*
G02*
X27340000Y38300000I0J200000D01*
G01*
X29100000Y47310000D02*
G75*
G02*
X29300000Y47110000I0J-200000D01*
G01*
X27340000Y38400000D02*
G75*
G02*
X27540000Y38600000I200000J0D01*
G01*
X27540000Y41100000D02*
G75*
G02*
X27340000Y41300000I0J200000D01*
G01*
X29164692Y35652465D02*
G75*
G03*
X29164707Y35935321I-141392J141435D01*
G01*
X27340000Y39400000D02*
G75*
G02*
X27540000Y39600000I200000J0D01*
G01*
X28800000Y47110000D02*
G75*
G02*
X29000000Y47310000I200000J0D01*
G01*
X29600000Y46900000D02*
G75*
G03*
X29800000Y47100000I0J200000D01*
G01*
X28100000Y38600000D02*
G75*
G03*
X28300000Y38800000I0J200000D01*
G01*
X32340227Y48710192D02*
G75*
G02*
X32623021Y48710144I141373J-141392D01*
G01*
X28300000Y42900000D02*
G75*
G03*
X28100000Y43100000I-200000J0D01*
G01*
X29801091Y35298909D02*
G75*
G03*
X29518279Y35298879I-141391J-141409D01*
G01*
X28300000Y41900000D02*
G75*
G03*
X28100000Y42100000I-200000J0D01*
G01*
X29122268Y34902930D02*
G75*
G02*
X28839378Y34902884I-141468J141470D01*
G01*
X31640189Y47288909D02*
G75*
G03*
X31640159Y47571721I-141389J141391D01*
G01*
%TO.N,DDR3_DQ13*%
X30900000Y29500000D02*
X24200000Y29500000D01*
X23355000Y51155000D02*
X33810000Y51155000D01*
X33810000Y51155000D02*
X34247500Y50717500D01*
X21900000Y31800000D02*
X21900000Y49700000D01*
X24200000Y29500000D02*
X21900000Y31800000D01*
X31500000Y30100000D02*
X30900000Y29500000D01*
X21900000Y49700000D02*
X23355000Y51155000D01*
%TO.N,DDR3_DQ10*%
X32510107Y39460107D02*
X33310107Y39460107D01*
X33488295Y46824692D02*
X33417584Y46753982D01*
X34195404Y47531801D02*
X34124693Y47461091D01*
X33888964Y37025249D02*
X33959674Y36954539D01*
X33510107Y41260107D02*
X33510107Y41160107D01*
X33393988Y36106011D02*
X33393989Y36106011D01*
X32510107Y43460107D02*
X33310107Y43460107D01*
X33310107Y37960107D02*
X32710107Y37960107D01*
X33270245Y35734780D02*
X33376311Y35628714D01*
X33099384Y46082228D02*
X33064029Y46117583D01*
X33417584Y46471139D02*
X33594360Y46294363D01*
X34080000Y34210000D02*
X34080000Y34120000D01*
X32510107Y39960107D02*
X32210107Y39960107D01*
X32710475Y45764030D02*
X32745830Y45728675D01*
X33510107Y43260107D02*
X33510107Y43160107D01*
X33510107Y39260107D02*
X33510107Y39160107D01*
X33393989Y36106011D02*
X33270245Y35982268D01*
X33510107Y38260107D02*
X33510107Y38160107D01*
X35468198Y46966115D02*
X35397489Y46895405D01*
X32335107Y42460107D02*
X32510107Y42460107D01*
X32310107Y38460107D02*
X32510107Y38460107D01*
X34100000Y34574146D02*
X34100000Y34230000D01*
X34124693Y47178248D02*
X34301469Y47001472D01*
X33310107Y39960107D02*
X32510107Y39960107D01*
X33594361Y46294361D02*
X34160047Y45728675D01*
X33806493Y45375120D02*
X33240808Y45940805D01*
X32260107Y41460107D02*
X32510107Y41460107D01*
X34160046Y45445831D02*
X34089337Y45375121D01*
X32210107Y39460107D02*
X32510107Y39460107D01*
X33181857Y36600985D02*
X33606122Y37025249D01*
X33310107Y42960107D02*
X32510107Y42960107D01*
X32510107Y42960107D02*
X32335107Y42960107D01*
X33947915Y46647915D02*
X33771138Y46824692D01*
X32010107Y39760107D02*
X32010107Y39660107D01*
X32510107Y40960107D02*
X32210107Y40960107D01*
X32510107Y41960107D02*
X32260107Y41960107D01*
X33594360Y46294363D02*
X33594361Y46294361D01*
X32675120Y45375121D02*
X32510107Y45210107D01*
X33310107Y40960107D02*
X32510107Y40960107D01*
X32160107Y43785107D02*
X32160107Y43635107D01*
X32510107Y40460107D02*
X33310107Y40460107D01*
X34513602Y46082229D02*
X33947917Y46647914D01*
X32745830Y45445832D02*
X32675120Y45375121D01*
X33959673Y36671697D02*
X33535409Y36247432D01*
X33871285Y35628714D02*
X33977352Y35522648D01*
X32710107Y44460107D02*
X33310107Y44460107D01*
X32710107Y43960107D02*
X32510107Y43960107D01*
X32510107Y37760107D02*
X32510107Y37660107D01*
X33310107Y38960107D02*
X32510107Y38960107D01*
X33510107Y44260107D02*
X33510107Y44160107D01*
X32710107Y38460107D02*
X33310107Y38460107D01*
X34100000Y35400000D02*
X34100000Y34574146D01*
X33310107Y41960107D02*
X32510107Y41960107D01*
X33510107Y40260107D02*
X33510107Y40160107D01*
X35114645Y46895404D02*
X34796447Y47213602D01*
X34867155Y46152940D02*
X34796446Y46082230D01*
X34796447Y47213602D02*
X34655024Y47355024D01*
X32510107Y43960107D02*
X32335107Y43960107D01*
X33510107Y42260107D02*
X33510107Y42160107D01*
X35240000Y48580000D02*
X35150000Y48490000D01*
X32781186Y46117583D02*
X32710475Y46046873D01*
X34301469Y47001472D02*
X34301470Y47001470D01*
X34100000Y34230000D02*
X34080000Y34210000D01*
X33240808Y45940805D02*
X33099384Y46082228D01*
X32510107Y37660107D02*
X32510107Y36989893D01*
X33310107Y43960107D02*
X32710107Y43960107D01*
X32110107Y38760107D02*
X32110107Y38660107D01*
X34655024Y47355024D02*
X34478247Y47531801D01*
X35150000Y48490000D02*
X35150000Y48052355D01*
X35150000Y48052355D02*
X35150000Y47850000D01*
X32160107Y42785107D02*
X32160107Y42635107D01*
X32510107Y45210107D02*
X32510107Y44660107D01*
X33947917Y46647914D02*
X33947915Y46647915D01*
X32510107Y38460107D02*
X32710107Y38460107D01*
X32060107Y41760107D02*
X32060107Y41660107D01*
X32010107Y40760107D02*
X32010107Y40660107D01*
X32510107Y38960107D02*
X32310107Y38960107D01*
X34301470Y47001470D02*
X34867156Y46435784D01*
X32510107Y41460107D02*
X33310107Y41460107D01*
X32510107Y42460107D02*
X33310107Y42460107D01*
X32510107Y36989893D02*
X32899015Y36600985D01*
X33977352Y35522648D02*
X34100000Y35400000D01*
X32210107Y40460107D02*
X32510107Y40460107D01*
X32335107Y43460107D02*
X32510107Y43460107D01*
X33535409Y36247432D02*
X33393988Y36106011D01*
X35149999Y47567156D02*
X35468198Y47248957D01*
X32060107Y41660107D02*
G75*
G03*
X32260107Y41460107I199993J-7D01*
G01*
X33510107Y44160107D02*
G75*
G02*
X33310107Y43960093I-200007J-7D01*
G01*
X33510107Y39160107D02*
G75*
G02*
X33310107Y38960093I-200007J-7D01*
G01*
X32160107Y43635107D02*
G75*
G03*
X32335107Y43460107I174993J-7D01*
G01*
X32210107Y39960107D02*
G75*
G03*
X32010093Y39760107I-7J-200007D01*
G01*
X33510107Y43160107D02*
G75*
G02*
X33310107Y42960093I-200007J-7D01*
G01*
X34796446Y46082230D02*
G75*
G02*
X34513579Y46082205I-141446J141470D01*
G01*
X35150000Y47850000D02*
G75*
G03*
X35150021Y47567179I141400J-141400D01*
G01*
X33417584Y46753982D02*
G75*
G03*
X33417623Y46471179I141416J-141382D01*
G01*
X34160047Y45728675D02*
G75*
G02*
X34160000Y45445877I-141447J-141375D01*
G01*
X32260107Y41960107D02*
G75*
G03*
X32060093Y41760107I-7J-200007D01*
G01*
X32010107Y40660107D02*
G75*
G03*
X32210107Y40460107I199993J-7D01*
G01*
X33310107Y39460107D02*
G75*
G02*
X33510107Y39260107I-7J-200007D01*
G01*
X33376311Y35628714D02*
G75*
G03*
X33623798Y35628713I123744J123744D01*
G01*
X34089337Y45375121D02*
G75*
G02*
X33806478Y45375105I-141437J141379D01*
G01*
X32310107Y38960107D02*
G75*
G03*
X32110093Y38760107I-7J-200007D01*
G01*
X33606122Y37025249D02*
G75*
G02*
X33888964Y37025249I141421J-141419D01*
G01*
X33959674Y36954539D02*
G75*
G02*
X33959692Y36671678I-141374J-141439D01*
G01*
X33310107Y43460107D02*
G75*
G02*
X33510107Y43260107I-7J-200007D01*
G01*
X32510107Y44660107D02*
G75*
G03*
X32710107Y44460107I199993J-7D01*
G01*
X32160107Y42635107D02*
G75*
G03*
X32335107Y42460107I174993J-7D01*
G01*
X32210107Y40960107D02*
G75*
G03*
X32010093Y40760107I-7J-200007D01*
G01*
X32010107Y39660107D02*
G75*
G03*
X32210107Y39460107I199993J-7D01*
G01*
X33510107Y40160107D02*
G75*
G02*
X33310107Y39960093I-200007J-7D01*
G01*
X33771138Y46824692D02*
G75*
G03*
X33488296Y46824692I-141421J-141420D01*
G01*
X32710475Y46046873D02*
G75*
G03*
X32710523Y45764079I141425J-141373D01*
G01*
X33310107Y38460107D02*
G75*
G02*
X33510107Y38260107I-7J-200007D01*
G01*
X34478247Y47531801D02*
G75*
G03*
X34195405Y47531801I-141421J-141420D01*
G01*
X33510107Y42160107D02*
G75*
G02*
X33310107Y41960093I-200007J-7D01*
G01*
X33064029Y46117583D02*
G75*
G03*
X32781187Y46117583I-141421J-141420D01*
G01*
X32745830Y45728675D02*
G75*
G02*
X32745784Y45445879I-141430J-141375D01*
G01*
X32710107Y37960107D02*
G75*
G03*
X32510093Y37760107I-7J-200007D01*
G01*
X32335107Y42960107D02*
G75*
G03*
X32160093Y42785107I-7J-175007D01*
G01*
X35397489Y46895405D02*
G75*
G02*
X35114679Y46895437I-141389J141395D01*
G01*
X35468198Y47248957D02*
G75*
G02*
X35468234Y46966079I-141398J-141457D01*
G01*
X33310107Y44460107D02*
G75*
G02*
X33510107Y44260107I-7J-200007D01*
G01*
X32899015Y36600985D02*
G75*
G03*
X33181857Y36600985I141421J141419D01*
G01*
X33310107Y42460107D02*
G75*
G02*
X33510107Y42260107I-7J-200007D01*
G01*
X34867156Y46435784D02*
G75*
G02*
X34867118Y46152977I-141456J-141384D01*
G01*
X32110107Y38660107D02*
G75*
G03*
X32310107Y38460107I199993J-7D01*
G01*
X32335107Y43960107D02*
G75*
G03*
X32160093Y43785107I-7J-175007D01*
G01*
X33510107Y38160107D02*
G75*
G02*
X33310107Y37960093I-200007J-7D01*
G01*
X33310107Y41460107D02*
G75*
G02*
X33510107Y41260107I-7J-200007D01*
G01*
X34124693Y47461091D02*
G75*
G03*
X34124723Y47178279I141407J-141391D01*
G01*
X33310107Y40460107D02*
G75*
G02*
X33510107Y40260107I-7J-200007D01*
G01*
X33270245Y35982268D02*
G75*
G03*
X33270221Y35734756I123755J-123768D01*
G01*
X33623798Y35628714D02*
G75*
G02*
X33871285Y35628714I123743J-123744D01*
G01*
X33510107Y41160107D02*
G75*
G02*
X33310107Y40960093I-200007J-7D01*
G01*
%TO.N,DDR3_DQ11*%
X29101774Y52155000D02*
X28078685Y52155000D01*
X22555000Y52155000D02*
X21000000Y50600000D01*
X31800000Y28600000D02*
X33300000Y30100000D01*
X23400000Y28600000D02*
X31800000Y28600000D01*
X34795000Y52155000D02*
X29985016Y52155000D01*
X29985016Y52155000D02*
X29808368Y52155000D01*
X28078685Y52155000D02*
X22555000Y52155000D01*
X35247500Y50717500D02*
X35247500Y51702500D01*
X35247500Y51702500D02*
X34795000Y52155000D01*
X21000000Y50600000D02*
X21000000Y31000000D01*
X29808368Y52155000D02*
X29101774Y52155000D01*
X21000000Y31000000D02*
X23400000Y28600000D01*
%TO.N,DDR3_DQ3*%
D26*
X37770000Y45448451D02*
X37000000Y45448451D01*
X36800000Y42448451D02*
X36430000Y42448451D01*
X36430000Y38948451D02*
X36800000Y38948451D01*
X36430000Y39948451D02*
X36800000Y39948451D01*
X37770000Y43448451D02*
X36800000Y43448451D01*
X36430000Y37948451D02*
X36800000Y37948451D01*
X36800000Y40948451D02*
X37770000Y40948451D01*
X36800000Y39948451D02*
X37770000Y39948451D01*
X37970000Y41748451D02*
X37970000Y41648451D01*
X36540068Y49424932D02*
X36540068Y48818191D01*
X36800000Y38948451D02*
X37770000Y38948451D01*
X36800000Y41448451D02*
X36430000Y41448451D01*
X37970000Y44748451D02*
X37970000Y44648451D01*
X36230000Y42248451D02*
X36230000Y42148451D01*
X37970000Y39748451D02*
X37970000Y39648451D01*
X37000000Y45948451D02*
X37770000Y45948451D01*
X36800000Y45448451D02*
X36430000Y45448451D01*
X37000000Y45448451D02*
X36800000Y45448451D01*
X37970000Y38748451D02*
X37970000Y38648451D01*
X36800000Y38448451D02*
X36430000Y38448451D01*
X37000000Y37948451D02*
X37770000Y37948451D01*
X36800000Y42948451D02*
X37770000Y42948451D01*
X36230000Y40248451D02*
X36230000Y40148451D01*
X36430000Y44948451D02*
X36800000Y44948451D01*
X36230000Y45248451D02*
X36230000Y45148451D01*
X36230000Y39248451D02*
X36230000Y39148451D01*
X36800000Y37948451D02*
X37000000Y37948451D01*
X37130068Y46588191D02*
X36800000Y46258123D01*
X36800000Y43948451D02*
X37770000Y43948451D01*
X36430000Y40948451D02*
X36800000Y40948451D01*
X36800000Y39448451D02*
X36430000Y39448451D01*
X37770000Y39448451D02*
X36800000Y39448451D01*
X36800000Y44948451D02*
X37770000Y44948451D01*
X37770000Y37448451D02*
X37000000Y37448451D01*
X36430000Y42948451D02*
X36800000Y42948451D01*
X36230000Y44248451D02*
X36230000Y44148451D01*
X36800000Y36500000D02*
X36411091Y36111092D01*
X36800000Y44448451D02*
X36430000Y44448451D01*
X37770000Y40448451D02*
X36800000Y40448451D01*
X37970000Y37748451D02*
X37970000Y37648451D01*
X37770000Y41448451D02*
X36800000Y41448451D01*
D24*
X35690000Y35390000D02*
X36247500Y35947500D01*
D26*
X36350000Y36050000D02*
X36247500Y35947500D01*
X37130068Y48228190D02*
X37130068Y46588191D01*
X37970000Y45748451D02*
X37970000Y45648451D01*
X36800000Y43448451D02*
X36430000Y43448451D01*
X37770000Y38448451D02*
X36800000Y38448451D01*
X36247500Y49717500D02*
X36540068Y49424932D01*
X36800000Y41948451D02*
X37770000Y41948451D01*
X36430000Y43948451D02*
X36800000Y43948451D01*
X36800000Y37248451D02*
X36800000Y37148451D01*
X36800000Y40448451D02*
X36430000Y40448451D01*
X36230000Y38248451D02*
X36230000Y38148451D01*
X37970000Y43748451D02*
X37970000Y43648451D01*
X36411091Y36111092D02*
X36350000Y36050000D01*
X37970000Y40748451D02*
X37970000Y40648451D01*
X36230000Y43248451D02*
X36230000Y43148451D01*
X36430000Y41948451D02*
X36800000Y41948451D01*
D24*
X35690000Y34920000D02*
X35690000Y35390000D01*
D26*
X37770000Y42448451D02*
X36800000Y42448451D01*
X37970000Y42748451D02*
X37970000Y42648451D01*
X36540068Y48818191D02*
X37130068Y48228190D01*
X37770000Y44448451D02*
X36800000Y44448451D01*
X36800000Y37148451D02*
X36800000Y36500000D01*
X36800000Y46258123D02*
X36800000Y46148451D01*
X36230000Y41248451D02*
X36230000Y41148451D01*
X37770000Y39948451D02*
G75*
G02*
X37970051Y39748451I0J-200051D01*
G01*
X36230000Y39148451D02*
G75*
G03*
X36430000Y38948500I200000J49D01*
G01*
X36430000Y44448451D02*
G75*
G03*
X36229949Y44248451I0J-200051D01*
G01*
X36230000Y44148451D02*
G75*
G03*
X36430000Y43948500I200000J49D01*
G01*
X37970000Y41648451D02*
G75*
G02*
X37770000Y41448500I-200000J49D01*
G01*
X37970000Y40648451D02*
G75*
G02*
X37770000Y40448500I-200000J49D01*
G01*
X36430000Y43448451D02*
G75*
G03*
X36229949Y43248451I0J-200051D01*
G01*
X36230000Y41148451D02*
G75*
G03*
X36430000Y40948500I200000J49D01*
G01*
X36430000Y38448451D02*
G75*
G03*
X36229949Y38248451I0J-200051D01*
G01*
X36430000Y42448451D02*
G75*
G03*
X36229949Y42248451I0J-200051D01*
G01*
X37770000Y41948451D02*
G75*
G02*
X37970051Y41748451I0J-200051D01*
G01*
X37970000Y45648451D02*
G75*
G02*
X37770000Y45448500I-200000J49D01*
G01*
X36230000Y38148451D02*
G75*
G03*
X36430000Y37948500I200000J49D01*
G01*
X36230000Y42148451D02*
G75*
G03*
X36430000Y41948500I200000J49D01*
G01*
X37970000Y37648451D02*
G75*
G02*
X37770000Y37448500I-200000J49D01*
G01*
X37770000Y40948451D02*
G75*
G02*
X37970051Y40748451I0J-200051D01*
G01*
X36800000Y46148451D02*
G75*
G03*
X37000000Y45948500I200000J49D01*
G01*
X37770000Y45948451D02*
G75*
G02*
X37970051Y45748451I0J-200051D01*
G01*
X36430000Y41448451D02*
G75*
G03*
X36229949Y41248451I0J-200051D01*
G01*
X37770000Y42948451D02*
G75*
G02*
X37970051Y42748451I0J-200051D01*
G01*
X37970000Y44648451D02*
G75*
G02*
X37770000Y44448500I-200000J49D01*
G01*
X37770000Y38948451D02*
G75*
G02*
X37970051Y38748451I0J-200051D01*
G01*
X36430000Y40448451D02*
G75*
G03*
X36229949Y40248451I0J-200051D01*
G01*
X37970000Y38648451D02*
G75*
G02*
X37770000Y38448500I-200000J49D01*
G01*
X36430000Y39448451D02*
G75*
G03*
X36229949Y39248451I0J-200051D01*
G01*
X37970000Y39648451D02*
G75*
G02*
X37770000Y39448500I-200000J49D01*
G01*
X36230000Y43148451D02*
G75*
G03*
X36430000Y42948500I200000J49D01*
G01*
X36230000Y40148451D02*
G75*
G03*
X36430000Y39948500I200000J49D01*
G01*
X36230000Y45148451D02*
G75*
G03*
X36430000Y44948500I200000J49D01*
G01*
X37770000Y44948451D02*
G75*
G02*
X37970051Y44748451I0J-200051D01*
G01*
X37770000Y43948451D02*
G75*
G02*
X37970051Y43748451I0J-200051D01*
G01*
X37000000Y37448451D02*
G75*
G03*
X36799949Y37248451I0J-200051D01*
G01*
X36430000Y45448451D02*
G75*
G03*
X36229949Y45248451I0J-200051D01*
G01*
X37970000Y43648451D02*
G75*
G02*
X37770000Y43448500I-200000J49D01*
G01*
X37970000Y42648451D02*
G75*
G02*
X37770000Y42448500I-200000J49D01*
G01*
X37770000Y37948451D02*
G75*
G02*
X37970051Y37748451I0J-200051D01*
G01*
%TO.N,DDR3_DM0*%
D24*
X35810000Y50280000D02*
X35810000Y48897009D01*
X35232500Y41727867D02*
X35752500Y41727867D01*
X34512500Y43027867D02*
X34512500Y42927867D01*
X34712500Y44727867D02*
X35232500Y44727867D01*
X35232500Y43227867D02*
X34712500Y43227867D01*
X34512500Y40027867D02*
X34512500Y39927867D01*
X35232500Y42227867D02*
X34712500Y42227867D01*
X35952500Y38527867D02*
X35952500Y38427867D01*
X34712500Y41727867D02*
X35232500Y41727867D01*
X35432500Y45727867D02*
X35752500Y45727867D01*
X35232500Y33187500D02*
X35250000Y33170000D01*
X34712500Y42727867D02*
X35232500Y42727867D01*
X34712500Y38727867D02*
X35232500Y38727867D01*
X36330000Y47197009D02*
X36010000Y47197009D01*
X35752500Y43227867D02*
X35232500Y43227867D01*
X35232500Y37727867D02*
X35432500Y37727867D01*
X35232500Y39227867D02*
X34712500Y39227867D01*
X35810000Y46997009D02*
X35810000Y46897009D01*
X35810000Y46505367D02*
X35421091Y46116459D01*
X36180000Y48197009D02*
X36010000Y48197009D01*
X35432500Y37727867D02*
X35752500Y37727867D01*
X34512500Y44027867D02*
X34512500Y43927867D01*
X34512500Y41027867D02*
X34512500Y40927867D01*
X35952500Y37527867D02*
X35952500Y37427867D01*
X36247500Y50717500D02*
X35810000Y50280000D01*
X35432500Y45227867D02*
X35232500Y45227867D01*
X36380000Y48497009D02*
X36380000Y48397009D01*
X35232500Y38727867D02*
X35752500Y38727867D01*
X35752500Y45227867D02*
X35432500Y45227867D01*
X36010000Y48697009D02*
X36180000Y48697009D01*
X35232500Y38227867D02*
X34712500Y38227867D01*
X35421091Y46116459D02*
X35232500Y45927867D01*
X34712500Y40727867D02*
X35232500Y40727867D01*
X35810000Y47697009D02*
X36010000Y47697009D01*
X35232500Y42727867D02*
X35752500Y42727867D01*
X35810000Y48197009D02*
X35625000Y48197009D01*
X34512500Y38027867D02*
X34512500Y37927867D01*
X35440000Y48012009D02*
X35440000Y47882009D01*
X35232500Y37027867D02*
X35232500Y36927867D01*
X35232500Y41227867D02*
X34712500Y41227867D01*
X35752500Y44227867D02*
X35232500Y44227867D01*
X35232500Y45227867D02*
X34712500Y45227867D01*
X35232500Y39727867D02*
X35752500Y39727867D01*
X35752500Y37227867D02*
X35432500Y37227867D01*
X35232500Y36700000D02*
X35232500Y33187500D01*
X35752500Y42227867D02*
X35232500Y42227867D01*
X36530000Y47497009D02*
X36530000Y47397009D01*
X35952500Y44527867D02*
X35952500Y44427867D01*
X35232500Y44227867D02*
X34712500Y44227867D01*
X35952500Y43527867D02*
X35952500Y43427867D01*
X35810000Y46897009D02*
X35810000Y46505367D01*
X34512500Y45027867D02*
X34512500Y44927867D01*
X34512500Y42027867D02*
X34512500Y41927867D01*
X35952500Y40527867D02*
X35952500Y40427867D01*
X34712500Y37727867D02*
X35232500Y37727867D01*
X36010000Y48197009D02*
X35810000Y48197009D01*
X35232500Y40227867D02*
X34712500Y40227867D01*
X35232500Y40727867D02*
X35752500Y40727867D01*
X35232500Y43727867D02*
X35752500Y43727867D01*
X35752500Y39227867D02*
X35232500Y39227867D01*
X35952500Y41527867D02*
X35952500Y41427867D01*
X34512500Y39027867D02*
X34512500Y38927867D01*
X35752500Y41227867D02*
X35232500Y41227867D01*
X34712500Y39727867D02*
X35232500Y39727867D01*
X35752500Y38227867D02*
X35232500Y38227867D01*
X34712500Y43727867D02*
X35232500Y43727867D01*
X35625000Y47697009D02*
X35810000Y47697009D01*
X35752500Y40227867D02*
X35232500Y40227867D01*
X35232500Y44727867D02*
X35752500Y44727867D01*
X35952500Y39527867D02*
X35952500Y39427867D01*
X36010000Y47697009D02*
X36330000Y47697009D01*
X35952500Y45527867D02*
X35952500Y45427867D01*
X35952500Y42527867D02*
X35952500Y42427867D01*
X35232500Y36927867D02*
X35232500Y36700000D01*
X34512500Y40927867D02*
G75*
G03*
X34712500Y40727900I200000J33D01*
G01*
X36180000Y48697009D02*
G75*
G02*
X36380009Y48497009I0J-200009D01*
G01*
X35752500Y40727867D02*
G75*
G02*
X35952467Y40527867I0J-199967D01*
G01*
X34712500Y38227867D02*
G75*
G03*
X34512533Y38027867I0J-199967D01*
G01*
X35752500Y43727867D02*
G75*
G02*
X35952467Y43527867I0J-199967D01*
G01*
X36530000Y47397009D02*
G75*
G02*
X36330000Y47197000I-200000J-9D01*
G01*
X34712500Y42227867D02*
G75*
G03*
X34512533Y42027867I0J-199967D01*
G01*
X34512500Y39927867D02*
G75*
G03*
X34712500Y39727900I200000J33D01*
G01*
X34512500Y42927867D02*
G75*
G03*
X34712500Y42727900I200000J33D01*
G01*
X34512500Y37927867D02*
G75*
G03*
X34712500Y37727900I200000J33D01*
G01*
X34512500Y44927867D02*
G75*
G03*
X34712500Y44727900I200000J33D01*
G01*
X34712500Y41227867D02*
G75*
G03*
X34512533Y41027867I0J-199967D01*
G01*
X35625000Y48197009D02*
G75*
G03*
X35439991Y48012009I0J-185009D01*
G01*
X34712500Y39227867D02*
G75*
G03*
X34512533Y39027867I0J-199967D01*
G01*
X35952500Y37427867D02*
G75*
G02*
X35752500Y37227900I-200000J33D01*
G01*
X34712500Y40227867D02*
G75*
G03*
X34512533Y40027867I0J-199967D01*
G01*
X34512500Y38927867D02*
G75*
G03*
X34712500Y38727900I200000J33D01*
G01*
X35810000Y48897009D02*
G75*
G03*
X36010000Y48697000I200000J-9D01*
G01*
X34512500Y43927867D02*
G75*
G03*
X34712500Y43727900I200000J33D01*
G01*
X35952500Y45427867D02*
G75*
G02*
X35752500Y45227900I-200000J33D01*
G01*
X35752500Y39727867D02*
G75*
G02*
X35952467Y39527867I0J-199967D01*
G01*
X35432500Y37227867D02*
G75*
G03*
X35232533Y37027867I0J-199967D01*
G01*
X35232500Y45927867D02*
G75*
G03*
X35432500Y45727900I200000J33D01*
G01*
X35752500Y42727867D02*
G75*
G02*
X35952467Y42527867I0J-199967D01*
G01*
X35752500Y38727867D02*
G75*
G02*
X35952467Y38527867I0J-199967D01*
G01*
X35952500Y42427867D02*
G75*
G02*
X35752500Y42227900I-200000J33D01*
G01*
X36380000Y48397009D02*
G75*
G02*
X36180000Y48197000I-200000J-9D01*
G01*
X35752500Y45727867D02*
G75*
G02*
X35952467Y45527867I0J-199967D01*
G01*
X35952500Y38427867D02*
G75*
G02*
X35752500Y38227900I-200000J33D01*
G01*
X35952500Y41427867D02*
G75*
G02*
X35752500Y41227900I-200000J33D01*
G01*
X35752500Y41727867D02*
G75*
G02*
X35952467Y41527867I0J-199967D01*
G01*
X35440000Y47882009D02*
G75*
G03*
X35625000Y47697000I185000J-9D01*
G01*
X35952500Y44427867D02*
G75*
G02*
X35752500Y44227900I-200000J33D01*
G01*
X36330000Y47697009D02*
G75*
G02*
X36530009Y47497009I0J-200009D01*
G01*
X35752500Y37727867D02*
G75*
G02*
X35952467Y37527867I0J-199967D01*
G01*
X34712500Y45227867D02*
G75*
G03*
X34512533Y45027867I0J-199967D01*
G01*
X36010000Y47197009D02*
G75*
G03*
X35809991Y46997009I0J-200009D01*
G01*
X35752500Y44727867D02*
G75*
G02*
X35952467Y44527867I0J-199967D01*
G01*
X35952500Y39427867D02*
G75*
G02*
X35752500Y39227900I-200000J33D01*
G01*
X34712500Y44227867D02*
G75*
G03*
X34512533Y44027867I0J-199967D01*
G01*
X34712500Y43227867D02*
G75*
G03*
X34512533Y43027867I0J-199967D01*
G01*
X35952500Y40427867D02*
G75*
G02*
X35752500Y40227900I-200000J33D01*
G01*
X35952500Y43427867D02*
G75*
G02*
X35752500Y43227900I-200000J33D01*
G01*
X34512500Y41927867D02*
G75*
G03*
X34712500Y41727900I200000J33D01*
G01*
%TO.N,DDR3_DQ0*%
X39545605Y47102923D02*
X39616315Y47032213D01*
X40355493Y35355491D02*
X40291852Y35291851D01*
X39420000Y34920000D02*
X39300000Y34800000D01*
X41755000Y40820000D02*
X41600000Y40820000D01*
X40940000Y38840000D02*
X40940000Y38750000D01*
X38838499Y46678658D02*
X38979920Y46820080D01*
X41034315Y35313065D02*
X40970675Y35249424D01*
X40940000Y43340000D02*
X40940000Y43250000D01*
X38000000Y48965000D02*
X38000000Y47800000D01*
X40673688Y35928250D02*
X40928249Y35673689D01*
X39920000Y34920000D02*
X39500000Y34920000D01*
X41600000Y39470000D02*
X41755000Y39470000D01*
X38838501Y47810027D02*
X38909211Y47739317D01*
X41120000Y43070000D02*
X41600000Y43070000D01*
X36000000Y33000000D02*
X34930000Y31930000D01*
X41910000Y40215000D02*
X41910000Y40075000D01*
X39800000Y46000000D02*
X40090313Y46000000D01*
X38767789Y47315053D02*
X38626368Y47173632D01*
X38484946Y46749368D02*
X38555656Y46678658D01*
X41120000Y39470000D02*
X41600000Y39470000D01*
X40090313Y46000000D02*
X40500000Y46000000D01*
X41600000Y41720000D02*
X41120000Y41720000D01*
X41600000Y43070000D02*
X42080000Y43070000D01*
X39545605Y46254395D02*
X39800000Y46000000D01*
X42080000Y37220000D02*
X41780000Y37220000D01*
X38000000Y47800000D02*
X38131395Y47668605D01*
X40461556Y36140382D02*
X40673688Y35928250D01*
X38909212Y47456473D02*
X38767789Y47315053D01*
X37100000Y34800000D02*
X36000000Y33700000D01*
X41600000Y38570000D02*
X41755000Y38570000D01*
X38414237Y47668605D02*
X38555659Y47810026D01*
X41910000Y39315000D02*
X41910000Y39175000D01*
X41420000Y44420000D02*
X41120000Y44420000D01*
X39300000Y34800000D02*
X37100000Y34800000D01*
X41600000Y37670000D02*
X41780000Y37670000D01*
X40716117Y35249425D02*
X40610051Y35355491D01*
X41755000Y39920000D02*
X41600000Y39920000D01*
X37247500Y49717500D02*
X38000000Y48965000D01*
X41600000Y36600000D02*
X41246446Y36246447D01*
X42080000Y43520000D02*
X41600000Y43520000D01*
X40525196Y36458580D02*
X40461556Y36394941D01*
X41780000Y37670000D02*
X42080000Y37670000D01*
X41600000Y36950000D02*
X41600000Y36600000D01*
X40500000Y46000000D02*
X41600000Y44900000D01*
X41420000Y43970000D02*
X41600000Y43970000D01*
X41120000Y43970000D02*
X41420000Y43970000D01*
X39474894Y46325105D02*
X39545605Y46254395D01*
X42260000Y43790000D02*
X42260000Y43700000D01*
X41910000Y42015000D02*
X41910000Y41875000D01*
X42260000Y37490000D02*
X42260000Y37400000D01*
X40940000Y41540000D02*
X40940000Y41450000D01*
X41600000Y43520000D02*
X41120000Y43520000D01*
X41755000Y41720000D02*
X41600000Y41720000D01*
X41600000Y40820000D02*
X41120000Y40820000D01*
X41120000Y40370000D02*
X41600000Y40370000D01*
X40940000Y42440000D02*
X40940000Y42350000D01*
X41120000Y38570000D02*
X41600000Y38570000D01*
X41600000Y44900000D02*
X41600000Y44600000D01*
X40940000Y37940000D02*
X40940000Y37850000D01*
X41600000Y42620000D02*
X41120000Y42620000D01*
X41600000Y40370000D02*
X41755000Y40370000D01*
X41600000Y41270000D02*
X41755000Y41270000D01*
X41600000Y39920000D02*
X41120000Y39920000D01*
X40940000Y40640000D02*
X40940000Y40550000D01*
X41755000Y38120000D02*
X41600000Y38120000D01*
X41910000Y38415000D02*
X41910000Y38275000D01*
X42260000Y42890000D02*
X42260000Y42800000D01*
X41600000Y37040000D02*
X41600000Y36950000D01*
X41600000Y42170000D02*
X41755000Y42170000D01*
X41755000Y39020000D02*
X41600000Y39020000D01*
X40291852Y35291851D02*
X39920000Y34920000D01*
X34930000Y31930000D02*
X34930000Y30890000D01*
X41910000Y41115000D02*
X41910000Y40975000D01*
X40940000Y44240000D02*
X40940000Y44150000D01*
X38626368Y47173632D02*
X38484946Y47032211D01*
X41600000Y43970000D02*
X42080000Y43970000D01*
X41120000Y37670000D02*
X41600000Y37670000D01*
X40928249Y35673689D02*
X41034315Y35567623D01*
X41600000Y39020000D02*
X41120000Y39020000D01*
X41120000Y41270000D02*
X41600000Y41270000D01*
X39616316Y46749369D02*
X39474893Y46607949D01*
X39121340Y46961503D02*
X39262761Y47102924D01*
X41600000Y38120000D02*
X41120000Y38120000D01*
X41120000Y42170000D02*
X41600000Y42170000D01*
X36000000Y33700000D02*
X36000000Y33000000D01*
X38979920Y46820080D02*
X39121340Y46961503D01*
X40940000Y39740000D02*
X40940000Y39650000D01*
X42080000Y42620000D02*
X41600000Y42620000D01*
X39500000Y34920000D02*
X39420000Y34920000D01*
X40991887Y36246447D02*
X40779754Y36458580D01*
X41120000Y41720000D02*
G75*
G03*
X40940000Y41540000I0J-180000D01*
G01*
X42080000Y43070000D02*
G75*
G02*
X42260000Y42890000I0J-180000D01*
G01*
X40970675Y35249424D02*
G75*
G02*
X40716121Y35249428I-127275J127276D01*
G01*
X40940000Y44150000D02*
G75*
G03*
X41120000Y43970000I180000J0D01*
G01*
X40610051Y35355491D02*
G75*
G03*
X40355493Y35355491I-127279J-127278D01*
G01*
X41120000Y38120000D02*
G75*
G03*
X40940000Y37940000I0J-180000D01*
G01*
X38484946Y47032211D02*
G75*
G03*
X38484956Y46749378I141454J-141411D01*
G01*
X41246446Y36246447D02*
G75*
G02*
X40991888Y36246447I-127279J127279D01*
G01*
X41120000Y39020000D02*
G75*
G03*
X40940000Y38840000I0J-180000D01*
G01*
X41755000Y40370000D02*
G75*
G02*
X41910000Y40215000I0J-155000D01*
G01*
X41910000Y39175000D02*
G75*
G02*
X41755000Y39020000I-155000J0D01*
G01*
X41910000Y40075000D02*
G75*
G02*
X41755000Y39920000I-155000J0D01*
G01*
X41755000Y38570000D02*
G75*
G02*
X41910000Y38415000I0J-155000D01*
G01*
X41120000Y43520000D02*
G75*
G03*
X40940000Y43340000I0J-180000D01*
G01*
X41910000Y40975000D02*
G75*
G02*
X41755000Y40820000I-155000J0D01*
G01*
X41755000Y39470000D02*
G75*
G02*
X41910000Y39315000I0J-155000D01*
G01*
X41780000Y37220000D02*
G75*
G03*
X41600000Y37040000I0J-180000D01*
G01*
X40461556Y36394941D02*
G75*
G03*
X40461594Y36140421I127244J-127241D01*
G01*
X42260000Y42800000D02*
G75*
G02*
X42080000Y42620000I-180000J0D01*
G01*
X41755000Y42170000D02*
G75*
G02*
X41910000Y42015000I0J-155000D01*
G01*
X38555656Y46678658D02*
G75*
G03*
X38838499Y46678657I141422J141424D01*
G01*
X41120000Y44420000D02*
G75*
G03*
X40940000Y44240000I0J-180000D01*
G01*
X41120000Y42620000D02*
G75*
G03*
X40940000Y42440000I0J-180000D01*
G01*
X42260000Y37400000D02*
G75*
G02*
X42080000Y37220000I-180000J0D01*
G01*
X41120000Y40820000D02*
G75*
G03*
X40940000Y40640000I0J-180000D01*
G01*
X41910000Y41875000D02*
G75*
G02*
X41755000Y41720000I-155000J0D01*
G01*
X40940000Y39650000D02*
G75*
G03*
X41120000Y39470000I180000J0D01*
G01*
X40779754Y36458580D02*
G75*
G03*
X40525196Y36458580I-127279J-127278D01*
G01*
X38555659Y47810026D02*
G75*
G02*
X38838520Y47810047I141441J-141426D01*
G01*
X40940000Y41450000D02*
G75*
G03*
X41120000Y41270000I180000J0D01*
G01*
X41120000Y39920000D02*
G75*
G03*
X40940000Y39740000I0J-180000D01*
G01*
X41034315Y35567623D02*
G75*
G02*
X41034359Y35313021I-127315J-127323D01*
G01*
X42260000Y43700000D02*
G75*
G02*
X42080000Y43520000I-180000J0D01*
G01*
X40940000Y37850000D02*
G75*
G03*
X41120000Y37670000I180000J0D01*
G01*
X41755000Y41270000D02*
G75*
G02*
X41910000Y41115000I0J-155000D01*
G01*
X42080000Y37670000D02*
G75*
G02*
X42260000Y37490000I0J-180000D01*
G01*
X41910000Y38275000D02*
G75*
G02*
X41755000Y38120000I-155000J0D01*
G01*
X39616315Y47032213D02*
G75*
G02*
X39616307Y46749379I-141415J-141413D01*
G01*
X42080000Y43970000D02*
G75*
G02*
X42260000Y43790000I0J-180000D01*
G01*
X38909211Y47739317D02*
G75*
G02*
X38909207Y47456479I-141411J-141417D01*
G01*
X39262761Y47102924D02*
G75*
G02*
X39545622Y47102941I141439J-141424D01*
G01*
X40940000Y40550000D02*
G75*
G03*
X41120000Y40370000I180000J0D01*
G01*
X40940000Y43250000D02*
G75*
G03*
X41120000Y43070000I180000J0D01*
G01*
X40940000Y38750000D02*
G75*
G03*
X41120000Y38570000I180000J0D01*
G01*
X38131395Y47668605D02*
G75*
G03*
X38414237Y47668605I141421J141419D01*
G01*
X39474893Y46607949D02*
G75*
G03*
X39474866Y46325077I141407J-141449D01*
G01*
X40940000Y42350000D02*
G75*
G03*
X41120000Y42170000I180000J0D01*
G01*
X41600000Y44600000D02*
G75*
G02*
X41420000Y44420000I-180000J0D01*
G01*
%TO.N,DDR3_DQ1*%
X38850000Y39090000D02*
X38850000Y39000000D01*
X39604350Y45195651D02*
X39667989Y45132011D01*
X39900000Y42420000D02*
X40270000Y42420000D01*
X39900000Y41970000D02*
X39030000Y41970000D01*
X38167586Y36797953D02*
X38782768Y36182771D01*
X39158872Y45641127D02*
X39158873Y45641127D01*
X38782769Y36182769D02*
X38853480Y36112058D01*
X40400000Y43140000D02*
X40400000Y43050000D01*
X39900000Y38370000D02*
X39720000Y38370000D01*
X39314435Y45796691D02*
X39286151Y45768406D01*
X39030000Y37920000D02*
X39720000Y37920000D01*
X40080000Y44220000D02*
X40270000Y44220000D01*
X39546445Y36691887D02*
X39928283Y36310049D01*
X39610086Y35991851D02*
X39228249Y36373688D01*
X39100968Y36500968D02*
X38485785Y37116151D01*
X39900000Y44900000D02*
X39900000Y44400000D01*
X38861888Y44707747D02*
X39349791Y45195651D01*
X38850000Y42690000D02*
X38850000Y42600000D01*
X40220000Y42870000D02*
X39900000Y42870000D01*
X38543690Y44771386D02*
X38607329Y44707747D01*
X36810000Y48930000D02*
X37400000Y48340000D01*
X38850000Y38190000D02*
X38850000Y38100000D01*
X39900000Y40170000D02*
X39030000Y40170000D01*
X39928284Y36055491D02*
X39864644Y35991850D01*
X40320000Y41070000D02*
X39900000Y41070000D01*
X39900000Y40620000D02*
X40320000Y40620000D01*
X38853480Y35970636D02*
X38676703Y35793858D01*
X39720000Y38370000D02*
X39030000Y38370000D01*
X40270000Y41970000D02*
X39900000Y41970000D01*
X38000000Y35400000D02*
X37426790Y35400000D01*
X40270000Y43770000D02*
X40080000Y43770000D01*
X39030000Y41520000D02*
X39900000Y41520000D01*
X39900000Y38820000D02*
X40220000Y38820000D01*
X39286151Y45768406D02*
X39158872Y45641127D01*
X39900000Y39270000D02*
X39030000Y39270000D01*
X36950000Y35400000D02*
X35670000Y34120000D01*
X39900000Y41520000D02*
X40320000Y41520000D01*
X39900000Y39720000D02*
X40270000Y39720000D01*
X38850000Y41790000D02*
X38850000Y41700000D01*
X39250797Y46114888D02*
X39314436Y46051249D01*
X39228249Y36373688D02*
X39100968Y36500968D01*
X39900000Y43770000D02*
X39030000Y43770000D01*
X39030000Y43320000D02*
X39900000Y43320000D01*
X37400000Y48340000D02*
X37400000Y47400000D01*
X39030000Y42420000D02*
X39900000Y42420000D01*
X40450000Y42240000D02*
X40450000Y42150000D01*
X39030000Y38820000D02*
X39900000Y38820000D01*
X37247500Y50717500D02*
X36810000Y50280000D01*
X39900000Y42870000D02*
X39030000Y42870000D01*
X38850000Y39990000D02*
X38850000Y39900000D01*
X40080000Y43770000D02*
X39900000Y43770000D01*
X39900000Y41070000D02*
X39030000Y41070000D01*
X39030000Y40620000D02*
X39900000Y40620000D01*
X38850000Y40890000D02*
X38850000Y40800000D01*
X39900000Y37650000D02*
X39900000Y37300000D01*
X39900000Y43320000D02*
X40220000Y43320000D01*
X39667989Y45132011D02*
X39900000Y44900000D01*
X38231226Y37116151D02*
X38167586Y37052512D01*
X40450000Y39540000D02*
X40450000Y39450000D01*
X36810000Y50280000D02*
X36810000Y48930000D01*
X39158873Y45641127D02*
X39031593Y45513848D01*
X40220000Y38370000D02*
X39900000Y38370000D01*
X40500000Y40440000D02*
X40500000Y40350000D01*
X38782768Y36182771D02*
X38782769Y36182769D01*
X39900000Y37300000D02*
X39546446Y36946447D01*
X37400000Y47400000D02*
X38713396Y46086604D01*
X40450000Y44040000D02*
X40450000Y43950000D01*
X38393861Y35793859D02*
X38217083Y35617082D01*
X40270000Y39270000D02*
X39900000Y39270000D01*
X38217083Y35617082D02*
X38000000Y35400000D01*
X38967954Y46086604D02*
X38996239Y46114888D01*
X37426790Y35400000D02*
X36950000Y35400000D01*
X40500000Y41340000D02*
X40500000Y41250000D01*
X40320000Y40170000D02*
X39900000Y40170000D01*
X39030000Y39720000D02*
X39900000Y39720000D01*
X39900000Y37740000D02*
X39900000Y37650000D01*
X38850000Y43590000D02*
X38850000Y43500000D01*
X39031593Y45513848D02*
X38543690Y45025945D01*
X40400000Y38640000D02*
X40400000Y38550000D01*
X39900000Y44400000D02*
G75*
G03*
X40080000Y44220000I180000J0D01*
G01*
X39349791Y45195651D02*
G75*
G02*
X39604351Y45195652I127280J-127279D01*
G01*
X40270000Y42420000D02*
G75*
G02*
X40450000Y42240000I0J-180000D01*
G01*
X39030000Y38370000D02*
G75*
G03*
X38850000Y38190000I0J-180000D01*
G01*
X40400000Y43050000D02*
G75*
G02*
X40220000Y42870000I-180000J0D01*
G01*
X38850000Y40800000D02*
G75*
G03*
X39030000Y40620000I180000J0D01*
G01*
X38850000Y42600000D02*
G75*
G03*
X39030000Y42420000I180000J0D01*
G01*
X38713396Y46086604D02*
G75*
G03*
X38967954Y46086604I127279J127278D01*
G01*
X40320000Y41520000D02*
G75*
G02*
X40500000Y41340000I0J-180000D01*
G01*
X40270000Y39720000D02*
G75*
G02*
X40450000Y39540000I0J-180000D01*
G01*
X38676703Y35793858D02*
G75*
G02*
X38535281Y35793858I-70711J70713D01*
G01*
X39928283Y36310049D02*
G75*
G02*
X39928254Y36055522I-127283J-127249D01*
G01*
X38850000Y39900000D02*
G75*
G03*
X39030000Y39720000I180000J0D01*
G01*
X38850000Y39000000D02*
G75*
G03*
X39030000Y38820000I180000J0D01*
G01*
X39030000Y40170000D02*
G75*
G03*
X38850000Y39990000I0J-180000D01*
G01*
X39720000Y37920000D02*
G75*
G02*
X39900000Y37740000I0J-180000D01*
G01*
X40400000Y38550000D02*
G75*
G02*
X40220000Y38370000I-180000J0D01*
G01*
X40450000Y39450000D02*
G75*
G02*
X40270000Y39270000I-180000J0D01*
G01*
X40270000Y44220000D02*
G75*
G02*
X40450000Y44040000I0J-180000D01*
G01*
X38485785Y37116151D02*
G75*
G03*
X38231227Y37116151I-127279J-127279D01*
G01*
X38543690Y45025945D02*
G75*
G03*
X38543724Y44771420I127310J-127245D01*
G01*
X39030000Y41970000D02*
G75*
G03*
X38850000Y41790000I0J-180000D01*
G01*
X38850000Y41700000D02*
G75*
G03*
X39030000Y41520000I180000J0D01*
G01*
X38607329Y44707747D02*
G75*
G03*
X38861888Y44707746I127280J127283D01*
G01*
X40320000Y40620000D02*
G75*
G02*
X40500000Y40440000I0J-180000D01*
G01*
X40450000Y42150000D02*
G75*
G02*
X40270000Y41970000I-180000J0D01*
G01*
X39864644Y35991850D02*
G75*
G02*
X39610121Y35991885I-127244J127250D01*
G01*
X39030000Y39270000D02*
G75*
G03*
X38850000Y39090000I0J-180000D01*
G01*
X39546446Y36946447D02*
G75*
G03*
X39546478Y36691921I127254J-127247D01*
G01*
X40220000Y43320000D02*
G75*
G02*
X40400000Y43140000I0J-180000D01*
G01*
X39030000Y42870000D02*
G75*
G03*
X38850000Y42690000I0J-180000D01*
G01*
X39030000Y43770000D02*
G75*
G03*
X38850000Y43590000I0J-180000D01*
G01*
X40450000Y43950000D02*
G75*
G02*
X40270000Y43770000I-180000J0D01*
G01*
X38535281Y35793858D02*
G75*
G03*
X38393890Y35793830I-70681J-70758D01*
G01*
X40220000Y38820000D02*
G75*
G02*
X40400000Y38640000I0J-180000D01*
G01*
X39030000Y41070000D02*
G75*
G03*
X38850000Y40890000I0J-180000D01*
G01*
X39314436Y46051249D02*
G75*
G02*
X39314406Y45796721I-127236J-127249D01*
G01*
X38996239Y46114888D02*
G75*
G02*
X39250797Y46114888I127279J-127278D01*
G01*
X38167586Y37052512D02*
G75*
G03*
X38167553Y36797921I127314J-127312D01*
G01*
X40500000Y40350000D02*
G75*
G02*
X40320000Y40170000I-180000J0D01*
G01*
X38850000Y43500000D02*
G75*
G03*
X39030000Y43320000I180000J0D01*
G01*
X38850000Y38100000D02*
G75*
G03*
X39030000Y37920000I180000J0D01*
G01*
X40500000Y41250000D02*
G75*
G02*
X40320000Y41070000I-180000J0D01*
G01*
X38853480Y36112058D02*
G75*
G02*
X38853527Y35970589I-70680J-70758D01*
G01*
%TO.N,DDR3_DQ4*%
X45586136Y28386136D02*
X45524265Y28448007D01*
X45218719Y50200000D02*
X44685000Y50200000D01*
X37685000Y51280000D02*
X37247500Y51717500D01*
X46372796Y29420282D02*
X46673318Y29720803D01*
X47707464Y30507464D02*
X47769335Y30445593D01*
X48069858Y31117344D02*
X48370380Y31417865D01*
X49000000Y31800000D02*
X49000000Y33518662D01*
X40400000Y27900000D02*
X45100000Y27900000D01*
X46010403Y28810400D02*
X46010402Y28810402D01*
X46010402Y28810402D02*
X46072273Y28748531D01*
X46434667Y29234667D02*
X46372796Y29296538D01*
X46797062Y29720803D02*
X46858934Y29658931D01*
X45560000Y49858719D02*
X45218719Y50200000D01*
X47345068Y30021327D02*
X47283196Y30083199D01*
X45648006Y28324265D02*
X45586134Y28386137D01*
X45524265Y28571751D02*
X45824787Y28872272D01*
X46858934Y29658931D02*
X46858933Y29658933D01*
X48131727Y30931730D02*
X48131729Y30931729D01*
X46858933Y29658933D02*
X46920804Y29597062D01*
X48918387Y31718386D02*
X49000000Y31800000D01*
X49000000Y44700000D02*
X45900000Y47800000D01*
X45900000Y47800000D02*
X45900000Y48960000D01*
X49000000Y33518662D02*
X49000000Y44700000D01*
X48131729Y30931729D02*
X48069858Y30993600D01*
X47283198Y30083198D02*
X47221327Y30145069D01*
X37620000Y31110000D02*
X37755000Y30975000D01*
X46434665Y29234668D02*
X46434667Y29234667D01*
X37755000Y30545000D02*
X40400000Y27900000D01*
X47707465Y30507462D02*
X47707464Y30507464D01*
X44218719Y51200000D02*
X40520000Y51200000D01*
X40520000Y51200000D02*
X40440000Y51280000D01*
X47283196Y30083199D02*
X47283198Y30083198D01*
X44685000Y50200000D02*
X44685000Y50733719D01*
X37755000Y30975000D02*
X37755000Y30545000D01*
X47893079Y30445593D02*
X48193599Y30746114D01*
X48617868Y31417865D02*
X48918387Y31718386D01*
X48193599Y30869858D02*
X48131727Y30931730D01*
X45347486Y27900000D02*
X45648006Y28200521D01*
X45948531Y28872272D02*
X46010403Y28810400D01*
X47044548Y29597062D02*
X47345068Y29897583D01*
X45900000Y48960000D02*
X45560000Y49300000D01*
X45560000Y49300000D02*
X45560000Y49858719D01*
X46496537Y29172796D02*
X46434665Y29234668D01*
X44685000Y50733719D02*
X44218719Y51200000D01*
X45586134Y28386137D02*
X45586136Y28386136D01*
X47221327Y30268813D02*
X47521849Y30569334D01*
X46196017Y28748531D02*
X46496537Y29049052D01*
X47645593Y30569334D02*
X47707465Y30507462D01*
X40440000Y51280000D02*
X37685000Y51280000D01*
X45824787Y28872272D02*
G75*
G02*
X45948531Y28872272I61872J-61873D01*
G01*
X47521849Y30569334D02*
G75*
G02*
X47645593Y30569334I61872J-61873D01*
G01*
X48193599Y30746114D02*
G75*
G03*
X48193613Y30869872I-61899J61886D01*
G01*
X48370380Y31417865D02*
G75*
G02*
X48494124Y31417865I61872J-61873D01*
G01*
X45524265Y28448007D02*
G75*
G02*
X45524244Y28571772I61835J61893D01*
G01*
X46673318Y29720803D02*
G75*
G02*
X46797062Y29720803I61872J-61873D01*
G01*
X45100000Y27900000D02*
G75*
G02*
X45223743Y27900001I61872J-61872D01*
G01*
X45223743Y27900000D02*
G75*
G03*
X45347486Y27899999I61872J61872D01*
G01*
X46920804Y29597062D02*
G75*
G03*
X47044548Y29597062I61872J61873D01*
G01*
X46372796Y29296538D02*
G75*
G02*
X46372806Y29420272I61904J61862D01*
G01*
X45648006Y28200521D02*
G75*
G03*
X45648013Y28324272I-61906J61879D01*
G01*
X47769335Y30445593D02*
G75*
G03*
X47893079Y30445593I61872J61873D01*
G01*
X47345068Y29897583D02*
G75*
G03*
X47345113Y30021372I-61868J61917D01*
G01*
X47221327Y30145069D02*
G75*
G02*
X47221368Y30268772I61873J61831D01*
G01*
X46496537Y29049052D02*
G75*
G03*
X46496513Y29172772I-61837J61848D01*
G01*
X48069858Y30993600D02*
G75*
G02*
X48069830Y31117372I61842J61900D01*
G01*
X46072273Y28748531D02*
G75*
G03*
X46196017Y28748531I61872J61873D01*
G01*
X48494124Y31417865D02*
G75*
G03*
X48617868Y31417865I61872J61873D01*
G01*
%TO.N,DDR3_DQ6*%
X49900000Y31150000D02*
X49900000Y31800000D01*
X46900000Y48000000D02*
X46900000Y49281281D01*
X46090000Y27340000D02*
X48702470Y29952470D01*
X49900000Y35060000D02*
X49900000Y35400000D01*
X46685000Y49811091D02*
X46381091Y50115000D01*
X45600000Y50818720D02*
X45218720Y51200000D01*
X46685000Y49496281D02*
X46685000Y49811091D01*
X49900000Y33730000D02*
X50030000Y33730000D01*
X36072500Y28922500D02*
X36072500Y28308781D01*
X46381091Y50115000D02*
X45885000Y50115000D01*
X50160000Y32660000D02*
X50160000Y33000000D01*
X36470000Y29320000D02*
X36072500Y28922500D01*
X50160000Y33860000D02*
X50160000Y34200000D01*
X37685000Y52280000D02*
X37247500Y52717500D01*
X49900000Y32530000D02*
X50030000Y32530000D01*
X45885000Y50115000D02*
X45600000Y50400000D01*
X36072500Y28308781D02*
X37041281Y27340000D01*
X40400000Y52280000D02*
X37685000Y52280000D01*
X49770000Y32530000D02*
X49900000Y32530000D01*
X44900000Y51200000D02*
X44685000Y51415000D01*
X49640000Y32060000D02*
X49640000Y32400000D01*
X45218720Y51200000D02*
X44900000Y51200000D01*
X49900000Y33130000D02*
X49770000Y33130000D01*
X47215407Y47684593D02*
X46900000Y48000000D01*
X49640000Y34460000D02*
X49640000Y34800000D01*
X49900000Y45000000D02*
X47215407Y47684593D01*
X45600000Y50400000D02*
X45600000Y50818720D01*
X49900000Y35400000D02*
X49900000Y35800000D01*
X49900000Y42637684D02*
X49900000Y45000000D01*
X44178719Y52240000D02*
X40440000Y52240000D01*
X44685000Y51415000D02*
X44685000Y51733719D01*
X49551000Y30800999D02*
X49900000Y31150000D01*
X46900000Y49281281D02*
X46685000Y49496281D01*
X44685000Y51733719D02*
X44178719Y52240000D01*
X50030000Y33130000D02*
X49900000Y33130000D01*
X49640000Y33260000D02*
X49640000Y33600000D01*
X50030000Y34330000D02*
X49900000Y34330000D01*
X40440000Y52240000D02*
X40400000Y52280000D01*
X37041281Y27340000D02*
X46090000Y27340000D01*
X49900000Y34330000D02*
X49770000Y34330000D01*
X49310584Y30560581D02*
X49551000Y30800999D01*
X49770000Y33730000D02*
X49900000Y33730000D01*
X49900000Y35800000D02*
X49900000Y42637684D01*
X48702470Y30320164D02*
X48942888Y30560581D01*
X49770000Y33130000D02*
G75*
G02*
X49640000Y33260000I0J130000D01*
G01*
X50160000Y33000000D02*
G75*
G03*
X50030000Y33130000I-130000J0D01*
G01*
X50160000Y34200000D02*
G75*
G03*
X50030000Y34330000I-130000J0D01*
G01*
X48702470Y29952470D02*
G75*
G03*
X48702476Y30136323I-91970J91930D01*
G01*
X49640000Y34800000D02*
G75*
G02*
X49770000Y34930000I130000J0D01*
G01*
X49900000Y31800000D02*
G75*
G03*
X49770000Y31930000I-130000J0D01*
G01*
X49640000Y32400000D02*
G75*
G02*
X49770000Y32530000I130000J0D01*
G01*
X49770000Y31930000D02*
G75*
G02*
X49640000Y32060000I0J130000D01*
G01*
X50030000Y32530000D02*
G75*
G03*
X50160000Y32660000I0J130000D01*
G01*
X49770000Y34330000D02*
G75*
G02*
X49640000Y34460000I0J130000D01*
G01*
X49126736Y30560581D02*
G75*
G03*
X49310584Y30560581I91924J91925D01*
G01*
X49770000Y34930000D02*
G75*
G03*
X49900000Y35060000I0J130000D01*
G01*
X49640000Y33600000D02*
G75*
G02*
X49770000Y33730000I130000J0D01*
G01*
X50030000Y33730000D02*
G75*
G03*
X50160000Y33860000I0J130000D01*
G01*
X48702471Y30136318D02*
G75*
G02*
X48702511Y30320122I91929J91882D01*
G01*
X48942888Y30560581D02*
G75*
G02*
X49126736Y30560581I91924J-91925D01*
G01*
%TO.N,DDR3_DQ5*%
X41163526Y46536475D02*
X40993822Y46706178D01*
X42040342Y45291963D02*
X41870636Y45461669D01*
X43200000Y41900000D02*
X42840000Y41900000D01*
X42316115Y45383885D02*
X42224190Y45291963D01*
X41609005Y46090995D02*
X41517080Y45999073D01*
X41962560Y45737440D02*
X42217118Y45991999D01*
X43200000Y37400000D02*
X43560000Y37400000D01*
X43760000Y36600000D02*
X43760000Y36700000D01*
X43200000Y41400000D02*
X43560000Y41400000D01*
X43560000Y40900000D02*
X43200000Y40900000D01*
X43200000Y40900000D02*
X42840000Y40900000D01*
X41870636Y45645517D02*
X41962560Y45737440D01*
X43560000Y36900000D02*
X43400000Y36900000D01*
X43560000Y39900000D02*
X43200000Y39900000D01*
X43760000Y39600000D02*
X43760000Y39700000D01*
X43200000Y38400000D02*
X43560000Y38400000D01*
X43400000Y36400000D02*
X43560000Y36400000D01*
X40993822Y46706178D02*
X40850000Y46850000D01*
X42840000Y42400000D02*
X43200000Y42400000D01*
X43760000Y37600000D02*
X43760000Y37700000D01*
X40600000Y47100000D02*
X40000000Y47100000D01*
X43200000Y43400000D02*
X43400000Y43400000D01*
X43560000Y43900000D02*
X43400000Y43900000D01*
X43400000Y36900000D02*
X43200000Y36900000D01*
X42640000Y37100000D02*
X42640000Y37200000D01*
X42840000Y38400000D02*
X43200000Y38400000D01*
X42924228Y45567732D02*
X42853517Y45638443D01*
X41333232Y45999073D02*
X41163526Y46168779D01*
X42840000Y40400000D02*
X43200000Y40400000D01*
X42570674Y45638443D02*
X42457536Y45525306D01*
X40850000Y46850000D02*
X40600000Y47100000D01*
X43200000Y36900000D02*
X42840000Y36900000D01*
X43760000Y40600000D02*
X43760000Y40700000D01*
X42640000Y41100000D02*
X42640000Y41200000D01*
X43200000Y42900000D02*
X42840000Y42900000D01*
X43200000Y39400000D02*
X43560000Y39400000D01*
X37270000Y34120000D02*
X37550000Y34400000D01*
X42640000Y40100000D02*
X42640000Y40200000D01*
X43200000Y44100000D02*
X43200000Y44200000D01*
X38920000Y48180000D02*
X38920000Y48540000D01*
X43200000Y38900000D02*
X42840000Y38900000D01*
X40000000Y47100000D02*
X38920000Y48180000D01*
X42640000Y42100000D02*
X42640000Y42200000D01*
X42840000Y39400000D02*
X43200000Y39400000D01*
X43200000Y44200000D02*
X43200000Y44500000D01*
X43760000Y42600000D02*
X43760000Y42700000D01*
X41400000Y34400000D02*
X43200000Y36200000D01*
X43560000Y42900000D02*
X43200000Y42900000D01*
X42640000Y39100000D02*
X42640000Y39200000D01*
X42457536Y45525306D02*
X42316115Y45383885D01*
X43560000Y41900000D02*
X43200000Y41900000D01*
X42840000Y37400000D02*
X43200000Y37400000D01*
X43200000Y44500000D02*
X42811091Y44888909D01*
X42217118Y46274842D02*
X42146407Y46345553D01*
X43560000Y37900000D02*
X43200000Y37900000D01*
X43200000Y42400000D02*
X43560000Y42400000D01*
X43200000Y39900000D02*
X42840000Y39900000D01*
X43760000Y41600000D02*
X43760000Y41700000D01*
X37550000Y34400000D02*
X41400000Y34400000D01*
X43760000Y43600000D02*
X43760000Y43700000D01*
X42811091Y45171752D02*
X42924228Y45284890D01*
X43200000Y40400000D02*
X43560000Y40400000D01*
X42640000Y38100000D02*
X42640000Y38200000D01*
X43560000Y38900000D02*
X43200000Y38900000D01*
X43400000Y43400000D02*
X43560000Y43400000D01*
X42840000Y43400000D02*
X43200000Y43400000D01*
X42840000Y41400000D02*
X43200000Y41400000D01*
X43760000Y38600000D02*
X43760000Y38700000D01*
X42640000Y43100000D02*
X42640000Y43200000D01*
X43200000Y37900000D02*
X42840000Y37900000D01*
X41863564Y46345553D02*
X41609005Y46090995D01*
X42640000Y42200000D02*
G75*
G02*
X42840000Y42400000I200000J0D01*
G01*
X42924228Y45284890D02*
G75*
G03*
X42924217Y45567721I-141428J141410D01*
G01*
X43560000Y39400000D02*
G75*
G03*
X43760000Y39600000I0J200000D01*
G01*
X42853517Y45638443D02*
G75*
G03*
X42570675Y45638443I-141421J-141420D01*
G01*
X43760000Y40700000D02*
G75*
G03*
X43560000Y40900000I-200000J0D01*
G01*
X42811091Y44888909D02*
G75*
G02*
X42811121Y45171721I141409J141391D01*
G01*
X43760000Y42700000D02*
G75*
G03*
X43560000Y42900000I-200000J0D01*
G01*
X43560000Y40400000D02*
G75*
G03*
X43760000Y40600000I0J200000D01*
G01*
X43760000Y41700000D02*
G75*
G03*
X43560000Y41900000I-200000J0D01*
G01*
X43560000Y37400000D02*
G75*
G03*
X43760000Y37600000I0J200000D01*
G01*
X43760000Y37700000D02*
G75*
G03*
X43560000Y37900000I-200000J0D01*
G01*
X42640000Y37200000D02*
G75*
G02*
X42840000Y37400000I200000J0D01*
G01*
X42640000Y41200000D02*
G75*
G02*
X42840000Y41400000I200000J0D01*
G01*
X43560000Y41400000D02*
G75*
G03*
X43760000Y41600000I0J200000D01*
G01*
X42224190Y45291963D02*
G75*
G02*
X42040342Y45291963I-91924J91925D01*
G01*
X42840000Y38900000D02*
G75*
G02*
X42640000Y39100000I0J200000D01*
G01*
X43560000Y38400000D02*
G75*
G03*
X43760000Y38600000I0J200000D01*
G01*
X43560000Y36400000D02*
G75*
G03*
X43760000Y36600000I0J200000D01*
G01*
X42840000Y37900000D02*
G75*
G02*
X42640000Y38100000I0J200000D01*
G01*
X42640000Y39200000D02*
G75*
G02*
X42840000Y39400000I200000J0D01*
G01*
X42840000Y36900000D02*
G75*
G02*
X42640000Y37100000I0J200000D01*
G01*
X41163526Y46352627D02*
G75*
G03*
X41163575Y46536524I-91926J91973D01*
G01*
X41517080Y45999073D02*
G75*
G02*
X41333232Y45999073I-91924J91925D01*
G01*
X43760000Y43700000D02*
G75*
G03*
X43560000Y43900000I-200000J0D01*
G01*
X43760000Y36700000D02*
G75*
G03*
X43560000Y36900000I-200000J0D01*
G01*
X42840000Y39900000D02*
G75*
G02*
X42640000Y40100000I0J200000D01*
G01*
X41163526Y46168779D02*
G75*
G02*
X41163529Y46352624I91974J91921D01*
G01*
X42640000Y38200000D02*
G75*
G02*
X42840000Y38400000I200000J0D01*
G01*
X43560000Y42400000D02*
G75*
G03*
X43760000Y42600000I0J200000D01*
G01*
X42217118Y45991999D02*
G75*
G03*
X42217098Y46274821I-141418J141401D01*
G01*
X43200000Y36200000D02*
G75*
G02*
X43400000Y36400000I200000J0D01*
G01*
X43760000Y39700000D02*
G75*
G03*
X43560000Y39900000I-200000J0D01*
G01*
X42640000Y40200000D02*
G75*
G02*
X42840000Y40400000I200000J0D01*
G01*
X42840000Y40900000D02*
G75*
G02*
X42640000Y41100000I0J200000D01*
G01*
X42840000Y42900000D02*
G75*
G02*
X42640000Y43100000I0J200000D01*
G01*
X41870636Y45461669D02*
G75*
G02*
X41870629Y45645524I91964J91931D01*
G01*
X42146407Y46345553D02*
G75*
G03*
X41863565Y46345553I-141421J-141420D01*
G01*
X43760000Y38700000D02*
G75*
G03*
X43560000Y38900000I-200000J0D01*
G01*
X43560000Y43400000D02*
G75*
G03*
X43760000Y43600000I0J200000D01*
G01*
X42640000Y43200000D02*
G75*
G02*
X42840000Y43400000I200000J0D01*
G01*
X43400000Y43900000D02*
G75*
G02*
X43200000Y44100000I0J200000D01*
G01*
X42840000Y41900000D02*
G75*
G02*
X42640000Y42100000I0J200000D01*
G01*
%TO.N,DDR3_DQS0_N*%
D25*
X35470000Y31653848D02*
X35470000Y30946152D01*
X41425686Y49230000D02*
X41638166Y49017520D01*
X48060000Y41924505D02*
X47800000Y41924505D01*
X45270000Y47246152D02*
X47800000Y44716152D01*
X48170000Y38664505D02*
X48370000Y38664505D01*
X48480000Y38554505D02*
X48480000Y38434505D01*
X48370000Y38324505D02*
X48170000Y38324505D01*
X47800000Y41064505D02*
X48170000Y41064505D01*
X48370000Y35924505D02*
X48170000Y35924505D01*
X48370000Y39524505D02*
X48170000Y39524505D01*
X48370000Y43124505D02*
X48170000Y43124505D01*
X35846152Y32030000D02*
X35470000Y31653848D01*
X47715000Y42264505D02*
X47800000Y42264505D01*
X48170000Y37464505D02*
X48370000Y37464505D01*
X38247500Y49717500D02*
X38656924Y49308076D01*
X47800000Y34200000D02*
X47800000Y32700000D01*
X47800000Y34834505D02*
X47800000Y34200000D01*
X47800000Y44716152D02*
X47800000Y43834505D01*
X46670000Y35554505D02*
X46670000Y35434505D01*
X40520874Y49057520D02*
X40543219Y49079866D01*
X39708076Y49308076D02*
X39936286Y49079866D01*
X48480000Y37354505D02*
X48480000Y37234505D01*
X35470000Y30946152D02*
X36016152Y30400000D01*
X36190000Y30400000D02*
X36470000Y30120000D01*
X38656924Y49308076D02*
X39708076Y49308076D01*
X47040000Y35064505D02*
X47690000Y35064505D01*
X48060000Y42264505D02*
X48370000Y42264505D01*
X48480000Y42154505D02*
X48480000Y42034505D01*
X48480000Y43354505D02*
X48480000Y43234505D01*
X48370000Y37124505D02*
X48170000Y37124505D01*
X48480000Y36154505D02*
X48480000Y36034505D01*
X47800000Y41924505D02*
X47715000Y41924505D01*
X36016152Y30400000D02*
X36190000Y30400000D01*
X48170000Y43464505D02*
X48370000Y43464505D01*
X48370000Y41924505D02*
X48060000Y41924505D01*
X47800000Y32700000D02*
X47130000Y32030000D01*
X47800000Y40354505D02*
X47800000Y40234505D01*
X44458219Y49079866D02*
X44736286Y49079866D01*
X40944180Y49079866D02*
X41094314Y49230000D01*
X44395874Y49017520D02*
X44458219Y49079866D01*
X48170000Y43124505D02*
X47800000Y43124505D01*
X47370000Y42779505D02*
X47370000Y42609505D01*
X41094314Y49230000D02*
X41425686Y49230000D01*
X41638166Y49017520D02*
X44395874Y49017520D01*
X48170000Y39864505D02*
X48370000Y39864505D01*
X47370000Y41579505D02*
X47370000Y41409505D01*
X48170000Y35924505D02*
X47690000Y35924505D01*
X47800000Y39154505D02*
X47800000Y39034505D01*
X48170000Y36264505D02*
X48370000Y36264505D01*
X47800000Y37954505D02*
X47800000Y37834505D01*
X45270000Y48546152D02*
X45270000Y47246152D01*
X47800000Y43124505D02*
X47715000Y43124505D01*
X48170000Y41064505D02*
X48370000Y41064505D01*
X47130000Y32030000D02*
X35846152Y32030000D01*
X44736286Y49079866D02*
X45270000Y48546152D01*
X39936286Y49079866D02*
X39951780Y49079866D01*
X48480000Y39754505D02*
X48480000Y39634505D01*
X47800000Y42264505D02*
X48060000Y42264505D01*
X48370000Y40724505D02*
X48170000Y40724505D01*
X47715000Y41064505D02*
X47800000Y41064505D01*
X47800000Y36754505D02*
X47800000Y36634505D01*
X39951780Y49079866D02*
X39974127Y49057520D01*
X47800000Y34954505D02*
X47800000Y34834505D01*
X48480000Y40954505D02*
X48480000Y40834505D01*
X40543219Y49079866D02*
X40944180Y49079866D01*
X39974127Y49057520D02*
X40520874Y49057520D01*
X47690000Y35924505D02*
X47040000Y35924505D01*
X48480000Y43234505D02*
G75*
G02*
X48370000Y43124500I-110000J-5D01*
G01*
X47800000Y37834505D02*
G75*
G03*
X48170000Y37464500I370000J-5D01*
G01*
X47800000Y39034505D02*
G75*
G03*
X48170000Y38664500I370000J-5D01*
G01*
X48370000Y43464505D02*
G75*
G02*
X48480005Y43354505I0J-110005D01*
G01*
X48370000Y42264505D02*
G75*
G02*
X48480005Y42154505I0J-110005D01*
G01*
X46670000Y35434505D02*
G75*
G03*
X47040000Y35064500I370000J-5D01*
G01*
X48370000Y37464505D02*
G75*
G02*
X48480005Y37354505I0J-110005D01*
G01*
X48370000Y38664505D02*
G75*
G02*
X48480005Y38554505I0J-110005D01*
G01*
X48480000Y40834505D02*
G75*
G02*
X48370000Y40724500I-110000J-5D01*
G01*
X47690000Y35064505D02*
G75*
G02*
X47800005Y34954505I0J-110005D01*
G01*
X48170000Y38324505D02*
G75*
G03*
X47799995Y37954505I0J-370005D01*
G01*
X48480000Y42034505D02*
G75*
G02*
X48370000Y41924500I-110000J-5D01*
G01*
X48480000Y36034505D02*
G75*
G02*
X48370000Y35924500I-110000J-5D01*
G01*
X47715000Y43124505D02*
G75*
G03*
X47369995Y42779505I0J-345005D01*
G01*
X47800000Y40234505D02*
G75*
G03*
X48170000Y39864500I370000J-5D01*
G01*
X48370000Y36264505D02*
G75*
G02*
X48480005Y36154505I0J-110005D01*
G01*
X48480000Y38434505D02*
G75*
G02*
X48370000Y38324500I-110000J-5D01*
G01*
X48370000Y41064505D02*
G75*
G02*
X48480005Y40954505I0J-110005D01*
G01*
X48480000Y39634505D02*
G75*
G02*
X48370000Y39524500I-110000J-5D01*
G01*
X47715000Y41924505D02*
G75*
G03*
X47369995Y41579505I0J-345005D01*
G01*
X47370000Y41409505D02*
G75*
G03*
X47715000Y41064500I345000J-5D01*
G01*
X48170000Y39524505D02*
G75*
G03*
X47799995Y39154505I0J-370005D01*
G01*
X47800000Y36634505D02*
G75*
G03*
X48170000Y36264500I370000J-5D01*
G01*
X48370000Y39864505D02*
G75*
G02*
X48480005Y39754505I0J-110005D01*
G01*
X48170000Y40724505D02*
G75*
G03*
X47799995Y40354505I0J-370005D01*
G01*
X48170000Y37124505D02*
G75*
G03*
X47799995Y36754505I0J-370005D01*
G01*
X47370000Y42609505D02*
G75*
G03*
X47715000Y42264500I345000J-5D01*
G01*
X47040000Y35924505D02*
G75*
G03*
X46669995Y35554505I0J-370005D01*
G01*
X47800000Y43834505D02*
G75*
G03*
X48170000Y43464500I370000J-5D01*
G01*
X48480000Y37234505D02*
G75*
G02*
X48370000Y37124500I-110000J-5D01*
G01*
%TO.N,DDR3_DQ2*%
D24*
X36700000Y26600000D02*
X35400000Y27900000D01*
X47218719Y50200000D02*
X47600000Y49818719D01*
X38247500Y52717500D02*
X38730000Y53200000D01*
X47600000Y48480000D02*
X50660000Y45420000D01*
X47600000Y49818719D02*
X47600000Y48480000D01*
X45609360Y51809359D02*
X45609360Y51571921D01*
X44218719Y53200000D02*
X44560000Y52858719D01*
X46259360Y51159359D02*
X46685000Y50733719D01*
X46685000Y50733719D02*
X46685000Y50496281D01*
X35400000Y27900000D02*
X35400000Y29050000D01*
X46685000Y50496281D02*
X46981281Y50200000D01*
X45218719Y52200000D02*
X45609360Y51809359D01*
X46021922Y51159359D02*
X46259360Y51159359D01*
X45609360Y51571921D02*
X46021922Y51159359D01*
X50660000Y30560000D02*
X46700000Y26600000D01*
X46700000Y26600000D02*
X36700000Y26600000D01*
X44560000Y52858719D02*
X44560000Y52340000D01*
X35400000Y29050000D02*
X35730000Y29380000D01*
X50660000Y45420000D02*
X50660000Y30560000D01*
X38730000Y53200000D02*
X44218719Y53200000D01*
X44560000Y52340000D02*
X44700000Y52200000D01*
X44700000Y52200000D02*
X45218719Y52200000D01*
X46981281Y50200000D02*
X47218719Y50200000D01*
%TO.N,DDR3_BA0*%
D25*
X38255000Y53655000D02*
X38215000Y53655000D01*
%TO.N,DDR3_DQ7*%
D24*
X42000000Y47900000D02*
X43850000Y46050000D01*
X44400000Y35700000D02*
X42500000Y33800000D01*
X44400000Y44300000D02*
X44400000Y35700000D01*
X44100000Y44600000D02*
X44400000Y44300000D01*
X37750000Y33800000D02*
X37300000Y33350000D01*
X43950000Y46050000D02*
X44100000Y45900000D01*
X40160000Y47900000D02*
X42000000Y47900000D01*
X43850000Y46050000D02*
X43950000Y46050000D01*
X44100000Y45900000D02*
X44100000Y44600000D01*
X42500000Y33800000D02*
X37750000Y33800000D01*
X39530000Y48530000D02*
X40160000Y47900000D01*
%TO.N,DDR3_DQS0_P*%
D25*
X48060000Y41664505D02*
X47800000Y41664505D01*
X45530000Y47353848D02*
X48060000Y44823848D01*
X40907561Y31610000D02*
X40907561Y31480000D01*
X41748682Y49277500D02*
X44288186Y49277500D01*
X35730000Y31053848D02*
X35730000Y31546152D01*
X44288186Y49277500D02*
X44352531Y49341845D01*
X47040000Y35324505D02*
X47690000Y35324505D01*
X39666348Y49717500D02*
X40043982Y49339866D01*
X48170000Y38924505D02*
X48370000Y38924505D01*
X47715000Y42524505D02*
X47800000Y42524505D01*
X39247500Y49717500D02*
X39666348Y49717500D01*
X41307561Y31480000D02*
X41307561Y31610000D01*
X41534202Y49491980D02*
X41748682Y49277500D01*
X35953848Y31770000D02*
X40747561Y31770000D01*
X48740000Y39754505D02*
X48740000Y39634505D01*
X40833684Y49339866D02*
X40985798Y49491980D01*
X47690000Y35664505D02*
X47040000Y35664505D01*
X47800000Y42864505D02*
X47715000Y42864505D01*
X44844802Y49341846D02*
X45530000Y48656648D01*
X48170000Y37724505D02*
X48370000Y37724505D01*
X48740000Y42154505D02*
X48740000Y42034505D01*
X48370000Y40464505D02*
X48170000Y40464505D01*
X40059448Y49339866D02*
X40081814Y49317500D01*
X47715000Y41324505D02*
X47800000Y41324505D01*
X36123848Y30660000D02*
X35730000Y31053848D01*
X48740000Y43354505D02*
X48740000Y43234505D01*
X48370000Y38064505D02*
X48170000Y38064505D01*
X47800000Y41664505D02*
X47715000Y41664505D01*
X48060000Y37954505D02*
X48060000Y37834505D01*
X48370000Y39264505D02*
X48170000Y39264505D01*
X47800000Y41324505D02*
X48170000Y41324505D01*
X47800000Y42524505D02*
X48060000Y42524505D01*
X48370000Y35664505D02*
X48170000Y35664505D01*
X48370000Y36864505D02*
X48170000Y36864505D01*
X48170000Y42864505D02*
X47800000Y42864505D01*
X48170000Y41324505D02*
X48370000Y41324505D01*
X48060000Y36754505D02*
X48060000Y36634505D01*
X47630000Y41579505D02*
X47630000Y41409505D01*
X48170000Y43724505D02*
X48370000Y43724505D01*
X47630000Y42779505D02*
X47630000Y42609505D01*
X48370000Y41664505D02*
X48060000Y41664505D01*
X41547561Y31770000D02*
X42300000Y31770000D01*
X48060000Y34200000D02*
X48060000Y32592304D01*
X48060000Y40354505D02*
X48060000Y40234505D01*
X41467561Y31770000D02*
X41547561Y31770000D01*
X48740000Y37354505D02*
X48740000Y37234505D01*
X48060000Y42524505D02*
X48370000Y42524505D01*
X44352531Y49341845D02*
X44844802Y49341846D01*
X48370000Y42864505D02*
X48170000Y42864505D01*
X48740000Y36154505D02*
X48740000Y36034505D01*
X48170000Y36524505D02*
X48370000Y36524505D01*
X40043982Y49339866D02*
X40059448Y49339866D01*
X46930000Y35554505D02*
X46930000Y35434505D01*
X36470000Y30940000D02*
X36190000Y30660000D01*
X40435552Y49339866D02*
X40833684Y49339866D01*
X48170000Y40124505D02*
X48370000Y40124505D01*
X48060000Y34834505D02*
X48060000Y34200000D01*
X48060000Y34954505D02*
X48060000Y34834505D01*
X35730000Y31546152D02*
X35953848Y31770000D01*
X47237696Y31770000D02*
X42300000Y31770000D01*
X48060000Y39154505D02*
X48060000Y39034505D01*
X48740000Y40954505D02*
X48740000Y40834505D01*
X45530000Y48656648D02*
X45530000Y47353848D01*
X48060000Y32592304D02*
X47237696Y31770000D01*
X41067561Y31320000D02*
X41147561Y31320000D01*
X40413186Y49317500D02*
X40435552Y49339866D01*
X36190000Y30660000D02*
X36123848Y30660000D01*
X40081814Y49317500D02*
X40413186Y49317500D01*
X48060000Y44823848D02*
X48060000Y43834505D01*
X40985798Y49491980D02*
X41534202Y49491980D01*
X48170000Y35664505D02*
X47690000Y35664505D01*
X48740000Y38554505D02*
X48740000Y38434505D01*
X48060000Y37834505D02*
G75*
G03*
X48170000Y37724500I110000J-5D01*
G01*
X48370000Y41324505D02*
G75*
G02*
X48740005Y40954505I0J-370005D01*
G01*
X48740000Y40834505D02*
G75*
G02*
X48370000Y40464500I-370000J-5D01*
G01*
X48170000Y36864505D02*
G75*
G03*
X48059995Y36754505I0J-110005D01*
G01*
X47715000Y41664505D02*
G75*
G03*
X47629995Y41579505I0J-85005D01*
G01*
X48170000Y40464505D02*
G75*
G03*
X48059995Y40354505I0J-110005D01*
G01*
X41147561Y31320000D02*
G75*
G03*
X41307600Y31480000I39J160000D01*
G01*
X48170000Y38064505D02*
G75*
G03*
X48059995Y37954505I0J-110005D01*
G01*
X48060000Y39034505D02*
G75*
G03*
X48170000Y38924500I110000J-5D01*
G01*
X48060000Y43834505D02*
G75*
G03*
X48170000Y43724500I110000J-5D01*
G01*
X48370000Y38924505D02*
G75*
G02*
X48740005Y38554505I0J-370005D01*
G01*
X40907561Y31480000D02*
G75*
G03*
X41067561Y31319961I160039J0D01*
G01*
X48060000Y40234505D02*
G75*
G03*
X48170000Y40124500I110000J-5D01*
G01*
X48370000Y36524505D02*
G75*
G02*
X48740005Y36154505I0J-370005D01*
G01*
X40747561Y31770000D02*
G75*
G02*
X40907600Y31610000I39J-160000D01*
G01*
X48740000Y43234505D02*
G75*
G02*
X48370000Y42864500I-370000J-5D01*
G01*
X48740000Y37234505D02*
G75*
G02*
X48370000Y36864500I-370000J-5D01*
G01*
X46930000Y35434505D02*
G75*
G03*
X47040000Y35324500I110000J-5D01*
G01*
X48060000Y36634505D02*
G75*
G03*
X48170000Y36524500I110000J-5D01*
G01*
X48170000Y39264505D02*
G75*
G03*
X48059995Y39154505I0J-110005D01*
G01*
X47715000Y42864505D02*
G75*
G03*
X47629995Y42779505I0J-85005D01*
G01*
X48370000Y42524505D02*
G75*
G02*
X48740005Y42154505I0J-370005D01*
G01*
X48370000Y37724505D02*
G75*
G02*
X48740005Y37354505I0J-370005D01*
G01*
X48740000Y36034505D02*
G75*
G02*
X48370000Y35664500I-370000J-5D01*
G01*
X48740000Y38434505D02*
G75*
G02*
X48370000Y38064500I-370000J-5D01*
G01*
X47630000Y42609505D02*
G75*
G03*
X47715000Y42524500I85000J-5D01*
G01*
X48370000Y43724505D02*
G75*
G02*
X48740005Y43354505I0J-370005D01*
G01*
X48370000Y40124505D02*
G75*
G02*
X48740005Y39754505I0J-370005D01*
G01*
X47690000Y35324505D02*
G75*
G02*
X48060005Y34954505I0J-370005D01*
G01*
X41307561Y31610000D02*
G75*
G02*
X41467561Y31770039I160039J0D01*
G01*
X47630000Y41409505D02*
G75*
G03*
X47715000Y41324500I85000J-5D01*
G01*
X48740000Y42034505D02*
G75*
G02*
X48370000Y41664500I-370000J-5D01*
G01*
X48740000Y39634505D02*
G75*
G02*
X48370000Y39264500I-370000J-5D01*
G01*
X47040000Y35664505D02*
G75*
G03*
X46929995Y35554505I0J-110005D01*
G01*
%TO.N,DDR3_CLK_N*%
X46230000Y36756152D02*
X46820000Y36756152D01*
X45970000Y37666152D02*
X45230000Y37666152D01*
X47100000Y44426152D02*
X47100000Y44296152D01*
X45236451Y46231245D02*
X45314233Y46309026D01*
X44145001Y46771151D02*
X44433539Y46482613D01*
X46230000Y40266152D02*
X45970000Y40266152D01*
X47100000Y34026152D02*
X47100000Y33896152D01*
X44840000Y41176152D02*
X44840000Y41046152D01*
X46360000Y44556152D02*
X46970000Y44556152D01*
X46970000Y33766152D02*
X46360000Y33766152D01*
X44840000Y42476152D02*
X44840000Y42346152D01*
X45970000Y41566152D02*
X45230000Y41566152D01*
X44145001Y47105305D02*
X44145001Y46844460D01*
X46970000Y44166152D02*
X46360000Y44166152D01*
X39500000Y33077696D02*
X39500000Y33300000D01*
X44840000Y38576152D02*
X44840000Y38446152D01*
X45970000Y43256152D02*
X46230000Y43256152D01*
X45970000Y44166152D02*
X45230000Y44166152D01*
X45970000Y35326152D02*
X45970000Y35196152D01*
X44840000Y35976152D02*
X44840000Y35846152D01*
X46360000Y34156152D02*
X46970000Y34156152D01*
X45970000Y33376152D02*
X45970000Y33246152D01*
X45970000Y33246152D02*
X45970000Y32937696D01*
X47100000Y37926152D02*
X47100000Y37796152D01*
X46970000Y37666152D02*
X46230000Y37666152D01*
X39847696Y32730000D02*
X39500000Y33077696D01*
X45230000Y35456152D02*
X45840000Y35456152D01*
X45700000Y32730000D02*
X44795899Y32730000D01*
X45970000Y40656152D02*
X46230000Y40656152D01*
X43795899Y32730000D02*
X43350850Y32730000D01*
X44684908Y46231244D02*
X44684907Y46231246D01*
X46230000Y38056152D02*
X46970000Y38056152D01*
X45512221Y45403931D02*
X45604146Y45312006D01*
X44145001Y48354998D02*
X44145001Y48105305D01*
X46360000Y44166152D02*
X45970000Y44166152D01*
X46230000Y41566152D02*
X45970000Y41566152D01*
X46230000Y42866152D02*
X45970000Y42866152D01*
X46950000Y36626152D02*
X46950000Y36496152D01*
X45230000Y41956152D02*
X45970000Y41956152D01*
X44095899Y33180000D02*
X44095899Y32930000D01*
X46230000Y40656152D02*
X46970000Y40656152D01*
X46820000Y36366152D02*
X46230000Y36366152D01*
X45230000Y39356152D02*
X45970000Y39356152D01*
X45840000Y36366152D02*
X45230000Y36366152D01*
X44840000Y37276152D02*
X44840000Y37146152D01*
X46230000Y43256152D02*
X46770000Y43256152D01*
X45970000Y38966152D02*
X45230000Y38966152D01*
X44433539Y46482613D02*
X44684908Y46231244D01*
X45970000Y41956152D02*
X46230000Y41956152D01*
X46230000Y37666152D02*
X45970000Y37666152D01*
X46970000Y40266152D02*
X46230000Y40266152D01*
X45970000Y36756152D02*
X46230000Y36756152D01*
X45140000Y34676152D02*
X45140000Y34546152D01*
X44395899Y33380000D02*
X44295899Y33380000D01*
X46770000Y42866152D02*
X46230000Y42866152D01*
X44595899Y32930000D02*
X44595899Y33180000D01*
X45530000Y34156152D02*
X45840000Y34156152D01*
X45970000Y32937696D02*
X45762304Y32730000D01*
X46230000Y39356152D02*
X46970000Y39356152D01*
X45230000Y36756152D02*
X45970000Y36756152D01*
X46230000Y36366152D02*
X45840000Y36366152D01*
X46970000Y38966152D02*
X46230000Y38966152D01*
X43350850Y32730000D02*
X39847696Y32730000D01*
X44840000Y43776152D02*
X44840000Y43646152D01*
X46230000Y38966152D02*
X45970000Y38966152D01*
X45840000Y35066152D02*
X45530000Y35066152D01*
X44840000Y39876152D02*
X44840000Y39746152D01*
X45970000Y38056152D02*
X46230000Y38056152D01*
X44145001Y47205305D02*
X44145001Y47105305D01*
X43145001Y47705305D02*
X43145001Y47605305D01*
X47100000Y39226152D02*
X47100000Y39096152D01*
X45604146Y45312006D02*
X45970000Y44946152D01*
X45762304Y32730000D02*
X45700000Y32730000D01*
X46900000Y41826152D02*
X46900000Y41696152D01*
X47100000Y40526152D02*
X47100000Y40396152D01*
X45230000Y38056152D02*
X45970000Y38056152D01*
X46230000Y41956152D02*
X46770000Y41956152D01*
X44000000Y48500000D02*
X44145001Y48354998D01*
X45970000Y40266152D02*
X45230000Y40266152D01*
X43945001Y47905305D02*
X43345001Y47905305D01*
X43345001Y47405305D02*
X43945001Y47405305D01*
X46770000Y41566152D02*
X46230000Y41566152D01*
X45230000Y43256152D02*
X45970000Y43256152D01*
X45590004Y46033255D02*
X45512221Y45955475D01*
X45970000Y39356152D02*
X46230000Y39356152D01*
X45230000Y40656152D02*
X45970000Y40656152D01*
X45840000Y34156152D02*
X46360000Y34156152D01*
X43895899Y32730000D02*
X43795899Y32730000D01*
X45498081Y46309026D02*
X45590004Y46217103D01*
X44145001Y46844460D02*
X44145001Y46771151D01*
X45970000Y42866152D02*
X45230000Y42866152D01*
X46900000Y43126152D02*
X46900000Y42996152D01*
X45230000Y41566152D02*
G75*
G03*
X44840048Y41176152I0J-389952D01*
G01*
X45590004Y46217103D02*
G75*
G02*
X45589983Y46033276I-91904J-91903D01*
G01*
X43145001Y47605305D02*
G75*
G03*
X43345001Y47405301I199999J-5D01*
G01*
X47100000Y33896152D02*
G75*
G02*
X46970000Y33766200I-130000J48D01*
G01*
X45970000Y35196152D02*
G75*
G02*
X45840000Y35066200I-130000J48D01*
G01*
X43345001Y47905305D02*
G75*
G03*
X43144995Y47705305I-1J-200005D01*
G01*
X44095899Y32930000D02*
G75*
G02*
X43895899Y32730001I-199999J0D01*
G01*
X44840000Y39746152D02*
G75*
G03*
X45230000Y39356200I390000J48D01*
G01*
X45230000Y37666152D02*
G75*
G03*
X44840048Y37276152I0J-389952D01*
G01*
X44840000Y43646152D02*
G75*
G03*
X45230000Y43256200I390000J48D01*
G01*
X46970000Y44556152D02*
G75*
G02*
X47099952Y44426152I0J-129952D01*
G01*
X44145001Y48105305D02*
G75*
G02*
X43945001Y47905299I-200001J-5D01*
G01*
X46950000Y36496152D02*
G75*
G02*
X46820000Y36366200I-130000J48D01*
G01*
X46970000Y34156152D02*
G75*
G02*
X47099952Y34026152I0J-129952D01*
G01*
X44795899Y32730000D02*
G75*
G02*
X44595900Y32930000I1J200000D01*
G01*
X45512221Y45955475D02*
G75*
G03*
X45512218Y45403928I275779J-275775D01*
G01*
X43945001Y47405305D02*
G75*
G02*
X44145005Y47205305I-1J-200005D01*
G01*
X44840000Y37146152D02*
G75*
G03*
X45230000Y36756200I390000J48D01*
G01*
X46970000Y39356152D02*
G75*
G02*
X47099952Y39226152I0J-129952D01*
G01*
X45230000Y36366152D02*
G75*
G03*
X44840048Y35976152I0J-389952D01*
G01*
X45140000Y34546152D02*
G75*
G03*
X45530000Y34156200I390000J48D01*
G01*
X44595899Y33180000D02*
G75*
G03*
X44395899Y33379999I-199999J0D01*
G01*
X47100000Y39096152D02*
G75*
G02*
X46970000Y38966200I-130000J48D01*
G01*
X46360000Y33766152D02*
G75*
G03*
X45970048Y33376152I0J-389952D01*
G01*
X46820000Y36756152D02*
G75*
G02*
X46949952Y36626152I0J-129952D01*
G01*
X47100000Y40396152D02*
G75*
G02*
X46970000Y40266200I-130000J48D01*
G01*
X44840000Y35846152D02*
G75*
G03*
X45230000Y35456200I390000J48D01*
G01*
X45840000Y35456152D02*
G75*
G02*
X45969952Y35326152I0J-129952D01*
G01*
X46900000Y42996152D02*
G75*
G02*
X46770000Y42866200I-130000J48D01*
G01*
X47100000Y37796152D02*
G75*
G02*
X46970000Y37666200I-130000J48D01*
G01*
X45314233Y46309026D02*
G75*
G02*
X45498081Y46309026I91924J-91925D01*
G01*
X44840000Y41046152D02*
G75*
G03*
X45230000Y40656200I390000J48D01*
G01*
X45970000Y44946152D02*
G75*
G03*
X46360000Y44556200I390000J48D01*
G01*
X45230000Y42866152D02*
G75*
G03*
X44840048Y42476152I0J-389952D01*
G01*
X44684907Y46231246D02*
G75*
G03*
X45236472Y46231224I275793J275754D01*
G01*
X45230000Y40266152D02*
G75*
G03*
X44840048Y39876152I0J-389952D01*
G01*
X45230000Y38966152D02*
G75*
G03*
X44840048Y38576152I0J-389952D01*
G01*
X44295899Y33380000D02*
G75*
G03*
X44095900Y33180000I1J-200000D01*
G01*
X45530000Y35066152D02*
G75*
G03*
X45140048Y34676152I0J-389952D01*
G01*
X47100000Y44296152D02*
G75*
G02*
X46970000Y44166200I-130000J48D01*
G01*
X46770000Y41956152D02*
G75*
G02*
X46899952Y41826152I0J-129952D01*
G01*
X46970000Y38056152D02*
G75*
G02*
X47099952Y37926152I0J-129952D01*
G01*
X46970000Y40656152D02*
G75*
G02*
X47099952Y40526152I0J-129952D01*
G01*
X44840000Y42346152D02*
G75*
G03*
X45230000Y41956200I390000J48D01*
G01*
X44840000Y38446152D02*
G75*
G03*
X45230000Y38056200I390000J48D01*
G01*
X46770000Y43256152D02*
G75*
G02*
X46899952Y43126152I0J-129952D01*
G01*
X46900000Y41696152D02*
G75*
G02*
X46770000Y41566200I-130000J48D01*
G01*
X45230000Y44166152D02*
G75*
G03*
X44840048Y43776152I0J-389952D01*
G01*
%TO.N,MMC_DAT0*%
D24*
X47100000Y59900000D02*
X47505000Y59495000D01*
X50890000Y58300000D02*
X64800000Y58300000D01*
X47505000Y59495000D02*
X49695000Y59495000D01*
X44600000Y65060000D02*
X44600000Y63200000D01*
X81700000Y54100000D02*
X81700000Y54800000D01*
X45477500Y62322500D02*
X45477500Y60634492D01*
X81000000Y53400000D02*
X81700000Y54100000D01*
X44600000Y63200000D02*
X45477500Y62322500D01*
X45477500Y60634492D02*
X46211992Y59900000D01*
X44090000Y65570000D02*
X44600000Y65060000D01*
X46211992Y59900000D02*
X47100000Y59900000D01*
X49695000Y59495000D02*
X50890000Y58300000D01*
X64800000Y58300000D02*
X69700000Y53400000D01*
X69700000Y53400000D02*
X81000000Y53400000D01*
%TO.N,DDR3_CLK_P*%
D25*
X45681928Y46492874D02*
X45773851Y46400951D01*
X47360000Y40526152D02*
X47360000Y40396152D01*
X45970000Y42216152D02*
X46230000Y42216152D01*
X45970000Y43906152D02*
X45230000Y43906152D01*
X47360000Y39226152D02*
X47360000Y39096152D01*
X47360000Y44426152D02*
X47360000Y44296152D01*
X45840000Y34416152D02*
X46360000Y34416152D01*
X46970000Y37406152D02*
X46230000Y37406152D01*
X46360000Y34416152D02*
X46970000Y34416152D01*
X46230000Y40916152D02*
X46970000Y40916152D01*
X46970000Y33506152D02*
X46360000Y33506152D01*
X45100000Y39876152D02*
X45100000Y39746152D01*
X46820000Y36106152D02*
X46230000Y36106152D01*
X45970000Y43516152D02*
X46230000Y43516152D01*
X46230000Y38316152D02*
X46970000Y38316152D01*
X47160000Y41826152D02*
X47160000Y41696152D01*
X44868756Y46415092D02*
X44868754Y46415093D01*
X45230000Y39616152D02*
X45970000Y39616152D01*
X45696070Y45587777D02*
X45787994Y45495854D01*
X45840000Y34806152D02*
X45530000Y34806152D01*
X39740000Y32470000D02*
X38890000Y33320000D01*
X45970000Y40916152D02*
X46230000Y40916152D01*
X45787994Y45495854D02*
X46230000Y45053848D01*
X45400000Y34676152D02*
X45400000Y34546152D01*
X44550003Y48500000D02*
X44405001Y48354998D01*
X46230000Y41306152D02*
X45970000Y41306152D01*
X45970000Y40006152D02*
X45230000Y40006152D01*
X45100000Y37276152D02*
X45100000Y37146152D01*
X45970000Y37016152D02*
X46230000Y37016152D01*
X46770000Y42606152D02*
X46230000Y42606152D01*
X45700000Y32470000D02*
X39740000Y32470000D01*
X45230000Y40916152D02*
X45970000Y40916152D01*
X45230000Y42216152D02*
X45970000Y42216152D01*
X45840000Y36106152D02*
X45230000Y36106152D01*
X46230000Y35326152D02*
X46230000Y35196152D01*
X45230000Y43516152D02*
X45970000Y43516152D01*
X47210000Y36626152D02*
X47210000Y36496152D01*
X46230000Y37406152D02*
X45970000Y37406152D01*
X45530000Y34416152D02*
X45840000Y34416152D01*
X44405001Y48354998D02*
X44405001Y46878847D01*
X46230000Y38706152D02*
X45970000Y38706152D01*
X46360000Y44816152D02*
X46970000Y44816152D01*
X45230000Y35716152D02*
X45840000Y35716152D01*
X45100000Y41176152D02*
X45100000Y41046152D01*
X46230000Y45053848D02*
X46230000Y44946152D01*
X46230000Y36106152D02*
X45840000Y36106152D01*
X45773851Y45849407D02*
X45696070Y45771625D01*
X46970000Y43906152D02*
X46360000Y43906152D01*
X45870000Y32470000D02*
X45700000Y32470000D01*
X46970000Y40006152D02*
X46230000Y40006152D01*
X46230000Y33376152D02*
X46230000Y33246152D01*
X45100000Y43776152D02*
X45100000Y43646152D01*
X47360000Y37926152D02*
X47360000Y37796152D01*
X45970000Y42606152D02*
X45230000Y42606152D01*
X46230000Y43516152D02*
X46770000Y43516152D01*
X45230000Y38316152D02*
X45970000Y38316152D01*
X46230000Y32830000D02*
X45870000Y32470000D01*
X45970000Y38706152D02*
X45230000Y38706152D01*
X45970000Y38316152D02*
X46230000Y38316152D01*
X45230000Y37016152D02*
X45970000Y37016152D01*
X45970000Y37406152D02*
X45230000Y37406152D01*
X45052604Y46415091D02*
X45130384Y46492874D01*
X45100000Y38576152D02*
X45100000Y38446152D01*
X45970000Y41306152D02*
X45230000Y41306152D01*
X45100000Y35976152D02*
X45100000Y35846152D01*
X45100000Y42476152D02*
X45100000Y42346152D01*
X46230000Y42216152D02*
X46770000Y42216152D01*
X47360000Y34026152D02*
X47360000Y33896152D01*
X46230000Y37016152D02*
X46820000Y37016152D01*
X47160000Y43126152D02*
X47160000Y42996152D01*
X46230000Y33246152D02*
X46230000Y32830000D01*
X45970000Y39616152D02*
X46230000Y39616152D01*
X44405001Y46878847D02*
X44868756Y46415092D01*
X46230000Y40006152D02*
X45970000Y40006152D01*
X46360000Y43906152D02*
X45970000Y43906152D01*
X46230000Y42606152D02*
X45970000Y42606152D01*
X46770000Y41306152D02*
X46230000Y41306152D01*
X46970000Y38706152D02*
X46230000Y38706152D01*
X46230000Y39616152D02*
X46970000Y39616152D01*
X45230000Y36106152D02*
G75*
G03*
X45100048Y35976152I0J-129952D01*
G01*
X47160000Y42996152D02*
G75*
G02*
X46770000Y42606200I-390000J48D01*
G01*
X45230000Y43906152D02*
G75*
G03*
X45100048Y43776152I0J-129952D01*
G01*
X46970000Y39616152D02*
G75*
G02*
X47359952Y39226152I0J-389952D01*
G01*
X45100000Y39746152D02*
G75*
G03*
X45230000Y39616200I130000J48D01*
G01*
X46360000Y33506152D02*
G75*
G03*
X46230048Y33376152I0J-129952D01*
G01*
X46770000Y43516152D02*
G75*
G02*
X47159952Y43126152I0J-389952D01*
G01*
X46970000Y40916152D02*
G75*
G02*
X47359952Y40526152I0J-389952D01*
G01*
X45100000Y35846152D02*
G75*
G03*
X45230000Y35716200I130000J48D01*
G01*
X46230000Y35196152D02*
G75*
G02*
X45840000Y34806200I-390000J48D01*
G01*
X44868754Y46415093D02*
G75*
G03*
X45052624Y46415071I91946J91907D01*
G01*
X47360000Y37796152D02*
G75*
G02*
X46970000Y37406200I-390000J48D01*
G01*
X47360000Y44296152D02*
G75*
G02*
X46970000Y43906200I-390000J48D01*
G01*
X45230000Y38706152D02*
G75*
G03*
X45100048Y38576152I0J-129952D01*
G01*
X46970000Y44816152D02*
G75*
G02*
X47359952Y44426152I0J-389952D01*
G01*
X47210000Y36496152D02*
G75*
G02*
X46820000Y36106200I-390000J48D01*
G01*
X45100000Y42346152D02*
G75*
G03*
X45230000Y42216200I130000J48D01*
G01*
X45773851Y46400951D02*
G75*
G02*
X45773830Y45849428I-275751J-275751D01*
G01*
X45840000Y35716152D02*
G75*
G02*
X46229952Y35326152I0J-389952D01*
G01*
X47360000Y39096152D02*
G75*
G02*
X46970000Y38706200I-390000J48D01*
G01*
X46970000Y34416152D02*
G75*
G02*
X47359952Y34026152I0J-389952D01*
G01*
X47360000Y40396152D02*
G75*
G02*
X46970000Y40006200I-390000J48D01*
G01*
X45696070Y45771625D02*
G75*
G03*
X45696069Y45587776I91930J-91925D01*
G01*
X45230000Y42606152D02*
G75*
G03*
X45100048Y42476152I0J-129952D01*
G01*
X46970000Y38316152D02*
G75*
G02*
X47359952Y37926152I0J-389952D01*
G01*
X46820000Y37016152D02*
G75*
G02*
X47209952Y36626152I0J-389952D01*
G01*
X45230000Y40006152D02*
G75*
G03*
X45100048Y39876152I0J-129952D01*
G01*
X45530000Y34806152D02*
G75*
G03*
X45400048Y34676152I0J-129952D01*
G01*
X45230000Y37406152D02*
G75*
G03*
X45100048Y37276152I0J-129952D01*
G01*
X45100000Y37146152D02*
G75*
G03*
X45230000Y37016200I130000J48D01*
G01*
X47360000Y33896152D02*
G75*
G02*
X46970000Y33506200I-390000J48D01*
G01*
X46230000Y44946152D02*
G75*
G03*
X46360000Y44816200I130000J48D01*
G01*
X45100000Y43646152D02*
G75*
G03*
X45230000Y43516200I130000J48D01*
G01*
X45130384Y46492874D02*
G75*
G02*
X45681928Y46492874I275772J-275774D01*
G01*
X45400000Y34546152D02*
G75*
G03*
X45530000Y34416200I130000J48D01*
G01*
X45230000Y41306152D02*
G75*
G03*
X45100048Y41176152I0J-129952D01*
G01*
X45100000Y38446152D02*
G75*
G03*
X45230000Y38316200I130000J48D01*
G01*
X47160000Y41696152D02*
G75*
G02*
X46770000Y41306200I-390000J48D01*
G01*
X45100000Y41046152D02*
G75*
G03*
X45230000Y40916200I130000J48D01*
G01*
X46770000Y42216152D02*
G75*
G02*
X47159952Y41826152I0J-389952D01*
G01*
%TO.N,MMC_DAT7*%
D24*
X48011992Y62100000D02*
X50731992Y59380000D01*
X50731992Y59380000D02*
X65820000Y59380000D01*
X74400000Y54500000D02*
X74700000Y54800000D01*
X46330000Y62781992D02*
X47011992Y62100000D01*
X65820000Y59380000D02*
X70700000Y54500000D01*
X70700000Y54500000D02*
X74400000Y54500000D01*
X46330000Y64330000D02*
X46330000Y62781992D01*
X47011992Y62100000D02*
X48011992Y62100000D01*
X45090000Y65570000D02*
X46330000Y64330000D01*
%TO.N,MMC_DAT2*%
X50678083Y59045000D02*
X64855000Y59045000D01*
X47100450Y61011542D02*
X48711542Y61011542D01*
X46702500Y61409492D02*
X47100450Y61011542D01*
X44929492Y65182500D02*
X45025508Y65182500D01*
X45604004Y64604004D02*
X45604004Y62795996D01*
X44702500Y65409492D02*
X44929492Y65182500D01*
X46702500Y61697500D02*
X46702500Y61409492D01*
X45604004Y62795996D02*
X46702500Y61697500D01*
X45025508Y65182500D02*
X45604004Y64604004D01*
X45090000Y66570000D02*
X44702500Y66182500D01*
X79800000Y53900000D02*
X80700000Y54800000D01*
X70000000Y53900000D02*
X79800000Y53900000D01*
X64855000Y59045000D02*
X70000000Y53900000D01*
X44702500Y66182500D02*
X44702500Y65409492D01*
X48711542Y61011542D02*
X50678083Y59045000D01*
%TO.N,MMC_DAT6*%
X66040000Y59960000D02*
X70000000Y56000000D01*
X45702500Y65730508D02*
X45702500Y65421954D01*
X51151992Y59960000D02*
X66040000Y59960000D01*
X49655996Y61644004D02*
X49655996Y61455996D01*
X45702500Y65409492D02*
X45929492Y65182500D01*
X45702500Y66182500D02*
X45702500Y65730508D01*
X45929492Y65182500D02*
X45941954Y65182500D01*
X70000000Y56000000D02*
X72900000Y56000000D01*
X49144004Y62155996D02*
X49655996Y61644004D01*
X46090000Y66570000D02*
X45702500Y66182500D01*
X46605000Y64519454D02*
X46605000Y64195000D01*
X72900000Y56000000D02*
X74700000Y57800000D01*
X49655996Y61455996D02*
X51151992Y59960000D01*
X46605000Y64195000D02*
X48644004Y62155996D01*
X48644004Y62155996D02*
X49144004Y62155996D01*
X45941954Y65182500D02*
X46605000Y64519454D01*
X45702500Y65421954D02*
X45702500Y65409492D01*
%TO.N,MMC_DAT5*%
X50920000Y61860000D02*
X65680000Y61860000D01*
X48541992Y63570000D02*
X49210000Y63570000D01*
X65680000Y61860000D02*
X68670000Y58870000D01*
X77100000Y57500000D02*
X77100000Y56200000D01*
X77100000Y56200000D02*
X75700000Y54800000D01*
X47090000Y65021992D02*
X48541992Y63570000D01*
X49210000Y63570000D02*
X50920000Y61860000D01*
X75730000Y58870000D02*
X77100000Y57500000D01*
X68670000Y58870000D02*
X75730000Y58870000D01*
X47090000Y65570000D02*
X47090000Y65021992D01*
%TO.N,MMC_DAT4*%
X63162500Y61241281D02*
X63418781Y60985000D01*
X63418781Y60985000D02*
X63781219Y60985000D01*
X46600000Y66080000D02*
X46600000Y64925000D01*
X63781219Y60985000D02*
X64037500Y61241281D01*
X73437500Y58237500D02*
X75262500Y58237500D01*
X46600000Y64925000D02*
X48525000Y63000000D01*
X75262500Y58237500D02*
X75700000Y57800000D01*
X63162500Y61300000D02*
X63162500Y61241281D01*
X48525000Y63000000D02*
X48900000Y63000000D01*
X72700000Y57500000D02*
X73437500Y58237500D01*
X65200000Y61300000D02*
X69000000Y57500000D01*
X64037500Y61300000D02*
X65200000Y61300000D01*
X48900000Y63000000D02*
X50600000Y61300000D01*
X50600000Y61300000D02*
X63162500Y61300000D01*
X47090000Y66570000D02*
X46600000Y66080000D01*
X64037500Y61241281D02*
X64037500Y61300000D01*
X69000000Y57500000D02*
X72700000Y57500000D01*
%TO.N,MMC_DAT3*%
X48090000Y66570000D02*
X47702500Y66182500D01*
X65960000Y63100000D02*
X69860000Y59200000D01*
X80600000Y57700000D02*
X80700000Y57800000D01*
X51200000Y63100000D02*
X65960000Y63100000D01*
X47702500Y66182500D02*
X47702500Y65537500D01*
X76400000Y59200000D02*
X78325000Y57275000D01*
X79700000Y57700000D02*
X80600000Y57700000D01*
X78618781Y57262500D02*
X78981219Y57262500D01*
X78981219Y57262500D02*
X78993719Y57275000D01*
X47702500Y65537500D02*
X49228008Y64011992D01*
X79275000Y57275000D02*
X79700000Y57700000D01*
X78325000Y57275000D02*
X78606281Y57275000D01*
X69860000Y59200000D02*
X76400000Y59200000D01*
X78993719Y57275000D02*
X79275000Y57275000D01*
X49228008Y64011992D02*
X50288008Y64011992D01*
X50288008Y64011992D02*
X51200000Y63100000D01*
X78606281Y57275000D02*
X78618781Y57262500D01*
%TO.N,MMC_RSTN*%
X78880000Y58450000D02*
X78365000Y58965000D01*
X49368008Y65300000D02*
X49250508Y65182500D01*
X77300000Y59100000D02*
X74855000Y61545000D01*
X50811992Y65300000D02*
X49368008Y65300000D01*
X77946091Y58965000D02*
X77811091Y59100000D01*
X74855000Y61545000D02*
X69445000Y61545000D01*
X69445000Y61545000D02*
X65690000Y65300000D01*
X50929492Y65182500D02*
X50811992Y65300000D01*
X77811091Y59100000D02*
X77300000Y59100000D01*
X65690000Y65300000D02*
X51368008Y65300000D01*
X48811992Y65300000D02*
X48805000Y65300000D01*
X48702500Y66957500D02*
X48090000Y67570000D01*
X48929492Y65182500D02*
X48811992Y65300000D01*
X78800000Y57700000D02*
X78880000Y57780000D01*
X49250508Y65182500D02*
X48929492Y65182500D01*
X78880000Y57780000D02*
X78880000Y58450000D01*
X48805000Y65300000D02*
X48702500Y65197500D01*
X78365000Y58965000D02*
X77946091Y58965000D01*
X48702500Y65197500D02*
X48702500Y66957500D01*
X51250508Y65182500D02*
X50929492Y65182500D01*
X51368008Y65300000D02*
X51250508Y65182500D01*
%TO.N,MMC_DAT1*%
X82182692Y59240000D02*
X82808254Y58614438D01*
X71300000Y66000000D02*
X78060000Y59240000D01*
X78060000Y59240000D02*
X82182692Y59240000D01*
X49520000Y66000000D02*
X71300000Y66000000D01*
X49090000Y65570000D02*
X49520000Y66000000D01*
%TO.N,MMC_CLK*%
X77100000Y61400000D02*
X71500000Y67000000D01*
X71500000Y67000000D02*
X50520000Y67000000D01*
X50520000Y67000000D02*
X50090000Y66570000D01*
%TO.N,MMC_CMD*%
X50500000Y68000000D02*
X71400000Y68000000D01*
X79200000Y60200000D02*
X79200000Y59900000D01*
X50090000Y67570000D02*
X50090000Y67590000D01*
X71400000Y68000000D02*
X79200000Y60200000D01*
X50090000Y67590000D02*
X50500000Y68000000D01*
%TD*%
M02*
