%TF.GenerationSoftware,KiCad,Pcbnew,10.0.0*%
%TF.CreationDate,2026-03-28T20:46:44+01:00*%
%TF.ProjectId,artix-dc-scm,61727469-782d-4646-932d-73636d2e6b69,1.1.3*%
%TF.SameCoordinates,PX3950da0PYaafe6a0*%
%TF.FileFunction,Copper,L3,Inr*%
%TF.FilePolarity,Positive*%
%FSLAX46Y46*%
G04 Gerber Fmt 4.6, Leading zero omitted, Abs format (unit mm)*
G04 Created by KiCad (PCBNEW 10.0.0) date 2026-03-28 20:46:44*
%MOMM*%
%LPD*%
G01*
G04 APERTURE LIST*
%TA.AperFunction,ComponentPad*%
%ADD10R,1.700000X1.700000*%
%TD*%
%TA.AperFunction,ComponentPad*%
%ADD11C,1.700000*%
%TD*%
%TA.AperFunction,ComponentPad*%
%ADD12C,1.800000*%
%TD*%
%TA.AperFunction,ComponentPad*%
%ADD13R,1.530000X1.530000*%
%TD*%
%TA.AperFunction,ComponentPad*%
%ADD14C,1.530000*%
%TD*%
%TA.AperFunction,ComponentPad*%
%ADD15C,1.725000*%
%TD*%
%TA.AperFunction,ComponentPad*%
%ADD16C,2.100000*%
%TD*%
%TA.AperFunction,ComponentPad*%
%ADD17C,1.900000*%
%TD*%
%TA.AperFunction,ComponentPad*%
%ADD18R,1.600000X1.600000*%
%TD*%
%TA.AperFunction,ComponentPad*%
%ADD19C,1.600000*%
%TD*%
%TA.AperFunction,ComponentPad*%
%ADD20C,5.500000*%
%TD*%
%TA.AperFunction,ComponentPad*%
%ADD21C,6.000000*%
%TD*%
%TA.AperFunction,ViaPad*%
%ADD22C,0.400000*%
%TD*%
%TA.AperFunction,ViaPad*%
%ADD23C,0.500000*%
%TD*%
%TA.AperFunction,Conductor*%
%ADD24C,0.110000*%
%TD*%
%TA.AperFunction,Conductor*%
%ADD25C,0.175000*%
%TD*%
%TA.AperFunction,Conductor*%
%ADD26C,0.100000*%
%TD*%
%TA.AperFunction,Conductor*%
%ADD27C,0.160000*%
%TD*%
G04 APERTURE END LIST*
D10*
%TO.N,VCC3V3*%
%TO.C,J13*%
X84465000Y72114000D03*
D11*
%TO.N,/FPGA banks 34-35 & CFG/MODE2*%
X84465000Y69575000D03*
%TO.N,GND*%
X84465000Y67036000D03*
%TD*%
D12*
%TO.N,SPI0_CS_N*%
%TO.C,J4*%
X5030000Y76250000D03*
%TO.N,SPI0_MOSI*%
X7569000Y76250000D03*
%TO.N,SPI0_MISO*%
X10108000Y76250000D03*
%TO.N,SPI0_CLK*%
X12648000Y76250000D03*
%TO.N,GND*%
X15189000Y76250000D03*
%TO.N,VCC3V3*%
X17728000Y76250000D03*
%TO.N,TPM_PIRQ#*%
X5030000Y78789000D03*
%TO.N,TPM_RST*%
X7569000Y78789000D03*
%TO.N,TPM_GPIO*%
X10108000Y78789000D03*
%TO.N,TPM_PP*%
X12648000Y78789000D03*
%TO.N,GND*%
X15189000Y78789000D03*
%TO.N,VCC3V3*%
X17728000Y78789000D03*
%TD*%
D13*
%TO.N,Net-(J1-TRCT3)*%
%TO.C,J1*%
X39495000Y98465000D03*
D14*
%TO.N,/Ethernet/ETH3_N*%
X41527000Y98465000D03*
%TO.N,/Ethernet/ETH3_P*%
X43559000Y98465000D03*
%TO.N,/Ethernet/ETH2_P*%
X45591000Y98465000D03*
%TO.N,/Ethernet/ETH2_N*%
X47623000Y98465000D03*
%TO.N,Net-(J1-TRCT2)*%
X49655000Y98465000D03*
%TO.N,Net-(J1-TRCT4)*%
X38480000Y95925000D03*
%TO.N,/Ethernet/ETH4_P*%
X40511000Y95925000D03*
%TO.N,/Ethernet/ETH4_N*%
X42543000Y95925000D03*
%TO.N,/Ethernet/ETH1_N*%
X46607000Y95925000D03*
%TO.N,/Ethernet/ETH1_P*%
X48639000Y95925000D03*
%TO.N,Net-(J1-TRCT1)*%
X50671000Y95925000D03*
D15*
%TO.N,Net-(J1-Pad13)*%
X37550000Y112435000D03*
%TO.N,VCC3V3*%
X37550000Y114973000D03*
%TO.N,Net-(J1-Pad15)*%
X51601000Y112435000D03*
%TO.N,VCC3V3*%
X51601000Y114973000D03*
D16*
%TO.N,GND*%
X52730000Y103793000D03*
X36422000Y105195000D03*
%TD*%
D17*
%TO.N,VCC3V3*%
%TO.C,J7*%
X5026000Y72625000D03*
%TO.N,SPI0_MOSI*%
X7565000Y72625000D03*
%TO.N,SPI0_MISO*%
X10104000Y72625000D03*
%TO.N,SPI0_CLK*%
X12644000Y72625000D03*
%TO.N,SPI0_CS_N*%
X15185000Y72625000D03*
%TO.N,GND*%
X17724000Y72625000D03*
%TD*%
D18*
%TO.N,GND*%
%TO.C,J6*%
X82525000Y110745000D03*
D19*
%TO.N,VCC3V3*%
X82525000Y108745000D03*
%TO.N,GND*%
X80525000Y110745000D03*
%TO.N,JTAG_TMS*%
X80525000Y108745000D03*
%TO.N,GND*%
X78525000Y110745000D03*
%TO.N,JTAG_TCK*%
X78525000Y108745000D03*
%TO.N,GND*%
X76525000Y110745000D03*
%TO.N,JTAG_TDO*%
X76525000Y108745000D03*
%TO.N,GND*%
X74525000Y110745000D03*
%TO.N,JTAG_TDI*%
X74525000Y108745000D03*
%TO.N,GND*%
X72525000Y110745000D03*
%TO.N,unconnected-(J6-Pad12)*%
X72525000Y108745000D03*
%TO.N,GND*%
X70525000Y110745000D03*
%TO.N,unconnected-(J6-Pad14)*%
X70525000Y108745000D03*
%TD*%
D20*
%TO.N,unconnected-(MP1-Pad1)*%
%TO.C,MP1*%
X5500000Y99195000D03*
%TD*%
%TO.N,unconnected-(MP2-Pad1)*%
%TO.C,MP2*%
X84500000Y99195000D03*
%TD*%
D21*
%TO.N,unconnected-(H1-Pad1)*%
%TO.C,H1*%
X65870000Y97920000D03*
%TD*%
%TO.N,unconnected-(H2-Pad1)*%
%TO.C,H2*%
X13720000Y66900000D03*
%TD*%
D22*
%TO.N,PCIE_BMC_CLK_100_N*%
X34920000Y5200000D03*
%TO.N,PCIE_BMC_RX_P*%
X37920000Y3700000D03*
%TO.N,PCIE_BMC_RX_N*%
X38480000Y3700000D03*
X31150000Y55750000D03*
%TO.N,PCIE_BMC_CLK_100_P*%
X34420646Y5174536D03*
%TO.N,/Interfaces/PCIE_BMC_TX_C_P*%
X35020000Y18100000D03*
%TO.N,/Interfaces/PCIE_BMC_TX_C_N*%
X35580000Y18100000D03*
%TO.N,/Interfaces/PCIE_BMC_TX_C_P*%
X31247500Y51717500D03*
%TO.N,GND*%
X51200000Y70900000D03*
%TO.N,ULPI1_CLKOUT*%
X64300000Y71200000D03*
%TO.N,VCC3V3*%
X63300000Y71200000D03*
%TO.N,Net-(C20-Pad2)*%
X63800000Y71200000D03*
%TO.N,ULPI2_CLKOUT*%
X64100000Y55100000D03*
%TO.N,VCC3V3*%
X57300000Y51522500D03*
%TO.N,GND*%
X68200000Y50100000D03*
X68200000Y50600000D03*
%TO.N,VCC3V3*%
X68200000Y52500000D03*
%TO.N,GND*%
X66000000Y44800000D03*
%TO.N,Net-(C177-Pad2)*%
X63700000Y48400000D03*
%TO.N,VCC3V3*%
X62800000Y55100000D03*
%TO.N,Net-(C177-Pad2)*%
X63415166Y55115166D03*
D23*
%TO.N,GND*%
X79700000Y52800000D03*
D22*
X50122500Y52677500D03*
D23*
X79700000Y54800000D03*
D22*
X34247500Y54717500D03*
D23*
X82600000Y59700000D03*
D22*
X39247500Y58717500D03*
X36247500Y53717500D03*
X43122500Y55677500D03*
X36900000Y35980000D03*
X33250000Y60550000D03*
X36247500Y55717500D03*
X44122500Y50677500D03*
X36247500Y56717500D03*
X46122500Y56677500D03*
X40247500Y56717500D03*
X37247500Y56717500D03*
X39247500Y52717500D03*
X35247500Y58717500D03*
X44122500Y56677500D03*
X36250000Y62550000D03*
X41252000Y78602000D03*
D23*
X64900000Y119400000D03*
D22*
X32250000Y64550000D03*
X32247500Y57717500D03*
X49090000Y66570000D03*
X36247500Y52717500D03*
X33247500Y55717500D03*
D23*
X64800000Y114200000D03*
D22*
X35247500Y52717500D03*
X43090000Y64570000D03*
D23*
X80700000Y56800000D03*
D22*
X44122500Y54677500D03*
X36250000Y60550000D03*
D23*
X61400000Y115500000D03*
D22*
X46090000Y65570000D03*
X29900000Y70900000D03*
D23*
X79700000Y81300000D03*
X60300000Y62400000D03*
D22*
X51090000Y60570000D03*
D23*
X75700000Y56800000D03*
X77700000Y51800000D03*
D22*
X40247500Y57717500D03*
X34250000Y68550000D03*
X31250000Y60550000D03*
D23*
X74800000Y59700000D03*
D22*
X33250000Y61550000D03*
D23*
X60900000Y118100000D03*
D22*
X38800000Y21900000D03*
X39247500Y56717500D03*
X45122500Y55677500D03*
X33247500Y51717500D03*
X39200000Y25475000D03*
X47122500Y51677500D03*
X38247500Y55717500D03*
X47090000Y62570000D03*
X39250000Y63550000D03*
D23*
X67400000Y119500000D03*
D22*
X43122500Y56677500D03*
X38250000Y60550000D03*
D23*
X69200000Y114200000D03*
D22*
X42122500Y57677500D03*
X60800000Y44500000D03*
X50090000Y63570000D03*
X38250000Y66550000D03*
D23*
X82500000Y80300000D03*
D22*
X44200000Y68700000D03*
X46122500Y58677500D03*
X48122500Y58677500D03*
D23*
X71300000Y118200000D03*
D22*
X40920000Y28370000D03*
X40247500Y55717500D03*
D23*
X82500000Y81300000D03*
D22*
X45122500Y57677500D03*
X44122500Y58677500D03*
D23*
X74600000Y51800000D03*
D22*
X45090000Y60570000D03*
D23*
X80800000Y52700000D03*
D22*
X34247500Y51717500D03*
D23*
X82700000Y52800000D03*
D22*
X40247500Y49717500D03*
X47200000Y68700000D03*
X39247500Y54717500D03*
X38247500Y57717500D03*
X32480000Y30970000D03*
X32247500Y53717500D03*
X35250000Y65550000D03*
X37250000Y69550000D03*
X42122500Y54677500D03*
X37247500Y58717500D03*
D23*
X75700000Y51800000D03*
D22*
X34870000Y29320000D03*
X32250000Y60550000D03*
D23*
X79700000Y56700000D03*
D22*
X36247500Y57717500D03*
X42122500Y56677500D03*
X33247500Y50717500D03*
X43122500Y57677500D03*
X31247500Y50717500D03*
X42090000Y67570000D03*
X46122500Y54677500D03*
X44090000Y61570000D03*
X37200000Y18600000D03*
D23*
X69800000Y47900000D03*
D22*
X49122500Y55677500D03*
X34247500Y52717500D03*
D23*
X75700000Y52800000D03*
D22*
X51122500Y49677500D03*
X43122500Y53677500D03*
X46800000Y24300000D03*
X34247500Y58717500D03*
X37700000Y23575000D03*
X34247500Y56717500D03*
X38090000Y29350000D03*
X32247500Y50717500D03*
X42122500Y58677500D03*
X37247500Y54717500D03*
X31250000Y67550000D03*
X36247500Y54717500D03*
%TO.N,DDR3_VREF*%
X38050000Y28530000D03*
D23*
%TO.N,VCC3V3*%
X81700000Y51800000D03*
X81757063Y56744977D03*
X76600000Y52900000D03*
D22*
X46500000Y19000000D03*
D23*
X81700000Y52800000D03*
D22*
X32250000Y69550000D03*
X48090000Y64570000D03*
X45122500Y52677500D03*
X60800000Y46900000D03*
X46090000Y60570000D03*
X39250000Y68550000D03*
X33250000Y66550000D03*
X42090000Y62570000D03*
D23*
X82600000Y51700000D03*
D22*
X46122500Y49677500D03*
X37250000Y64550000D03*
D23*
X75700000Y59800000D03*
D22*
X31250000Y62550000D03*
X29800000Y65200000D03*
X48122500Y53677500D03*
X43800000Y78400000D03*
X51200000Y55600000D03*
D23*
X69800000Y46800000D03*
X63600000Y61422500D03*
D22*
X44090000Y66570000D03*
D23*
X81600000Y59700000D03*
D22*
X38250000Y61550000D03*
X49122500Y50677500D03*
X36250000Y67550000D03*
X47090000Y67570000D03*
D23*
X63700000Y63700000D03*
D22*
X51090000Y65570000D03*
X50090000Y68570000D03*
X40250000Y65550000D03*
D23*
X74700000Y50800000D03*
X79700000Y51800000D03*
D22*
X50122500Y57677500D03*
D23*
X79700000Y55800000D03*
D22*
X49090000Y61570000D03*
D23*
X74700000Y56700000D03*
X71200000Y62600000D03*
X60400000Y63800000D03*
D22*
X46500000Y20000000D03*
X35250000Y60550000D03*
D23*
X66100000Y63800000D03*
D22*
X43090000Y69570000D03*
D23*
X65600000Y47500000D03*
X75700000Y50800000D03*
D22*
X45090000Y63570000D03*
X44200000Y21600000D03*
D23*
X77700000Y50800000D03*
D22*
X34250000Y63550000D03*
%TO.N,VCC1V35*%
X37247500Y53717500D03*
X35247500Y49717500D03*
X34080000Y29320000D03*
X42122500Y51677500D03*
X41500000Y25075000D03*
X36500000Y33300000D03*
X37270000Y29320000D03*
X33270000Y29330000D03*
X38247500Y50717500D03*
X32470000Y30120000D03*
X39680000Y30130000D03*
X39300000Y20800000D03*
%TO.N,/FPGA banks 34-35 & CFG/MODE2*%
X47122500Y56677500D03*
%TO.N,/FPGA banks 34-35 & CFG/MODE0*%
X47122500Y58677500D03*
%TO.N,/FPGA banks 34-35 & CFG/MODE1*%
X47122500Y57677500D03*
%TO.N,PROGRAM*%
X43090000Y60570000D03*
%TO.N,VCC1V0*%
X35247500Y54717500D03*
X42122500Y55677500D03*
X43122500Y54677500D03*
X37247500Y55717500D03*
X44122500Y55677500D03*
X33247500Y53717500D03*
X35247500Y56717500D03*
X40247500Y58717500D03*
X38247500Y56717500D03*
X38247500Y58717500D03*
X34247500Y55717500D03*
X33247500Y57717500D03*
X40247500Y54717500D03*
X43122500Y58677500D03*
X38247500Y54717500D03*
X45122500Y56677500D03*
X46122500Y57677500D03*
X37247500Y57717500D03*
X45122500Y54677500D03*
X46122500Y55677500D03*
X39247500Y55717500D03*
X44122500Y57677500D03*
%TO.N,I3C[2]_SDA_3V3*%
X35250000Y67550000D03*
%TO.N,I3C[2]_SCL_3V3*%
X32250000Y67550000D03*
%TO.N,I3C[3]_SDA_3V3*%
X35250000Y66550000D03*
%TO.N,I3C[3]_SCL_3V3*%
X33250000Y67550000D03*
%TO.N,RSVD2*%
X50122500Y54677500D03*
%TO.N,SGPIO0_CLK*%
X49122500Y52677500D03*
%TO.N,DONE*%
X36247500Y58717500D03*
%TO.N,INIT*%
X47090000Y60570000D03*
%TO.N,PRSNT0_N_R*%
X34250000Y69550000D03*
%TO.N,VCC1V2*%
X32200000Y56600000D03*
X41800000Y78550000D03*
X32200000Y52700000D03*
D23*
X39400000Y80800000D03*
D22*
X31247500Y58717500D03*
X32247500Y51717500D03*
D23*
X39650000Y78800000D03*
D22*
X31247500Y54717500D03*
%TO.N,RGMII_RXD3*%
X39900000Y77550000D03*
%TO.N,RGMII_RXD2*%
X40775000Y77800000D03*
%TO.N,RGMII_RXD1*%
X41900000Y77550000D03*
%TO.N,RGMII_RXD0*%
X42900000Y77550000D03*
%TO.N,RGMII_RX_DV*%
X43650000Y77550000D03*
%TO.N,RGMII_RX_CLK*%
X44900000Y77550000D03*
%TO.N,ETH_MDIO*%
X42100000Y68700000D03*
%TO.N,ETH_INT_N*%
X43090000Y68570000D03*
%TO.N,RGMII_REF_CLK*%
X37250000Y67550000D03*
%TO.N,ETH_~{RESET}*%
X43090000Y66570000D03*
%TO.N,TPM_PIRQ#*%
X36250000Y65550000D03*
%TO.N,TPM_GPIO*%
X50090000Y69570000D03*
%TO.N,TPM_PP*%
X36250000Y66550000D03*
%TO.N,VCC1V8*%
X45122500Y58677500D03*
X44090000Y60570000D03*
X39247500Y57717500D03*
X34250000Y60550000D03*
X42090000Y60570000D03*
X39250000Y60550000D03*
X37250000Y60550000D03*
%TO.N,USB1_D_P*%
X65525000Y4200000D03*
X68700000Y69200000D03*
%TO.N,USB1_D_N*%
X68700000Y69750000D03*
X66075000Y4200000D03*
%TO.N,ULPI1_CLKOUT*%
X49090000Y67570000D03*
D23*
%TO.N,Net-(C20-Pad2)*%
X63900000Y64600000D03*
D22*
%TO.N,USB2_D_P*%
X63725000Y4100000D03*
X68433507Y53050000D03*
%TO.N,USB2_D_N*%
X68433507Y53600000D03*
X64275000Y4100000D03*
%TO.N,ULPI2_CLKOUT*%
X48122500Y51677500D03*
D23*
%TO.N,Net-(U18-VDDA1.8)*%
X65300000Y48200000D03*
D22*
%TO.N,I3C[1]_SCL_3V3*%
X33250000Y68550000D03*
%TO.N,DDR3_DQ12*%
X30660000Y48420000D03*
X31620000Y33300000D03*
%TO.N,/Interfaces/PCIE_BMC_TX_C_N*%
X30200000Y51700000D03*
%TO.N,unconnected-(U14A-IO_L5N_T0_13-PadAA14)*%
X51090000Y62570000D03*
%TO.N,DDR3_DQ8*%
X31690000Y48420000D03*
X34080000Y33340000D03*
%TO.N,DDR3_DQ9*%
X33530000Y31090000D03*
X31247500Y49717500D03*
%TO.N,PCIE_BMC_RX_P*%
X31200000Y56600000D03*
%TO.N,NCSI_CLK*%
X31250000Y61550000D03*
%TO.N,NCSI_RXD1*%
X31250000Y63550000D03*
%TO.N,DDR3_DQ15*%
X32247500Y49717500D03*
X31700000Y31000000D03*
%TO.N,I2C[8]_SCL*%
X32250000Y61550000D03*
%TO.N,I2C[8]_SDA*%
X32250000Y62550000D03*
%TO.N,NCSI_RXER*%
X32250000Y63550000D03*
%TO.N,/FPGA banks 13-16/GCLK100*%
X32250000Y66550000D03*
%TO.N,ROT_MOSI*%
X32250000Y68550000D03*
%TO.N,DDR3_DQS1_N*%
X32480000Y34120000D03*
X33380000Y48410000D03*
%TO.N,DDR3_DM1*%
X34250000Y31050000D03*
X33247500Y49717500D03*
%TO.N,NCSI_TXD0*%
X33250000Y62550000D03*
%TO.N,SPI0_CS_N_R*%
X33250000Y64550000D03*
%TO.N,UART0_SCM_RX*%
X33250000Y65550000D03*
%TO.N,DDR3_DQS1_P*%
X33345000Y34065000D03*
X34100000Y48410000D03*
%TO.N,DDR3_DQ14*%
X32500000Y34910000D03*
X34247500Y49717500D03*
%TO.N,DDR3_DQ13*%
X31500000Y30100000D03*
X34247500Y50717500D03*
%TO.N,PCIE_BMC_CLK_100_N*%
X34247500Y53717500D03*
%TO.N,I2C[7]_SDA*%
X34250000Y61550000D03*
%TO.N,NCSI_TXD1*%
X34250000Y62550000D03*
%TO.N,SPI0_CLK_R*%
X34250000Y64550000D03*
%TO.N,UART0_SCM_TX*%
X34250000Y65550000D03*
%TO.N,DDR3_DQ10*%
X34080000Y34120000D03*
X35240000Y48580000D03*
%TO.N,DDR3_DQ11*%
X33300000Y30100000D03*
X35247500Y50717500D03*
%TO.N,PCIE_BMC_CLK_100_P*%
X35247500Y53717500D03*
%TO.N,Net-(U14E-MGTRREF_216)*%
X35247500Y55717500D03*
%TO.N,I2C[7]_SCL*%
X35250000Y61550000D03*
%TO.N,I3C[1]_SDA_3V3*%
X35250000Y68550000D03*
%TO.N,ROT_GPIO2*%
X35250000Y69550000D03*
%TO.N,DDR3_DQ3*%
X36247500Y49717500D03*
X35690000Y34920000D03*
%TO.N,DDR3_DM0*%
X35250000Y33170000D03*
X36247500Y50717500D03*
%TO.N,I2C[6]_SDA*%
X36250000Y61550000D03*
%TO.N,ESPI_CS1_N*%
X36250000Y63550000D03*
%TO.N,RGMII_TXD0*%
X34400000Y83050000D03*
X36250000Y68550000D03*
%TO.N,DDR3_DQ0*%
X37247500Y49717500D03*
X34930000Y30890000D03*
%TO.N,DDR3_DQ1*%
X35670000Y34120000D03*
X37247500Y50717500D03*
%TO.N,DDR3_DQ4*%
X37247500Y51717500D03*
X37620000Y31110000D03*
%TO.N,DDR3_DQ6*%
X36470000Y29320000D03*
X37247500Y52717500D03*
%TO.N,I2C[6]_SCL*%
X37250000Y61550000D03*
%TO.N,ESPI_ALERT_N*%
X37250000Y66550000D03*
%TO.N,RGMII_TXD1*%
X34400000Y82050000D03*
X37250000Y68550000D03*
%TO.N,RGMII_TXD2*%
X34400000Y81050000D03*
X37650000Y71050000D03*
%TO.N,DDR3_DQ5*%
X37270000Y34120000D03*
X38920000Y48540000D03*
%TO.N,DDR3_DQS0_N*%
X36470000Y30120000D03*
X38247500Y49717500D03*
%TO.N,DDR3_CAS*%
X38247500Y51717500D03*
X39300000Y31100000D03*
%TO.N,DDR3_DQ2*%
X35730000Y29380000D03*
X38247500Y52717500D03*
%TO.N,DDR3_BA0*%
X38247500Y53717500D03*
X40510000Y30100000D03*
%TO.N,I2C[2]_SDA*%
X38250000Y62550000D03*
%TO.N,I2C[0]_SDA*%
X38250000Y63550000D03*
%TO.N,I2C[0]_SCL*%
X38250000Y64550000D03*
%TO.N,RGMII_TX_CLK*%
X38250000Y67550000D03*
X35150000Y78300000D03*
%TO.N,RGMII_TXD3*%
X34400000Y79800000D03*
X37650000Y72050000D03*
%TO.N,RGMII_TX_DV*%
X38900000Y76300000D03*
X38650000Y70800000D03*
%TO.N,DDR3_DQ7*%
X39530000Y48530000D03*
X37300000Y33350000D03*
%TO.N,DDR3_DQS0_P*%
X36470000Y30940000D03*
X39247500Y49717500D03*
%TO.N,DDR3_WE*%
X39900000Y31050000D03*
X39247500Y50717500D03*
%TO.N,DDR3_RAS*%
X39247500Y51717500D03*
X38220000Y30940000D03*
%TO.N,DDR3_ODT*%
X39247500Y53717500D03*
X39150000Y28300000D03*
%TO.N,I2C[4]_SCL*%
X39250000Y61550000D03*
%TO.N,I2C[3]_SCL*%
X39250000Y62550000D03*
%TO.N,ESPI_IO2*%
X39250000Y64550000D03*
%TO.N,ESPI_IO0*%
X39250000Y65550000D03*
%TO.N,ESPI_CS0_N*%
X39250000Y66550000D03*
%TO.N,/FPGA banks 13-16/RGMII_CLK_FPGA*%
X44300000Y71800000D03*
X40100000Y67500000D03*
%TO.N,DDR3_A3*%
X40690000Y48460000D03*
X41300000Y30120000D03*
%TO.N,DDR3_A10*%
X40247500Y50717500D03*
X40330000Y33340000D03*
%TO.N,DDR3_BA2*%
X40247500Y51717500D03*
X40790000Y30980000D03*
%TO.N,DDR3_CKE*%
X40247500Y52717500D03*
X39230000Y35740000D03*
%TO.N,DDR3_A12*%
X41290000Y33340000D03*
X40247500Y53717500D03*
%TO.N,ROT_QSPI_SCK*%
X40250000Y60550000D03*
%TO.N,I2C[4]_SDA*%
X40250000Y61550000D03*
%TO.N,I2C[2]_SCL*%
X40250000Y62550000D03*
%TO.N,I2C[1]_SCL*%
X40250000Y63550000D03*
%TO.N,ESPI_IO3*%
X40250000Y64550000D03*
%TO.N,ESPI_CLK*%
X40250000Y66550000D03*
%TO.N,/FPGA banks 13-16/RGMII_RXD0_FPGA*%
X40200000Y68600000D03*
X42300000Y71800000D03*
%TO.N,DDR3_BA1*%
X41260000Y48830000D03*
X41280000Y34910000D03*
%TO.N,DDR3_A0*%
X41750000Y31030000D03*
X42122500Y49677500D03*
%TO.N,DDR3_A2*%
X42475000Y31000000D03*
X42122500Y50677500D03*
%TO.N,DDR3_A1*%
X42122500Y52677500D03*
X42370000Y33290000D03*
%TO.N,DDR3_A9*%
X43275000Y31000000D03*
X42122500Y53677500D03*
%TO.N,I2C[3]_SDA*%
X42090000Y61570000D03*
%TO.N,I2C[1]_SDA*%
X42090000Y63570000D03*
%TO.N,ESPI_IO1*%
X42090000Y64570000D03*
%TO.N,ESPI_RESET_N*%
X42090000Y65570000D03*
%TO.N,DDR3_A4*%
X42830000Y34860000D03*
X43122500Y49677500D03*
%TO.N,DDR3_A6*%
X43122500Y50677500D03*
X43660000Y34150000D03*
%TO.N,DDR3_A14*%
X44580000Y33760000D03*
X43122500Y51677500D03*
%TO.N,DDR3_A7*%
X43122500Y52677500D03*
X43680000Y29330000D03*
%TO.N,I2C[5]_SCL*%
X43090000Y61570000D03*
%TO.N,I2C[5]_SDA*%
X43090000Y62570000D03*
%TO.N,DDR3_CLK_N*%
X44000000Y48500000D03*
X39500000Y33300000D03*
%TO.N,DDR3_A8*%
X44122500Y49677500D03*
X44710000Y34550000D03*
%TO.N,DDR3_A11*%
X43570000Y33410000D03*
X44122500Y51677500D03*
%TO.N,DDR3_A13*%
X44490000Y30930000D03*
X44122500Y52677500D03*
%TO.N,DDR3_A5*%
X42790000Y29400000D03*
X44122500Y53677500D03*
%TO.N,HPM_STBY_RDY_R*%
X44090000Y64570000D03*
D23*
%TO.N,MMC_DAT0*%
X81700000Y54800000D03*
D22*
X44090000Y65570000D03*
%TO.N,DBG_UART_RX*%
X44090000Y67570000D03*
%TO.N,ROT_QSPI_DQ2*%
X44090000Y69570000D03*
%TO.N,DDR3_CLK_P*%
X44550003Y48500000D03*
X38890000Y33320000D03*
%TO.N,QSPI1_D0*%
X45122500Y50677500D03*
%TO.N,QSPI1_CLK*%
X45122500Y51677500D03*
%TO.N,JTAG_TDI*%
X45090000Y61570000D03*
D23*
%TO.N,MMC_DAT7*%
X74700000Y54800000D03*
D22*
X45090000Y65570000D03*
D23*
%TO.N,MMC_DAT2*%
X80700000Y54800000D03*
D22*
X45090000Y66570000D03*
%TO.N,DBG_UART_TX*%
X45090000Y67570000D03*
%TO.N,ROT_QSPI_DQ3*%
X45090000Y69570000D03*
%TO.N,QSPI1_D2*%
X46122500Y50677500D03*
%TO.N,QSPI1_D1*%
X46122500Y51677500D03*
%TO.N,I2C[9]_SCL*%
X46122500Y52677500D03*
%TO.N,I2C[9]_SDA*%
X46122500Y53677500D03*
%TO.N,JTAG_TMS*%
X46090000Y61570000D03*
%TO.N,MMC_DAT6*%
X46090000Y66570000D03*
D23*
X74700000Y57800000D03*
D22*
%TO.N,Net-(U14A-IO_L6P_T0_FCS_B_14)*%
X46090000Y67570000D03*
%TO.N,USR_LED0*%
X45200000Y68600000D03*
%TO.N,UART1_SCM_RX*%
X46090000Y69570000D03*
%TO.N,HPM_FW_RECOVERY_R*%
X47122500Y50677500D03*
%TO.N,SGPIO_RESET_N*%
X47122500Y52677500D03*
%TO.N,I2C[10]_SCL*%
X47122500Y53677500D03*
%TO.N,SGPIO_INTR_N*%
X47122500Y54677500D03*
%TO.N,Net-(U14D-CFGBVS_0)*%
X47122500Y55677500D03*
%TO.N,JTAG_TDO*%
X47090000Y61570000D03*
%TO.N,MMC_DAT5*%
X47090000Y65570000D03*
D23*
X75700000Y54800000D03*
D22*
%TO.N,MMC_DAT4*%
X47090000Y66570000D03*
D23*
X75700000Y57800000D03*
D22*
%TO.N,USR_LED1*%
X46200000Y68600000D03*
%TO.N,UART1_SCM_TX*%
X47090000Y69570000D03*
%TO.N,SYS_PWROK_R*%
X48122500Y50677500D03*
%TO.N,SGPIO0_DO*%
X48122500Y52677500D03*
%TO.N,SGPIO0_LD*%
X48122500Y54677500D03*
%TO.N,I2C[12]_SCL*%
X48122500Y55677500D03*
%TO.N,I2C[12]_SDA*%
X48122500Y56677500D03*
%TO.N,JTAG_TCK*%
X48090000Y60570000D03*
%TO.N,HPM_STBY_EN_R*%
X48200000Y65700000D03*
D23*
%TO.N,MMC_DAT3*%
X80700000Y57800000D03*
D22*
X48090000Y66570000D03*
D23*
%TO.N,MMC_RSTN*%
X78800000Y57700000D03*
D22*
X48090000Y67570000D03*
%TO.N,SGPIO0_DI*%
X49122500Y51677500D03*
%TO.N,I2C[10]_SDA*%
X49122500Y53677500D03*
%TO.N,I2C[11]_SCL*%
X49122500Y54677500D03*
%TO.N,I2C[11]_SDA*%
X49122500Y56677500D03*
%TO.N,MMC_DAT1*%
X49090000Y65570000D03*
D23*
X82808254Y58614438D03*
D22*
%TO.N,USR_LED2*%
X49090000Y68570000D03*
%TO.N,CHASI#_R*%
X50122500Y50677500D03*
%TO.N,SGPIO1_DO*%
X50122500Y53677500D03*
%TO.N,SGPIO1_DI*%
X50122500Y55677500D03*
%TO.N,SGPIO1_LD*%
X50122500Y56677500D03*
%TO.N,MMC_CLK*%
X50090000Y66570000D03*
D23*
X77100000Y61400000D03*
D22*
%TO.N,MMC_CMD*%
X50090000Y67570000D03*
D23*
X79200000Y59900000D03*
%TO.N,Net-(U1-VDDIM)*%
X79700000Y49800000D03*
%TO.N,Net-(U1-DS)*%
X84500000Y63700000D03*
X78800000Y54800000D03*
%TO.N,Net-(U1-CLK)*%
X78200000Y59900000D03*
D22*
%TO.N,/Interfaces/DBG_USB_D_N*%
X66675000Y111550000D03*
X66675000Y114300000D03*
X75400000Y89300000D03*
%TO.N,/Interfaces/DBG_USB_D_P*%
X66125000Y114300000D03*
X66125000Y111550000D03*
X74650000Y89300000D03*
%TO.N,DDR3_CS*%
X39670000Y29330000D03*
%TD*%
%TO.N,PCIE_BMC_RX_N*%
D24*
X38335000Y4055920D02*
X38335000Y3845000D01*
X33755920Y4635000D02*
X37755920Y4635000D01*
%TO.N,PCIE_BMC_RX_P*%
X33644080Y4365000D02*
X37644080Y4365000D01*
%TO.N,PCIE_BMC_RX_N*%
X33135000Y13755920D02*
X33135000Y5255920D01*
X30855920Y16035000D02*
X33135000Y13755920D01*
%TO.N,PCIE_BMC_RX_P*%
X30744080Y15765000D02*
X32865000Y13644080D01*
X18665000Y24744080D02*
X27644080Y15765000D01*
%TO.N,PCIE_BMC_RX_N*%
X18935000Y24855920D02*
X27755920Y16035000D01*
X31150000Y55750000D02*
X30885000Y56015000D01*
X27755920Y16035000D02*
X30855920Y16035000D01*
X18935000Y50044080D02*
X18935000Y24855920D01*
X24905920Y56015000D02*
X18935000Y50044080D01*
%TO.N,PCIE_BMC_RX_P*%
X38065000Y3845000D02*
X37920000Y3700000D01*
%TO.N,PCIE_BMC_RX_N*%
X38335000Y3845000D02*
X38480000Y3700000D01*
X33135000Y5255920D02*
X33755920Y4635000D01*
%TO.N,PCIE_BMC_RX_P*%
X32865000Y5144080D02*
X33644080Y4365000D01*
X30885000Y56285000D02*
X24794080Y56285000D01*
%TO.N,PCIE_BMC_RX_N*%
X37755920Y4635000D02*
X38335000Y4055920D01*
%TO.N,PCIE_BMC_RX_P*%
X38065000Y3944080D02*
X38065000Y3845000D01*
%TO.N,PCIE_BMC_RX_N*%
X30885000Y56015000D02*
X24905920Y56015000D01*
%TO.N,PCIE_BMC_RX_P*%
X18665000Y50155920D02*
X18665000Y24744080D01*
X24794080Y56285000D02*
X18665000Y50155920D01*
X37644080Y4365000D02*
X38065000Y3944080D01*
X31200000Y56600000D02*
X30885000Y56285000D01*
X32865000Y13644080D02*
X32865000Y5144080D01*
X27644080Y15765000D02*
X30744080Y15765000D01*
%TO.N,PCIE_BMC_CLK_100_P*%
X34015454Y53987500D02*
X34100454Y54072500D01*
X33555920Y54335000D02*
X33903420Y53987500D01*
X20265000Y49955920D02*
X24644080Y54335000D01*
X34565000Y15544080D02*
X31944080Y18165000D01*
X20265000Y26144080D02*
X20265000Y49955920D01*
X31944080Y18165000D02*
X28244080Y18165000D01*
X33903420Y53987500D02*
X34015454Y53987500D01*
X28244080Y18165000D02*
X20265000Y26144080D01*
X24644080Y54335000D02*
X33555920Y54335000D01*
X34420646Y5174536D02*
X34565000Y5318890D01*
X34565000Y5318890D02*
X34565000Y15544080D01*
X34100454Y54072500D02*
X34394546Y54072500D01*
X34394546Y54072500D02*
X34479546Y53987500D01*
X34479546Y53987500D02*
X34977500Y53987500D01*
X34977500Y53987500D02*
X35247500Y53717500D01*
%TO.N,/Interfaces/PCIE_BMC_TX_C_P*%
X28244080Y20865000D02*
X33944080Y20865000D01*
X30030000Y52935000D02*
X24944080Y52935000D01*
X31247500Y51717500D02*
X30030000Y52935000D01*
X35165000Y19644080D02*
X35165000Y18245000D01*
X24944080Y52935000D02*
X21665000Y49655920D01*
%TO.N,/Interfaces/PCIE_BMC_TX_C_N*%
X25055920Y52665000D02*
X21935000Y49544080D01*
X28355920Y21135000D02*
X34055920Y21135000D01*
%TO.N,/Interfaces/PCIE_BMC_TX_C_P*%
X21665000Y27444080D02*
X28244080Y20865000D01*
%TO.N,/Interfaces/PCIE_BMC_TX_C_N*%
X30200000Y51700000D02*
X30200000Y52383162D01*
%TO.N,/Interfaces/PCIE_BMC_TX_C_P*%
X21665000Y49655920D02*
X21665000Y27444080D01*
%TO.N,/Interfaces/PCIE_BMC_TX_C_N*%
X30200000Y52383162D02*
X29918162Y52665000D01*
%TO.N,/Interfaces/PCIE_BMC_TX_C_P*%
X33944080Y20865000D02*
X35165000Y19644080D01*
%TO.N,/Interfaces/PCIE_BMC_TX_C_N*%
X29918162Y52665000D02*
X25055920Y52665000D01*
X21935000Y49544080D02*
X21935000Y27555920D01*
%TO.N,/Interfaces/PCIE_BMC_TX_C_P*%
X35165000Y18245000D02*
X35020000Y18100000D01*
%TO.N,/Interfaces/PCIE_BMC_TX_C_N*%
X35435000Y18245000D02*
X35580000Y18100000D01*
X21935000Y27555920D02*
X28355920Y21135000D01*
X34055920Y21135000D02*
X35435000Y19755920D01*
X35435000Y19755920D02*
X35435000Y18245000D01*
%TO.N,ULPI1_CLKOUT*%
D25*
X64300000Y71200000D02*
X64300000Y71151992D01*
X64300000Y71151992D02*
X61105508Y67957500D01*
X61105508Y67957500D02*
X49477500Y67957500D01*
X49477500Y67957500D02*
X49090000Y67570000D01*
%TO.N,USB1_D_P*%
D24*
X65690000Y4365000D02*
X65525000Y4200000D01*
X68865000Y69365000D02*
X70479436Y69365000D01*
X70254434Y40410000D02*
X66610000Y40410000D01*
X70479436Y69365000D02*
X71690000Y68154434D01*
X65690000Y39490000D02*
X65690000Y4365000D01*
X71690000Y41845564D02*
X70254434Y40410000D01*
X66610000Y40410000D02*
X65690000Y39490000D01*
X68700000Y69200000D02*
X68865000Y69365000D01*
X71690000Y68154434D02*
X71690000Y41845564D01*
%TO.N,USB1_D_N*%
X70345560Y40190000D02*
X66701126Y40190000D01*
X65910000Y39398874D02*
X65910000Y4365000D01*
X66701126Y40190000D02*
X65910000Y39398874D01*
X65910000Y4365000D02*
X66075000Y4200000D01*
X71910000Y68245560D02*
X71910000Y41754436D01*
X68700000Y69750000D02*
X68865000Y69585000D01*
X68865000Y69585000D02*
X70570564Y69585000D01*
X71910000Y41754436D02*
X70345560Y40190000D01*
X70570564Y69585000D02*
X71910000Y68245560D01*
%TO.N,USB2_D_P*%
X63890000Y4265000D02*
X63725000Y4100000D01*
X70585000Y53215000D02*
X70890000Y52910000D01*
X68433507Y53050000D02*
X68598507Y53215000D01*
X68598507Y53215000D02*
X70585000Y53215000D01*
X70890000Y52910000D02*
X70890000Y42501126D01*
X70890000Y42501126D02*
X69998874Y41610000D01*
X69998874Y41610000D02*
X64654436Y41610000D01*
X63890000Y40845564D02*
X63890000Y4265000D01*
X64654436Y41610000D02*
X63890000Y40845564D01*
%TO.N,USB2_D_N*%
X71110000Y53001126D02*
X71110000Y42410000D01*
X68598507Y53435000D02*
X70676126Y53435000D01*
X64110000Y40754436D02*
X64110000Y4265000D01*
X68433507Y53600000D02*
X68598507Y53435000D01*
X64110000Y4265000D02*
X64275000Y4100000D01*
X64745564Y41390000D02*
X64110000Y40754436D01*
X70676126Y53435000D02*
X71110000Y53001126D01*
X70090000Y41390000D02*
X64745564Y41390000D01*
X71110000Y42410000D02*
X70090000Y41390000D01*
%TO.N,UART0_SCM_RX*%
D26*
X33250000Y65550000D02*
X33200000Y65600000D01*
X33200000Y65600000D02*
X28300000Y65600000D01*
%TO.N,UART0_SCM_TX*%
X34250000Y65550000D02*
X33800000Y66000000D01*
X33800000Y66000000D02*
X28400000Y66000000D01*
%TO.N,RGMII_TXD0*%
D25*
X34400000Y83050000D02*
X32900000Y81550000D01*
X32900000Y81550000D02*
X32900000Y75300000D01*
X32900000Y75300000D02*
X36250000Y71950000D01*
X36250000Y71950000D02*
X36250000Y68550000D01*
%TO.N,RGMII_TXD1*%
X33400000Y76050000D02*
X36650000Y72800000D01*
X36650000Y69150000D02*
X37250000Y68550000D01*
X36650000Y72800000D02*
X36650000Y69150000D01*
X34400000Y82050000D02*
X33400000Y81050000D01*
X33400000Y81050000D02*
X33400000Y76050000D01*
%TO.N,RGMII_TXD2*%
X33925000Y80575000D02*
X33925000Y77275000D01*
X34400000Y81050000D02*
X33925000Y80575000D01*
X37212500Y71487500D02*
X37650000Y71050000D01*
X33925000Y77275000D02*
X37212500Y73987500D01*
X37212500Y73987500D02*
X37212500Y71487500D01*
%TO.N,DDR3_CAS*%
X29741220Y28600000D02*
X32200000Y28600000D01*
X36685000Y50773719D02*
X37066281Y51155000D01*
X30600000Y29800000D02*
X30600000Y31010000D01*
X37066281Y51155000D02*
X37470000Y51155000D01*
X30600000Y31010000D02*
X31200000Y31610000D01*
X27700000Y28600000D02*
X29382256Y28600000D01*
X35348719Y49200000D02*
X35685000Y49536281D01*
X26700000Y32237614D02*
X26700000Y31630138D01*
X34400000Y47900000D02*
X34537500Y48037500D01*
X26700000Y31630138D02*
X26700000Y29600000D01*
X36066281Y50155000D02*
X36303719Y50155000D01*
X39118719Y31100000D02*
X39300000Y31100000D01*
X27100000Y48500000D02*
X29700000Y48500000D01*
X29382256Y28600000D02*
X29741220Y28600000D01*
X31000000Y29400000D02*
X30600000Y29800000D01*
X35685000Y49773719D02*
X36066281Y50155000D01*
X31200000Y31610000D02*
X38608719Y31610000D01*
X26700000Y32237614D02*
X26700000Y48100000D01*
X29700000Y48500000D02*
X30300000Y47900000D01*
X38032500Y51717500D02*
X38247500Y51717500D01*
X36685000Y50536281D02*
X36685000Y50773719D01*
X26700000Y48100000D02*
X27100000Y48500000D01*
X38608719Y31610000D02*
X39118719Y31100000D01*
X34537500Y48496219D02*
X35241281Y49200000D01*
X30300000Y47900000D02*
X34400000Y47900000D01*
X32400000Y28800000D02*
X32400000Y29100000D01*
X32100000Y29400000D02*
X31000000Y29400000D01*
X36303719Y50155000D02*
X36685000Y50536281D01*
X35241281Y49200000D02*
X35348719Y49200000D01*
X34537500Y48037500D02*
X34537500Y48496219D01*
X26700000Y29600000D02*
X27700000Y28600000D01*
X37470000Y51155000D02*
X38032500Y51717500D01*
X32200000Y28600000D02*
X32400000Y28800000D01*
X32400000Y29100000D02*
X32100000Y29400000D01*
X35685000Y49536281D02*
X35685000Y49773719D01*
%TO.N,DDR3_BA0*%
X24300000Y28500000D02*
X26500000Y26300000D01*
X35685000Y52773719D02*
X35685000Y52536281D01*
X38200000Y26300000D02*
X38500000Y26600000D01*
X36066281Y53155000D02*
X35685000Y52773719D01*
X24300000Y48900000D02*
X24300000Y28500000D01*
X38500000Y26600000D02*
X39400000Y26600000D01*
X37982500Y53717500D02*
X37545000Y54155000D01*
X38247500Y53717500D02*
X37982500Y53717500D01*
X36685000Y53773719D02*
X36685000Y53411281D01*
X36428719Y53155000D02*
X36066281Y53155000D01*
X36685000Y53411281D02*
X36428719Y53155000D01*
X34303719Y51155000D02*
X26555000Y51155000D01*
X37545000Y54155000D02*
X37066281Y54155000D01*
X35685000Y52536281D02*
X34303719Y51155000D01*
X26555000Y51155000D02*
X24300000Y48900000D01*
X39950000Y27150000D02*
X39950000Y28050000D01*
X39400000Y26600000D02*
X39950000Y27150000D01*
X40510000Y28610000D02*
X40510000Y30100000D01*
X37066281Y54155000D02*
X36685000Y53773719D01*
X39950000Y28050000D02*
X40510000Y28610000D01*
X26500000Y26300000D02*
X38200000Y26300000D01*
%TO.N,RGMII_TX_CLK*%
X38150000Y75300000D02*
X38150000Y67650000D01*
X38150000Y67650000D02*
X38250000Y67550000D01*
X35150000Y78300000D02*
X38150000Y75300000D01*
%TO.N,RGMII_TXD3*%
X37650000Y72050000D02*
X37650000Y74550000D01*
X37650000Y74550000D02*
X35400000Y76800000D01*
X35150000Y76800000D02*
X34400000Y77550000D01*
X35400000Y76800000D02*
X35150000Y76800000D01*
X34400000Y77550000D02*
X34400000Y79800000D01*
%TO.N,RGMII_TX_DV*%
X38650000Y70800000D02*
X38650000Y76050000D01*
X38650000Y76050000D02*
X38900000Y76300000D01*
%TO.N,DDR3_WE*%
X27850000Y47600000D02*
X27400000Y47150000D01*
X29400000Y29400000D02*
X29800000Y29800000D01*
X35960000Y48100000D02*
X34980000Y47120000D01*
X29500000Y47600000D02*
X27850000Y47600000D01*
X38066281Y51155000D02*
X37810000Y50898719D01*
X37810000Y50898719D02*
X37810000Y50661281D01*
X36810000Y49210000D02*
X35960000Y48360000D01*
X37810000Y50661281D02*
X37303719Y50155000D01*
X39500000Y32100000D02*
X39900000Y31700000D01*
X39247500Y50717500D02*
X38810000Y51155000D01*
X36810000Y49898719D02*
X36810000Y49210000D01*
X29980000Y47120000D02*
X29500000Y47600000D01*
X29800000Y29800000D02*
X29800000Y31400000D01*
X35960000Y48360000D02*
X35960000Y48100000D01*
X34980000Y47120000D02*
X29980000Y47120000D01*
X37303719Y50155000D02*
X37066281Y50155000D01*
X37066281Y50155000D02*
X36810000Y49898719D01*
X27400000Y30100000D02*
X28100000Y29400000D01*
X29800000Y31400000D02*
X30500000Y32100000D01*
X30500000Y32100000D02*
X39500000Y32100000D01*
X39900000Y31700000D02*
X39900000Y31050000D01*
X28100000Y29400000D02*
X29400000Y29400000D01*
X27400000Y47150000D02*
X27400000Y30100000D01*
X38810000Y51155000D02*
X38066281Y51155000D01*
%TO.N,DDR3_RAS*%
X38210000Y27900000D02*
X27300000Y27900000D01*
X35810000Y50898719D02*
X37066281Y52155000D01*
X38550000Y30610000D02*
X38550000Y28240000D01*
X26700000Y49200000D02*
X34560000Y49200000D01*
X38810000Y52155000D02*
X39247500Y51717500D01*
X35303719Y50155000D02*
X35810000Y50661281D01*
X38220000Y30940000D02*
X38550000Y30610000D01*
X38550000Y28240000D02*
X38210000Y27900000D01*
X35810000Y50661281D02*
X35810000Y50898719D01*
X34670000Y49310000D02*
X34685000Y49310000D01*
X34685000Y49310000D02*
X34685000Y49812500D01*
X35027500Y50155000D02*
X35303719Y50155000D01*
X27300000Y27900000D02*
X25900000Y29300000D01*
X25900000Y48400000D02*
X26700000Y49200000D01*
X25900000Y29300000D02*
X25900000Y48400000D01*
X34560000Y49200000D02*
X34670000Y49310000D01*
X37066281Y52155000D02*
X38810000Y52155000D01*
X34685000Y49812500D02*
X35027500Y50155000D01*
%TO.N,DDR3_ODT*%
X38600000Y27200000D02*
X39150000Y27750000D01*
X26455000Y50155000D02*
X25100000Y48800000D01*
X34790521Y50879240D02*
X34790521Y50641802D01*
X39150000Y27750000D02*
X39150000Y28300000D01*
X34303719Y50155000D02*
X26455000Y50155000D01*
X35066281Y51155000D02*
X34790521Y50879240D01*
X36685000Y52773719D02*
X36685000Y52536281D01*
X35303719Y51155000D02*
X35066281Y51155000D01*
X39247500Y53717500D02*
X38810000Y53280000D01*
X36685000Y52536281D02*
X35303719Y51155000D01*
X25100000Y48800000D02*
X25100000Y28900000D01*
X37191281Y53280000D02*
X36685000Y52773719D01*
X26800000Y27200000D02*
X38600000Y27200000D01*
X34790521Y50641802D02*
X34303719Y50155000D01*
X38810000Y53280000D02*
X37191281Y53280000D01*
X25100000Y28900000D02*
X26800000Y27200000D01*
%TO.N,/FPGA banks 13-16/RGMII_CLK_FPGA*%
X41100000Y70300000D02*
X41900000Y71100000D01*
X42600000Y71100000D02*
X43300000Y71800000D01*
X43300000Y71800000D02*
X44300000Y71800000D01*
X41100000Y68500000D02*
X41100000Y70300000D01*
X40100000Y67500000D02*
X41100000Y68500000D01*
X41900000Y71100000D02*
X42600000Y71100000D01*
%TO.N,DDR3_A3*%
X40301091Y46541092D02*
X40300000Y46540000D01*
X33600000Y38200000D02*
X33600000Y38325000D01*
X39946446Y45700000D02*
X39769669Y45523224D01*
X39819237Y37280764D02*
X39996014Y37103986D01*
X32550000Y41150000D02*
X32550000Y40900000D01*
X35425000Y42375000D02*
X35425000Y42500000D01*
X34925000Y42500000D02*
X34925000Y42375000D01*
X32425000Y40775000D02*
X32300000Y40775000D01*
X32300000Y40275000D02*
X32425000Y40275000D01*
X34100000Y38200000D02*
X34100000Y38075000D01*
X39996014Y37103986D02*
X40300000Y36800000D01*
X39150948Y44550951D02*
X39150949Y44550949D01*
X38885784Y44109005D02*
X38797396Y44197393D01*
X41270000Y30150000D02*
X41270000Y32470000D01*
X39288908Y37457540D02*
X39465684Y37280764D01*
X38178675Y43401896D02*
X38090287Y43490284D01*
X32300000Y40775000D02*
X32175000Y40775000D01*
X38797396Y44197393D02*
X38797394Y44197394D01*
X38225000Y38200000D02*
X38475000Y38200000D01*
X33300000Y42500000D02*
X33050000Y42500000D01*
X32550000Y40150000D02*
X32550000Y39900000D01*
X38475000Y38200000D02*
X38900000Y38200000D01*
X32175000Y41275000D02*
X32300000Y41275000D01*
X34600000Y38200000D02*
X34600000Y38325000D01*
X39946446Y44992891D02*
X39769671Y44816115D01*
X35225000Y37950000D02*
X35475000Y37950000D01*
X36225000Y37950000D02*
X36475000Y37950000D01*
X37100000Y38200000D02*
X37100000Y38075000D01*
X35725000Y38450000D02*
X35975000Y38450000D01*
X34800000Y42250000D02*
X34550000Y42250000D01*
X37825119Y43578674D02*
X37648342Y43401898D01*
X36600000Y38075000D02*
X36600000Y38200000D01*
X37648342Y43048345D02*
X37471566Y42871567D01*
X37225000Y37950000D02*
X37475000Y37950000D01*
X37725000Y38450000D02*
X37975000Y38450000D01*
X37100000Y38325000D02*
X37100000Y38200000D01*
X41727500Y32927500D02*
X41727500Y33652500D01*
X37600000Y38075000D02*
X37600000Y38200000D01*
X35100000Y38200000D02*
X35100000Y38075000D01*
X33600000Y38100000D02*
X33600000Y38200000D01*
X37600000Y38200000D02*
X37600000Y38325000D01*
X37471566Y42871567D02*
X37100000Y42500000D01*
X40690000Y48460000D02*
X40690000Y47778403D01*
X32050000Y40650000D02*
X32050000Y40400000D01*
X36300000Y42750000D02*
X36050000Y42750000D01*
X40300000Y35080000D02*
X41225503Y34154497D01*
X41300000Y30120000D02*
X41270000Y30150000D01*
X35800000Y42250000D02*
X35550000Y42250000D01*
X32300000Y41275000D02*
X32425000Y41275000D01*
X32175000Y40275000D02*
X32300000Y40275000D01*
X39504503Y44904503D02*
X39416114Y44992892D01*
X38532228Y43578673D02*
X38355453Y43401897D01*
X32300000Y39400000D02*
X32300000Y38900000D01*
X39858057Y45258059D02*
X39858058Y45258058D01*
X35600000Y38200000D02*
X35600000Y38325000D01*
X38443840Y43843840D02*
X38532229Y43755451D01*
X40690000Y47778403D02*
X40690000Y46930000D01*
X34725000Y38450000D02*
X34975000Y38450000D01*
X41270000Y32470000D02*
X41727500Y32927500D01*
X36100000Y38200000D02*
X36100000Y38075000D01*
X34600000Y38075000D02*
X34600000Y38200000D01*
X39150949Y44550949D02*
X39239338Y44462560D01*
X39858058Y45258058D02*
X39946447Y45169669D01*
X36725000Y38450000D02*
X36975000Y38450000D01*
X35425000Y42500000D02*
X35425000Y42625000D01*
X40300000Y45990000D02*
X40300000Y45700000D01*
X34425000Y42500000D02*
X34425000Y42625000D01*
X38900000Y38200000D02*
X39288908Y37811092D01*
X35100000Y38325000D02*
X35100000Y38200000D01*
X34100000Y38325000D02*
X34100000Y38200000D01*
X32300000Y38900000D02*
X32688908Y38511092D01*
X38443839Y43843842D02*
X38443840Y43843840D01*
X36100000Y38325000D02*
X36100000Y38200000D01*
X33200000Y38000000D02*
X33500000Y38000000D01*
X38090287Y43490284D02*
X38090285Y43490285D01*
X34425000Y42375000D02*
X34425000Y42500000D01*
X40300000Y35250000D02*
X40300000Y35080000D01*
X33725000Y38450000D02*
X33975000Y38450000D01*
X34925000Y42625000D02*
X34925000Y42500000D01*
X39239337Y44285782D02*
X39062562Y44109006D01*
X39592893Y44816114D02*
X39504505Y44904502D01*
X35925000Y42625000D02*
X35925000Y42500000D01*
X36600000Y38200000D02*
X36600000Y38325000D01*
X40300000Y46540000D02*
X40300000Y45990000D01*
X40300000Y36800000D02*
X40300000Y36250000D01*
X32688908Y38511092D02*
X33000000Y38200000D01*
X33925000Y42625000D02*
X33925000Y42500000D01*
X33800000Y42250000D02*
X33550000Y42250000D01*
X39062560Y44639339D02*
X39150948Y44550951D01*
X41727500Y33652500D02*
X41225503Y34154497D01*
X39239337Y44992892D02*
X39062560Y44816116D01*
X35300000Y42750000D02*
X35050000Y42750000D01*
X34225000Y37950000D02*
X34475000Y37950000D01*
X38532228Y44285783D02*
X38355451Y44109007D01*
X34300000Y42750000D02*
X34050000Y42750000D01*
X38797394Y44197394D02*
X38709005Y44285783D01*
X32300000Y39650000D02*
X32300000Y39400000D01*
X38090285Y43490285D02*
X38001896Y43578674D01*
X33050000Y42500000D02*
X32900000Y42500000D01*
X37100000Y42500000D02*
X36550000Y42500000D01*
X32511091Y42111092D02*
X32300000Y41900000D01*
X39504505Y44904502D02*
X39504503Y44904503D01*
X35600000Y38075000D02*
X35600000Y38200000D01*
X39769669Y45346447D02*
X39858057Y45258059D01*
X32900000Y42500000D02*
X32511091Y42111092D01*
X33925000Y42500000D02*
X33925000Y42375000D01*
X40690000Y46930000D02*
X40301091Y46541092D01*
X40050000Y36000000D02*
X40050000Y35750000D01*
X32050000Y41650000D02*
X32050000Y41400000D01*
X38355451Y43932230D02*
X38443839Y43843842D01*
X35925000Y42500000D02*
X35925000Y42375000D01*
X40300000Y35500000D02*
X40300000Y35250000D01*
X40123223Y45700000D02*
G75*
G03*
X39946445Y45700001I-88389J-88388D01*
G01*
X36975000Y38450000D02*
G75*
G02*
X37100000Y38325000I0J-125000D01*
G01*
X33550000Y42250000D02*
G75*
G02*
X33425000Y42375000I0J125000D01*
G01*
X39946447Y45169669D02*
G75*
G02*
X39946427Y44992911I-88347J-88369D01*
G01*
X40300000Y45700000D02*
G75*
G02*
X40123224Y45700000I-88388J88388D01*
G01*
X38355453Y43401897D02*
G75*
G02*
X38178712Y43401932I-88353J88403D01*
G01*
X35425000Y42625000D02*
G75*
G03*
X35300000Y42750000I-125000J0D01*
G01*
X36425000Y42625000D02*
G75*
G03*
X36300000Y42750000I-125000J0D01*
G01*
X33600000Y38325000D02*
G75*
G02*
X33725000Y38450000I125000J0D01*
G01*
X33925000Y42375000D02*
G75*
G02*
X33800000Y42250000I-125000J0D01*
G01*
X39288908Y37811092D02*
G75*
G02*
X39288912Y37634312I-88408J-88392D01*
G01*
X34550000Y42250000D02*
G75*
G02*
X34425000Y42375000I0J125000D01*
G01*
X34600000Y38325000D02*
G75*
G02*
X34725000Y38450000I125000J0D01*
G01*
X33500000Y38000000D02*
G75*
G03*
X33600000Y38100000I0J100000D01*
G01*
X32050000Y41400000D02*
G75*
G03*
X32175000Y41275000I125000J0D01*
G01*
X36475000Y37950000D02*
G75*
G03*
X36600000Y38075000I0J125000D01*
G01*
X39769669Y45523224D02*
G75*
G03*
X39769633Y45346412I88431J-88424D01*
G01*
X32425000Y39775000D02*
G75*
G03*
X32300000Y39650000I0J-125000D01*
G01*
X37100000Y38075000D02*
G75*
G03*
X37225000Y37950000I125000J0D01*
G01*
X36100000Y38075000D02*
G75*
G03*
X36225000Y37950000I125000J0D01*
G01*
X39239338Y44462560D02*
G75*
G02*
X39239309Y44285811I-88338J-88360D01*
G01*
X32175000Y40775000D02*
G75*
G03*
X32050000Y40650000I0J-125000D01*
G01*
X37475000Y37950000D02*
G75*
G03*
X37600000Y38075000I0J125000D01*
G01*
X38355451Y44109007D02*
G75*
G03*
X38355432Y43932211I88349J-88407D01*
G01*
X40175000Y36125000D02*
G75*
G03*
X40050000Y36000000I0J-125000D01*
G01*
X39416114Y44992892D02*
G75*
G03*
X39239338Y44992892I-88388J-88388D01*
G01*
X39465684Y37280764D02*
G75*
G03*
X39642461Y37280763I88389J88391D01*
G01*
X33975000Y38450000D02*
G75*
G02*
X34100000Y38325000I0J-125000D01*
G01*
X37648342Y43225121D02*
G75*
G02*
X37648375Y43048312I-88342J-88421D01*
G01*
X38532229Y43755451D02*
G75*
G02*
X38532191Y43578710I-88429J-88351D01*
G01*
X35600000Y38325000D02*
G75*
G02*
X35725000Y38450000I125000J0D01*
G01*
X38709005Y44285783D02*
G75*
G03*
X38532229Y44285783I-88388J-88388D01*
G01*
X34475000Y37950000D02*
G75*
G03*
X34600000Y38075000I0J125000D01*
G01*
X38100000Y38325000D02*
G75*
G03*
X38225000Y38200000I125000J0D01*
G01*
X34100000Y38075000D02*
G75*
G03*
X34225000Y37950000I125000J0D01*
G01*
X32425000Y41275000D02*
G75*
G02*
X32550000Y41150000I0J-125000D01*
G01*
X39062562Y44109006D02*
G75*
G02*
X38885812Y44109032I-88362J88394D01*
G01*
X32175000Y41775000D02*
G75*
G03*
X32050000Y41650000I0J-125000D01*
G01*
X35475000Y37950000D02*
G75*
G03*
X35600000Y38075000I0J125000D01*
G01*
X34050000Y42750000D02*
G75*
G03*
X33925000Y42625000I0J-125000D01*
G01*
X40300000Y36250000D02*
G75*
G02*
X40175000Y36125000I-125000J0D01*
G01*
X35550000Y42250000D02*
G75*
G02*
X35425000Y42375000I0J125000D01*
G01*
X32300000Y41900000D02*
G75*
G02*
X32175000Y41775000I-125000J0D01*
G01*
X32425000Y40275000D02*
G75*
G02*
X32550000Y40150000I0J-125000D01*
G01*
X40050000Y35750000D02*
G75*
G03*
X40175000Y35625000I125000J0D01*
G01*
X39288908Y37634316D02*
G75*
G03*
X39288880Y37457512I88392J-88416D01*
G01*
X37600000Y38325000D02*
G75*
G02*
X37725000Y38450000I125000J0D01*
G01*
X39769671Y44816115D02*
G75*
G02*
X39592912Y44816132I-88371J88385D01*
G01*
X39062560Y44816116D02*
G75*
G03*
X39062532Y44639311I88340J-88416D01*
G01*
X35050000Y42750000D02*
G75*
G03*
X34925000Y42625000I0J-125000D01*
G01*
X33425000Y42375000D02*
G75*
G03*
X33300000Y42500000I-125000J0D01*
G01*
X36600000Y38325000D02*
G75*
G02*
X36725000Y38450000I125000J0D01*
G01*
X35925000Y42375000D02*
G75*
G02*
X35800000Y42250000I-125000J0D01*
G01*
X38001896Y43578674D02*
G75*
G03*
X37825118Y43578675I-88389J-88388D01*
G01*
X33000000Y38200000D02*
G75*
G02*
X33100000Y38100000I0J-100000D01*
G01*
X35975000Y38450000D02*
G75*
G02*
X36100000Y38325000I0J-125000D01*
G01*
X34425000Y42625000D02*
G75*
G03*
X34300000Y42750000I-125000J0D01*
G01*
X32550000Y40900000D02*
G75*
G02*
X32425000Y40775000I-125000J0D01*
G01*
X36050000Y42750000D02*
G75*
G03*
X35925000Y42625000I0J-125000D01*
G01*
X34975000Y38450000D02*
G75*
G02*
X35100000Y38325000I0J-125000D01*
G01*
X37648342Y43401898D02*
G75*
G03*
X37648332Y43225111I88358J-88398D01*
G01*
X39642461Y37280764D02*
G75*
G02*
X39819237Y37280764I88388J-88386D01*
G01*
X32050000Y40400000D02*
G75*
G03*
X32175000Y40275000I125000J0D01*
G01*
X40175000Y35625000D02*
G75*
G02*
X40300000Y35500000I0J-125000D01*
G01*
X35100000Y38075000D02*
G75*
G03*
X35225000Y37950000I125000J0D01*
G01*
X37975000Y38450000D02*
G75*
G02*
X38100000Y38325000I0J-125000D01*
G01*
X34925000Y42375000D02*
G75*
G02*
X34800000Y42250000I-125000J0D01*
G01*
X32550000Y39900000D02*
G75*
G02*
X32425000Y39775000I-125000J0D01*
G01*
X36550000Y42500000D02*
G75*
G02*
X36425000Y42625000I0J125000D01*
G01*
X33100000Y38100000D02*
G75*
G03*
X33200000Y38000000I100000J0D01*
G01*
%TO.N,DDR3_A10*%
X40290000Y33520000D02*
X38410000Y35400000D01*
X40247500Y50500000D02*
X39810000Y50062500D01*
X37770705Y35575000D02*
X37345705Y35575000D01*
X34258205Y35400000D02*
X34258205Y35487500D01*
X29975000Y45325000D02*
X30400000Y45325000D01*
X34858205Y35400000D02*
X34858205Y35312500D01*
X28725000Y41775000D02*
X28725000Y42200000D01*
X37258205Y35400000D02*
X37258205Y35312500D01*
X34258205Y35312500D02*
X34258205Y35400000D01*
X29075000Y35175000D02*
X29075000Y35600000D01*
X28725000Y36975000D02*
X28725000Y37400000D01*
X31126415Y34200000D02*
X30825894Y33899480D01*
X32545705Y35400000D02*
X32000000Y35400000D01*
X40290000Y33380000D02*
X40290000Y33520000D01*
X38410000Y35400000D02*
X37945705Y35400000D01*
X35970705Y35400000D02*
X35545705Y35400000D01*
X32000000Y35400000D02*
X31373903Y34773903D01*
X28812500Y36287500D02*
X28900000Y36287500D01*
X39428719Y49280000D02*
X38350000Y49280000D01*
X37380000Y48310000D02*
X38350000Y49280000D01*
X28725000Y35775000D02*
X28725000Y36200000D01*
X28900000Y43575000D02*
X28900000Y44000000D01*
X38350000Y49280000D02*
X37785000Y48715000D01*
X33570705Y35225000D02*
X33145705Y35225000D01*
X37258205Y35487500D02*
X37258205Y35400000D01*
X28900000Y36887500D02*
X28812500Y36887500D01*
X33658205Y35400000D02*
X33658205Y35312500D01*
X31000000Y45500000D02*
X31249659Y45500000D01*
X29075000Y36375000D02*
X29075000Y36800000D01*
X28725000Y38175000D02*
X28725000Y38600000D01*
X36658205Y35312500D02*
X36658205Y35400000D01*
X28900000Y36287500D02*
X28987500Y36287500D01*
X29075000Y33975000D02*
X29075000Y34400000D01*
X28900000Y35087500D02*
X28987500Y35087500D01*
X29359619Y45059620D02*
X29800000Y45500000D01*
X29400000Y33300000D02*
X28940380Y33759620D01*
X28725000Y42975000D02*
X28725000Y43400000D01*
X28900000Y37575000D02*
X28900000Y38000000D01*
X33658205Y35487500D02*
X33658205Y35400000D01*
X36570705Y35575000D02*
X36145705Y35575000D01*
X34770705Y35225000D02*
X34345705Y35225000D01*
X37170705Y35225000D02*
X36745705Y35225000D01*
X28940380Y33759620D02*
X28900000Y33800000D01*
X28987500Y36887500D02*
X28900000Y36887500D01*
X28812500Y35087500D02*
X28900000Y35087500D01*
X28900000Y44600000D02*
X29359619Y45059620D01*
X36658205Y35400000D02*
X36658205Y35487500D01*
X40247500Y50717500D02*
X40247500Y50500000D01*
X28900000Y35687500D02*
X28812500Y35687500D01*
X39810000Y50062500D02*
X39810000Y49661281D01*
X28987500Y35687500D02*
X28900000Y35687500D01*
X28900000Y38775000D02*
X28900000Y39200000D01*
X34170705Y35575000D02*
X33745705Y35575000D01*
X31373903Y34773903D02*
X31373903Y34200000D01*
X28725000Y40575000D02*
X28725000Y41000000D01*
X34858205Y35487500D02*
X34858205Y35400000D01*
X35370705Y35575000D02*
X34945705Y35575000D01*
X28900000Y42375000D02*
X28900000Y42800000D01*
X35700000Y45500000D02*
X37380000Y47180000D01*
X32970705Y35400000D02*
X32545705Y35400000D01*
X39810000Y49661281D02*
X39428719Y49280000D01*
X28987500Y34487500D02*
X28900000Y34487500D01*
X31249659Y45500000D02*
X35700000Y45500000D01*
X28900000Y44000000D02*
X28900000Y44600000D01*
X40330000Y33340000D02*
X40290000Y33380000D01*
X30825894Y33651993D02*
X30525374Y33351472D01*
X30525374Y33351472D02*
X30473903Y33300000D01*
X30575000Y45500000D02*
X31000000Y45500000D01*
X28900000Y34487500D02*
X28812500Y34487500D01*
X30473903Y33300000D02*
X29400000Y33300000D01*
X28725000Y34575000D02*
X28725000Y35000000D01*
X37380000Y47180000D02*
X37380000Y48310000D01*
X28900000Y41175000D02*
X28900000Y41600000D01*
X28900000Y39975000D02*
X28900000Y40400000D01*
X28725000Y39375000D02*
X28725000Y39800000D01*
X29887500Y45412500D02*
G75*
G03*
X29975000Y45325000I87500J0D01*
G01*
X28900000Y33800000D02*
G75*
G02*
X28987500Y33887500I87500J0D01*
G01*
X37945705Y35400000D02*
G75*
G02*
X37858200Y35487500I-5J87500D01*
G01*
X28812500Y38087500D02*
G75*
G02*
X28725000Y38175000I0J87500D01*
G01*
X28900000Y39200000D02*
G75*
G03*
X28812500Y39287500I-87500J0D01*
G01*
X29075000Y34400000D02*
G75*
G03*
X28987500Y34487500I-87500J0D01*
G01*
X30825894Y33899480D02*
G75*
G03*
X30825886Y33775728I61906J-61880D01*
G01*
X37345705Y35575000D02*
G75*
G03*
X37258200Y35487500I-5J-87500D01*
G01*
X28725000Y39800000D02*
G75*
G02*
X28812500Y39887500I87500J0D01*
G01*
X28812500Y38687500D02*
G75*
G03*
X28900000Y38775000I0J87500D01*
G01*
X28812500Y40487500D02*
G75*
G02*
X28725000Y40575000I0J87500D01*
G01*
X28812500Y39287500D02*
G75*
G02*
X28725000Y39375000I0J87500D01*
G01*
X28812500Y36887500D02*
G75*
G02*
X28725000Y36975000I0J87500D01*
G01*
X28900000Y38000000D02*
G75*
G03*
X28812500Y38087500I-87500J0D01*
G01*
X28812500Y42287500D02*
G75*
G03*
X28900000Y42375000I0J87500D01*
G01*
X28812500Y35687500D02*
G75*
G02*
X28725000Y35775000I0J87500D01*
G01*
X28725000Y37400000D02*
G75*
G02*
X28812500Y37487500I87500J0D01*
G01*
X33058205Y35312500D02*
G75*
G03*
X32970705Y35400005I-87505J0D01*
G01*
X34258205Y35487500D02*
G75*
G03*
X34170705Y35575005I-87505J0D01*
G01*
X28987500Y36287500D02*
G75*
G03*
X29075000Y36375000I0J87500D01*
G01*
X31250159Y34200000D02*
G75*
G03*
X31126415Y34200000I-61872J-61873D01*
G01*
X34945705Y35575000D02*
G75*
G03*
X34858200Y35487500I-5J-87500D01*
G01*
X29800000Y45500000D02*
G75*
G02*
X29887500Y45412500I0J-87500D01*
G01*
X28900000Y42800000D02*
G75*
G03*
X28812500Y42887500I-87500J0D01*
G01*
X28812500Y43487500D02*
G75*
G03*
X28900000Y43575000I0J87500D01*
G01*
X30825894Y33775736D02*
G75*
G02*
X30825859Y33652028I-61894J-61836D01*
G01*
X29075000Y36800000D02*
G75*
G03*
X28987500Y36887500I-87500J0D01*
G01*
X34345705Y35225000D02*
G75*
G02*
X34258200Y35312500I-5J87500D01*
G01*
X37858205Y35487500D02*
G75*
G03*
X37770705Y35575005I-87505J0D01*
G01*
X37258205Y35312500D02*
G75*
G02*
X37170705Y35224995I-87505J0D01*
G01*
X28900000Y41600000D02*
G75*
G03*
X28812500Y41687500I-87500J0D01*
G01*
X28812500Y37487500D02*
G75*
G03*
X28900000Y37575000I0J87500D01*
G01*
X36658205Y35487500D02*
G75*
G03*
X36570705Y35575005I-87505J0D01*
G01*
X28725000Y36200000D02*
G75*
G02*
X28812500Y36287500I87500J0D01*
G01*
X31373903Y34200000D02*
G75*
G02*
X31250159Y34200000I-61872J61873D01*
G01*
X36745705Y35225000D02*
G75*
G02*
X36658200Y35312500I-5J87500D01*
G01*
X33745705Y35575000D02*
G75*
G03*
X33658200Y35487500I-5J-87500D01*
G01*
X35458205Y35487500D02*
G75*
G03*
X35370705Y35575005I-87505J0D01*
G01*
X33658205Y35312500D02*
G75*
G02*
X33570705Y35224995I-87505J0D01*
G01*
X28812500Y41087500D02*
G75*
G03*
X28900000Y41175000I0J87500D01*
G01*
X30487500Y45412500D02*
G75*
G02*
X30575000Y45500000I87500J0D01*
G01*
X34858205Y35312500D02*
G75*
G02*
X34770705Y35224995I-87505J0D01*
G01*
X36145705Y35575000D02*
G75*
G03*
X36058200Y35487500I-5J-87500D01*
G01*
X36058205Y35487500D02*
G75*
G02*
X35970705Y35399995I-87505J0D01*
G01*
X28812500Y34487500D02*
G75*
G02*
X28725000Y34575000I0J87500D01*
G01*
X28725000Y43400000D02*
G75*
G02*
X28812500Y43487500I87500J0D01*
G01*
X28900000Y40400000D02*
G75*
G03*
X28812500Y40487500I-87500J0D01*
G01*
X30400000Y45325000D02*
G75*
G03*
X30487500Y45412500I0J87500D01*
G01*
X35545705Y35400000D02*
G75*
G02*
X35458200Y35487500I-5J87500D01*
G01*
X28812500Y42887500D02*
G75*
G02*
X28725000Y42975000I0J87500D01*
G01*
X28812500Y41687500D02*
G75*
G02*
X28725000Y41775000I0J87500D01*
G01*
X28987500Y33887500D02*
G75*
G03*
X29075000Y33975000I0J87500D01*
G01*
X28725000Y38600000D02*
G75*
G02*
X28812500Y38687500I87500J0D01*
G01*
X28812500Y39887500D02*
G75*
G03*
X28900000Y39975000I0J87500D01*
G01*
X29075000Y35600000D02*
G75*
G03*
X28987500Y35687500I-87500J0D01*
G01*
X33145705Y35225000D02*
G75*
G02*
X33058200Y35312500I-5J87500D01*
G01*
X28725000Y41000000D02*
G75*
G02*
X28812500Y41087500I87500J0D01*
G01*
X28987500Y35087500D02*
G75*
G03*
X29075000Y35175000I0J87500D01*
G01*
X28725000Y35000000D02*
G75*
G02*
X28812500Y35087500I87500J0D01*
G01*
X28725000Y42200000D02*
G75*
G02*
X28812500Y42287500I87500J0D01*
G01*
%TO.N,DDR3_BA2*%
X32200000Y32700000D02*
X30200000Y32700000D01*
X40790000Y30980000D02*
X40790000Y32110000D01*
X33900000Y32700000D02*
X33642500Y32957500D01*
X39428719Y50155000D02*
X38066281Y50155000D01*
X37225380Y48945381D02*
X36899954Y48619954D01*
X38066281Y50155000D02*
X37685000Y49773719D01*
X28550000Y30150000D02*
X28200000Y30500000D01*
X29200000Y30400000D02*
X28950000Y30150000D01*
X33642500Y33257500D02*
X33300000Y33600000D01*
X32400000Y32900000D02*
X32200000Y32700000D01*
X33642500Y32957500D02*
X33642500Y33257500D01*
X33300000Y33600000D02*
X32600000Y33600000D01*
X40790000Y32110000D02*
X40200000Y32700000D01*
X40200000Y32700000D02*
X33900000Y32700000D01*
X35400000Y46300000D02*
X36730000Y47630000D01*
X28200000Y45700000D02*
X28800000Y46300000D01*
X29200000Y31700000D02*
X29200000Y30400000D01*
X32600000Y33600000D02*
X32400000Y33400000D01*
X36730000Y47630000D02*
X36730000Y48450000D01*
X28200000Y30500000D02*
X28200000Y45700000D01*
X39685000Y50411281D02*
X39494947Y50221228D01*
X39494947Y50221228D02*
X39428719Y50155000D01*
X39685000Y51155000D02*
X39685000Y50411281D01*
X28800000Y46300000D02*
X35400000Y46300000D01*
X36730000Y48450000D02*
X36899954Y48619954D01*
X37685000Y49773719D02*
X37685000Y49405000D01*
X32400000Y33400000D02*
X32400000Y32900000D01*
X28950000Y30150000D02*
X28550000Y30150000D01*
X40247500Y51717500D02*
X39685000Y51155000D01*
X30200000Y32700000D02*
X29200000Y31700000D01*
X37685000Y49405000D02*
X37225380Y48945381D01*
%TO.N,DDR3_CKE*%
X40247500Y52717500D02*
X40685000Y52280000D01*
X30850000Y36150000D02*
X31000000Y36150000D01*
X30450000Y42150000D02*
X30450000Y42000000D01*
X32850000Y36500000D02*
X33000000Y36500000D01*
X37186306Y45174171D02*
X37080240Y45280237D01*
X30100000Y39825000D02*
X29925000Y39825000D01*
X40685000Y49536281D02*
X40126218Y48977500D01*
X31175000Y36500000D02*
X31175000Y36675000D01*
X37950000Y47838856D02*
X37950000Y47688856D01*
X37416115Y46111092D02*
X37310048Y46005026D01*
X31975000Y44575000D02*
X31975000Y44400000D01*
X36200000Y44400000D02*
X35650000Y44400000D01*
X38300000Y46500000D02*
X37911091Y46111092D01*
X30275000Y39825000D02*
X30100000Y39825000D01*
X29925000Y41325000D02*
X30100000Y41325000D01*
X31675000Y36675000D02*
X31675000Y36500000D01*
X31800000Y44050000D02*
X31650000Y44050000D01*
X33250000Y36450000D02*
X38520000Y36450000D01*
X33200000Y36500000D02*
X33250000Y36450000D01*
X38300000Y47513856D02*
X38475000Y47513856D01*
X29750000Y41650000D02*
X29750000Y41500000D01*
X30100000Y41825000D02*
X29925000Y41825000D01*
X38650000Y47338856D02*
X38650000Y47188856D01*
X30450000Y38150000D02*
X30450000Y38000000D01*
X33000000Y36500000D02*
X33200000Y36500000D01*
X32175000Y36500000D02*
X32175000Y36675000D01*
X37080240Y45280237D02*
X37080238Y45280238D01*
X34800000Y44400000D02*
X34650000Y44400000D01*
X30100000Y43325000D02*
X30275000Y43325000D01*
X38125000Y47513856D02*
X38300000Y47513856D01*
X29750000Y43650000D02*
X29750000Y43500000D01*
X30100000Y38325000D02*
X30275000Y38325000D01*
X30275000Y42825000D02*
X30100000Y42825000D01*
X38300000Y46838856D02*
X38300000Y46688856D01*
X33300000Y44750000D02*
X33150000Y44750000D01*
X40126218Y48977500D02*
X38557500Y48977500D01*
X29925000Y42325000D02*
X30100000Y42325000D01*
X32300000Y44750000D02*
X32150000Y44750000D01*
X29750000Y42650000D02*
X29750000Y42500000D01*
X30100000Y38825000D02*
X29925000Y38825000D01*
X30275000Y40825000D02*
X30100000Y40825000D01*
X30488908Y36511092D02*
X30500000Y36500000D01*
X32475000Y44400000D02*
X32475000Y44575000D01*
X34300000Y44750000D02*
X34150000Y44750000D01*
X31175000Y36325000D02*
X31175000Y36500000D01*
X31350000Y36850000D02*
X31500000Y36850000D01*
X30100000Y40825000D02*
X29925000Y40825000D01*
X37433793Y45633793D02*
X37539860Y45527726D01*
X32975000Y44575000D02*
X32975000Y44400000D01*
X29925000Y40325000D02*
X30100000Y40325000D01*
X30450000Y39150000D02*
X30450000Y39000000D01*
X30100000Y39325000D02*
X30275000Y39325000D01*
X30450000Y41150000D02*
X30450000Y41000000D01*
X31300000Y44400000D02*
X31150000Y44400000D01*
X38520000Y36450000D02*
X39230000Y35740000D01*
X30100000Y41325000D02*
X30275000Y41325000D01*
X30111091Y44011092D02*
X30100000Y44000000D01*
X40685000Y52280000D02*
X40685000Y49536281D01*
X30100000Y37500000D02*
X30100000Y36900000D01*
X37310048Y45757539D02*
X37433791Y45633796D01*
X29750000Y39650000D02*
X29750000Y39500000D01*
X31150000Y44400000D02*
X30500000Y44400000D01*
X31675000Y36500000D02*
X31675000Y36325000D01*
X36496874Y44696875D02*
X36200000Y44400000D01*
X30275000Y38825000D02*
X30100000Y38825000D01*
X32175000Y36325000D02*
X32175000Y36500000D01*
X38300000Y46688856D02*
X38300000Y46500000D01*
X29925000Y39325000D02*
X30100000Y39325000D01*
X31975000Y44400000D02*
X31975000Y44225000D01*
X35300000Y44750000D02*
X35150000Y44750000D01*
X32975000Y44400000D02*
X32975000Y44225000D01*
X38557500Y48977500D02*
X38300000Y48720000D01*
X29750000Y38650000D02*
X29750000Y38500000D01*
X30450000Y43150000D02*
X30450000Y43000000D01*
X30500000Y44400000D02*
X30111091Y44011092D01*
X29925000Y43325000D02*
X30100000Y43325000D01*
X36709006Y45403982D02*
X36602939Y45297916D01*
X30100000Y40325000D02*
X30275000Y40325000D01*
X31850000Y36150000D02*
X32000000Y36150000D01*
X32350000Y36850000D02*
X32500000Y36850000D01*
X33800000Y44400000D02*
X33650000Y44400000D01*
X30100000Y42325000D02*
X30275000Y42325000D01*
X37080238Y45280238D02*
X36956494Y45403982D01*
X38300000Y48720000D02*
X38300000Y48188856D01*
X29750000Y40650000D02*
X29750000Y40500000D01*
X30450000Y40150000D02*
X30450000Y40000000D01*
X30100000Y37650000D02*
X30100000Y37500000D01*
X36602939Y44802942D02*
X36496874Y44696875D01*
X37539860Y45315594D02*
X37398438Y45174171D01*
X30275000Y41825000D02*
X30100000Y41825000D01*
X30100000Y36900000D02*
X30488908Y36511092D01*
X29925000Y38325000D02*
X30100000Y38325000D01*
X32475000Y44225000D02*
X32475000Y44400000D01*
X30100000Y42825000D02*
X29925000Y42825000D01*
X32800000Y44050000D02*
X32650000Y44050000D01*
X37433791Y45633796D02*
X37433793Y45633793D01*
X30450000Y41000000D02*
G75*
G02*
X30275000Y40825000I-175000J0D01*
G01*
X29925000Y38825000D02*
G75*
G03*
X29750000Y38650000I0J-175000D01*
G01*
X30450000Y42000000D02*
G75*
G02*
X30275000Y41825000I-175000J0D01*
G01*
X29925000Y41825000D02*
G75*
G03*
X29750000Y41650000I0J-175000D01*
G01*
X36956494Y45403982D02*
G75*
G03*
X36709006Y45403982I-123744J-123746D01*
G01*
X34650000Y44400000D02*
G75*
G02*
X34475000Y44575000I0J175000D01*
G01*
X31475000Y44225000D02*
G75*
G03*
X31300000Y44400000I-175000J0D01*
G01*
X32675000Y36675000D02*
G75*
G03*
X32850000Y36500000I175000J0D01*
G01*
X38125000Y48013856D02*
G75*
G03*
X37950044Y47838856I0J-174956D01*
G01*
X32175000Y36675000D02*
G75*
G02*
X32350000Y36850000I175000J0D01*
G01*
X29750000Y41500000D02*
G75*
G03*
X29925000Y41325000I175000J0D01*
G01*
X30500000Y36500000D02*
G75*
G02*
X30675000Y36325000I0J-175000D01*
G01*
X29750000Y42500000D02*
G75*
G03*
X29925000Y42325000I175000J0D01*
G01*
X29750000Y40500000D02*
G75*
G03*
X29925000Y40325000I175000J0D01*
G01*
X37539860Y45527726D02*
G75*
G02*
X37539820Y45315634I-106060J-106026D01*
G01*
X30450000Y40000000D02*
G75*
G02*
X30275000Y39825000I-175000J0D01*
G01*
X33975000Y44575000D02*
G75*
G02*
X33800000Y44400000I-175000J0D01*
G01*
X36602939Y45050429D02*
G75*
G02*
X36602925Y44802957I-123739J-123729D01*
G01*
X34975000Y44575000D02*
G75*
G02*
X34800000Y44400000I-175000J0D01*
G01*
X36602939Y45297916D02*
G75*
G03*
X36602966Y45050456I123761J-123716D01*
G01*
X31675000Y36325000D02*
G75*
G03*
X31850000Y36150000I175000J0D01*
G01*
X32500000Y36850000D02*
G75*
G02*
X32675000Y36675000I0J-175000D01*
G01*
X30675000Y36325000D02*
G75*
G03*
X30850000Y36150000I175000J0D01*
G01*
X30450000Y38000000D02*
G75*
G02*
X30275000Y37825000I-175000J0D01*
G01*
X30275000Y40325000D02*
G75*
G02*
X30450000Y40150000I0J-175000D01*
G01*
X31500000Y36850000D02*
G75*
G02*
X31675000Y36675000I0J-175000D01*
G01*
X32650000Y44050000D02*
G75*
G02*
X32475000Y44225000I0J175000D01*
G01*
X29925000Y39825000D02*
G75*
G03*
X29750000Y39650000I0J-175000D01*
G01*
X35150000Y44750000D02*
G75*
G03*
X34975000Y44575000I0J-175000D01*
G01*
X29750000Y38500000D02*
G75*
G03*
X29925000Y38325000I175000J0D01*
G01*
X32000000Y36150000D02*
G75*
G03*
X32175000Y36325000I0J175000D01*
G01*
X29925000Y43825000D02*
G75*
G03*
X29750000Y43650000I0J-175000D01*
G01*
X30450000Y43000000D02*
G75*
G02*
X30275000Y42825000I-175000J0D01*
G01*
X34150000Y44750000D02*
G75*
G03*
X33975000Y44575000I0J-175000D01*
G01*
X35475000Y44575000D02*
G75*
G03*
X35300000Y44750000I-175000J0D01*
G01*
X38650000Y47188856D02*
G75*
G02*
X38475000Y47013900I-175000J44D01*
G01*
X37911091Y46111092D02*
G75*
G02*
X37663603Y46111092I-123744J123746D01*
G01*
X34475000Y44575000D02*
G75*
G03*
X34300000Y44750000I-175000J0D01*
G01*
X37663603Y46111092D02*
G75*
G03*
X37416115Y46111092I-123744J-123746D01*
G01*
X29750000Y39500000D02*
G75*
G03*
X29925000Y39325000I175000J0D01*
G01*
X31175000Y36675000D02*
G75*
G02*
X31350000Y36850000I175000J0D01*
G01*
X37950000Y47688856D02*
G75*
G03*
X38125000Y47513900I175000J44D01*
G01*
X32475000Y44575000D02*
G75*
G03*
X32300000Y44750000I-175000J0D01*
G01*
X38300000Y48188856D02*
G75*
G02*
X38125000Y48013900I-175000J44D01*
G01*
X37310048Y46005026D02*
G75*
G03*
X37310065Y45757557I123752J-123726D01*
G01*
X32975000Y44225000D02*
G75*
G02*
X32800000Y44050000I-175000J0D01*
G01*
X37398438Y45174171D02*
G75*
G02*
X37186306Y45174171I-106066J106066D01*
G01*
X32150000Y44750000D02*
G75*
G03*
X31975000Y44575000I0J-175000D01*
G01*
X29925000Y40825000D02*
G75*
G03*
X29750000Y40650000I0J-175000D01*
G01*
X30275000Y41325000D02*
G75*
G02*
X30450000Y41150000I0J-175000D01*
G01*
X38475000Y47513856D02*
G75*
G02*
X38649956Y47338856I0J-174956D01*
G01*
X31975000Y44225000D02*
G75*
G02*
X31800000Y44050000I-175000J0D01*
G01*
X30100000Y44000000D02*
G75*
G02*
X29925000Y43825000I-175000J0D01*
G01*
X30275000Y37825000D02*
G75*
G03*
X30100000Y37650000I0J-175000D01*
G01*
X31000000Y36150000D02*
G75*
G03*
X31175000Y36325000I0J175000D01*
G01*
X30275000Y43325000D02*
G75*
G02*
X30450000Y43150000I0J-175000D01*
G01*
X29925000Y42825000D02*
G75*
G03*
X29750000Y42650000I0J-175000D01*
G01*
X29750000Y43500000D02*
G75*
G03*
X29925000Y43325000I175000J0D01*
G01*
X38475000Y47013856D02*
G75*
G03*
X38300044Y46838856I0J-174956D01*
G01*
X30275000Y42325000D02*
G75*
G02*
X30450000Y42150000I0J-175000D01*
G01*
X31650000Y44050000D02*
G75*
G02*
X31475000Y44225000I0J175000D01*
G01*
X33150000Y44750000D02*
G75*
G03*
X32975000Y44575000I0J-175000D01*
G01*
X35650000Y44400000D02*
G75*
G02*
X35475000Y44575000I0J175000D01*
G01*
X33475000Y44575000D02*
G75*
G03*
X33300000Y44750000I-175000J0D01*
G01*
X30450000Y39000000D02*
G75*
G02*
X30275000Y38825000I-175000J0D01*
G01*
X33650000Y44400000D02*
G75*
G02*
X33475000Y44575000I0J175000D01*
G01*
X30275000Y38325000D02*
G75*
G02*
X30450000Y38150000I0J-175000D01*
G01*
X30275000Y39325000D02*
G75*
G02*
X30450000Y39150000I0J-175000D01*
G01*
%TO.N,DDR3_A12*%
X31110000Y40690000D02*
X31300000Y40690000D01*
X32307434Y37500000D02*
X32187434Y37500000D01*
X31680000Y41880000D02*
X31680000Y42000000D01*
X36480000Y43600000D02*
X36600000Y43600000D01*
X35980000Y43980000D02*
X36100000Y43980000D01*
X38956676Y45756675D02*
X39100000Y45900000D01*
X40400000Y48800000D02*
X41150000Y49550000D01*
X34307434Y37120000D02*
X34187434Y37120000D01*
X31630000Y39855000D02*
X31630000Y40025000D01*
X39967500Y48296138D02*
X39967500Y48356219D01*
X31300000Y39690000D02*
X31465000Y39690000D01*
X39667500Y36232500D02*
X38400000Y37500000D01*
X39967500Y48356219D02*
X41150000Y49538719D01*
X31800000Y37500000D02*
X31411091Y37888909D01*
X35290000Y43600000D02*
X35290000Y43410000D01*
X37676812Y44476812D02*
X37542462Y44611162D01*
X31300000Y41690000D02*
X31490000Y41690000D01*
X31300000Y40190000D02*
X31110000Y40190000D01*
X39100000Y47500000D02*
X39400000Y47800000D01*
X34790000Y43410000D02*
X34790000Y43600000D01*
X31490000Y39190000D02*
X31300000Y39190000D01*
X32807434Y37880000D02*
X32687434Y37880000D01*
X34980000Y43980000D02*
X35100000Y43980000D01*
X30920000Y39380000D02*
X30920000Y39500000D01*
X41290000Y33340000D02*
X39667500Y34962500D01*
X31300000Y42380000D02*
X31300000Y42500000D01*
X32077816Y43577818D02*
X32100000Y43600000D01*
X35480000Y43220000D02*
X35600000Y43220000D01*
X37542462Y44879862D02*
X37627316Y44964715D01*
X31110000Y39690000D02*
X31300000Y39690000D01*
X39480000Y46830000D02*
X39480000Y46950000D01*
X36600000Y43600000D02*
X36800000Y43600000D01*
X39100000Y45900000D02*
X39100000Y46450000D01*
X31110000Y38690000D02*
X31300000Y38690000D01*
X39100000Y47450000D02*
X39100000Y47500000D01*
X36800000Y43600000D02*
X37188908Y43988909D01*
X37307434Y37120000D02*
X37187434Y37120000D01*
X31300000Y38690000D02*
X31490000Y38690000D01*
X31411091Y37888909D02*
X31300000Y38000000D01*
X33790000Y43410000D02*
X33790000Y43600000D01*
X34290000Y43600000D02*
X34290000Y43410000D01*
X39967500Y48067500D02*
X39967500Y48296138D01*
X31300000Y42500000D02*
X31300000Y42800000D01*
X34290000Y43790000D02*
X34290000Y43600000D01*
X39700000Y47800000D02*
X39967500Y48067500D01*
X31300000Y42800000D02*
X32077816Y43577818D01*
X33790000Y43600000D02*
X33790000Y43790000D01*
X33980000Y43980000D02*
X34100000Y43980000D01*
X38871824Y45671821D02*
X38956676Y45756675D01*
X30920000Y40380000D02*
X30920000Y40500000D01*
X35790000Y43600000D02*
X35790000Y43790000D01*
X31110000Y41690000D02*
X31300000Y41690000D01*
X38433415Y44696015D02*
X38518267Y44780868D01*
X35790000Y43410000D02*
X35790000Y43600000D01*
X36307434Y37120000D02*
X36187434Y37120000D01*
X30920000Y38380000D02*
X30920000Y38500000D01*
X32997434Y37500000D02*
X32997434Y37690000D01*
X37896016Y44964714D02*
X38030367Y44830363D01*
X38030365Y44830365D02*
X38164715Y44696015D01*
X37676809Y44476814D02*
X37676812Y44476812D01*
X40400000Y48800000D02*
X39967500Y48367500D01*
X39400000Y47800000D02*
X39700000Y47800000D01*
X31300000Y39190000D02*
X31110000Y39190000D01*
X39100000Y47330000D02*
X39100000Y47450000D01*
X37726308Y43988909D02*
X37811160Y44073762D01*
X37811160Y44342463D02*
X37676809Y44476814D01*
X38400000Y37500000D02*
X37687434Y37500000D01*
X30920000Y41380000D02*
X30920000Y41500000D01*
X32997434Y37310000D02*
X32997434Y37500000D01*
X31300000Y41190000D02*
X31110000Y41190000D01*
X32980000Y43600000D02*
X33100000Y43600000D01*
X41150000Y49550000D02*
X41150000Y50500000D01*
X31300000Y40690000D02*
X31465000Y40690000D01*
X38383916Y45183920D02*
X38383918Y45183918D01*
X36807434Y37500000D02*
X36687434Y37500000D01*
X35290000Y43790000D02*
X35290000Y43600000D01*
X31680000Y38880000D02*
X31680000Y39000000D01*
X38383918Y45183918D02*
X38249568Y45318268D01*
X31465000Y41190000D02*
X31300000Y41190000D01*
X39667500Y34962500D02*
X39667500Y36232500D01*
X33480000Y43220000D02*
X33600000Y43220000D01*
X32480000Y43220000D02*
X32600000Y43220000D01*
X31465000Y40190000D02*
X31300000Y40190000D01*
X41150000Y52815000D02*
X40247500Y53717500D01*
X33807434Y37500000D02*
X33687434Y37500000D01*
X34480000Y43220000D02*
X34600000Y43220000D01*
X33307434Y37120000D02*
X33187434Y37120000D01*
X41150000Y50500000D02*
X41150000Y52815000D01*
X34807434Y37500000D02*
X34687434Y37500000D01*
X38518267Y45049569D02*
X38383916Y45183920D01*
X31630000Y40855000D02*
X31630000Y41025000D01*
X41150000Y49538719D02*
X41150000Y50500000D01*
X35307434Y37120000D02*
X35187434Y37120000D01*
X38249568Y45586968D02*
X38334422Y45671821D01*
X38030367Y44830363D02*
X38030365Y44830365D01*
X32187434Y37500000D02*
X31800000Y37500000D01*
X34790000Y43600000D02*
X34790000Y43790000D01*
X35807434Y37500000D02*
X35687434Y37500000D01*
X35100000Y43980000D02*
G75*
G02*
X35290000Y43790000I0J-190000D01*
G01*
X36997434Y37310000D02*
G75*
G03*
X36807434Y37500034I-190034J0D01*
G01*
X35497434Y37310000D02*
G75*
G02*
X35307434Y37119966I-190034J0D01*
G01*
X30920000Y40500000D02*
G75*
G02*
X31110000Y40690000I190000J0D01*
G01*
X31465000Y39690000D02*
G75*
G03*
X31630000Y39855000I0J165000D01*
G01*
X35187434Y37120000D02*
G75*
G02*
X34997400Y37310000I-34J190000D01*
G01*
X37187434Y37120000D02*
G75*
G02*
X36997400Y37310000I-34J190000D01*
G01*
X34290000Y43410000D02*
G75*
G03*
X34480000Y43220000I190000J0D01*
G01*
X36100000Y43980000D02*
G75*
G02*
X36290000Y43790000I0J-190000D01*
G01*
X38518267Y44780868D02*
G75*
G03*
X38518249Y45049551I-134367J134332D01*
G01*
X38164715Y44696015D02*
G75*
G03*
X38433415Y44696015I134350J134349D01*
G01*
X31630000Y41025000D02*
G75*
G03*
X31465000Y41190000I-165000J0D01*
G01*
X31490000Y41690000D02*
G75*
G03*
X31680000Y41880000I0J190000D01*
G01*
X39290000Y47140000D02*
G75*
G02*
X39100000Y47330000I0J190000D01*
G01*
X39100000Y46450000D02*
G75*
G02*
X39290000Y46640000I190000J0D01*
G01*
X36497434Y37310000D02*
G75*
G02*
X36307434Y37119966I-190034J0D01*
G01*
X37627316Y44964715D02*
G75*
G02*
X37896051Y44964749I134384J-134315D01*
G01*
X31680000Y42000000D02*
G75*
G03*
X31490000Y42190000I-190000J0D01*
G01*
X31465000Y40690000D02*
G75*
G03*
X31630000Y40855000I0J165000D01*
G01*
X34100000Y43980000D02*
G75*
G02*
X34290000Y43790000I0J-190000D01*
G01*
X32687434Y37880000D02*
G75*
G03*
X32497400Y37690000I-34J-190000D01*
G01*
X35290000Y43410000D02*
G75*
G03*
X35480000Y43220000I190000J0D01*
G01*
X38603122Y45671820D02*
G75*
G03*
X38871851Y45671793I134378J134380D01*
G01*
X31300000Y38000000D02*
G75*
G03*
X31110000Y38190000I-190000J0D01*
G01*
X31110000Y39190000D02*
G75*
G02*
X30920000Y39380000I0J190000D01*
G01*
X36687434Y37500000D02*
G75*
G03*
X36497400Y37310000I-34J-190000D01*
G01*
X34600000Y43220000D02*
G75*
G03*
X34790000Y43410000I0J190000D01*
G01*
X34497434Y37310000D02*
G75*
G02*
X34307434Y37119966I-190034J0D01*
G01*
X37811160Y44073762D02*
G75*
G03*
X37811148Y44342451I-134360J134338D01*
G01*
X37687434Y37500000D02*
G75*
G03*
X37497400Y37310000I-34J-190000D01*
G01*
X33600000Y43220000D02*
G75*
G03*
X33790000Y43410000I0J190000D01*
G01*
X37497434Y37310000D02*
G75*
G02*
X37307434Y37119966I-190034J0D01*
G01*
X35600000Y43220000D02*
G75*
G03*
X35790000Y43410000I0J190000D01*
G01*
X36290000Y43790000D02*
G75*
G03*
X36480000Y43600000I190000J0D01*
G01*
X34790000Y43790000D02*
G75*
G02*
X34980000Y43980000I190000J0D01*
G01*
X35687434Y37500000D02*
G75*
G03*
X35497400Y37310000I-34J-190000D01*
G01*
X37457608Y43988909D02*
G75*
G03*
X37726308Y43988909I134350J134349D01*
G01*
X32790000Y43410000D02*
G75*
G02*
X32980000Y43600000I190000J0D01*
G01*
X32100000Y43600000D02*
G75*
G02*
X32290000Y43410000I0J-190000D01*
G01*
X30920000Y41500000D02*
G75*
G02*
X31110000Y41690000I190000J0D01*
G01*
X38334422Y45671821D02*
G75*
G02*
X38603151Y45671849I134378J-134321D01*
G01*
X33790000Y43790000D02*
G75*
G02*
X33980000Y43980000I190000J0D01*
G01*
X38249568Y45318268D02*
G75*
G02*
X38249586Y45586950I134332J134332D01*
G01*
X31490000Y38690000D02*
G75*
G03*
X31680000Y38880000I0J190000D01*
G01*
X31630000Y40025000D02*
G75*
G03*
X31465000Y40190000I-165000J0D01*
G01*
X34997434Y37310000D02*
G75*
G03*
X34807434Y37500034I-190034J0D01*
G01*
X37542462Y44611162D02*
G75*
G02*
X37542474Y44879850I134338J134338D01*
G01*
X34187434Y37120000D02*
G75*
G02*
X33997400Y37310000I-34J190000D01*
G01*
X32997434Y37690000D02*
G75*
G03*
X32807434Y37880034I-190034J0D01*
G01*
X30920000Y39500000D02*
G75*
G02*
X31110000Y39690000I190000J0D01*
G01*
X30920000Y38500000D02*
G75*
G02*
X31110000Y38690000I190000J0D01*
G01*
X31680000Y39000000D02*
G75*
G03*
X31490000Y39190000I-190000J0D01*
G01*
X35790000Y43790000D02*
G75*
G02*
X35980000Y43980000I190000J0D01*
G01*
X36187434Y37120000D02*
G75*
G02*
X35997400Y37310000I-34J190000D01*
G01*
X31110000Y38190000D02*
G75*
G02*
X30920000Y38380000I0J190000D01*
G01*
X39290000Y46640000D02*
G75*
G03*
X39480000Y46830000I0J190000D01*
G01*
X33497434Y37310000D02*
G75*
G02*
X33307434Y37119966I-190034J0D01*
G01*
X31490000Y42190000D02*
G75*
G02*
X31300000Y42380000I0J190000D01*
G01*
X31110000Y41190000D02*
G75*
G02*
X30920000Y41380000I0J190000D01*
G01*
X33100000Y43600000D02*
G75*
G02*
X33290000Y43410000I0J-190000D01*
G01*
X32497434Y37690000D02*
G75*
G02*
X32307434Y37499966I-190034J0D01*
G01*
X34687434Y37500000D02*
G75*
G03*
X34497400Y37310000I-34J-190000D01*
G01*
X33687434Y37500000D02*
G75*
G03*
X33497400Y37310000I-34J-190000D01*
G01*
X35997434Y37310000D02*
G75*
G03*
X35807434Y37500034I-190034J0D01*
G01*
X39480000Y46950000D02*
G75*
G03*
X39290000Y47140000I-190000J0D01*
G01*
X33997434Y37310000D02*
G75*
G03*
X33807434Y37500034I-190034J0D01*
G01*
X32290000Y43410000D02*
G75*
G03*
X32480000Y43220000I190000J0D01*
G01*
X37188908Y43988909D02*
G75*
G02*
X37457608Y43988909I134350J-134349D01*
G01*
X31110000Y40190000D02*
G75*
G02*
X30920000Y40380000I0J190000D01*
G01*
X33187434Y37120000D02*
G75*
G02*
X32997400Y37310000I-34J190000D01*
G01*
X33290000Y43410000D02*
G75*
G03*
X33480000Y43220000I190000J0D01*
G01*
X32600000Y43220000D02*
G75*
G03*
X32790000Y43410000I0J190000D01*
G01*
%TO.N,/FPGA banks 13-16/RGMII_RXD0_FPGA*%
X40400000Y68800000D02*
X40400000Y70600000D01*
X41600000Y71800000D02*
X42300000Y71800000D01*
X40400000Y70600000D02*
X41600000Y71800000D01*
X40200000Y68600000D02*
X40400000Y68800000D01*
%TO.N,DDR3_BA1*%
X38307106Y42507107D02*
X38307107Y42507107D01*
X34765892Y40100000D02*
X34665892Y40100000D01*
X36465892Y39900000D02*
X36465892Y39320000D01*
X40464868Y45164868D02*
X41150000Y45850000D01*
X41150000Y45850000D02*
X41150000Y46143654D01*
X36265892Y39120000D02*
X36165892Y39120000D01*
X41141005Y46152651D02*
X41139932Y46360086D01*
X37765892Y40100000D02*
X37665892Y40100000D01*
X33780000Y39970000D02*
X33780000Y40140000D01*
X36965892Y39320000D02*
X36965892Y39900000D01*
X35265892Y39120000D02*
X35165892Y39120000D01*
X41145450Y46582108D02*
X41149745Y46666649D01*
X41280000Y34910000D02*
X40800000Y35390000D01*
X35000000Y41600000D02*
X35000000Y41020000D01*
X33450000Y40640000D02*
X33450000Y41450000D01*
X38575806Y41389879D02*
X38646516Y41460590D01*
X38943501Y43143505D02*
X39014213Y43214214D01*
X34500000Y41120000D02*
X34500000Y41600000D01*
X34265892Y39120000D02*
X34165892Y39120000D01*
X41145000Y46581658D02*
X41145450Y46582108D01*
X40800000Y37100000D02*
X39483619Y38416381D01*
X33450000Y41450000D02*
X33800000Y41800000D01*
X33581091Y39508909D02*
X33450000Y39640000D01*
X34200000Y40920000D02*
X34300000Y40920000D01*
X39353623Y42450540D02*
X38943501Y42860662D01*
X36200000Y40820000D02*
X36300000Y40820000D01*
X40447828Y44947828D02*
X40464868Y44964868D01*
X35200000Y40820000D02*
X35300000Y40820000D01*
X36000000Y41600000D02*
X36000000Y41020000D01*
X41150000Y46143654D02*
X41141005Y46152651D01*
X41139932Y46360086D02*
X41134476Y46366127D01*
X34700000Y41800000D02*
X34800000Y41800000D01*
X36500000Y41020000D02*
X36500000Y41600000D01*
X41134476Y46366127D02*
X41145000Y46573259D01*
X38465892Y39900000D02*
X38465892Y39320000D01*
X38265892Y39120000D02*
X38165892Y39120000D01*
X38646516Y41743433D02*
X38236394Y42153555D01*
X40464868Y44964868D02*
X40464868Y45164868D01*
X39280000Y39120000D02*
X39165892Y39120000D01*
X41150000Y46666904D02*
X41150000Y48720000D01*
X38236394Y42436398D02*
X38307106Y42507107D01*
X38765892Y40100000D02*
X38665892Y40100000D01*
X36765892Y40100000D02*
X36665892Y40100000D01*
X40447828Y44647828D02*
X40447828Y44947828D01*
X34465892Y39900000D02*
X34465892Y39320000D01*
X38589949Y42507107D02*
X39000070Y42096986D01*
X39706616Y43906616D02*
X40447828Y44647828D01*
X41150000Y48720000D02*
X41260000Y48830000D01*
X40800000Y35390000D02*
X40800000Y37100000D01*
X41145000Y46573259D02*
X41145000Y46581658D01*
X35500000Y41020000D02*
X35500000Y41600000D01*
X39483619Y38916381D02*
X39280000Y39120000D01*
X37350000Y41800000D02*
X37600000Y41800000D01*
X37265892Y39120000D02*
X37165892Y39120000D01*
X34965892Y39320000D02*
X34965892Y39900000D01*
X36800000Y41800000D02*
X37350000Y41800000D01*
X36700000Y41800000D02*
X36800000Y41800000D01*
X37882842Y41800000D02*
X38292963Y41389879D01*
X35465892Y39900000D02*
X35465892Y39320000D01*
X38965892Y39320000D02*
X38965892Y39900000D01*
X39282913Y42096986D02*
X39353623Y42167697D01*
X41149745Y46666649D02*
X41150000Y46666904D01*
X35965892Y39320000D02*
X35965892Y39900000D01*
X37465892Y39900000D02*
X37465892Y39320000D01*
X39014213Y43214214D02*
X39706616Y43906616D01*
X34000000Y41600000D02*
X34000000Y41120000D01*
X35700000Y41800000D02*
X35800000Y41800000D01*
X35765892Y40100000D02*
X35665892Y40100000D01*
X37965892Y39320000D02*
X37965892Y39900000D01*
X39483619Y38416381D02*
X39483619Y38916381D01*
X33970000Y39120000D02*
X33581091Y39508909D01*
X33450000Y40470000D02*
X33450000Y40640000D01*
X34165892Y39120000D02*
X33970000Y39120000D01*
X34800000Y41800000D02*
G75*
G02*
X35000000Y41600000I0J-200000D01*
G01*
X38465892Y39320000D02*
G75*
G02*
X38265892Y39120008I-199992J0D01*
G01*
X39353623Y42167697D02*
G75*
G03*
X39353605Y42450521I-141423J141403D01*
G01*
X38165892Y39120000D02*
G75*
G02*
X37965900Y39320000I8J200000D01*
G01*
X34965892Y39900000D02*
G75*
G03*
X34765892Y40099992I-199992J0D01*
G01*
X36500000Y41600000D02*
G75*
G02*
X36700000Y41800000I200000J0D01*
G01*
X33615000Y40305000D02*
G75*
G02*
X33450000Y40470000I0J165000D01*
G01*
X38292963Y41389879D02*
G75*
G03*
X38575806Y41389878I141422J141424D01*
G01*
X34300000Y40920000D02*
G75*
G03*
X34500000Y41120000I0J200000D01*
G01*
X38646516Y41460590D02*
G75*
G03*
X38646505Y41743421I-141416J141410D01*
G01*
X35165892Y39120000D02*
G75*
G02*
X34965900Y39320000I8J200000D01*
G01*
X33450000Y39640000D02*
G75*
G02*
X33615000Y39805000I165000J0D01*
G01*
X33800000Y41800000D02*
G75*
G02*
X34000000Y41600000I0J-200000D01*
G01*
X37665892Y40100000D02*
G75*
G03*
X37465900Y39900000I8J-200000D01*
G01*
X38965892Y39900000D02*
G75*
G03*
X38765892Y40099992I-199992J0D01*
G01*
X39000070Y42096986D02*
G75*
G03*
X39282913Y42096985I141422J141424D01*
G01*
X37965892Y39900000D02*
G75*
G03*
X37765892Y40099992I-199992J0D01*
G01*
X37165892Y39120000D02*
G75*
G02*
X36965900Y39320000I8J200000D01*
G01*
X36665892Y40100000D02*
G75*
G03*
X36465900Y39900000I8J-200000D01*
G01*
X35000000Y41020000D02*
G75*
G03*
X35200000Y40820000I200000J0D01*
G01*
X34465892Y39320000D02*
G75*
G02*
X34265892Y39120008I-199992J0D01*
G01*
X37465892Y39320000D02*
G75*
G02*
X37265892Y39120008I-199992J0D01*
G01*
X37600000Y41800000D02*
G75*
G02*
X37882842Y41800000I141421J-141423D01*
G01*
X36300000Y40820000D02*
G75*
G03*
X36500000Y41020000I0J200000D01*
G01*
X35665892Y40100000D02*
G75*
G03*
X35465900Y39900000I8J-200000D01*
G01*
X38665892Y40100000D02*
G75*
G03*
X38465900Y39900000I8J-200000D01*
G01*
X36465892Y39320000D02*
G75*
G02*
X36265892Y39120008I-199992J0D01*
G01*
X38307107Y42507107D02*
G75*
G02*
X38589949Y42507107I141421J-141423D01*
G01*
X35965892Y39900000D02*
G75*
G03*
X35765892Y40099992I-199992J0D01*
G01*
X35800000Y41800000D02*
G75*
G02*
X36000000Y41600000I0J-200000D01*
G01*
X34665892Y40100000D02*
G75*
G03*
X34465900Y39900000I8J-200000D01*
G01*
X35465892Y39320000D02*
G75*
G02*
X35265892Y39120008I-199992J0D01*
G01*
X36165892Y39120000D02*
G75*
G02*
X35965900Y39320000I8J200000D01*
G01*
X38943501Y42860662D02*
G75*
G02*
X38943484Y43143522I141399J141438D01*
G01*
X35500000Y41600000D02*
G75*
G02*
X35700000Y41800000I200000J0D01*
G01*
X33615000Y39805000D02*
G75*
G03*
X33780000Y39970000I0J165000D01*
G01*
X34500000Y41600000D02*
G75*
G02*
X34700000Y41800000I200000J0D01*
G01*
X35300000Y40820000D02*
G75*
G03*
X35500000Y41020000I0J200000D01*
G01*
X34000000Y41120000D02*
G75*
G03*
X34200000Y40920000I200000J0D01*
G01*
X39165892Y39120000D02*
G75*
G02*
X38965900Y39320000I8J200000D01*
G01*
X33780000Y40140000D02*
G75*
G03*
X33615000Y40305000I-165000J0D01*
G01*
X36965892Y39900000D02*
G75*
G03*
X36765892Y40099992I-199992J0D01*
G01*
X38236394Y42153555D02*
G75*
G02*
X38236370Y42436422I141406J141445D01*
G01*
X36000000Y41020000D02*
G75*
G03*
X36200000Y40820000I200000J0D01*
G01*
%TO.N,DDR3_A0*%
X44180000Y44908953D02*
X42820000Y44908953D01*
X42120000Y41898953D02*
X42120000Y41618953D01*
X42305000Y44208953D02*
X42540000Y44208953D01*
X42122500Y49677500D02*
X42122500Y47577500D01*
X42540000Y36660000D02*
X42540000Y36240000D01*
X42540000Y37488953D02*
X42540000Y36660000D01*
X42540000Y42108953D02*
X42330000Y42108953D01*
X41780000Y31060000D02*
X41750000Y31030000D01*
X44180000Y40708953D02*
X42540000Y40708953D01*
X42540000Y38608953D02*
X42820000Y38608953D01*
X44180000Y39308953D02*
X42540000Y39308953D01*
X44180000Y37908953D02*
X42820000Y37908953D01*
X42277500Y34191408D02*
X42277500Y34092500D01*
X42540000Y40708953D02*
X42305000Y40708953D01*
X42120000Y43298953D02*
X42120000Y43018953D01*
X42330000Y38608953D02*
X42540000Y38608953D01*
X42540000Y39308953D02*
X42330000Y39308953D01*
X42277500Y34092500D02*
X42845000Y33525000D01*
X42330000Y41408953D02*
X42540000Y41408953D01*
X42540000Y42808953D02*
X44180000Y42808953D01*
X44460000Y39728953D02*
X44460000Y39588953D01*
X42820000Y38608953D02*
X44180000Y38608953D01*
X42080000Y34388908D02*
X42277500Y34191408D01*
X42845000Y33525000D02*
X42845000Y32955000D01*
X42540000Y44908953D02*
X42305000Y44908953D01*
X42120000Y39098953D02*
X42120000Y38818953D01*
X44460000Y42528953D02*
X44460000Y42388953D01*
X42540000Y43508953D02*
X42330000Y43508953D01*
X42540000Y40008953D02*
X44180000Y40008953D01*
X44460000Y38328953D02*
X44460000Y38188953D01*
X44180000Y42108953D02*
X42540000Y42108953D01*
X42080000Y35780000D02*
X42080000Y34388908D01*
X42122500Y47577500D02*
X42540000Y47160000D01*
X42540000Y41408953D02*
X44180000Y41408953D01*
X42820000Y45608953D02*
X44180000Y45608953D01*
X44460000Y43928953D02*
X44460000Y43788953D01*
X42845000Y32955000D02*
X41780000Y31890000D01*
X42540000Y47160000D02*
X42540000Y45888953D01*
X42820000Y44908953D02*
X42540000Y44908953D01*
X42330000Y42808953D02*
X42540000Y42808953D01*
X44180000Y43508953D02*
X42540000Y43508953D01*
X42070000Y40473953D02*
X42070000Y40243953D01*
X42540000Y36240000D02*
X42080000Y35780000D01*
X42540000Y44208953D02*
X44180000Y44208953D01*
X44460000Y41128953D02*
X44460000Y40988953D01*
X44460000Y45328953D02*
X44460000Y45188953D01*
X41780000Y31890000D02*
X41780000Y31060000D01*
X42305000Y40008953D02*
X42540000Y40008953D01*
X42070000Y44673953D02*
X42070000Y44443953D01*
X42540000Y37628953D02*
X42540000Y37488953D01*
X42330000Y43508953D02*
G75*
G03*
X42120047Y43298953I0J-209953D01*
G01*
X42070000Y40243953D02*
G75*
G03*
X42305000Y40009000I235000J47D01*
G01*
X42120000Y38818953D02*
G75*
G03*
X42330000Y38609000I210000J47D01*
G01*
X42330000Y39308953D02*
G75*
G03*
X42120047Y39098953I0J-209953D01*
G01*
X42305000Y44908953D02*
G75*
G03*
X42070047Y44673953I0J-234953D01*
G01*
X44460000Y45188953D02*
G75*
G02*
X44180000Y44909000I-280000J47D01*
G01*
X42120000Y41618953D02*
G75*
G03*
X42330000Y41409000I210000J47D01*
G01*
X42120000Y43018953D02*
G75*
G03*
X42330000Y42809000I210000J47D01*
G01*
X42330000Y42108953D02*
G75*
G03*
X42120047Y41898953I0J-209953D01*
G01*
X44460000Y39588953D02*
G75*
G02*
X44180000Y39309000I-280000J47D01*
G01*
X42070000Y44443953D02*
G75*
G03*
X42305000Y44209000I235000J47D01*
G01*
X44180000Y40008953D02*
G75*
G02*
X44459953Y39728953I0J-279953D01*
G01*
X44180000Y44208953D02*
G75*
G02*
X44459953Y43928953I0J-279953D01*
G01*
X42540000Y45888953D02*
G75*
G03*
X42820000Y45609000I280000J47D01*
G01*
X44180000Y42808953D02*
G75*
G02*
X44459953Y42528953I0J-279953D01*
G01*
X44180000Y45608953D02*
G75*
G02*
X44459953Y45328953I0J-279953D01*
G01*
X44460000Y38188953D02*
G75*
G02*
X44180000Y37909000I-280000J47D01*
G01*
X44180000Y41408953D02*
G75*
G02*
X44459953Y41128953I0J-279953D01*
G01*
X44460000Y40988953D02*
G75*
G02*
X44180000Y40709000I-280000J47D01*
G01*
X44180000Y38608953D02*
G75*
G02*
X44459953Y38328953I0J-279953D01*
G01*
X44460000Y42388953D02*
G75*
G02*
X44180000Y42109000I-280000J47D01*
G01*
X44460000Y43788953D02*
G75*
G02*
X44180000Y43509000I-280000J47D01*
G01*
X42820000Y37908953D02*
G75*
G03*
X42540047Y37628953I0J-279953D01*
G01*
X42305000Y40708953D02*
G75*
G03*
X42070047Y40473953I0J-234953D01*
G01*
%TO.N,DDR3_A2*%
X43120000Y31640000D02*
X42590000Y31110000D01*
X46990000Y41765351D02*
X45640000Y41765351D01*
X45400000Y42725351D02*
X45400000Y42605351D01*
X45400000Y45300000D02*
X45400000Y45005351D01*
X47230000Y42125351D02*
X47230000Y42005351D01*
X45640000Y43565351D02*
X46990000Y43565351D01*
X45400000Y41525351D02*
X45400000Y41405351D01*
X45640000Y42365351D02*
X46990000Y42365351D01*
X46990000Y40565351D02*
X45640000Y40565351D01*
X47230000Y38525351D02*
X47230000Y38405351D01*
X45640000Y39965351D02*
X46990000Y39965351D01*
X42585000Y31110000D02*
X42475000Y31000000D01*
X45640000Y38765351D02*
X46990000Y38765351D01*
X46990000Y42965351D02*
X45640000Y42965351D01*
X45640000Y41165351D02*
X46990000Y41165351D01*
X45400000Y37925351D02*
X45400000Y37805351D01*
X42560000Y50240000D02*
X42560000Y47840000D01*
X44500000Y46200000D02*
X45400000Y45300000D01*
X43050000Y46650000D02*
X43500000Y46200000D01*
X43600000Y36600000D02*
X43600000Y36570000D01*
X47230000Y43325351D02*
X47230000Y43205351D01*
X43500000Y46200000D02*
X44500000Y46200000D01*
X42392500Y35362500D02*
X42392500Y34567500D01*
X45640000Y44765351D02*
X46990000Y44765351D01*
X45400000Y37300000D02*
X44700000Y36600000D01*
X42392500Y34567500D02*
X43120000Y33840000D01*
X45400000Y39125351D02*
X45400000Y39005351D01*
X42590000Y31110000D02*
X42585000Y31110000D01*
X47230000Y44525351D02*
X47230000Y44405351D01*
X42560000Y47840000D02*
X43050000Y47350000D01*
X42122500Y50677500D02*
X42560000Y50240000D01*
X47230000Y39725351D02*
X47230000Y39605351D01*
X44700000Y36600000D02*
X43600000Y36600000D01*
X45400000Y37805351D02*
X45400000Y37300000D01*
X46990000Y38165351D02*
X45640000Y38165351D01*
X47230000Y40925351D02*
X47230000Y40805351D01*
X46990000Y39365351D02*
X45640000Y39365351D01*
X45400000Y43925351D02*
X45400000Y43805351D01*
X45400000Y40325351D02*
X45400000Y40205351D01*
X46990000Y44165351D02*
X45640000Y44165351D01*
X43120000Y33840000D02*
X43120000Y31640000D01*
X43050000Y47350000D02*
X43050000Y46650000D01*
X43600000Y36570000D02*
X42392500Y35362500D01*
X45400000Y40205351D02*
G75*
G03*
X45640000Y39965300I240000J-51D01*
G01*
X45640000Y44165351D02*
G75*
G03*
X45400049Y43925351I0J-239951D01*
G01*
X45400000Y45005351D02*
G75*
G03*
X45640000Y44765300I240000J-51D01*
G01*
X47230000Y42005351D02*
G75*
G02*
X46990000Y41765300I-240000J-51D01*
G01*
X45400000Y42605351D02*
G75*
G03*
X45640000Y42365300I240000J-51D01*
G01*
X47230000Y39605351D02*
G75*
G02*
X46990000Y39365300I-240000J-51D01*
G01*
X46990000Y39965351D02*
G75*
G02*
X47229951Y39725351I0J-239951D01*
G01*
X47230000Y40805351D02*
G75*
G02*
X46990000Y40565300I-240000J-51D01*
G01*
X45640000Y42965351D02*
G75*
G03*
X45400049Y42725351I0J-239951D01*
G01*
X47230000Y44405351D02*
G75*
G02*
X46990000Y44165300I-240000J-51D01*
G01*
X47230000Y38405351D02*
G75*
G02*
X46990000Y38165300I-240000J-51D01*
G01*
X46990000Y42365351D02*
G75*
G02*
X47229951Y42125351I0J-239951D01*
G01*
X45400000Y39005351D02*
G75*
G03*
X45640000Y38765300I240000J-51D01*
G01*
X46990000Y44765351D02*
G75*
G02*
X47229951Y44525351I0J-239951D01*
G01*
X46990000Y43565351D02*
G75*
G02*
X47229951Y43325351I0J-239951D01*
G01*
X45640000Y40565351D02*
G75*
G03*
X45400049Y40325351I0J-239951D01*
G01*
X45640000Y38165351D02*
G75*
G03*
X45400049Y37925351I0J-239951D01*
G01*
X46990000Y41165351D02*
G75*
G02*
X47229951Y40925351I0J-239951D01*
G01*
X47230000Y43205351D02*
G75*
G02*
X46990000Y42965300I-240000J-51D01*
G01*
X45640000Y39365351D02*
G75*
G03*
X45400049Y39125351I0J-239951D01*
G01*
X45640000Y41765351D02*
G75*
G03*
X45400049Y41525351I0J-239951D01*
G01*
X45400000Y41405351D02*
G75*
G03*
X45640000Y41165300I240000J-51D01*
G01*
X45400000Y43805351D02*
G75*
G03*
X45640000Y43565300I240000J-51D01*
G01*
X46990000Y38765351D02*
G75*
G02*
X47229951Y38525351I0J-239951D01*
G01*
%TO.N,DDR3_A1*%
X41580000Y40915000D02*
X40020000Y40915000D01*
X41800000Y46370000D02*
X41625000Y46370000D01*
X41800000Y44985000D02*
X41800000Y45095000D01*
X40020000Y39265000D02*
X41580000Y39265000D01*
X42250000Y46040000D02*
X42250000Y46150000D01*
X40020000Y42565000D02*
X41580000Y42565000D01*
X41800000Y47295000D02*
X41800000Y48376053D01*
X42000000Y33900000D02*
X41800000Y34100000D01*
X42370000Y33290000D02*
X42370000Y33611092D01*
X41800000Y41685000D02*
X41800000Y41795000D01*
X41800000Y37615000D02*
X41580000Y37615000D01*
X41800000Y48908719D02*
X41500000Y49208719D01*
X41580000Y42015000D02*
X40020000Y42015000D01*
X41800000Y45820000D02*
X42030000Y45820000D01*
X41625000Y37065000D02*
X41800000Y37065000D01*
X41800000Y40585000D02*
X41800000Y40695000D01*
X41800000Y39485000D02*
X41800000Y39595000D01*
X41800000Y38385000D02*
X41800000Y38495000D01*
X39800000Y40035000D02*
X39800000Y40145000D01*
X41800000Y42785000D02*
X41800000Y42895000D01*
X39800000Y43335000D02*
X39800000Y43445000D01*
X41070000Y44765000D02*
X41580000Y44765000D01*
X41450000Y46545000D02*
X41450000Y46745000D01*
X41580000Y44215000D02*
X41070000Y44215000D01*
X39800000Y41135000D02*
X39800000Y41245000D01*
X39800000Y38935000D02*
X39800000Y39045000D01*
X41580000Y43115000D02*
X40020000Y43115000D01*
X41800000Y36140000D02*
X41800000Y36340000D01*
X40020000Y43665000D02*
X41580000Y43665000D01*
X42081092Y33900000D02*
X42000000Y33900000D01*
X40020000Y41465000D02*
X41580000Y41465000D01*
X41450000Y36690000D02*
X41450000Y36890000D01*
X41625000Y45820000D02*
X41800000Y45820000D01*
X39800000Y42235000D02*
X39800000Y42345000D01*
X41450000Y45445000D02*
X41450000Y45645000D01*
X42030000Y37615000D02*
X41800000Y37615000D01*
X41580000Y37615000D02*
X41120000Y37615000D01*
X41800000Y47095000D02*
X41800000Y47295000D01*
X41500000Y49208719D02*
X41500000Y52055000D01*
X40850000Y44435000D02*
X40850000Y44545000D01*
X41800000Y48376053D02*
X41800000Y48908719D01*
X41580000Y38715000D02*
X40020000Y38715000D01*
X42030000Y46370000D02*
X41800000Y46370000D01*
X41450000Y35590000D02*
X41450000Y35790000D01*
X41800000Y43885000D02*
X41800000Y43995000D01*
X42370000Y33611092D02*
X42081092Y33900000D01*
X41580000Y39815000D02*
X40020000Y39815000D01*
X41800000Y37065000D02*
X42030000Y37065000D01*
X41800000Y34100000D02*
X41800000Y35240000D01*
X40020000Y40365000D02*
X41580000Y40365000D01*
X42250000Y37285000D02*
X42250000Y37395000D01*
X41500000Y52055000D02*
X42122500Y52677500D01*
X41120000Y38165000D02*
X41580000Y38165000D01*
X40900000Y37835000D02*
X40900000Y37945000D01*
X41800000Y42895000D02*
G75*
G03*
X41580000Y43115000I-220000J0D01*
G01*
X39800000Y41245000D02*
G75*
G02*
X40020000Y41465000I220000J0D01*
G01*
X40020000Y42015000D02*
G75*
G02*
X39800000Y42235000I0J220000D01*
G01*
X41625000Y46370000D02*
G75*
G02*
X41450000Y46545000I0J175000D01*
G01*
X41580000Y42565000D02*
G75*
G03*
X41800000Y42785000I0J220000D01*
G01*
X42030000Y45820000D02*
G75*
G03*
X42250000Y46040000I0J220000D01*
G01*
X40850000Y44545000D02*
G75*
G02*
X41070000Y44765000I220000J0D01*
G01*
X42250000Y37395000D02*
G75*
G03*
X42030000Y37615000I-220000J0D01*
G01*
X41800000Y45095000D02*
G75*
G03*
X41625000Y45270000I-175000J0D01*
G01*
X41450000Y35790000D02*
G75*
G02*
X41625000Y35965000I175000J0D01*
G01*
X41580000Y40365000D02*
G75*
G03*
X41800000Y40585000I0J220000D01*
G01*
X41800000Y36340000D02*
G75*
G03*
X41625000Y36515000I-175000J0D01*
G01*
X41625000Y45270000D02*
G75*
G02*
X41450000Y45445000I0J175000D01*
G01*
X41625000Y35965000D02*
G75*
G03*
X41800000Y36140000I0J175000D01*
G01*
X41450000Y46745000D02*
G75*
G02*
X41625000Y46920000I175000J0D01*
G01*
X39800000Y39045000D02*
G75*
G02*
X40020000Y39265000I220000J0D01*
G01*
X40020000Y40915000D02*
G75*
G02*
X39800000Y41135000I0J220000D01*
G01*
X40020000Y38715000D02*
G75*
G02*
X39800000Y38935000I0J220000D01*
G01*
X41450000Y36890000D02*
G75*
G02*
X41625000Y37065000I175000J0D01*
G01*
X41625000Y46920000D02*
G75*
G03*
X41800000Y47095000I0J175000D01*
G01*
X41580000Y38165000D02*
G75*
G03*
X41800000Y38385000I0J220000D01*
G01*
X40900000Y37945000D02*
G75*
G02*
X41120000Y38165000I220000J0D01*
G01*
X41580000Y43665000D02*
G75*
G03*
X41800000Y43885000I0J220000D01*
G01*
X40020000Y39815000D02*
G75*
G02*
X39800000Y40035000I0J220000D01*
G01*
X41800000Y35240000D02*
G75*
G03*
X41625000Y35415000I-175000J0D01*
G01*
X41625000Y35415000D02*
G75*
G02*
X41450000Y35590000I0J175000D01*
G01*
X42030000Y37065000D02*
G75*
G03*
X42250000Y37285000I0J220000D01*
G01*
X40020000Y43115000D02*
G75*
G02*
X39800000Y43335000I0J220000D01*
G01*
X42250000Y46150000D02*
G75*
G03*
X42030000Y46370000I-220000J0D01*
G01*
X39800000Y40145000D02*
G75*
G02*
X40020000Y40365000I220000J0D01*
G01*
X41580000Y41465000D02*
G75*
G03*
X41800000Y41685000I0J220000D01*
G01*
X41580000Y44765000D02*
G75*
G03*
X41800000Y44985000I0J220000D01*
G01*
X41450000Y45645000D02*
G75*
G02*
X41625000Y45820000I175000J0D01*
G01*
X39800000Y42345000D02*
G75*
G02*
X40020000Y42565000I220000J0D01*
G01*
X39800000Y43445000D02*
G75*
G02*
X40020000Y43665000I220000J0D01*
G01*
X41800000Y39595000D02*
G75*
G03*
X41580000Y39815000I-220000J0D01*
G01*
X41800000Y43995000D02*
G75*
G03*
X41580000Y44215000I-220000J0D01*
G01*
X41800000Y38495000D02*
G75*
G03*
X41580000Y38715000I-220000J0D01*
G01*
X41580000Y39265000D02*
G75*
G03*
X41800000Y39485000I0J220000D01*
G01*
X41800000Y41795000D02*
G75*
G03*
X41580000Y42015000I-220000J0D01*
G01*
X41120000Y37615000D02*
G75*
G02*
X40900000Y37835000I0J220000D01*
G01*
X41625000Y36515000D02*
G75*
G02*
X41450000Y36690000I0J175000D01*
G01*
X41070000Y44215000D02*
G75*
G02*
X40850000Y44435000I0J220000D01*
G01*
X41800000Y40695000D02*
G75*
G03*
X41580000Y40915000I-220000J0D01*
G01*
%TO.N,DDR3_A9*%
X43060000Y27140000D02*
X42110000Y28090000D01*
X53185000Y54115000D02*
X56800000Y50500000D01*
X42110000Y28090000D02*
X42110000Y29960000D01*
X54840000Y27140000D02*
X43060000Y27140000D01*
X42560000Y54115000D02*
X53185000Y54115000D01*
X42122500Y53677500D02*
X42560000Y54115000D01*
X43150000Y31000000D02*
X43275000Y31000000D01*
X42110000Y29960000D02*
X43150000Y31000000D01*
X56800000Y29100000D02*
X54840000Y27140000D01*
X56800000Y50500000D02*
X56800000Y29100000D01*
%TO.N,DDR3_A4*%
X44243262Y46756738D02*
X44300000Y46700000D01*
X48110000Y41780000D02*
X48400000Y41780000D01*
X48690000Y42330000D02*
X48400000Y42330000D01*
X45930000Y35900000D02*
X45930000Y36190000D01*
X43870000Y35900000D02*
X43021470Y35051472D01*
X45720000Y46920000D02*
X45720000Y46990000D01*
X46270000Y46990000D02*
X46270000Y46920000D01*
X48400000Y37930000D02*
X48180000Y37930000D01*
X45930000Y35610000D02*
X45930000Y35900000D01*
X48110000Y45080000D02*
X48400000Y45080000D01*
X47890000Y42110000D02*
X47890000Y42000000D01*
X43730612Y47488591D02*
X43621009Y47378991D01*
X48400000Y39580000D02*
X48690000Y39580000D01*
X48400000Y37160000D02*
X48400000Y37050000D01*
X48110000Y42880000D02*
X48400000Y42880000D01*
X42830000Y34890000D02*
X42820000Y34900000D01*
X48910000Y45960000D02*
X48910000Y45850000D01*
X45380000Y35900000D02*
X45380000Y35680000D01*
X48400000Y38480000D02*
X48690000Y38480000D01*
X48690000Y44530000D02*
X48400000Y44530000D01*
X47030000Y35610000D02*
X47030000Y35680000D01*
X47890000Y45410000D02*
X47890000Y45300000D01*
X43465445Y47223428D02*
X43415948Y47173931D01*
X48400000Y40680000D02*
X48690000Y40680000D01*
X48690000Y40130000D02*
X48400000Y40130000D01*
X45380000Y35680000D02*
X45380000Y35660000D01*
X47890000Y44310000D02*
X47890000Y44200000D01*
X45710000Y36410000D02*
X45600000Y36410000D01*
X48910000Y41560000D02*
X48910000Y41450000D01*
X44300000Y46700000D02*
X44900000Y46700000D01*
X43804856Y46785023D02*
X43854353Y46834521D01*
X47890000Y43210000D02*
X47890000Y43100000D01*
X46810000Y36410000D02*
X46700000Y36410000D01*
X46490000Y46190000D02*
X46600000Y46190000D01*
X42830000Y34860000D02*
X42830000Y34890000D01*
X47030000Y35900000D02*
X47030000Y36190000D01*
X48400000Y43980000D02*
X48690000Y43980000D01*
X48110000Y39580000D02*
X48400000Y39580000D01*
X44500000Y35900000D02*
X43870000Y35900000D01*
X48910000Y42660000D02*
X48910000Y42550000D01*
X45160000Y35440000D02*
X45050000Y35440000D01*
X48910000Y43760000D02*
X48910000Y43650000D01*
X47030000Y35680000D02*
X47030000Y35900000D01*
X48400000Y42880000D02*
X48690000Y42880000D01*
X48180000Y37930000D02*
X48110000Y37930000D01*
X48400000Y41780000D02*
X48690000Y41780000D01*
X48400000Y45630000D02*
X48110000Y45630000D01*
X46480000Y35900000D02*
X46480000Y35610000D01*
X48690000Y41230000D02*
X48400000Y41230000D01*
X48110000Y37380000D02*
X48180000Y37380000D01*
X43415948Y46862804D02*
X43493729Y46785023D01*
X43621009Y47378991D02*
X43465445Y47223428D01*
X48100000Y46700000D02*
X48400000Y46400000D01*
X48690000Y37930000D02*
X48400000Y37930000D01*
X48620000Y45630000D02*
X48400000Y45630000D01*
X46270000Y46920000D02*
X46270000Y46700000D01*
X48690000Y45630000D02*
X48620000Y45630000D01*
X48400000Y43430000D02*
X48110000Y43430000D01*
X46820000Y46920000D02*
X46820000Y46990000D01*
X42820000Y34960000D02*
X42810000Y34970000D01*
X47890000Y38810000D02*
X47890000Y38700000D01*
X48910000Y39360000D02*
X48910000Y39250000D01*
X47890000Y41010000D02*
X47890000Y40900000D01*
X48400000Y37050000D02*
X48400000Y36500000D01*
X48110000Y40680000D02*
X48400000Y40680000D01*
X48910000Y44860000D02*
X48910000Y44750000D01*
X46820000Y46410000D02*
X46820000Y46700000D01*
X48400000Y39030000D02*
X48110000Y39030000D01*
X47700000Y46700000D02*
X48100000Y46700000D01*
X48110000Y38480000D02*
X48400000Y38480000D01*
X47590000Y46700000D02*
X47700000Y46700000D01*
X48910000Y40460000D02*
X48910000Y40350000D01*
X47890000Y39910000D02*
X47890000Y39800000D01*
X48400000Y45080000D02*
X48690000Y45080000D01*
X44610000Y35900000D02*
X44500000Y35900000D01*
X45380000Y36190000D02*
X45380000Y35900000D01*
X47975735Y36075736D02*
X47800000Y35900000D01*
X42820000Y34900000D02*
X42820000Y34960000D01*
X46820000Y46700000D02*
X46820000Y46920000D01*
X47580000Y35680000D02*
X47580000Y35610000D01*
X44900000Y46700000D02*
X45500000Y46700000D01*
X48110000Y43980000D02*
X48400000Y43980000D01*
X43021470Y35051472D02*
X42830000Y34860000D01*
X46480000Y36190000D02*
X46480000Y35900000D01*
X48620000Y46180000D02*
X48690000Y46180000D01*
X44830000Y35660000D02*
X44830000Y35680000D01*
X48400000Y40130000D02*
X48110000Y40130000D01*
X47370000Y46990000D02*
X47370000Y46920000D01*
X46270000Y46700000D02*
X46270000Y46410000D01*
X48400000Y42330000D02*
X48110000Y42330000D01*
X43560906Y47877500D02*
X43730611Y47707795D01*
X48910000Y38260000D02*
X48910000Y38150000D01*
X43122500Y49677500D02*
X43122500Y48090978D01*
X47360000Y35390000D02*
X47250000Y35390000D01*
X48690000Y39030000D02*
X48400000Y39030000D01*
X48400000Y44530000D02*
X48110000Y44530000D01*
X45940000Y47210000D02*
X46050000Y47210000D01*
X47890000Y37710000D02*
X47890000Y37600000D01*
X47040000Y47210000D02*
X47150000Y47210000D01*
X48690000Y43430000D02*
X48400000Y43430000D01*
X48400000Y41230000D02*
X48110000Y41230000D01*
X43122500Y48090978D02*
X43122500Y47877500D01*
X46260000Y35390000D02*
X46150000Y35390000D01*
X44165480Y46834521D02*
X44243262Y46756738D01*
X48400000Y36500000D02*
X47975735Y36075736D01*
X48690000Y42880000D02*
G75*
G02*
X48910000Y42660000I0J-220000D01*
G01*
X48690000Y40680000D02*
G75*
G02*
X48910000Y40460000I0J-220000D01*
G01*
X46600000Y46190000D02*
G75*
G03*
X46820000Y46410000I0J220000D01*
G01*
X48110000Y39030000D02*
G75*
G03*
X47890000Y38810000I0J-220000D01*
G01*
X47030000Y36190000D02*
G75*
G03*
X46810000Y36410000I-220000J0D01*
G01*
X47890000Y43100000D02*
G75*
G03*
X48110000Y42880000I220000J0D01*
G01*
X48690000Y45080000D02*
G75*
G02*
X48910000Y44860000I0J-220000D01*
G01*
X43493729Y46785023D02*
G75*
G03*
X43804856Y46785022I155564J155565D01*
G01*
X48110000Y40130000D02*
G75*
G03*
X47890000Y39910000I0J-220000D01*
G01*
X48690000Y39580000D02*
G75*
G02*
X48910000Y39360000I0J-220000D01*
G01*
X47580000Y35610000D02*
G75*
G02*
X47360000Y35390000I-220000J0D01*
G01*
X47890000Y42000000D02*
G75*
G03*
X48110000Y41780000I220000J0D01*
G01*
X48110000Y43430000D02*
G75*
G03*
X47890000Y43210000I0J-220000D01*
G01*
X47150000Y47210000D02*
G75*
G02*
X47370000Y46990000I0J-220000D01*
G01*
X48910000Y43650000D02*
G75*
G02*
X48690000Y43430000I-220000J0D01*
G01*
X43122500Y47877500D02*
G75*
G03*
X43341701Y47877501I109600J109600D01*
G01*
X45050000Y35440000D02*
G75*
G02*
X44830000Y35660000I0J220000D01*
G01*
X47890000Y44200000D02*
G75*
G03*
X48110000Y43980000I220000J0D01*
G01*
X47890000Y45300000D02*
G75*
G03*
X48110000Y45080000I220000J0D01*
G01*
X48690000Y46180000D02*
G75*
G02*
X48910000Y45960000I0J-220000D01*
G01*
X47890000Y37600000D02*
G75*
G03*
X48110000Y37380000I220000J0D01*
G01*
X46820000Y46990000D02*
G75*
G02*
X47040000Y47210000I220000J0D01*
G01*
X48690000Y41780000D02*
G75*
G02*
X48910000Y41560000I0J-220000D01*
G01*
X43341704Y47877499D02*
G75*
G02*
X43560900Y47877495I109596J-109599D01*
G01*
X48110000Y41230000D02*
G75*
G03*
X47890000Y41010000I0J-220000D01*
G01*
X48910000Y44750000D02*
G75*
G02*
X48690000Y44530000I-220000J0D01*
G01*
X46270000Y46410000D02*
G75*
G03*
X46490000Y46190000I220000J0D01*
G01*
X48690000Y38480000D02*
G75*
G02*
X48910000Y38260000I0J-220000D01*
G01*
X43854353Y46834521D02*
G75*
G02*
X44165480Y46834522I155564J-155565D01*
G01*
X43415948Y47173931D02*
G75*
G03*
X43415980Y46862837I155552J-155531D01*
G01*
X48910000Y45850000D02*
G75*
G02*
X48690000Y45630000I-220000J0D01*
G01*
X45380000Y35660000D02*
G75*
G02*
X45160000Y35440000I-220000J0D01*
G01*
X45720000Y46990000D02*
G75*
G02*
X45940000Y47210000I220000J0D01*
G01*
X45500000Y46700000D02*
G75*
G03*
X45720000Y46920000I0J220000D01*
G01*
X48180000Y37380000D02*
G75*
G02*
X48400000Y37160000I0J-220000D01*
G01*
X47800000Y35900000D02*
G75*
G03*
X47580000Y35680000I0J-220000D01*
G01*
X48110000Y42330000D02*
G75*
G03*
X47890000Y42110000I0J-220000D01*
G01*
X46480000Y35610000D02*
G75*
G02*
X46260000Y35390000I-220000J0D01*
G01*
X45600000Y36410000D02*
G75*
G03*
X45380000Y36190000I0J-220000D01*
G01*
X46050000Y47210000D02*
G75*
G02*
X46270000Y46990000I0J-220000D01*
G01*
X45930000Y36190000D02*
G75*
G03*
X45710000Y36410000I-220000J0D01*
G01*
X48910000Y40350000D02*
G75*
G02*
X48690000Y40130000I-220000J0D01*
G01*
X47250000Y35390000D02*
G75*
G02*
X47030000Y35610000I0J220000D01*
G01*
X46150000Y35390000D02*
G75*
G02*
X45930000Y35610000I0J220000D01*
G01*
X48690000Y43980000D02*
G75*
G02*
X48910000Y43760000I0J-220000D01*
G01*
X44830000Y35680000D02*
G75*
G03*
X44610000Y35900000I-220000J0D01*
G01*
X48110000Y44530000D02*
G75*
G03*
X47890000Y44310000I0J-220000D01*
G01*
X48910000Y41450000D02*
G75*
G02*
X48690000Y41230000I-220000J0D01*
G01*
X48910000Y38150000D02*
G75*
G02*
X48690000Y37930000I-220000J0D01*
G01*
X46700000Y36410000D02*
G75*
G03*
X46480000Y36190000I0J-220000D01*
G01*
X48110000Y37930000D02*
G75*
G03*
X47890000Y37710000I0J-220000D01*
G01*
X48910000Y39250000D02*
G75*
G02*
X48690000Y39030000I-220000J0D01*
G01*
X48110000Y45630000D02*
G75*
G03*
X47890000Y45410000I0J-220000D01*
G01*
X48400000Y46400000D02*
G75*
G03*
X48620000Y46180000I220000J0D01*
G01*
X43730611Y47707795D02*
G75*
G02*
X43730605Y47488598I-109611J-109595D01*
G01*
X48910000Y42550000D02*
G75*
G02*
X48690000Y42330000I-220000J0D01*
G01*
X47890000Y38700000D02*
G75*
G03*
X48110000Y38480000I220000J0D01*
G01*
X47890000Y40900000D02*
G75*
G03*
X48110000Y40680000I220000J0D01*
G01*
X47370000Y46920000D02*
G75*
G03*
X47590000Y46700000I220000J0D01*
G01*
X47890000Y39800000D02*
G75*
G03*
X48110000Y39580000I220000J0D01*
G01*
%TO.N,DDR3_A6*%
X49850000Y42200000D02*
X50000000Y42200000D01*
X50150000Y35600000D02*
X50000000Y35600000D01*
X49850000Y36200000D02*
X50000000Y36200000D01*
X48331281Y47800000D02*
X48631281Y47800000D01*
X45131281Y47350000D02*
X45131281Y47500000D01*
X49850000Y45800000D02*
X50000000Y45800000D01*
X49700000Y39050000D02*
X49700000Y38750000D01*
X43560000Y49378264D02*
X43560000Y48321281D01*
X49231281Y47500000D02*
X49700000Y47500000D01*
X49850000Y39800000D02*
X50000000Y39800000D01*
X49700000Y42650000D02*
X49700000Y42350000D01*
X45979715Y34420285D02*
X45767584Y34632416D01*
X50300000Y36050000D02*
X50300000Y35750000D01*
X45131281Y47500000D02*
X45131281Y47650000D01*
X50000000Y34550000D02*
X50000000Y33400000D01*
X50150000Y38000000D02*
X50000000Y38000000D01*
X50150000Y40400000D02*
X50000000Y40400000D01*
X49700000Y41450000D02*
X49700000Y41150000D01*
X50000000Y45200000D02*
X49850000Y45200000D01*
X50150000Y42800000D02*
X50000000Y42800000D01*
X50000000Y44600000D02*
X50150000Y44600000D01*
X45281281Y47800000D02*
X45581281Y47800000D01*
X50000000Y37400000D02*
X50150000Y37400000D01*
X48600000Y32600000D02*
X48300000Y32600000D01*
X49540380Y32940381D02*
X49500000Y32900000D01*
X50000000Y45800000D02*
X50150000Y45800000D01*
X45767584Y34632416D02*
X45255000Y35145000D01*
X47581281Y47500000D02*
X47581281Y47350000D01*
X49700000Y46250000D02*
X49700000Y45950000D01*
X49850000Y41000000D02*
X50000000Y41000000D01*
X46191847Y33783888D02*
X45979714Y33996021D01*
X47040380Y33783886D02*
X46828247Y33996019D01*
X46510048Y33889953D02*
X46510047Y33889953D01*
X50150000Y45200000D02*
X50000000Y45200000D01*
X50000000Y39800000D02*
X50150000Y39800000D01*
X44655000Y35145000D02*
X43660000Y34150000D01*
X50000000Y38000000D02*
X49850000Y38000000D01*
X50000000Y43400000D02*
X50150000Y43400000D01*
X50000000Y44000000D02*
X49850000Y44000000D01*
X46616115Y33996019D02*
X46510048Y33889953D01*
X50000000Y36200000D02*
X50150000Y36200000D01*
X49850000Y43400000D02*
X50000000Y43400000D01*
X49700000Y40250000D02*
X49700000Y39950000D01*
X48931281Y47500000D02*
X49231281Y47500000D01*
X50300000Y39650000D02*
X50300000Y39350000D01*
X46181281Y47500000D02*
X46831281Y47500000D01*
X49700000Y35450000D02*
X49700000Y35150000D01*
X48750000Y33050000D02*
X48750000Y32900000D01*
X50000000Y41600000D02*
X49850000Y41600000D01*
X50000000Y42200000D02*
X50150000Y42200000D01*
X49700000Y43850000D02*
X49700000Y43550000D01*
X43560000Y50240000D02*
X43560000Y49378264D01*
X47700000Y32900000D02*
X47500000Y32900000D01*
X48181281Y47350000D02*
X48181281Y47500000D01*
X50150000Y44000000D02*
X50000000Y44000000D01*
X50000000Y42800000D02*
X49850000Y42800000D01*
X50000000Y40400000D02*
X49850000Y40400000D01*
X50300000Y42050000D02*
X50300000Y41750000D01*
X50300000Y37250000D02*
X50300000Y36950000D01*
X45881281Y47500000D02*
X46181281Y47500000D01*
X49700000Y37850000D02*
X49700000Y37550000D01*
X49700000Y36650000D02*
X49700000Y36350000D01*
X50000000Y35600000D02*
X49850000Y35600000D01*
X50000000Y47200000D02*
X50000000Y46550000D01*
X47731281Y47200000D02*
X48031281Y47200000D01*
X50300000Y43250000D02*
X50300000Y42950000D01*
X48750000Y32900000D02*
X48750000Y32750000D01*
X46510047Y33889953D02*
X46403979Y33783888D01*
X50000000Y39200000D02*
X49850000Y39200000D01*
X50000000Y34850000D02*
X50000000Y34550000D01*
X50300000Y40850000D02*
X50300000Y40550000D01*
X50150000Y36800000D02*
X50000000Y36800000D01*
X49850000Y37400000D02*
X50000000Y37400000D01*
X50150000Y41600000D02*
X50000000Y41600000D01*
X50300000Y44450000D02*
X50300000Y44150000D01*
X50000000Y41000000D02*
X50150000Y41000000D01*
X47581281Y47650000D02*
X47581281Y47500000D01*
X50300000Y45650000D02*
X50300000Y45350000D01*
X50000000Y33400000D02*
X49540380Y32940381D01*
X49700000Y47500000D02*
X50000000Y47200000D01*
X49850000Y38600000D02*
X50000000Y38600000D01*
X45255000Y35145000D02*
X44978571Y35145000D01*
X49850000Y44600000D02*
X50000000Y44600000D01*
X48000000Y32900000D02*
X47700000Y32900000D01*
X50000000Y38600000D02*
X50150000Y38600000D01*
X50300000Y38450000D02*
X50300000Y38150000D01*
X49700000Y45050000D02*
X49700000Y44750000D01*
X43122500Y50677500D02*
X43560000Y50240000D01*
X50000000Y36800000D02*
X49850000Y36800000D01*
X44681281Y47200000D02*
X44981281Y47200000D01*
X49200000Y33200000D02*
X48900000Y33200000D01*
X44978571Y35145000D02*
X44655000Y35145000D01*
X43560000Y48321281D02*
X44019619Y47861662D01*
X47500000Y32900000D02*
X47040380Y33359620D01*
X50150000Y39200000D02*
X50000000Y39200000D01*
X44019619Y47861662D02*
X44381281Y47500000D01*
X48181281Y47500000D02*
X48181281Y47650000D01*
X47131281Y47800000D02*
X47431281Y47800000D01*
X44381281Y47500000D02*
G75*
G02*
X44531300Y47350000I19J-150000D01*
G01*
X50300000Y45350000D02*
G75*
G02*
X50150000Y45200000I-150000J0D01*
G01*
X49850000Y46400000D02*
G75*
G03*
X49700000Y46250000I0J-150000D01*
G01*
X48750000Y32750000D02*
G75*
G02*
X48600000Y32600000I-150000J0D01*
G01*
X50300000Y39350000D02*
G75*
G02*
X50150000Y39200000I-150000J0D01*
G01*
X49700000Y45950000D02*
G75*
G03*
X49850000Y45800000I150000J0D01*
G01*
X49850000Y38000000D02*
G75*
G03*
X49700000Y37850000I0J-150000D01*
G01*
X49700000Y38750000D02*
G75*
G03*
X49850000Y38600000I150000J0D01*
G01*
X47431281Y47800000D02*
G75*
G02*
X47581300Y47650000I19J-150000D01*
G01*
X46828247Y33996019D02*
G75*
G03*
X46616115Y33996019I-106066J-106066D01*
G01*
X50300000Y44150000D02*
G75*
G02*
X50150000Y44000000I-150000J0D01*
G01*
X48781281Y47650000D02*
G75*
G03*
X48931281Y47499981I150019J0D01*
G01*
X50300000Y35750000D02*
G75*
G02*
X50150000Y35600000I-150000J0D01*
G01*
X45131281Y47650000D02*
G75*
G02*
X45281281Y47800019I150019J0D01*
G01*
X50150000Y45800000D02*
G75*
G02*
X50300000Y45650000I0J-150000D01*
G01*
X50300000Y38150000D02*
G75*
G02*
X50150000Y38000000I-150000J0D01*
G01*
X49850000Y44000000D02*
G75*
G03*
X49700000Y43850000I0J-150000D01*
G01*
X46403979Y33783888D02*
G75*
G02*
X46191847Y33783888I-106066J106066D01*
G01*
X49700000Y35150000D02*
G75*
G03*
X49850000Y35000000I150000J0D01*
G01*
X48900000Y33200000D02*
G75*
G03*
X48750000Y33050000I0J-150000D01*
G01*
X48181281Y47650000D02*
G75*
G02*
X48331281Y47800019I150019J0D01*
G01*
X50150000Y36200000D02*
G75*
G02*
X50300000Y36050000I0J-150000D01*
G01*
X44981281Y47200000D02*
G75*
G03*
X45131300Y47350000I19J150000D01*
G01*
X45731281Y47650000D02*
G75*
G03*
X45881281Y47499981I150019J0D01*
G01*
X49850000Y40400000D02*
G75*
G03*
X49700000Y40250000I0J-150000D01*
G01*
X50300000Y36950000D02*
G75*
G02*
X50150000Y36800000I-150000J0D01*
G01*
X45581281Y47800000D02*
G75*
G02*
X45731300Y47650000I19J-150000D01*
G01*
X49700000Y43550000D02*
G75*
G03*
X49850000Y43400000I150000J0D01*
G01*
X49850000Y39200000D02*
G75*
G03*
X49700000Y39050000I0J-150000D01*
G01*
X49350000Y33050000D02*
G75*
G03*
X49200000Y33200000I-150000J0D01*
G01*
X50150000Y41000000D02*
G75*
G02*
X50300000Y40850000I0J-150000D01*
G01*
X48031281Y47200000D02*
G75*
G03*
X48181300Y47350000I19J150000D01*
G01*
X48300000Y32600000D02*
G75*
G02*
X48150000Y32750000I0J150000D01*
G01*
X47040380Y33571753D02*
G75*
G03*
X47040361Y33783867I-106080J106047D01*
G01*
X49850000Y41600000D02*
G75*
G03*
X49700000Y41450000I0J-150000D01*
G01*
X49850000Y45200000D02*
G75*
G03*
X49700000Y45050000I0J-150000D01*
G01*
X46831281Y47500000D02*
G75*
G03*
X46981300Y47650000I19J150000D01*
G01*
X46981281Y47650000D02*
G75*
G02*
X47131281Y47800019I150019J0D01*
G01*
X49700000Y42350000D02*
G75*
G03*
X49850000Y42200000I150000J0D01*
G01*
X50150000Y43400000D02*
G75*
G02*
X50300000Y43250000I0J-150000D01*
G01*
X50300000Y42950000D02*
G75*
G02*
X50150000Y42800000I-150000J0D01*
G01*
X49850000Y35000000D02*
G75*
G02*
X50000000Y34850000I0J-150000D01*
G01*
X50300000Y40550000D02*
G75*
G02*
X50150000Y40400000I-150000J0D01*
G01*
X48150000Y32750000D02*
G75*
G03*
X48000000Y32900000I-150000J0D01*
G01*
X49850000Y42800000D02*
G75*
G03*
X49700000Y42650000I0J-150000D01*
G01*
X49700000Y37550000D02*
G75*
G03*
X49850000Y37400000I150000J0D01*
G01*
X50150000Y39800000D02*
G75*
G02*
X50300000Y39650000I0J-150000D01*
G01*
X44531281Y47350000D02*
G75*
G03*
X44681281Y47199981I150019J0D01*
G01*
X45979714Y33996021D02*
G75*
G02*
X45979701Y34208166I106086J106079D01*
G01*
X49850000Y35600000D02*
G75*
G03*
X49700000Y35450000I0J-150000D01*
G01*
X49850000Y36800000D02*
G75*
G03*
X49700000Y36650000I0J-150000D01*
G01*
X47040380Y33359620D02*
G75*
G02*
X47040366Y33571767I106020J106080D01*
G01*
X49500000Y32900000D02*
G75*
G02*
X49350000Y33050000I0J150000D01*
G01*
X49700000Y44750000D02*
G75*
G03*
X49850000Y44600000I150000J0D01*
G01*
X49700000Y41150000D02*
G75*
G03*
X49850000Y41000000I150000J0D01*
G01*
X50150000Y42200000D02*
G75*
G02*
X50300000Y42050000I0J-150000D01*
G01*
X45979714Y34208153D02*
G75*
G03*
X45979696Y34420265I-106014J106047D01*
G01*
X48631281Y47800000D02*
G75*
G02*
X48781300Y47650000I19J-150000D01*
G01*
X47581281Y47350000D02*
G75*
G03*
X47731281Y47199981I150019J0D01*
G01*
X50150000Y44600000D02*
G75*
G02*
X50300000Y44450000I0J-150000D01*
G01*
X50300000Y41750000D02*
G75*
G02*
X50150000Y41600000I-150000J0D01*
G01*
X49700000Y39950000D02*
G75*
G03*
X49850000Y39800000I150000J0D01*
G01*
X49700000Y36350000D02*
G75*
G03*
X49850000Y36200000I150000J0D01*
G01*
X50150000Y38600000D02*
G75*
G02*
X50300000Y38450000I0J-150000D01*
G01*
X50150000Y37400000D02*
G75*
G02*
X50300000Y37250000I0J-150000D01*
G01*
X50000000Y46550000D02*
G75*
G02*
X49850000Y46400000I-150000J0D01*
G01*
%TO.N,DDR3_A14*%
X46240000Y49000000D02*
X46240000Y49090000D01*
X52020000Y38120000D02*
X52020000Y37750000D01*
X52200000Y36010000D02*
X52110000Y36010000D01*
X51775735Y31575736D02*
X51600000Y31400000D01*
X50410000Y31400000D02*
X50410000Y31490000D01*
X52200000Y32250000D02*
X52200000Y32000000D01*
X50090000Y49090000D02*
X50090000Y49000000D01*
X52200000Y42610000D02*
X52110000Y42610000D01*
X52200000Y40960000D02*
X52290000Y40960000D01*
X48440000Y48910000D02*
X48440000Y49000000D01*
X52200000Y47560000D02*
X52290000Y47560000D01*
X49630000Y49180000D02*
X50000000Y49180000D01*
X52380000Y46370000D02*
X52380000Y46000000D01*
X52290000Y42610000D02*
X52200000Y42610000D01*
X52020000Y34820000D02*
X52020000Y34450000D01*
X51400000Y49000000D02*
X51824264Y48575736D01*
X49860000Y31400000D02*
X49860000Y31310000D01*
X46880000Y48820000D02*
X47250000Y48820000D01*
X52380000Y47470000D02*
X52380000Y47100000D01*
X50730000Y49000000D02*
X51100000Y49000000D01*
X44580000Y33380000D02*
X44580000Y33760000D01*
X48990000Y49000000D02*
X48990000Y48910000D01*
X46790000Y49090000D02*
X46790000Y49000000D01*
X52200000Y37110000D02*
X52110000Y37110000D01*
X52110000Y38760000D02*
X52200000Y38760000D01*
X48210000Y31400000D02*
X48210000Y31490000D01*
X44500000Y32700000D02*
X44500000Y33300000D01*
X52200000Y32620000D02*
X52200000Y32250000D01*
X52020000Y40320000D02*
X52020000Y39950000D01*
X52380000Y37570000D02*
X52380000Y37200000D01*
X47340000Y48910000D02*
X47340000Y49000000D01*
X52020000Y46920000D02*
X52020000Y46550000D01*
X52110000Y42060000D02*
X52200000Y42060000D01*
X49310000Y31310000D02*
X49310000Y31400000D01*
X49540000Y49000000D02*
X49540000Y49090000D01*
X49220000Y31580000D02*
X48850000Y31580000D01*
X52200000Y42060000D02*
X52290000Y42060000D01*
X52200000Y34910000D02*
X52110000Y34910000D01*
X52020000Y41420000D02*
X52020000Y41050000D01*
X52290000Y34910000D02*
X52200000Y34910000D01*
X47570000Y31400000D02*
X47200000Y31400000D01*
X52380000Y40870000D02*
X52380000Y40500000D01*
X48760000Y31490000D02*
X48760000Y31400000D01*
X52380000Y39770000D02*
X52380000Y39400000D01*
X52110000Y37660000D02*
X52200000Y37660000D01*
X47340000Y49000000D02*
X47340000Y49090000D01*
X47200000Y31400000D02*
X46600000Y31400000D01*
X49860000Y31490000D02*
X49860000Y31400000D01*
X52110000Y39860000D02*
X52200000Y39860000D01*
X52290000Y40410000D02*
X52200000Y40410000D01*
X52200000Y33810000D02*
X52110000Y33810000D01*
X52110000Y44260000D02*
X52200000Y44260000D01*
X52110000Y40960000D02*
X52200000Y40960000D01*
X52380000Y45270000D02*
X52380000Y44900000D01*
X52200000Y37660000D02*
X52290000Y37660000D01*
X44800000Y32400000D02*
X44500000Y32700000D01*
X51420000Y31580000D02*
X51050000Y31580000D01*
X52020000Y37020000D02*
X52020000Y36650000D01*
X52200000Y33260000D02*
X52290000Y33260000D01*
X52020000Y39220000D02*
X52020000Y38850000D01*
X51100000Y49000000D02*
X51400000Y49000000D01*
X52020000Y43620000D02*
X52020000Y43250000D01*
X52290000Y43710000D02*
X52200000Y43710000D01*
X44685000Y49496281D02*
X45031281Y49150000D01*
X52200000Y35460000D02*
X52290000Y35460000D01*
X52290000Y41510000D02*
X52200000Y41510000D01*
X48530000Y49180000D02*
X48900000Y49180000D01*
X52200000Y38210000D02*
X52110000Y38210000D01*
X52110000Y34360000D02*
X52200000Y34360000D01*
X52200000Y39310000D02*
X52110000Y39310000D01*
X48670000Y31220000D02*
X48300000Y31220000D01*
X44685000Y50733719D02*
X44685000Y49496281D01*
X52380000Y34270000D02*
X52380000Y33900000D01*
X52380000Y35370000D02*
X52380000Y35000000D01*
X47980000Y48820000D02*
X48350000Y48820000D01*
X49080000Y48820000D02*
X49450000Y48820000D01*
X52020000Y44720000D02*
X52020000Y44350000D01*
X52380000Y43070000D02*
X52380000Y42700000D01*
X49310000Y31400000D02*
X49310000Y31490000D01*
X45600000Y32400000D02*
X44800000Y32400000D01*
X46240000Y48910000D02*
X46240000Y49000000D01*
X50960000Y31400000D02*
X50960000Y31310000D01*
X52290000Y47010000D02*
X52200000Y47010000D01*
X52110000Y45360000D02*
X52200000Y45360000D01*
X47890000Y49090000D02*
X47890000Y49000000D01*
X46330000Y49180000D02*
X46700000Y49180000D01*
X45780000Y48820000D02*
X46150000Y48820000D01*
X44303719Y51115000D02*
X44685000Y50733719D01*
X50870000Y31220000D02*
X50500000Y31220000D01*
X46600000Y31400000D02*
X45600000Y32400000D01*
X52290000Y33810000D02*
X52200000Y33810000D01*
X49770000Y31220000D02*
X49400000Y31220000D01*
X52200000Y45910000D02*
X52110000Y45910000D01*
X52200000Y47010000D02*
X52110000Y47010000D01*
X52200000Y46460000D02*
X52290000Y46460000D01*
X52200000Y43710000D02*
X52110000Y43710000D01*
X52020000Y33720000D02*
X52020000Y33350000D01*
X52290000Y45910000D02*
X52200000Y45910000D01*
X52290000Y44810000D02*
X52200000Y44810000D01*
X52290000Y38210000D02*
X52200000Y38210000D01*
X52200000Y43160000D02*
X52290000Y43160000D01*
X51824264Y48575736D02*
X52200000Y48200000D01*
X47430000Y49180000D02*
X47800000Y49180000D01*
X52200000Y39860000D02*
X52290000Y39860000D01*
X52020000Y35920000D02*
X52020000Y35550000D01*
X48760000Y31400000D02*
X48760000Y31310000D01*
X52380000Y36470000D02*
X52380000Y36100000D01*
X52020000Y48020000D02*
X52020000Y47650000D01*
X48120000Y31580000D02*
X47750000Y31580000D01*
X52380000Y41970000D02*
X52380000Y41600000D01*
X45450000Y49150000D02*
X45600000Y49000000D01*
X52200000Y44810000D02*
X52110000Y44810000D01*
X50410000Y31310000D02*
X50410000Y31400000D01*
X48210000Y31310000D02*
X48210000Y31400000D01*
X44500000Y33300000D02*
X44580000Y33380000D01*
X52200000Y34360000D02*
X52290000Y34360000D01*
X47890000Y49000000D02*
X47890000Y48910000D01*
X52380000Y44170000D02*
X52380000Y43800000D01*
X45031281Y49150000D02*
X45450000Y49150000D01*
X49540000Y48910000D02*
X49540000Y49000000D01*
X52020000Y42520000D02*
X52020000Y42150000D01*
X50320000Y31580000D02*
X49950000Y31580000D01*
X52110000Y43160000D02*
X52200000Y43160000D01*
X52290000Y39310000D02*
X52200000Y39310000D01*
X48440000Y49000000D02*
X48440000Y49090000D01*
X52020000Y45820000D02*
X52020000Y45450000D01*
X46790000Y49000000D02*
X46790000Y48910000D01*
X50180000Y48820000D02*
X50550000Y48820000D01*
X50090000Y49000000D02*
X50090000Y48910000D01*
X52200000Y38760000D02*
X52290000Y38760000D01*
X43122500Y51677500D02*
X43685000Y51115000D01*
X52110000Y35460000D02*
X52200000Y35460000D01*
X52380000Y38670000D02*
X52380000Y38300000D01*
X52110000Y36560000D02*
X52200000Y36560000D01*
X52290000Y36010000D02*
X52200000Y36010000D01*
X52200000Y32000000D02*
X51775735Y31575736D01*
X52200000Y40410000D02*
X52110000Y40410000D01*
X50960000Y31490000D02*
X50960000Y31400000D01*
X48990000Y49090000D02*
X48990000Y49000000D01*
X52200000Y45360000D02*
X52290000Y45360000D01*
X52380000Y33170000D02*
X52380000Y32800000D01*
X52200000Y41510000D02*
X52110000Y41510000D01*
X52110000Y33260000D02*
X52200000Y33260000D01*
X43685000Y51115000D02*
X44303719Y51115000D01*
X52200000Y44260000D02*
X52290000Y44260000D01*
X52200000Y36560000D02*
X52290000Y36560000D01*
X52110000Y47560000D02*
X52200000Y47560000D01*
X52290000Y37110000D02*
X52200000Y37110000D01*
X52110000Y46460000D02*
X52200000Y46460000D01*
X52290000Y32710000D02*
G75*
G03*
X52200000Y32620000I0J-90000D01*
G01*
X52020000Y44350000D02*
G75*
G03*
X52110000Y44260000I90000J0D01*
G01*
X52110000Y44810000D02*
G75*
G03*
X52020000Y44720000I0J-90000D01*
G01*
X52380000Y32800000D02*
G75*
G02*
X52290000Y32710000I-90000J0D01*
G01*
X50410000Y31490000D02*
G75*
G03*
X50320000Y31580000I-90000J0D01*
G01*
X52110000Y34910000D02*
G75*
G03*
X52020000Y34820000I0J-90000D01*
G01*
X52290000Y46460000D02*
G75*
G02*
X52380000Y46370000I0J-90000D01*
G01*
X52290000Y35460000D02*
G75*
G02*
X52380000Y35370000I0J-90000D01*
G01*
X52110000Y48110000D02*
G75*
G03*
X52020000Y48020000I0J-90000D01*
G01*
X50640000Y48910000D02*
G75*
G02*
X50730000Y49000000I90000J0D01*
G01*
X52290000Y36560000D02*
G75*
G02*
X52380000Y36470000I0J-90000D01*
G01*
X52020000Y41050000D02*
G75*
G03*
X52110000Y40960000I90000J0D01*
G01*
X50960000Y31310000D02*
G75*
G02*
X50870000Y31220000I-90000J0D01*
G01*
X52020000Y46550000D02*
G75*
G03*
X52110000Y46460000I90000J0D01*
G01*
X52020000Y45450000D02*
G75*
G03*
X52110000Y45360000I90000J0D01*
G01*
X47340000Y49090000D02*
G75*
G02*
X47430000Y49180000I90000J0D01*
G01*
X52020000Y33350000D02*
G75*
G03*
X52110000Y33260000I90000J0D01*
G01*
X50000000Y49180000D02*
G75*
G02*
X50090000Y49090000I0J-90000D01*
G01*
X52020000Y47650000D02*
G75*
G03*
X52110000Y47560000I90000J0D01*
G01*
X47800000Y49180000D02*
G75*
G02*
X47890000Y49090000I0J-90000D01*
G01*
X47250000Y48820000D02*
G75*
G03*
X47340000Y48910000I0J90000D01*
G01*
X51600000Y31400000D02*
G75*
G02*
X51510000Y31490000I0J90000D01*
G01*
X52380000Y33900000D02*
G75*
G02*
X52290000Y33810000I-90000J0D01*
G01*
X52110000Y41510000D02*
G75*
G03*
X52020000Y41420000I0J-90000D01*
G01*
X52110000Y37110000D02*
G75*
G03*
X52020000Y37020000I0J-90000D01*
G01*
X52290000Y43160000D02*
G75*
G02*
X52380000Y43070000I0J-90000D01*
G01*
X52290000Y42060000D02*
G75*
G02*
X52380000Y41970000I0J-90000D01*
G01*
X52380000Y35000000D02*
G75*
G02*
X52290000Y34910000I-90000J0D01*
G01*
X48210000Y31490000D02*
G75*
G03*
X48120000Y31580000I-90000J0D01*
G01*
X45690000Y48910000D02*
G75*
G03*
X45780000Y48820000I90000J0D01*
G01*
X49860000Y31310000D02*
G75*
G02*
X49770000Y31220000I-90000J0D01*
G01*
X51510000Y31490000D02*
G75*
G03*
X51420000Y31580000I-90000J0D01*
G01*
X52020000Y39950000D02*
G75*
G03*
X52110000Y39860000I90000J0D01*
G01*
X52020000Y42150000D02*
G75*
G03*
X52110000Y42060000I90000J0D01*
G01*
X52110000Y42610000D02*
G75*
G03*
X52020000Y42520000I0J-90000D01*
G01*
X52380000Y41600000D02*
G75*
G02*
X52290000Y41510000I-90000J0D01*
G01*
X52380000Y36100000D02*
G75*
G02*
X52290000Y36010000I-90000J0D01*
G01*
X48990000Y48910000D02*
G75*
G03*
X49080000Y48820000I90000J0D01*
G01*
X52020000Y35550000D02*
G75*
G03*
X52110000Y35460000I90000J0D01*
G01*
X52380000Y39400000D02*
G75*
G02*
X52290000Y39310000I-90000J0D01*
G01*
X52290000Y34360000D02*
G75*
G02*
X52380000Y34270000I0J-90000D01*
G01*
X49400000Y31220000D02*
G75*
G02*
X49310000Y31310000I0J90000D01*
G01*
X48300000Y31220000D02*
G75*
G02*
X48210000Y31310000I0J90000D01*
G01*
X48440000Y49090000D02*
G75*
G02*
X48530000Y49180000I90000J0D01*
G01*
X52380000Y40500000D02*
G75*
G02*
X52290000Y40410000I-90000J0D01*
G01*
X48350000Y48820000D02*
G75*
G03*
X48440000Y48910000I0J90000D01*
G01*
X50090000Y48910000D02*
G75*
G03*
X50180000Y48820000I90000J0D01*
G01*
X49950000Y31580000D02*
G75*
G03*
X49860000Y31490000I0J-90000D01*
G01*
X52110000Y45910000D02*
G75*
G03*
X52020000Y45820000I0J-90000D01*
G01*
X52110000Y36010000D02*
G75*
G03*
X52020000Y35920000I0J-90000D01*
G01*
X46700000Y49180000D02*
G75*
G02*
X46790000Y49090000I0J-90000D01*
G01*
X46790000Y48910000D02*
G75*
G03*
X46880000Y48820000I90000J0D01*
G01*
X52380000Y37200000D02*
G75*
G02*
X52290000Y37110000I-90000J0D01*
G01*
X52290000Y40960000D02*
G75*
G02*
X52380000Y40870000I0J-90000D01*
G01*
X52020000Y36650000D02*
G75*
G03*
X52110000Y36560000I90000J0D01*
G01*
X52200000Y48200000D02*
G75*
G02*
X52110000Y48110000I-90000J0D01*
G01*
X52020000Y34450000D02*
G75*
G03*
X52110000Y34360000I90000J0D01*
G01*
X47660000Y31490000D02*
G75*
G02*
X47570000Y31400000I-90000J0D01*
G01*
X52110000Y33810000D02*
G75*
G03*
X52020000Y33720000I0J-90000D01*
G01*
X49310000Y31490000D02*
G75*
G03*
X49220000Y31580000I-90000J0D01*
G01*
X52020000Y43250000D02*
G75*
G03*
X52110000Y43160000I90000J0D01*
G01*
X52380000Y43800000D02*
G75*
G02*
X52290000Y43710000I-90000J0D01*
G01*
X52110000Y47010000D02*
G75*
G03*
X52020000Y46920000I0J-90000D01*
G01*
X47750000Y31580000D02*
G75*
G03*
X47660000Y31490000I0J-90000D01*
G01*
X52290000Y39860000D02*
G75*
G02*
X52380000Y39770000I0J-90000D01*
G01*
X52380000Y46000000D02*
G75*
G02*
X52290000Y45910000I-90000J0D01*
G01*
X49540000Y49090000D02*
G75*
G02*
X49630000Y49180000I90000J0D01*
G01*
X48900000Y49180000D02*
G75*
G02*
X48990000Y49090000I0J-90000D01*
G01*
X49450000Y48820000D02*
G75*
G03*
X49540000Y48910000I0J90000D01*
G01*
X52110000Y40410000D02*
G75*
G03*
X52020000Y40320000I0J-90000D01*
G01*
X52020000Y37750000D02*
G75*
G03*
X52110000Y37660000I90000J0D01*
G01*
X47890000Y48910000D02*
G75*
G03*
X47980000Y48820000I90000J0D01*
G01*
X52380000Y42700000D02*
G75*
G02*
X52290000Y42610000I-90000J0D01*
G01*
X52290000Y45360000D02*
G75*
G02*
X52380000Y45270000I0J-90000D01*
G01*
X48760000Y31310000D02*
G75*
G02*
X48670000Y31220000I-90000J0D01*
G01*
X46240000Y49090000D02*
G75*
G02*
X46330000Y49180000I90000J0D01*
G01*
X52020000Y38850000D02*
G75*
G03*
X52110000Y38760000I90000J0D01*
G01*
X52110000Y43710000D02*
G75*
G03*
X52020000Y43620000I0J-90000D01*
G01*
X51050000Y31580000D02*
G75*
G03*
X50960000Y31490000I0J-90000D01*
G01*
X52110000Y39310000D02*
G75*
G03*
X52020000Y39220000I0J-90000D01*
G01*
X52290000Y37660000D02*
G75*
G02*
X52380000Y37570000I0J-90000D01*
G01*
X45600000Y49000000D02*
G75*
G02*
X45690000Y48910000I0J-90000D01*
G01*
X52290000Y47560000D02*
G75*
G02*
X52380000Y47470000I0J-90000D01*
G01*
X48850000Y31580000D02*
G75*
G03*
X48760000Y31490000I0J-90000D01*
G01*
X52380000Y44900000D02*
G75*
G02*
X52290000Y44810000I-90000J0D01*
G01*
X50550000Y48820000D02*
G75*
G03*
X50640000Y48910000I0J90000D01*
G01*
X52290000Y33260000D02*
G75*
G02*
X52380000Y33170000I0J-90000D01*
G01*
X52380000Y47100000D02*
G75*
G02*
X52290000Y47010000I-90000J0D01*
G01*
X46150000Y48820000D02*
G75*
G03*
X46240000Y48910000I0J90000D01*
G01*
X52380000Y38300000D02*
G75*
G02*
X52290000Y38210000I-90000J0D01*
G01*
X50500000Y31220000D02*
G75*
G02*
X50410000Y31310000I0J90000D01*
G01*
X52290000Y44260000D02*
G75*
G02*
X52380000Y44170000I0J-90000D01*
G01*
X52290000Y38760000D02*
G75*
G02*
X52380000Y38670000I0J-90000D01*
G01*
X52110000Y38210000D02*
G75*
G03*
X52020000Y38120000I0J-90000D01*
G01*
%TO.N,DDR3_A7*%
X54032385Y50891358D02*
X53970512Y50829488D01*
X55000000Y43700000D02*
X55000000Y43102487D01*
X55175000Y45725000D02*
X55175000Y45350000D01*
X52685000Y52115000D02*
X53519733Y51280267D01*
X55000000Y43102487D02*
X55000000Y30300000D01*
X55000000Y48012500D02*
X55087500Y48012500D01*
X55175000Y49025000D02*
X55175000Y48650000D01*
X55000000Y45262500D02*
X54912500Y45262500D01*
X55087500Y47462500D02*
X55000000Y47462500D01*
X55087500Y48562500D02*
X55000000Y48562500D01*
X45335000Y53115000D02*
X45685000Y52765000D01*
X53908640Y50643873D02*
X54173805Y50378708D01*
X54825000Y46275000D02*
X54825000Y45900000D01*
X55175000Y44625000D02*
X55175000Y44250000D01*
X45685000Y52496281D02*
X46066281Y52115000D01*
X43122500Y52677500D02*
X43560000Y53115000D01*
X55000000Y48562500D02*
X54912500Y48562500D01*
X55000000Y46362500D02*
X54912500Y46362500D01*
X54912500Y48012500D02*
X55000000Y48012500D01*
X55087500Y46362500D02*
X55000000Y46362500D01*
X43560000Y53115000D02*
X45335000Y53115000D01*
X53500000Y28800000D02*
X44210000Y28800000D01*
X54912500Y44712500D02*
X55000000Y44712500D01*
X53767219Y51280267D02*
X54032384Y51015102D01*
X54912500Y45812500D02*
X55000000Y45812500D01*
X54912500Y46912500D02*
X55000000Y46912500D01*
X46066281Y52115000D02*
X52685000Y52115000D01*
X54825000Y48475000D02*
X54825000Y48100000D01*
X55000000Y30300000D02*
X53500000Y28800000D01*
X54825000Y47375000D02*
X54825000Y47000000D01*
X44210000Y28800000D02*
X43680000Y29330000D01*
X55087500Y45262500D02*
X55000000Y45262500D01*
X54825000Y45175000D02*
X54825000Y44800000D01*
X54686457Y50113543D02*
X55000000Y49800000D01*
X55000000Y46912500D02*
X55087500Y46912500D01*
X55000000Y45812500D02*
X55087500Y45812500D01*
X45685000Y52765000D02*
X45685000Y52496281D01*
X55000000Y44712500D02*
X55087500Y44712500D01*
X55000000Y44075000D02*
X55000000Y43700000D01*
X55175000Y46825000D02*
X55175000Y46450000D01*
X55000000Y47462500D02*
X54912500Y47462500D01*
X53970512Y50829488D02*
X53908640Y50767617D01*
X54421291Y50378708D02*
X54686457Y50113543D01*
X55000000Y49800000D02*
X55000000Y49200000D01*
X55175000Y47925000D02*
X55175000Y47550000D01*
X55175000Y47550000D02*
G75*
G02*
X55087500Y47462500I-87500J0D01*
G01*
X53643477Y51280266D02*
G75*
G02*
X53767170Y51280219I61823J-61866D01*
G01*
X55087500Y45812500D02*
G75*
G02*
X55175000Y45725000I0J-87500D01*
G01*
X54912500Y45262500D02*
G75*
G03*
X54825000Y45175000I0J-87500D01*
G01*
X54825000Y44800000D02*
G75*
G03*
X54912500Y44712500I87500J0D01*
G01*
X54825000Y48100000D02*
G75*
G03*
X54912500Y48012500I87500J0D01*
G01*
X55175000Y46450000D02*
G75*
G02*
X55087500Y46362500I-87500J0D01*
G01*
X54825000Y45900000D02*
G75*
G03*
X54912500Y45812500I87500J0D01*
G01*
X55087500Y48012500D02*
G75*
G02*
X55175000Y47925000I0J-87500D01*
G01*
X55087500Y44712500D02*
G75*
G02*
X55175000Y44625000I0J-87500D01*
G01*
X55175000Y45350000D02*
G75*
G02*
X55087500Y45262500I-87500J0D01*
G01*
X55175000Y48650000D02*
G75*
G02*
X55087500Y48562500I-87500J0D01*
G01*
X55000000Y49200000D02*
G75*
G03*
X55087500Y49112500I87500J0D01*
G01*
X55087500Y49112500D02*
G75*
G02*
X55175000Y49025000I0J-87500D01*
G01*
X54912500Y46362500D02*
G75*
G03*
X54825000Y46275000I0J-87500D01*
G01*
X54297548Y50378708D02*
G75*
G02*
X54421291Y50378709I61872J-61872D01*
G01*
X54912500Y48562500D02*
G75*
G03*
X54825000Y48475000I0J-87500D01*
G01*
X55175000Y44250000D02*
G75*
G02*
X55087500Y44162500I-87500J0D01*
G01*
X54912500Y47462500D02*
G75*
G03*
X54825000Y47375000I0J-87500D01*
G01*
X54825000Y47000000D02*
G75*
G03*
X54912500Y46912500I87500J0D01*
G01*
X53519733Y51280267D02*
G75*
G03*
X53643471Y51280271I61867J61833D01*
G01*
X55087500Y46912500D02*
G75*
G02*
X55175000Y46825000I0J-87500D01*
G01*
X53908640Y50767617D02*
G75*
G03*
X53908595Y50643828I61860J-61917D01*
G01*
X54173805Y50378708D02*
G75*
G03*
X54297548Y50378707I61872J61872D01*
G01*
X54032384Y51015102D02*
G75*
G02*
X54032415Y50891329I-61884J-61902D01*
G01*
X55087500Y44162500D02*
G75*
G03*
X55000000Y44075000I0J-87500D01*
G01*
%TO.N,DDR3_A8*%
X51000000Y44950000D02*
X51100000Y44950000D01*
X51000000Y41650000D02*
X51100000Y41650000D01*
X51100000Y42200000D02*
X51000000Y42200000D01*
X48700000Y48100000D02*
X49050000Y48100000D01*
X50800000Y39900000D02*
X50800000Y39550000D01*
X50900000Y39450000D02*
X51000000Y39450000D01*
X50900000Y42750000D02*
X51000000Y42750000D01*
X49950000Y32200000D02*
X49950000Y32100000D01*
X51200000Y44850000D02*
X51200000Y44500000D01*
X50800000Y36600000D02*
X50800000Y36250000D01*
X46016115Y32983887D02*
X46016114Y32983886D01*
X51000000Y36700000D02*
X50900000Y36700000D01*
X51000000Y37250000D02*
X51100000Y37250000D01*
X45400000Y48100000D02*
X45750000Y48100000D01*
X51200000Y47050000D02*
X51200000Y46700000D01*
X51000000Y38350000D02*
X51100000Y38350000D01*
X50800000Y41000000D02*
X50800000Y40650000D01*
X46086826Y33054597D02*
X46016115Y32983887D01*
X49400000Y32000000D02*
X49400000Y32100000D01*
X51000000Y34500000D02*
X50900000Y34500000D01*
X46900000Y32100000D02*
X46475735Y32524265D01*
X51200000Y37150000D02*
X51200000Y36800000D01*
X50800000Y37700000D02*
X50800000Y37350000D01*
X45000000Y48500000D02*
X45067420Y48432580D01*
X50900000Y33950000D02*
X51000000Y33950000D01*
X51200000Y36050000D02*
X51200000Y35700000D01*
X46950000Y48200000D02*
X46950000Y48300000D01*
X49600000Y48300000D02*
X50500000Y48300000D01*
X50900000Y47150000D02*
X51000000Y47150000D01*
X51000000Y33950000D02*
X51100000Y33950000D01*
X45067420Y48432580D02*
X45200000Y48300000D01*
X51000000Y38900000D02*
X50900000Y38900000D01*
X51000000Y40000000D02*
X50900000Y40000000D01*
X45309007Y33690993D02*
X45200000Y33800000D01*
X50900000Y44950000D02*
X51000000Y44950000D01*
X50800000Y45400000D02*
X50800000Y45050000D01*
X50900000Y41650000D02*
X51000000Y41650000D01*
X51000000Y35600000D02*
X50900000Y35600000D01*
X48150000Y48500000D02*
X48500000Y48500000D01*
X51200000Y34950000D02*
X51200000Y34600000D01*
X48050000Y48200000D02*
X48050000Y48300000D01*
X46016114Y32983886D02*
X45945402Y32913177D01*
X51100000Y45500000D02*
X51000000Y45500000D01*
X46500000Y48100000D02*
X46850000Y48100000D01*
X47050000Y48500000D02*
X47400000Y48500000D01*
X51100000Y43300000D02*
X51000000Y43300000D01*
X50900000Y36150000D02*
X51000000Y36150000D01*
X48600000Y48300000D02*
X48600000Y48200000D01*
X51000000Y33300000D02*
X51000000Y32950000D01*
X44792372Y49000000D02*
X45000000Y48792372D01*
X51200000Y33850000D02*
X51200000Y33500000D01*
X51000000Y32950000D02*
X51000000Y32500000D01*
X45950000Y48500000D02*
X46300000Y48500000D01*
X47300000Y32100000D02*
X46900000Y32100000D01*
X51000000Y43300000D02*
X50900000Y43300000D01*
X50900000Y43850000D02*
X51000000Y43850000D01*
X50900000Y40550000D02*
X51000000Y40550000D01*
X51100000Y35600000D02*
X51000000Y35600000D01*
X44300000Y49000000D02*
X44792372Y49000000D01*
X51000000Y40550000D02*
X51100000Y40550000D01*
X45000000Y48792372D02*
X45000000Y48500000D01*
X51000000Y41100000D02*
X50900000Y41100000D01*
X46400000Y48400000D02*
X46400000Y48300000D01*
X51000000Y47150000D02*
X51100000Y47150000D01*
X45200000Y33800000D02*
X45200000Y34300000D01*
X45850000Y48200000D02*
X45850000Y48300000D01*
X50400000Y32300000D02*
X50050000Y32300000D01*
X44122500Y49177500D02*
X44300000Y49000000D01*
X51000000Y42750000D02*
X51100000Y42750000D01*
X50800000Y47600000D02*
X50800000Y47250000D01*
X51100000Y41100000D02*
X51000000Y41100000D01*
X45850000Y48300000D02*
X45850000Y48400000D01*
X48600000Y48400000D02*
X48600000Y48300000D01*
X48200000Y32300000D02*
X47850000Y32300000D01*
X50800000Y38800000D02*
X50800000Y38450000D01*
X49300000Y32300000D02*
X48950000Y32300000D01*
X50900000Y35050000D02*
X51000000Y35050000D01*
X44950000Y34550000D02*
X44710000Y34550000D01*
X50800000Y42100000D02*
X50800000Y41750000D01*
X49400000Y32100000D02*
X49400000Y32200000D01*
X50800000Y44300000D02*
X50800000Y43950000D01*
X45556493Y33443507D02*
X45309007Y33690993D01*
X44122500Y49677500D02*
X44122500Y49177500D01*
X51000000Y43850000D02*
X51100000Y43850000D01*
X51000000Y46050000D02*
X51100000Y46050000D01*
X51000000Y37800000D02*
X50900000Y37800000D01*
X46475735Y32807109D02*
X46228247Y33054597D01*
X45803980Y32913177D02*
X45556492Y33160665D01*
X46950000Y48300000D02*
X46950000Y48400000D01*
X51100000Y36700000D02*
X51000000Y36700000D01*
X50900000Y37250000D02*
X51000000Y37250000D01*
X51200000Y39350000D02*
X51200000Y39000000D01*
X51100000Y37800000D02*
X51000000Y37800000D01*
X50800000Y34400000D02*
X50800000Y34050000D01*
X50800000Y43200000D02*
X50800000Y42850000D01*
X51000000Y35050000D02*
X51100000Y35050000D01*
X49950000Y32100000D02*
X49950000Y32000000D01*
X48300000Y32100000D02*
X48300000Y32200000D01*
X51100000Y38900000D02*
X51000000Y38900000D01*
X51200000Y43750000D02*
X51200000Y43400000D01*
X50800000Y46500000D02*
X50800000Y46150000D01*
X47500000Y48400000D02*
X47500000Y48300000D01*
X47600000Y48100000D02*
X47950000Y48100000D01*
X51100000Y44400000D02*
X51000000Y44400000D01*
X48850000Y32100000D02*
X48850000Y32000000D01*
X49850000Y31900000D02*
X49500000Y31900000D01*
X51200000Y41550000D02*
X51200000Y41200000D01*
X51000000Y45500000D02*
X50900000Y45500000D01*
X50800000Y35500000D02*
X50800000Y35150000D01*
X51100000Y34500000D02*
X51000000Y34500000D01*
X51000000Y42200000D02*
X50900000Y42200000D01*
X49250000Y48300000D02*
X49600000Y48300000D01*
X46400000Y48300000D02*
X46400000Y48200000D01*
X51000000Y32500000D02*
X50600000Y32100000D01*
X51000000Y39450000D02*
X51100000Y39450000D01*
X51100000Y40000000D02*
X51000000Y40000000D01*
X51000000Y46600000D02*
X50900000Y46600000D01*
X47650000Y32100000D02*
X47300000Y32100000D01*
X51000000Y44400000D02*
X50900000Y44400000D01*
X48050000Y48300000D02*
X48050000Y48400000D01*
X51200000Y45950000D02*
X51200000Y45600000D01*
X48300000Y32000000D02*
X48300000Y32100000D01*
X47500000Y48300000D02*
X47500000Y48200000D01*
X50900000Y38350000D02*
X51000000Y38350000D01*
X50924264Y47875736D02*
X51000000Y47800000D01*
X51000000Y36150000D02*
X51100000Y36150000D01*
X51200000Y38250000D02*
X51200000Y37900000D01*
X50900000Y46050000D02*
X51000000Y46050000D01*
X45200000Y34300000D02*
X44950000Y34550000D01*
X48850000Y32200000D02*
X48850000Y32100000D01*
X48750000Y31900000D02*
X48400000Y31900000D01*
X51200000Y40450000D02*
X51200000Y40100000D01*
X51200000Y42650000D02*
X51200000Y42300000D01*
X50500000Y48300000D02*
X50924264Y47875736D01*
X51100000Y46600000D02*
X51000000Y46600000D01*
X51100000Y37250000D02*
G75*
G02*
X51200000Y37150000I0J-100000D01*
G01*
X51200000Y46700000D02*
G75*
G02*
X51100000Y46600000I-100000J0D01*
G01*
X51100000Y36150000D02*
G75*
G02*
X51200000Y36050000I0J-100000D01*
G01*
X50600000Y32100000D02*
G75*
G02*
X50500000Y32200000I0J100000D01*
G01*
X51200000Y35700000D02*
G75*
G02*
X51100000Y35600000I-100000J0D01*
G01*
X49150000Y48200000D02*
G75*
G02*
X49250000Y48300000I100000J0D01*
G01*
X50800000Y47250000D02*
G75*
G03*
X50900000Y47150000I100000J0D01*
G01*
X47750000Y32200000D02*
G75*
G02*
X47650000Y32100000I-100000J0D01*
G01*
X45945402Y32913177D02*
G75*
G02*
X45803980Y32913177I-70711J70713D01*
G01*
X51200000Y36800000D02*
G75*
G02*
X51100000Y36700000I-100000J0D01*
G01*
X51200000Y33500000D02*
G75*
G02*
X51100000Y33400000I-100000J0D01*
G01*
X51100000Y42750000D02*
G75*
G02*
X51200000Y42650000I0J-100000D01*
G01*
X47500000Y48200000D02*
G75*
G03*
X47600000Y48100000I100000J0D01*
G01*
X50900000Y38900000D02*
G75*
G03*
X50800000Y38800000I0J-100000D01*
G01*
X51100000Y35050000D02*
G75*
G02*
X51200000Y34950000I0J-100000D01*
G01*
X51100000Y44950000D02*
G75*
G02*
X51200000Y44850000I0J-100000D01*
G01*
X50800000Y34050000D02*
G75*
G03*
X50900000Y33950000I100000J0D01*
G01*
X51200000Y37900000D02*
G75*
G02*
X51100000Y37800000I-100000J0D01*
G01*
X51100000Y40550000D02*
G75*
G02*
X51200000Y40450000I0J-100000D01*
G01*
X51200000Y43400000D02*
G75*
G02*
X51100000Y43300000I-100000J0D01*
G01*
X45300000Y48200000D02*
G75*
G03*
X45400000Y48100000I100000J0D01*
G01*
X51200000Y39000000D02*
G75*
G02*
X51100000Y38900000I-100000J0D01*
G01*
X51200000Y41200000D02*
G75*
G02*
X51100000Y41100000I-100000J0D01*
G01*
X48500000Y48500000D02*
G75*
G02*
X48600000Y48400000I0J-100000D01*
G01*
X49050000Y48100000D02*
G75*
G03*
X49150000Y48200000I0J100000D01*
G01*
X47950000Y48100000D02*
G75*
G03*
X48050000Y48200000I0J100000D01*
G01*
X50500000Y32200000D02*
G75*
G03*
X50400000Y32300000I-100000J0D01*
G01*
X51100000Y41650000D02*
G75*
G02*
X51200000Y41550000I0J-100000D01*
G01*
X46950000Y48400000D02*
G75*
G02*
X47050000Y48500000I100000J0D01*
G01*
X51000000Y47800000D02*
G75*
G02*
X50900000Y47700000I-100000J0D01*
G01*
X50800000Y35150000D02*
G75*
G03*
X50900000Y35050000I100000J0D01*
G01*
X45556492Y33160665D02*
G75*
G02*
X45556467Y33302110I70708J70735D01*
G01*
X50900000Y37800000D02*
G75*
G03*
X50800000Y37700000I0J-100000D01*
G01*
X46475735Y32524265D02*
G75*
G02*
X46475711Y32665711I70665J70735D01*
G01*
X48850000Y32000000D02*
G75*
G02*
X48750000Y31900000I-100000J0D01*
G01*
X51200000Y45600000D02*
G75*
G02*
X51100000Y45500000I-100000J0D01*
G01*
X49500000Y31900000D02*
G75*
G02*
X49400000Y32000000I0J100000D01*
G01*
X46400000Y48200000D02*
G75*
G03*
X46500000Y48100000I100000J0D01*
G01*
X51100000Y33950000D02*
G75*
G02*
X51200000Y33850000I0J-100000D01*
G01*
X51200000Y34600000D02*
G75*
G02*
X51100000Y34500000I-100000J0D01*
G01*
X45200000Y48300000D02*
G75*
G02*
X45300000Y48200000I0J-100000D01*
G01*
X50900000Y42200000D02*
G75*
G03*
X50800000Y42100000I0J-100000D01*
G01*
X51100000Y46050000D02*
G75*
G02*
X51200000Y45950000I0J-100000D01*
G01*
X49950000Y32000000D02*
G75*
G02*
X49850000Y31900000I-100000J0D01*
G01*
X51100000Y47150000D02*
G75*
G02*
X51200000Y47050000I0J-100000D01*
G01*
X48050000Y48400000D02*
G75*
G02*
X48150000Y48500000I100000J0D01*
G01*
X51100000Y38350000D02*
G75*
G02*
X51200000Y38250000I0J-100000D01*
G01*
X46300000Y48500000D02*
G75*
G02*
X46400000Y48400000I0J-100000D01*
G01*
X46475735Y32665687D02*
G75*
G03*
X46475737Y32807111I-70735J70713D01*
G01*
X51100000Y39450000D02*
G75*
G02*
X51200000Y39350000I0J-100000D01*
G01*
X49400000Y32200000D02*
G75*
G03*
X49300000Y32300000I-100000J0D01*
G01*
X47400000Y48500000D02*
G75*
G02*
X47500000Y48400000I0J-100000D01*
G01*
X50900000Y36700000D02*
G75*
G03*
X50800000Y36600000I0J-100000D01*
G01*
X50900000Y34500000D02*
G75*
G03*
X50800000Y34400000I0J-100000D01*
G01*
X50800000Y45050000D02*
G75*
G03*
X50900000Y44950000I100000J0D01*
G01*
X50050000Y32300000D02*
G75*
G03*
X49950000Y32200000I0J-100000D01*
G01*
X50900000Y46600000D02*
G75*
G03*
X50800000Y46500000I0J-100000D01*
G01*
X51100000Y43850000D02*
G75*
G02*
X51200000Y43750000I0J-100000D01*
G01*
X46228247Y33054597D02*
G75*
G03*
X46086827Y33054597I-70710J-70708D01*
G01*
X50800000Y36250000D02*
G75*
G03*
X50900000Y36150000I100000J0D01*
G01*
X50900000Y35600000D02*
G75*
G03*
X50800000Y35500000I0J-100000D01*
G01*
X50900000Y40000000D02*
G75*
G03*
X50800000Y39900000I0J-100000D01*
G01*
X50900000Y45500000D02*
G75*
G03*
X50800000Y45400000I0J-100000D01*
G01*
X50800000Y42850000D02*
G75*
G03*
X50900000Y42750000I100000J0D01*
G01*
X50900000Y41100000D02*
G75*
G03*
X50800000Y41000000I0J-100000D01*
G01*
X50800000Y43950000D02*
G75*
G03*
X50900000Y43850000I100000J0D01*
G01*
X50900000Y43300000D02*
G75*
G03*
X50800000Y43200000I0J-100000D01*
G01*
X50900000Y47700000D02*
G75*
G03*
X50800000Y47600000I0J-100000D01*
G01*
X51200000Y44500000D02*
G75*
G02*
X51100000Y44400000I-100000J0D01*
G01*
X51200000Y42300000D02*
G75*
G02*
X51100000Y42200000I-100000J0D01*
G01*
X46850000Y48100000D02*
G75*
G03*
X46950000Y48200000I0J100000D01*
G01*
X48400000Y31900000D02*
G75*
G02*
X48300000Y32000000I0J100000D01*
G01*
X45750000Y48100000D02*
G75*
G03*
X45850000Y48200000I0J100000D01*
G01*
X48950000Y32300000D02*
G75*
G03*
X48850000Y32200000I0J-100000D01*
G01*
X51200000Y40100000D02*
G75*
G02*
X51100000Y40000000I-100000J0D01*
G01*
X45850000Y48400000D02*
G75*
G02*
X45950000Y48500000I100000J0D01*
G01*
X50800000Y38450000D02*
G75*
G03*
X50900000Y38350000I100000J0D01*
G01*
X50900000Y44400000D02*
G75*
G03*
X50800000Y44300000I0J-100000D01*
G01*
X50800000Y39550000D02*
G75*
G03*
X50900000Y39450000I100000J0D01*
G01*
X45556493Y33302085D02*
G75*
G03*
X45556497Y33443511I-70693J70715D01*
G01*
X50800000Y37350000D02*
G75*
G03*
X50900000Y37250000I100000J0D01*
G01*
X48300000Y32200000D02*
G75*
G03*
X48200000Y32300000I-100000J0D01*
G01*
X48600000Y48200000D02*
G75*
G03*
X48700000Y48100000I100000J0D01*
G01*
X50800000Y41750000D02*
G75*
G03*
X50900000Y41650000I100000J0D01*
G01*
X51100000Y33400000D02*
G75*
G03*
X51000000Y33300000I0J-100000D01*
G01*
X50800000Y40650000D02*
G75*
G03*
X50900000Y40550000I100000J0D01*
G01*
X50800000Y46150000D02*
G75*
G03*
X50900000Y46050000I100000J0D01*
G01*
X47850000Y32300000D02*
G75*
G03*
X47750000Y32200000I0J-100000D01*
G01*
%TO.N,DDR3_A11*%
X53287500Y42012500D02*
X53200000Y42012500D01*
X44122500Y51677500D02*
X44378781Y51677500D01*
X53287500Y47512500D02*
X53200000Y47512500D01*
X53200000Y45312500D02*
X53112500Y45312500D01*
X53112500Y48062500D02*
X53200000Y48062500D01*
X53025000Y46325000D02*
X53025000Y45950000D01*
X53200000Y41375000D02*
X53200000Y41000000D01*
X46991230Y50200000D02*
X47366230Y50200000D01*
X45650000Y50768719D02*
X45650000Y50200000D01*
X53200000Y40746270D02*
X53200000Y31600000D01*
X53112500Y45862500D02*
X53200000Y45862500D01*
X53025000Y44125000D02*
X53025000Y43750000D01*
X53200000Y45862500D02*
X53287500Y45862500D01*
X52100000Y30500000D02*
X46100000Y30500000D01*
X53200000Y43112500D02*
X53112500Y43112500D01*
X53200000Y47512500D02*
X53112500Y47512500D01*
X53200000Y46962500D02*
X53287500Y46962500D01*
X53375000Y44675000D02*
X53375000Y44300000D01*
X44900000Y31700000D02*
X43900000Y31700000D01*
X43900000Y31700000D02*
X43570000Y32030000D01*
X53287500Y43112500D02*
X53200000Y43112500D01*
X45303719Y51115000D02*
X45650000Y50768719D01*
X52300000Y49952514D02*
X52565165Y49687349D01*
X53375000Y47975000D02*
X53375000Y47600000D01*
X53375000Y43575000D02*
X53375000Y43200000D01*
X53375000Y42475000D02*
X53375000Y42100000D01*
X53375000Y45775000D02*
X53375000Y45400000D01*
X53200000Y42562500D02*
X53287500Y42562500D01*
X52166230Y50200000D02*
X52300000Y50200000D01*
X53200000Y49300000D02*
X53200000Y48700000D01*
X53112500Y43662500D02*
X53200000Y43662500D01*
X53112500Y44762500D02*
X53200000Y44762500D01*
X53025000Y41925000D02*
X53025000Y41550000D01*
X52812651Y49687349D02*
X53077817Y49422183D01*
X45650000Y50200000D02*
X46266230Y50200000D01*
X46100000Y30500000D02*
X44900000Y31700000D01*
X46441230Y50025000D02*
X46816230Y50025000D01*
X53200000Y42012500D02*
X53112500Y42012500D01*
X47366230Y50200000D02*
X52166230Y50200000D01*
X53112500Y46962500D02*
X53200000Y46962500D01*
X43570000Y32030000D02*
X43570000Y33410000D01*
X53200000Y41000000D02*
X53200000Y40746270D01*
X53025000Y48525000D02*
X53025000Y48150000D01*
X53112500Y42562500D02*
X53200000Y42562500D01*
X53200000Y44762500D02*
X53287500Y44762500D01*
X53200000Y46412500D02*
X53112500Y46412500D01*
X53287500Y45312500D02*
X53200000Y45312500D01*
X53025000Y43025000D02*
X53025000Y42650000D01*
X44941281Y51115000D02*
X45303719Y51115000D01*
X53200000Y31600000D02*
X52100000Y30500000D01*
X53200000Y43662500D02*
X53287500Y43662500D01*
X53287500Y46412500D02*
X53200000Y46412500D01*
X53077817Y49422183D02*
X53200000Y49300000D01*
X53200000Y44212500D02*
X53112500Y44212500D01*
X53200000Y48062500D02*
X53287500Y48062500D01*
X53025000Y45225000D02*
X53025000Y44850000D01*
X53025000Y47425000D02*
X53025000Y47050000D01*
X53375000Y46875000D02*
X53375000Y46500000D01*
X53287500Y44212500D02*
X53200000Y44212500D01*
X44378781Y51677500D02*
X44941281Y51115000D01*
X46903730Y50112500D02*
G75*
G02*
X46991230Y50199970I87470J0D01*
G01*
X53375000Y45400000D02*
G75*
G02*
X53287500Y45312500I-87500J0D01*
G01*
X53025000Y43750000D02*
G75*
G03*
X53112500Y43662500I87500J0D01*
G01*
X53375000Y47600000D02*
G75*
G02*
X53287500Y47512500I-87500J0D01*
G01*
X53025000Y47050000D02*
G75*
G03*
X53112500Y46962500I87500J0D01*
G01*
X53287500Y43662500D02*
G75*
G02*
X53375000Y43575000I0J-87500D01*
G01*
X46266230Y50200000D02*
G75*
G02*
X46353700Y50112500I-30J-87500D01*
G01*
X52300000Y50200000D02*
G75*
G02*
X52300029Y50076229I-61900J-61900D01*
G01*
X53200000Y48700000D02*
G75*
G02*
X53112500Y48612500I-87500J0D01*
G01*
X53287500Y48062500D02*
G75*
G02*
X53375000Y47975000I0J-87500D01*
G01*
X53025000Y42650000D02*
G75*
G03*
X53112500Y42562500I87500J0D01*
G01*
X53112500Y41462500D02*
G75*
G02*
X53200000Y41375000I0J-87500D01*
G01*
X46816230Y50025000D02*
G75*
G03*
X46903700Y50112500I-30J87500D01*
G01*
X53112500Y48612500D02*
G75*
G03*
X53025000Y48525000I0J-87500D01*
G01*
X53112500Y47512500D02*
G75*
G03*
X53025000Y47425000I0J-87500D01*
G01*
X53025000Y44850000D02*
G75*
G03*
X53112500Y44762500I87500J0D01*
G01*
X53025000Y41550000D02*
G75*
G03*
X53112500Y41462500I87500J0D01*
G01*
X53287500Y46962500D02*
G75*
G02*
X53375000Y46875000I0J-87500D01*
G01*
X53375000Y46500000D02*
G75*
G02*
X53287500Y46412500I-87500J0D01*
G01*
X53112500Y46412500D02*
G75*
G03*
X53025000Y46325000I0J-87500D01*
G01*
X53375000Y43200000D02*
G75*
G02*
X53287500Y43112500I-87500J0D01*
G01*
X53287500Y44762500D02*
G75*
G02*
X53375000Y44675000I0J-87500D01*
G01*
X52688908Y49687349D02*
G75*
G02*
X52812651Y49687350I61872J-61872D01*
G01*
X52565165Y49687349D02*
G75*
G03*
X52688908Y49687348I61872J61872D01*
G01*
X53025000Y45950000D02*
G75*
G03*
X53112500Y45862500I87500J0D01*
G01*
X53287500Y45862500D02*
G75*
G02*
X53375000Y45775000I0J-87500D01*
G01*
X53112500Y42012500D02*
G75*
G03*
X53025000Y41925000I0J-87500D01*
G01*
X53112500Y43112500D02*
G75*
G03*
X53025000Y43025000I0J-87500D01*
G01*
X53375000Y42100000D02*
G75*
G02*
X53287500Y42012500I-87500J0D01*
G01*
X46353730Y50112500D02*
G75*
G03*
X46441230Y50025030I87470J0D01*
G01*
X52300000Y50076257D02*
G75*
G03*
X52300014Y49952528I61900J-61857D01*
G01*
X53112500Y45312500D02*
G75*
G03*
X53025000Y45225000I0J-87500D01*
G01*
X53112500Y44212500D02*
G75*
G03*
X53025000Y44125000I0J-87500D01*
G01*
X53025000Y48150000D02*
G75*
G03*
X53112500Y48062500I87500J0D01*
G01*
X53375000Y44300000D02*
G75*
G02*
X53287500Y44212500I-87500J0D01*
G01*
X53287500Y42562500D02*
G75*
G02*
X53375000Y42475000I0J-87500D01*
G01*
%TO.N,DDR3_A13*%
X50962500Y29787500D02*
X50962500Y29700000D01*
X53925000Y33775000D02*
X53925000Y33400000D01*
X45650000Y51406281D02*
X45941281Y51115000D01*
X54275000Y35425000D02*
X54275000Y35050000D01*
X47112500Y29612500D02*
X47112500Y29700000D01*
X45925000Y29875000D02*
X45550000Y29875000D01*
X45000000Y29700000D02*
X44900000Y29700000D01*
X53251470Y30251472D02*
X52700000Y29700000D01*
X54100000Y37162500D02*
X54012500Y37162500D01*
X51512500Y29612500D02*
X51512500Y29700000D01*
X54100000Y34412500D02*
X54187500Y34412500D01*
X54100000Y36062500D02*
X54012500Y36062500D01*
X48675000Y29525000D02*
X48300000Y29525000D01*
X54100000Y49600000D02*
X54100000Y40550000D01*
X46562500Y29700000D02*
X46562500Y29612500D01*
X50962500Y29700000D02*
X50962500Y29612500D01*
X48212500Y29612500D02*
X48212500Y29700000D01*
X50412500Y29612500D02*
X50412500Y29700000D01*
X54275000Y37625000D02*
X54275000Y37250000D01*
X52525000Y29875000D02*
X52150000Y29875000D01*
X51975000Y29525000D02*
X51600000Y29525000D01*
X54100000Y33312500D02*
X54187500Y33312500D01*
X54187500Y33862500D02*
X54100000Y33862500D01*
X54275000Y36525000D02*
X54275000Y36150000D01*
X44122500Y52677500D02*
X44560000Y52240000D01*
X54100000Y31200000D02*
X54100000Y31100000D01*
X48762500Y29787500D02*
X48762500Y29700000D01*
X46012500Y29700000D02*
X46012500Y29787500D01*
X54187500Y37162500D02*
X54100000Y37162500D01*
X54100000Y31100000D02*
X53251470Y30251472D01*
X51512500Y29700000D02*
X51512500Y29787500D01*
X46012500Y29612500D02*
X46012500Y29700000D01*
X47662500Y29700000D02*
X47662500Y29612500D01*
X54275000Y33225000D02*
X54275000Y32850000D01*
X54012500Y36612500D02*
X54100000Y36612500D01*
X54100000Y32212500D02*
X54187500Y32212500D01*
X47112500Y29700000D02*
X47112500Y29787500D01*
X44900000Y29700000D02*
X44490000Y30110000D01*
X54012500Y34412500D02*
X54100000Y34412500D01*
X54100000Y36612500D02*
X54187500Y36612500D01*
X54275000Y34325000D02*
X54275000Y33950000D01*
X54187500Y34962500D02*
X54100000Y34962500D01*
X54275000Y38725000D02*
X54275000Y38350000D01*
X53925000Y37075000D02*
X53925000Y36700000D01*
X54012500Y37712500D02*
X54100000Y37712500D01*
X53925000Y35975000D02*
X53925000Y35600000D01*
X54012500Y32212500D02*
X54100000Y32212500D01*
X54100000Y38262500D02*
X54012500Y38262500D01*
X52585000Y51115000D02*
X54100000Y49600000D01*
X49862500Y29787500D02*
X49862500Y29700000D01*
X52062500Y29787500D02*
X52062500Y29700000D01*
X54275000Y39825000D02*
X54275000Y39450000D01*
X53925000Y40375000D02*
X53925000Y40000000D01*
X47025000Y29875000D02*
X46650000Y29875000D01*
X48212500Y29700000D02*
X48212500Y29787500D01*
X49862500Y29700000D02*
X49862500Y29612500D01*
X49775000Y29525000D02*
X49400000Y29525000D01*
X54275000Y32125000D02*
X54275000Y31750000D01*
X52062500Y29700000D02*
X52062500Y29612500D01*
X45375000Y29700000D02*
X45000000Y29700000D01*
X54187500Y36062500D02*
X54100000Y36062500D01*
X53925000Y32675000D02*
X53925000Y32300000D01*
X54012500Y33312500D02*
X54100000Y33312500D01*
X44560000Y52240000D02*
X45178719Y52240000D01*
X51425000Y29875000D02*
X51050000Y29875000D01*
X54187500Y32762500D02*
X54100000Y32762500D01*
X54100000Y35512500D02*
X54187500Y35512500D01*
X54187500Y39362500D02*
X54100000Y39362500D01*
X46475000Y29525000D02*
X46100000Y29525000D01*
X47575000Y29525000D02*
X47200000Y29525000D01*
X54100000Y32762500D02*
X54012500Y32762500D01*
X53925000Y34875000D02*
X53925000Y34500000D01*
X49312500Y29700000D02*
X49312500Y29787500D01*
X53925000Y39275000D02*
X53925000Y38900000D01*
X48125000Y29875000D02*
X47750000Y29875000D01*
X54100000Y38812500D02*
X54187500Y38812500D01*
X49312500Y29612500D02*
X49312500Y29700000D01*
X49225000Y29875000D02*
X48850000Y29875000D01*
X54100000Y31575000D02*
X54100000Y31200000D01*
X46562500Y29787500D02*
X46562500Y29700000D01*
X54187500Y38262500D02*
X54100000Y38262500D01*
X50325000Y29875000D02*
X49950000Y29875000D01*
X54100000Y33862500D02*
X54012500Y33862500D01*
X54100000Y39362500D02*
X54012500Y39362500D01*
X50875000Y29525000D02*
X50500000Y29525000D01*
X53925000Y38175000D02*
X53925000Y37800000D01*
X45178719Y52240000D02*
X45650000Y51768719D01*
X48762500Y29700000D02*
X48762500Y29612500D01*
X45941281Y51115000D02*
X52585000Y51115000D01*
X54012500Y39912500D02*
X54100000Y39912500D01*
X54100000Y34962500D02*
X54012500Y34962500D01*
X50412500Y29700000D02*
X50412500Y29787500D01*
X54100000Y37712500D02*
X54187500Y37712500D01*
X47662500Y29787500D02*
X47662500Y29700000D01*
X54012500Y35512500D02*
X54100000Y35512500D01*
X45650000Y51768719D02*
X45650000Y51406281D01*
X54100000Y39912500D02*
X54187500Y39912500D01*
X54012500Y38812500D02*
X54100000Y38812500D01*
X44490000Y30110000D02*
X44490000Y30930000D01*
X47200000Y29525000D02*
G75*
G02*
X47112500Y29612500I0J87500D01*
G01*
X52700000Y29700000D02*
G75*
G02*
X52612500Y29787500I0J87500D01*
G01*
X54100000Y40550000D02*
G75*
G02*
X54012500Y40462500I-87500J0D01*
G01*
X51600000Y29525000D02*
G75*
G02*
X51512500Y29612500I0J87500D01*
G01*
X53925000Y35600000D02*
G75*
G03*
X54012500Y35512500I87500J0D01*
G01*
X50962500Y29612500D02*
G75*
G02*
X50875000Y29525000I-87500J0D01*
G01*
X50500000Y29525000D02*
G75*
G02*
X50412500Y29612500I0J87500D01*
G01*
X54012500Y34962500D02*
G75*
G03*
X53925000Y34875000I0J-87500D01*
G01*
X54012500Y38262500D02*
G75*
G03*
X53925000Y38175000I0J-87500D01*
G01*
X54012500Y40462500D02*
G75*
G03*
X53925000Y40375000I0J-87500D01*
G01*
X54275000Y35050000D02*
G75*
G02*
X54187500Y34962500I-87500J0D01*
G01*
X48212500Y29787500D02*
G75*
G03*
X48125000Y29875000I-87500J0D01*
G01*
X48850000Y29875000D02*
G75*
G03*
X48762500Y29787500I0J-87500D01*
G01*
X54275000Y39450000D02*
G75*
G02*
X54187500Y39362500I-87500J0D01*
G01*
X46562500Y29612500D02*
G75*
G02*
X46475000Y29525000I-87500J0D01*
G01*
X47662500Y29612500D02*
G75*
G02*
X47575000Y29525000I-87500J0D01*
G01*
X54187500Y37712500D02*
G75*
G02*
X54275000Y37625000I0J-87500D01*
G01*
X54275000Y37250000D02*
G75*
G02*
X54187500Y37162500I-87500J0D01*
G01*
X54187500Y35512500D02*
G75*
G02*
X54275000Y35425000I0J-87500D01*
G01*
X54275000Y33950000D02*
G75*
G02*
X54187500Y33862500I-87500J0D01*
G01*
X54187500Y31662500D02*
G75*
G03*
X54100000Y31575000I0J-87500D01*
G01*
X49862500Y29612500D02*
G75*
G02*
X49775000Y29525000I-87500J0D01*
G01*
X46100000Y29525000D02*
G75*
G02*
X46012500Y29612500I0J87500D01*
G01*
X54187500Y33312500D02*
G75*
G02*
X54275000Y33225000I0J-87500D01*
G01*
X53925000Y34500000D02*
G75*
G03*
X54012500Y34412500I87500J0D01*
G01*
X49950000Y29875000D02*
G75*
G03*
X49862500Y29787500I0J-87500D01*
G01*
X54187500Y34412500D02*
G75*
G02*
X54275000Y34325000I0J-87500D01*
G01*
X52150000Y29875000D02*
G75*
G03*
X52062500Y29787500I0J-87500D01*
G01*
X49312500Y29787500D02*
G75*
G03*
X49225000Y29875000I-87500J0D01*
G01*
X53925000Y40000000D02*
G75*
G03*
X54012500Y39912500I87500J0D01*
G01*
X46650000Y29875000D02*
G75*
G03*
X46562500Y29787500I0J-87500D01*
G01*
X54275000Y36150000D02*
G75*
G02*
X54187500Y36062500I-87500J0D01*
G01*
X54012500Y32762500D02*
G75*
G03*
X53925000Y32675000I0J-87500D01*
G01*
X49400000Y29525000D02*
G75*
G02*
X49312500Y29612500I0J87500D01*
G01*
X54012500Y37162500D02*
G75*
G03*
X53925000Y37075000I0J-87500D01*
G01*
X45462500Y29787500D02*
G75*
G02*
X45375000Y29700000I-87500J0D01*
G01*
X54275000Y32850000D02*
G75*
G02*
X54187500Y32762500I-87500J0D01*
G01*
X54275000Y31750000D02*
G75*
G02*
X54187500Y31662500I-87500J0D01*
G01*
X52612500Y29787500D02*
G75*
G03*
X52525000Y29875000I-87500J0D01*
G01*
X46012500Y29787500D02*
G75*
G03*
X45925000Y29875000I-87500J0D01*
G01*
X54187500Y36612500D02*
G75*
G02*
X54275000Y36525000I0J-87500D01*
G01*
X54012500Y36062500D02*
G75*
G03*
X53925000Y35975000I0J-87500D01*
G01*
X47112500Y29787500D02*
G75*
G03*
X47025000Y29875000I-87500J0D01*
G01*
X48300000Y29525000D02*
G75*
G02*
X48212500Y29612500I0J87500D01*
G01*
X53925000Y38900000D02*
G75*
G03*
X54012500Y38812500I87500J0D01*
G01*
X50412500Y29787500D02*
G75*
G03*
X50325000Y29875000I-87500J0D01*
G01*
X54187500Y38812500D02*
G75*
G02*
X54275000Y38725000I0J-87500D01*
G01*
X45550000Y29875000D02*
G75*
G03*
X45462500Y29787500I0J-87500D01*
G01*
X54012500Y39362500D02*
G75*
G03*
X53925000Y39275000I0J-87500D01*
G01*
X51050000Y29875000D02*
G75*
G03*
X50962500Y29787500I0J-87500D01*
G01*
X53925000Y33400000D02*
G75*
G03*
X54012500Y33312500I87500J0D01*
G01*
X48762500Y29612500D02*
G75*
G02*
X48675000Y29525000I-87500J0D01*
G01*
X54275000Y38350000D02*
G75*
G02*
X54187500Y38262500I-87500J0D01*
G01*
X54012500Y33862500D02*
G75*
G03*
X53925000Y33775000I0J-87500D01*
G01*
X53925000Y36700000D02*
G75*
G03*
X54012500Y36612500I87500J0D01*
G01*
X54187500Y39912500D02*
G75*
G02*
X54275000Y39825000I0J-87500D01*
G01*
X47750000Y29875000D02*
G75*
G03*
X47662500Y29787500I0J-87500D01*
G01*
X54187500Y32212500D02*
G75*
G02*
X54275000Y32125000I0J-87500D01*
G01*
X53925000Y32300000D02*
G75*
G03*
X54012500Y32212500I87500J0D01*
G01*
X51512500Y29787500D02*
G75*
G03*
X51425000Y29875000I-87500J0D01*
G01*
X52062500Y29612500D02*
G75*
G02*
X51975000Y29525000I-87500J0D01*
G01*
X53925000Y37800000D02*
G75*
G03*
X54012500Y37712500I87500J0D01*
G01*
%TO.N,DDR3_A5*%
X53900000Y27900000D02*
X55900000Y29900000D01*
X43300000Y27900000D02*
X53900000Y27900000D01*
X45378781Y53677500D02*
X44122500Y53677500D01*
X45941281Y53115000D02*
X45378781Y53677500D01*
X52885000Y53115000D02*
X45941281Y53115000D01*
X55900000Y29900000D02*
X55900000Y50100000D01*
X42790000Y29400000D02*
X42850000Y29340000D01*
X42850000Y28350000D02*
X43300000Y27900000D01*
X42850000Y29340000D02*
X42850000Y28350000D01*
X55900000Y50100000D02*
X52885000Y53115000D01*
%TO.N,/Interfaces/DBG_USB_D_N*%
D27*
X66555001Y111430001D02*
X66675000Y111550000D01*
X75400000Y89300000D02*
X75180001Y89519999D01*
X66675000Y111550000D02*
X66555001Y111669999D01*
X66555001Y111669999D02*
X66555001Y114180001D01*
X66555001Y114180001D02*
X66675000Y114300000D01*
X66555001Y107114203D02*
X66555001Y111430001D01*
X75180001Y89519999D02*
X75180001Y98489203D01*
X75180001Y98489203D02*
X66555001Y107114203D01*
%TO.N,/Interfaces/DBG_USB_D_P*%
X66244999Y111669999D02*
X66244999Y114180001D01*
X74650000Y89300000D02*
X74869999Y89519999D01*
X66244999Y106985797D02*
X66244999Y111430001D01*
X74869999Y98360797D02*
X66244999Y106985797D01*
X66244999Y111430001D02*
X66125000Y111550000D01*
X66125000Y111550000D02*
X66244999Y111669999D01*
X66244999Y114180001D02*
X66125000Y114300000D01*
X74869999Y89519999D02*
X74869999Y98360797D01*
%TO.N,PCIE_BMC_CLK_100_N*%
D24*
X33394546Y54072500D02*
X33402046Y54065000D01*
X32092954Y54065000D02*
X32100454Y54072500D01*
X33791580Y53717500D02*
X34247500Y53717500D01*
X24755920Y54065000D02*
X32092954Y54065000D01*
X20535000Y26255920D02*
X20535000Y49844080D01*
X28355920Y18435000D02*
X20535000Y26255920D01*
X34835000Y15655920D02*
X32055920Y18435000D01*
X34835000Y5285000D02*
X34835000Y15655920D01*
X34920000Y5200000D02*
X34835000Y5285000D01*
X32100454Y54072500D02*
X33394546Y54072500D01*
X20535000Y49844080D02*
X24755920Y54065000D01*
X32055920Y18435000D02*
X28355920Y18435000D01*
X33444080Y54065000D02*
X33791580Y53717500D01*
X33402046Y54065000D02*
X33444080Y54065000D01*
%TD*%
M02*
