%TF.GenerationSoftware,KiCad,Pcbnew,10.0.0*%
%TF.CreationDate,2026-04-02T20:29:52+02:00*%
%TF.ProjectId,artix-dc-scm,61727469-782d-4646-932d-73636d2e6b69,1.1.3*%
%TF.SameCoordinates,PX3950da0PYaafe6a0*%
%TF.FileFunction,Plated,1,8,PTH,Drill*%
%TF.FilePolarity,Positive*%
%FSLAX46Y46*%
G04 Gerber Fmt 4.6, Leading zero omitted, Abs format (unit mm)*
G04 Created by KiCad (PCBNEW 10.0.0) date 2026-04-02 20:29:52*
%MOMM*%
%LPD*%
G01*
G04 APERTURE LIST*
%TA.AperFunction,ViaDrill*%
%ADD10C,0.200000*%
%TD*%
%TA.AperFunction,ComponentDrill*%
%ADD11C,0.900000*%
%TD*%
%TA.AperFunction,ComponentDrill*%
%ADD12C,1.020000*%
%TD*%
%TA.AperFunction,ComponentDrill*%
%ADD13C,1.100000*%
%TD*%
%TA.AperFunction,ComponentDrill*%
%ADD14C,1.150000*%
%TD*%
%TA.AperFunction,ComponentDrill*%
%ADD15C,1.400000*%
%TD*%
%TA.AperFunction,ComponentDrill*%
%ADD16C,2.900000*%
%TD*%
%TA.AperFunction,ComponentDrill*%
%ADD17C,3.700000*%
%TD*%
G04 APERTURE END LIST*
D10*
X4100000Y85800000D03*
X4430000Y34150000D03*
X4450000Y53540000D03*
X4460000Y43760000D03*
X4500000Y58300000D03*
X4500000Y51100000D03*
X4500000Y48900000D03*
X4500000Y41100000D03*
X4500000Y39200000D03*
X4500000Y31700000D03*
X4510000Y62770000D03*
X4600000Y60200000D03*
X4600000Y29700000D03*
X4700000Y69200000D03*
X4700000Y68400000D03*
X4700000Y67600000D03*
X4700000Y66900000D03*
X5700000Y93000000D03*
X5700000Y85900000D03*
X5700000Y43800000D03*
X5700000Y39200000D03*
X5700000Y33500000D03*
X5700000Y29700000D03*
X5800000Y62900000D03*
X5800000Y58400000D03*
X5800000Y53400000D03*
X5800000Y48800000D03*
X5900000Y87400000D03*
X6670000Y94110000D03*
X6670000Y91990000D03*
X7000000Y62800000D03*
X7000000Y58400000D03*
X7000000Y39300000D03*
X7000000Y34000000D03*
X7100000Y53400000D03*
X7100000Y48900000D03*
X7100000Y43800000D03*
X7100000Y29600000D03*
X7300000Y67600000D03*
X7300000Y67050000D03*
X7800000Y81800000D03*
X7850000Y67100000D03*
X7900000Y88300000D03*
X7900000Y23500000D03*
X7900000Y19500000D03*
X8120000Y96190000D03*
X8260000Y49140000D03*
X8260000Y29797500D03*
X8270000Y39500000D03*
X8300000Y62900000D03*
X8300000Y58500000D03*
X8300000Y53500000D03*
X8300000Y43700000D03*
X8300000Y34200000D03*
X8500000Y23500000D03*
X8500000Y19500000D03*
X8870000Y86030000D03*
X9000000Y93400000D03*
X9135000Y94100000D03*
X9200000Y96970000D03*
X9200000Y92000000D03*
X9310000Y89880000D03*
X9500000Y23500000D03*
X9600000Y56000000D03*
X9800000Y81500000D03*
X9800000Y15300000D03*
X9880000Y85970000D03*
X10000000Y94500000D03*
X10280000Y91020000D03*
X10480000Y36280000D03*
X10700000Y97400000D03*
X10800000Y15300000D03*
X10840000Y86040000D03*
X11100000Y11700000D03*
X11440000Y22240000D03*
X11600000Y12100000D03*
X11800000Y91400000D03*
X11800000Y15300000D03*
X12000000Y19100000D03*
X12100000Y11800000D03*
X12200000Y62900000D03*
X12500000Y99000000D03*
X12500000Y19100000D03*
X12775996Y15275996D03*
X12777377Y62900025D03*
X12800000Y12000000D03*
X12975996Y60124004D03*
X13000029Y19094414D03*
X13277379Y62899464D03*
X13300000Y11600000D03*
X13500000Y19100000D03*
X13777377Y62901649D03*
X13800000Y6300000D03*
X13850000Y5600000D03*
X13850000Y5000000D03*
X13850000Y4400000D03*
X13850000Y3800000D03*
X13900000Y117900000D03*
X13900000Y94800000D03*
X13920000Y116460000D03*
X14000000Y19100000D03*
X14100000Y9900000D03*
X14277334Y62894927D03*
X14350000Y6300000D03*
X14400000Y5600000D03*
X14400000Y5000000D03*
X14400000Y4400000D03*
X14400000Y3700000D03*
X14500000Y117900000D03*
X14500000Y22100000D03*
X14500000Y19100000D03*
X14900000Y6300000D03*
X14950000Y5600000D03*
X14950000Y5000000D03*
X14950000Y4400000D03*
X15000000Y3700000D03*
X15000003Y19100000D03*
X15100000Y117900000D03*
X15277009Y62892148D03*
X15500006Y19100000D03*
X15600000Y5900000D03*
X15774004Y13974004D03*
X15775996Y62924004D03*
X15800000Y117900000D03*
X16000000Y10500000D03*
X16000009Y19100000D03*
X16050000Y111300000D03*
X16350000Y112920000D03*
X16360000Y90510000D03*
X16400000Y117900000D03*
X16500012Y19100000D03*
X16600000Y7905000D03*
X16600000Y7300000D03*
X16600000Y5430000D03*
X16612496Y5929847D03*
X16635000Y6597500D03*
X16675996Y55624004D03*
X16700000Y14000000D03*
X16880000Y116460000D03*
X16900000Y117900000D03*
X17000000Y9900000D03*
X17000015Y19100000D03*
X17022488Y69250000D03*
X17050000Y69900000D03*
X17050000Y68550000D03*
X17290000Y87370000D03*
X17300000Y83340000D03*
X17360000Y81310000D03*
X17400000Y96900000D03*
X17500000Y89600000D03*
X17500000Y22200000D03*
X17600000Y117900000D03*
X17628025Y9897072D03*
X17900000Y11865000D03*
X17990000Y4400000D03*
X17995297Y13904703D03*
X18200000Y117900000D03*
X18200000Y9800000D03*
X18375002Y22325001D03*
X18480000Y111210000D03*
X18500000Y98200000D03*
X18500000Y97700000D03*
X18515000Y11865000D03*
X18650000Y13950000D03*
X18700000Y102300000D03*
X18700000Y89700000D03*
X18700000Y28700000D03*
X18800000Y9900000D03*
X19000000Y11865000D03*
X19100000Y90500000D03*
X19200000Y70100000D03*
X19266408Y13897472D03*
X19300000Y81800000D03*
X19300000Y81300000D03*
X19300000Y9900000D03*
X19400000Y105100000D03*
X19400000Y104600000D03*
X19500000Y98200000D03*
X19500000Y68100000D03*
X19540000Y108470000D03*
X19700000Y96000000D03*
X19700000Y95500000D03*
X19800000Y97200000D03*
X19800000Y9700000D03*
X19800000Y6000000D03*
X19900000Y105100000D03*
X19900000Y104600000D03*
X19900000Y81800000D03*
X19900000Y81300000D03*
X19900000Y70100000D03*
X20000000Y98200000D03*
X20100000Y13900000D03*
X20200000Y96000000D03*
X20200000Y95500000D03*
X20300000Y9900000D03*
X20400000Y105100000D03*
X20400000Y104600000D03*
X20500000Y81800000D03*
X20500000Y81300000D03*
X20600000Y98200000D03*
X20700000Y96000000D03*
X20700000Y95500000D03*
X20700000Y91600000D03*
X20750000Y13950000D03*
X20800000Y88400000D03*
X20800000Y87900000D03*
X20800000Y87400000D03*
X20800000Y70100000D03*
X20900000Y105100000D03*
X20900000Y104600000D03*
X21200000Y98200000D03*
X21300000Y88400000D03*
X21300000Y87900000D03*
X21300000Y87400000D03*
X21400000Y59800000D03*
X21600000Y103500000D03*
X21600000Y103000000D03*
X21600000Y102500000D03*
X21600000Y74500000D03*
X21600000Y70100000D03*
X21600000Y5900000D03*
X21700000Y11600000D03*
X21773170Y82324121D03*
X21800000Y88400000D03*
X21800000Y87900000D03*
X21800000Y87400000D03*
X21900000Y67600000D03*
X22030000Y13800000D03*
X22100000Y103500000D03*
X22100000Y103000000D03*
X22100000Y102500000D03*
X22400000Y74074998D03*
X22400000Y73600000D03*
X22400000Y59800000D03*
X22412746Y77800000D03*
X22480000Y112910000D03*
X22500000Y12300000D03*
X22600000Y103500000D03*
X22600000Y103000000D03*
X22600000Y102500000D03*
X22600000Y70200000D03*
X22800000Y88200000D03*
X22800000Y87700000D03*
X22800000Y81000000D03*
X22800000Y80500000D03*
X22900000Y95500000D03*
X22900000Y95000000D03*
X22900000Y74100000D03*
X22900000Y73600000D03*
X22900000Y16600000D03*
X23000000Y15937500D03*
X23100000Y103500000D03*
X23100000Y103000000D03*
X23100000Y102500000D03*
X23200000Y96600000D03*
X23200000Y89400000D03*
X23220000Y10690000D03*
X23400000Y95500000D03*
X23400000Y95000000D03*
X23400000Y88200000D03*
X23400000Y87700000D03*
X23400000Y81000000D03*
X23400000Y80500000D03*
X23400000Y70100000D03*
X23400000Y59800000D03*
X23600000Y103500000D03*
X23600000Y103000000D03*
X23600000Y102500000D03*
X23700000Y79500000D03*
X23700000Y79000000D03*
X23700000Y78500000D03*
X23900000Y95500000D03*
X23900000Y95000000D03*
X24000000Y88200000D03*
X24000000Y87700000D03*
X24000000Y81000000D03*
X24000000Y80500000D03*
X24100000Y103500000D03*
X24100000Y103000000D03*
X24100000Y102500000D03*
X24100000Y70100000D03*
X24100000Y65400000D03*
X24200000Y79500000D03*
X24200000Y79000000D03*
X24200000Y78500000D03*
X24400000Y59800000D03*
X24570000Y107320000D03*
X24600000Y99900000D03*
X24620000Y16587500D03*
X24700000Y85100000D03*
X25000000Y70100000D03*
X25000000Y67200000D03*
X25300000Y93200000D03*
X25300000Y17500000D03*
X25307843Y18392157D03*
X25400000Y59800000D03*
X25400000Y16550000D03*
X25400000Y15800000D03*
X25700000Y70000000D03*
X25800000Y65087500D03*
X25900000Y67200000D03*
X26050000Y103230000D03*
X26200000Y70000000D03*
X26230000Y96030000D03*
X26300000Y88600000D03*
X26400000Y59800000D03*
X26700000Y67200000D03*
X26797488Y65202512D03*
X27200000Y117100000D03*
X27200000Y116600000D03*
X27400000Y100300000D03*
X27500000Y94900000D03*
X27500000Y94400000D03*
X27500000Y69700000D03*
X27650000Y59800000D03*
X27700000Y117100000D03*
X27700000Y116600000D03*
X27700000Y87500000D03*
X27700000Y87000000D03*
X28000000Y94900000D03*
X28000000Y94400000D03*
X28100000Y18400000D03*
X28200000Y87500000D03*
X28200000Y87000000D03*
X28200000Y67700000D03*
X28200000Y17400000D03*
X28300000Y16400000D03*
X28377500Y15600000D03*
X28600000Y76212653D03*
X28600000Y75700000D03*
X28630000Y103000000D03*
X28650000Y59800000D03*
X29400000Y79550000D03*
X29400000Y79050000D03*
X29400000Y78550000D03*
X29400000Y78000000D03*
X29400000Y77500000D03*
X29400000Y77000000D03*
X29454381Y36287529D03*
X29500000Y65124000D03*
X29500000Y37000000D03*
X29847488Y59052512D03*
X29900000Y84000000D03*
X29900000Y60100000D03*
X30000000Y74300000D03*
X30000000Y57100000D03*
X30000000Y55100000D03*
X30000000Y15780000D03*
X30200000Y51700000D03*
X30250000Y70550000D03*
X30400000Y98900000D03*
X30400000Y91200000D03*
X30410000Y106150000D03*
X30500000Y108700000D03*
X30500000Y108200000D03*
X30500000Y29112500D03*
X30600000Y12550000D03*
X30650000Y76500000D03*
X30660000Y48420000D03*
X30800000Y12000000D03*
X30813656Y37165462D03*
X31000000Y108700000D03*
X31000000Y108200000D03*
X31100000Y88500000D03*
X31150000Y67450000D03*
X31150000Y55750000D03*
X31170000Y45010000D03*
X31200000Y103400000D03*
X31200000Y81200000D03*
X31200000Y56600000D03*
X31200000Y11500000D03*
X31247500Y58717500D03*
X31247500Y54717500D03*
X31247500Y51717500D03*
X31247500Y50717500D03*
X31247500Y49717500D03*
X31300000Y95900000D03*
X31500000Y102300000D03*
X31500000Y101800000D03*
X31500000Y101300000D03*
X31500000Y100700000D03*
X31500000Y30100000D03*
X31620000Y33300000D03*
X31690000Y78120000D03*
X31690000Y48420000D03*
X31700000Y78620000D03*
X31700000Y31000000D03*
X31868638Y38272462D03*
X31900000Y8700000D03*
X31978732Y10114926D03*
X32000000Y115000000D03*
X32000000Y114400000D03*
X32000000Y113900000D03*
X32000000Y113300000D03*
X32000000Y110400000D03*
X32000000Y109800000D03*
X32000000Y109300000D03*
X32000000Y108700000D03*
X32000000Y10800000D03*
X32000000Y9500000D03*
X32000000Y8000000D03*
X32000000Y7300000D03*
X32000000Y6500000D03*
X32144458Y52700500D03*
X32177575Y61619573D03*
X32200000Y56600000D03*
X32220000Y59650000D03*
X32230000Y78110000D03*
X32240000Y78640000D03*
X32247500Y57717500D03*
X32247500Y53717500D03*
X32247500Y51717500D03*
X32247500Y50717500D03*
X32247500Y49717500D03*
X32250000Y60550000D03*
X32300000Y77600000D03*
X32300000Y77100000D03*
X32300000Y76600000D03*
X32300000Y76100000D03*
X32300000Y75600000D03*
X32400000Y69600000D03*
X32470000Y30120000D03*
X32480000Y34120000D03*
X32480000Y30970000D03*
X32500000Y34910000D03*
X32700000Y115000000D03*
X32700000Y114400000D03*
X32700000Y113900000D03*
X32700000Y113300000D03*
X32700000Y110400000D03*
X32700000Y109800000D03*
X32700000Y109300000D03*
X32700000Y108700000D03*
X32987500Y24560500D03*
X33172554Y61634347D03*
X33199554Y54808000D03*
X33200000Y63650000D03*
X33200000Y60600000D03*
X33200000Y59650000D03*
X33247500Y57717500D03*
X33247500Y55717500D03*
X33247500Y51717500D03*
X33247500Y50717500D03*
X33247500Y49717500D03*
X33250000Y66550000D03*
X33250000Y65550000D03*
X33250000Y64550000D03*
X33250000Y62550000D03*
X33270000Y29330000D03*
X33300000Y30100000D03*
X33300000Y15900000D03*
X33345000Y34065000D03*
X33380000Y48410000D03*
X33400000Y115000000D03*
X33400000Y114400000D03*
X33400000Y113900000D03*
X33400000Y113300000D03*
X33400000Y110400000D03*
X33400000Y109800000D03*
X33400000Y109300000D03*
X33400000Y108700000D03*
X33530000Y31090000D03*
X33645000Y15400000D03*
X33800000Y89500000D03*
X33900000Y25700000D03*
X33900000Y10400000D03*
X34000000Y87000000D03*
X34080000Y34120000D03*
X34080000Y33340000D03*
X34080000Y29320000D03*
X34100000Y48410000D03*
X34155000Y15400000D03*
X34247500Y58717500D03*
X34247500Y56717500D03*
X34247500Y55717500D03*
X34247500Y54717500D03*
X34247500Y53717500D03*
X34247500Y52717500D03*
X34247500Y51717500D03*
X34247500Y50717500D03*
X34247500Y49717500D03*
X34250000Y68550000D03*
X34250000Y65550000D03*
X34250000Y64550000D03*
X34250000Y63550000D03*
X34250000Y62550000D03*
X34250000Y61550000D03*
X34250000Y60550000D03*
X34250000Y31050000D03*
X34400000Y83050000D03*
X34400000Y82050000D03*
X34400000Y81050000D03*
X34400000Y79800000D03*
X34400000Y36000000D03*
X34400000Y25700000D03*
X34574973Y36798187D03*
X34600000Y90400000D03*
X34600000Y18600000D03*
X34600000Y14900000D03*
X34845000Y34087748D03*
X34870000Y29320000D03*
X34930000Y30890000D03*
X35000000Y25700000D03*
X35020000Y18100000D03*
X35150000Y78300000D03*
X35200000Y89500000D03*
X35240000Y48580000D03*
X35247488Y71447488D03*
X35247500Y58717500D03*
X35247500Y56717500D03*
X35247500Y55717500D03*
X35247500Y54717500D03*
X35247500Y53717500D03*
X35247500Y52717500D03*
X35247500Y50717500D03*
X35247500Y49717500D03*
X35250000Y66550000D03*
X35250000Y65550000D03*
X35250000Y61550000D03*
X35250000Y60550000D03*
X35250000Y33170000D03*
X35500000Y86600000D03*
X35500000Y84000000D03*
X35580000Y18100000D03*
X35670000Y34120000D03*
X35690000Y34920000D03*
X35700000Y25700000D03*
X35710000Y74450000D03*
X35730000Y29380000D03*
X35810000Y6550000D03*
X35830000Y7300000D03*
X35850000Y9550000D03*
X35850000Y8050000D03*
X35863464Y13513464D03*
X35867500Y8800000D03*
X35900000Y12300000D03*
X35900000Y11300000D03*
X35900000Y10300000D03*
X36200000Y58700000D03*
X36200000Y20700000D03*
X36247500Y57717500D03*
X36247500Y56717500D03*
X36247500Y55717500D03*
X36247500Y54717500D03*
X36247500Y53717500D03*
X36247500Y52717500D03*
X36247500Y50717500D03*
X36247500Y49717500D03*
X36250000Y68550000D03*
X36250000Y67550000D03*
X36250000Y66550000D03*
X36250000Y65550000D03*
X36250000Y63550000D03*
X36250000Y62550000D03*
X36250000Y61550000D03*
X36250000Y60550000D03*
X36300000Y86600000D03*
X36300000Y25700000D03*
X36300000Y18100000D03*
X36470000Y30940000D03*
X36470000Y30120000D03*
X36470000Y29320000D03*
X36500000Y89000000D03*
X36500000Y33300000D03*
X36700000Y91800000D03*
X36800000Y20700000D03*
X36900000Y78500000D03*
X36900000Y35980000D03*
X36900000Y25700000D03*
X37000000Y86600000D03*
X37247500Y58717500D03*
X37247500Y57717500D03*
X37247500Y56717500D03*
X37247500Y55717500D03*
X37247500Y54717500D03*
X37247500Y53717500D03*
X37247500Y52717500D03*
X37247500Y51717500D03*
X37247500Y50717500D03*
X37247500Y49717500D03*
X37250000Y69550000D03*
X37250000Y68550000D03*
X37250000Y67550000D03*
X37250000Y66550000D03*
X37250000Y64550000D03*
X37250000Y61550000D03*
X37250000Y60550000D03*
X37270000Y34120000D03*
X37270000Y29320000D03*
X37300000Y33350000D03*
X37400000Y22100000D03*
X37400000Y21500000D03*
X37400000Y20900000D03*
X37400000Y11100000D03*
X37589493Y35962500D03*
X37620000Y31110000D03*
X37650000Y72050000D03*
X37650000Y71050000D03*
X37700000Y85300000D03*
X37700000Y84400000D03*
X37700000Y25700000D03*
X37745000Y23620000D03*
X37800000Y83331626D03*
X37945000Y10200000D03*
X38050000Y20370000D03*
X38090000Y29350000D03*
X38150000Y67650000D03*
X38220000Y30940000D03*
X38247500Y58717500D03*
X38247500Y57717500D03*
X38247500Y56717500D03*
X38247500Y55717500D03*
X38247500Y54717500D03*
X38247500Y53717500D03*
X38247500Y52717500D03*
X38247500Y51717500D03*
X38247500Y50717500D03*
X38247500Y49717500D03*
X38250000Y66550000D03*
X38250000Y64550000D03*
X38250000Y63550000D03*
X38250000Y62550000D03*
X38250000Y61550000D03*
X38250000Y60550000D03*
X38445147Y40850469D03*
X38455000Y10200000D03*
X38650000Y70800000D03*
X38800000Y36827500D03*
X38800000Y21900000D03*
X38890000Y33320000D03*
X38900000Y76300000D03*
X38920000Y48540000D03*
X39100000Y9100000D03*
X39150000Y28300000D03*
X39200000Y25475000D03*
X39200000Y6700000D03*
X39230000Y35740000D03*
X39247500Y58717500D03*
X39247500Y57717500D03*
X39247500Y56717500D03*
X39247500Y55717500D03*
X39247500Y54717500D03*
X39247500Y53717500D03*
X39247500Y52717500D03*
X39247500Y51717500D03*
X39247500Y50717500D03*
X39247500Y49717500D03*
X39250000Y68550000D03*
X39250000Y66550000D03*
X39250000Y65550000D03*
X39250000Y64550000D03*
X39250000Y63550000D03*
X39250000Y62550000D03*
X39250000Y61550000D03*
X39250000Y60550000D03*
X39300000Y87300000D03*
X39300000Y31100000D03*
X39300000Y20800000D03*
X39400000Y80800000D03*
X39500000Y33300000D03*
X39530000Y48530000D03*
X39650000Y78800000D03*
X39670000Y29330000D03*
X39680000Y30130000D03*
X39900000Y77550000D03*
X39900000Y31050000D03*
X40100000Y67500000D03*
X40200000Y68600000D03*
X40247500Y58717500D03*
X40247500Y57717500D03*
X40247500Y56717500D03*
X40247500Y55717500D03*
X40247500Y54717500D03*
X40247500Y53717500D03*
X40247500Y52717500D03*
X40247500Y51717500D03*
X40247500Y50717500D03*
X40247500Y49717500D03*
X40250000Y66550000D03*
X40250000Y65550000D03*
X40250000Y64550000D03*
X40250000Y63550000D03*
X40250000Y62550000D03*
X40250000Y61550000D03*
X40250000Y60550000D03*
X40330000Y33340000D03*
X40400000Y17930000D03*
X40510000Y30100000D03*
X40660000Y71580000D03*
X40690000Y48460000D03*
X40700000Y87300000D03*
X40775000Y77800000D03*
X40790000Y30980000D03*
X40800000Y89700000D03*
X40900000Y25900000D03*
X40920000Y28370000D03*
X41252000Y78602000D03*
X41260000Y48830000D03*
X41280000Y34910000D03*
X41290000Y33340000D03*
X41300000Y30120000D03*
X41400000Y25075000D03*
X41600000Y25900000D03*
X41600000Y6600000D03*
X41750000Y31030000D03*
X41800000Y78550000D03*
X41900000Y77550000D03*
X42000000Y18100000D03*
X42090000Y67570000D03*
X42090000Y65570000D03*
X42090000Y64570000D03*
X42090000Y62570000D03*
X42090000Y61570000D03*
X42090000Y60570000D03*
X42122500Y58677500D03*
X42122500Y57677500D03*
X42122500Y56677500D03*
X42122500Y55677500D03*
X42122500Y54677500D03*
X42122500Y53677500D03*
X42122500Y52677500D03*
X42122500Y51677500D03*
X42122500Y50677500D03*
X42122500Y49677500D03*
X42150000Y68650000D03*
X42300000Y71800000D03*
X42370000Y33290000D03*
X42475000Y31000000D03*
X42500000Y82700000D03*
X42580000Y25760000D03*
X42650000Y14550000D03*
X42650000Y13800000D03*
X42790000Y29400000D03*
X42830000Y34860000D03*
X42900000Y77550000D03*
X43090000Y68570000D03*
X43090000Y66570000D03*
X43090000Y64570000D03*
X43090000Y62570000D03*
X43090000Y61570000D03*
X43090000Y60570000D03*
X43122500Y58677500D03*
X43122500Y57677500D03*
X43122500Y56677500D03*
X43122500Y55677500D03*
X43122500Y54677500D03*
X43122500Y53677500D03*
X43122500Y52677500D03*
X43122500Y51677500D03*
X43122500Y50677500D03*
X43122500Y49677500D03*
X43200000Y87300000D03*
X43275000Y31000000D03*
X43570000Y33410000D03*
X43650000Y77550000D03*
X43660000Y34150000D03*
X43680000Y29330000D03*
X43700000Y25800000D03*
X43800000Y78400000D03*
X43900000Y80800000D03*
X44000000Y48500000D03*
X44090000Y69570000D03*
X44090000Y66570000D03*
X44090000Y65570000D03*
X44090000Y61570000D03*
X44090000Y60570000D03*
X44100000Y70600000D03*
X44100000Y67700000D03*
X44122500Y58677500D03*
X44122500Y57677500D03*
X44122500Y56677500D03*
X44122500Y55677500D03*
X44122500Y54677500D03*
X44122500Y53677500D03*
X44122500Y52677500D03*
X44122500Y51677500D03*
X44122500Y50677500D03*
X44122500Y49677500D03*
X44200000Y68700000D03*
X44200000Y21600000D03*
X44200000Y19530000D03*
X44300000Y71800000D03*
X44490000Y30930000D03*
X44550003Y48500000D03*
X44580000Y33760000D03*
X44710000Y34550000D03*
X44787500Y38900000D03*
X44830000Y23970000D03*
X44868835Y40125753D03*
X44900000Y77550000D03*
X45090000Y69570000D03*
X45090000Y67570000D03*
X45090000Y66570000D03*
X45090000Y65570000D03*
X45090000Y63570000D03*
X45090000Y61570000D03*
X45090000Y60570000D03*
X45100000Y87300000D03*
X45122500Y58677500D03*
X45122500Y57677500D03*
X45122500Y56677500D03*
X45122500Y55677500D03*
X45122500Y54677500D03*
X45122500Y52677500D03*
X45122500Y51677500D03*
X45122500Y50677500D03*
X45150000Y70650000D03*
X45200000Y68600000D03*
X45500000Y26212500D03*
X45600000Y90400000D03*
X45725996Y77974004D03*
X45790000Y24000000D03*
X46000000Y16000000D03*
X46090000Y67570000D03*
X46090000Y66570000D03*
X46090000Y65570000D03*
X46090000Y61570000D03*
X46090000Y60570000D03*
X46122500Y58677500D03*
X46122500Y57677500D03*
X46122500Y56677500D03*
X46122500Y55677500D03*
X46122500Y54677500D03*
X46122500Y53677500D03*
X46122500Y52677500D03*
X46122500Y51677500D03*
X46122500Y50677500D03*
X46122500Y49677500D03*
X46200000Y79700000D03*
X46200000Y68600000D03*
X46400000Y83800000D03*
X46485000Y74400000D03*
X46500000Y81800000D03*
X46500000Y81300000D03*
X46500000Y73700000D03*
X46500000Y20000000D03*
X46500000Y19000000D03*
X46559937Y34635294D03*
X46600000Y82300000D03*
X46600000Y78300000D03*
X46800000Y89000000D03*
X46800000Y24300000D03*
X47090000Y67570000D03*
X47090000Y66570000D03*
X47090000Y65570000D03*
X47090000Y60570000D03*
X47100000Y62580000D03*
X47122500Y58677500D03*
X47122500Y57677500D03*
X47122500Y56677500D03*
X47122500Y55677500D03*
X47122500Y54677500D03*
X47122500Y53677500D03*
X47122500Y52677500D03*
X47122500Y51677500D03*
X47122500Y50677500D03*
X47200000Y68700000D03*
X47200000Y61600000D03*
X47480000Y13830000D03*
X47490000Y11400000D03*
X48090000Y67570000D03*
X48090000Y66570000D03*
X48100000Y20800000D03*
X48100000Y20000000D03*
X48108496Y60551504D03*
X48122500Y58677500D03*
X48122500Y55677500D03*
X48122500Y54677500D03*
X48122500Y53677500D03*
X48122500Y52677500D03*
X48122500Y51677500D03*
X48122500Y50677500D03*
X48150000Y64510000D03*
X48150000Y19300000D03*
X48150000Y18300000D03*
X48150000Y17300000D03*
X48150000Y16550000D03*
X48150000Y15800000D03*
X48150000Y14940000D03*
X48200000Y77600000D03*
X48300000Y88400000D03*
X48300000Y74300000D03*
X48600000Y82300000D03*
X48900000Y80000000D03*
X48900000Y76600000D03*
X49090000Y68570000D03*
X49090000Y67570000D03*
X49090000Y66570000D03*
X49090000Y65570000D03*
X49122500Y55677500D03*
X49122500Y54677500D03*
X49122500Y53677500D03*
X49122500Y52677500D03*
X49122500Y51677500D03*
X49122500Y50677500D03*
X49155000Y61505000D03*
X49200000Y6800000D03*
X49350000Y73567960D03*
X50090000Y69570000D03*
X50090000Y68570000D03*
X50090000Y67570000D03*
X50090000Y66570000D03*
X50120000Y63500000D03*
X50122500Y57677500D03*
X50122500Y55677500D03*
X50122500Y54677500D03*
X50122500Y53677500D03*
X50122500Y52677500D03*
X50122500Y50677500D03*
X50200000Y82000000D03*
X50200000Y81400000D03*
X50200000Y80700000D03*
X50200000Y80000000D03*
X50200000Y79300000D03*
X50200000Y78700000D03*
X50311906Y13878094D03*
X50600000Y91100000D03*
X50650000Y23600000D03*
X50800000Y23100000D03*
X51090000Y65570000D03*
X51122500Y49677500D03*
X51150000Y60510000D03*
X51200000Y70900000D03*
X51200000Y55600000D03*
X51353555Y22648957D03*
X51753987Y22294127D03*
X51800000Y86600000D03*
X52060000Y13410000D03*
X52078094Y12201906D03*
X52150000Y21910596D03*
X52150000Y15550000D03*
X52150000Y14600000D03*
X52200000Y7000000D03*
X52224000Y62124000D03*
X52230000Y11149082D03*
X52230000Y9780000D03*
X52230000Y8800000D03*
X52300000Y57400000D03*
X52400000Y67100000D03*
X52550000Y21588464D03*
X53100000Y20800000D03*
X53150000Y16800000D03*
X53160000Y15550000D03*
X53190000Y14050000D03*
X53340000Y12950000D03*
X53370000Y9190000D03*
X53380000Y11840000D03*
X53393008Y10689408D03*
X53449999Y20255026D03*
X53746697Y51691556D03*
X53860000Y8130000D03*
X54100000Y19700000D03*
X54400000Y8825000D03*
X54500000Y19200000D03*
X54600000Y7200000D03*
X54700000Y8000000D03*
X55000000Y18600000D03*
X55300000Y79300000D03*
X55300000Y78700000D03*
X55300000Y78100000D03*
X55300000Y77600000D03*
X55400000Y18300000D03*
X55947488Y18052512D03*
X56522216Y18027241D03*
X56600000Y16400000D03*
X56652000Y15852000D03*
X56900000Y23200000D03*
X57000000Y51400000D03*
X57067490Y17932514D03*
X57200000Y16300000D03*
X57300000Y33500000D03*
X57400000Y25950000D03*
X57400000Y23200000D03*
X57400000Y8600000D03*
X57561513Y18009598D03*
X57600000Y15800000D03*
X57700000Y76600000D03*
X57901000Y23229000D03*
X58056643Y17938333D03*
X58100000Y42000000D03*
X58300000Y9400000D03*
X58554787Y17895263D03*
X58600000Y10000000D03*
X58935000Y10474933D03*
X58950000Y106250000D03*
X59100000Y17900000D03*
X59120000Y110230000D03*
X59140000Y102290000D03*
X59600000Y18000000D03*
X60000000Y45200000D03*
X60200000Y17900000D03*
X60300000Y62400000D03*
X60400000Y63800000D03*
X60900000Y118100000D03*
X61100000Y15900000D03*
X61300000Y41800000D03*
X61400000Y115500000D03*
X61780594Y25219406D03*
X62500000Y104200000D03*
X62600000Y108100000D03*
X62700000Y15800000D03*
X62800000Y71200000D03*
X62800000Y55100000D03*
X63100000Y6250000D03*
X63400000Y15800000D03*
X63415166Y55115166D03*
X63500000Y71300000D03*
X63600000Y111200000D03*
X63600000Y61422500D03*
X63600000Y44700000D03*
X63700000Y63700000D03*
X63700000Y48400000D03*
X63725000Y4100000D03*
X63900000Y64600000D03*
X63900000Y51700000D03*
X64100000Y55100000D03*
X64200000Y71400000D03*
X64275000Y4100000D03*
X64500000Y68687500D03*
X64640500Y13000000D03*
X64700000Y18500000D03*
X64750000Y5200000D03*
X64800000Y114200000D03*
X64800000Y67112500D03*
X64900000Y119400000D03*
X65100000Y15800000D03*
X65160500Y13000000D03*
X65300000Y51200000D03*
X65300000Y48200000D03*
X65400000Y64700000D03*
X65525000Y4200000D03*
X65600000Y47500000D03*
X65800000Y68687500D03*
X65800000Y62400000D03*
X65900000Y89600000D03*
X65900000Y87300000D03*
X65900000Y86200000D03*
X65900000Y85200000D03*
X65916000Y44716000D03*
X66000000Y88400000D03*
X66075000Y4200000D03*
X66100000Y63800000D03*
X66125000Y114300000D03*
X66125000Y111550000D03*
X66500000Y80700000D03*
X66600000Y25600000D03*
X66675000Y114300000D03*
X66675000Y111550000D03*
X67100000Y108600000D03*
X67100000Y15800000D03*
X67400000Y119500000D03*
X67640500Y12800000D03*
X67700000Y84500000D03*
X68160500Y12800000D03*
X68200000Y52500000D03*
X68200000Y50600000D03*
X68200000Y50100000D03*
X68433507Y53600000D03*
X68433507Y53050000D03*
X68500000Y25600000D03*
X68500000Y3800000D03*
X68600000Y66100000D03*
X68600000Y15900000D03*
X68700000Y69750000D03*
X68700000Y69200000D03*
X68800000Y67100000D03*
X69000000Y49900000D03*
X69000003Y25600000D03*
X69200000Y114200000D03*
X69200000Y83700000D03*
X69300000Y91800000D03*
X69300000Y74500000D03*
X69400000Y68900000D03*
X69500006Y25600000D03*
X69700000Y65887500D03*
X69800000Y47900000D03*
X69800000Y46800000D03*
X70000000Y51600000D03*
X70000009Y25600000D03*
X70100000Y15700000D03*
X70300000Y64500000D03*
X70300000Y3800000D03*
X70641000Y13000000D03*
X70900000Y23300000D03*
X71100000Y80800000D03*
X71161000Y13000000D03*
X71200000Y62600000D03*
X71300000Y118200000D03*
X71400000Y91900000D03*
X71400000Y23300000D03*
X71651000Y15700000D03*
X71800000Y87100000D03*
X71800000Y78700000D03*
X71850000Y44728459D03*
X71900000Y23300000D03*
X72090000Y3900000D03*
X72200000Y97900000D03*
X72300000Y97000000D03*
X72300000Y96200000D03*
X72300000Y95300000D03*
X72349005Y44696901D03*
X72400000Y23300000D03*
X72800000Y91800000D03*
X72800000Y89300000D03*
X72900000Y44700000D03*
X73000000Y58900000D03*
X73100000Y85300000D03*
X73100000Y84600000D03*
X73100000Y84000000D03*
X73100000Y83400000D03*
X73100000Y82800000D03*
X73151000Y15700000D03*
X73500000Y89400000D03*
X73500000Y44700000D03*
X73500000Y25350000D03*
X73600000Y93500000D03*
X73600000Y87700000D03*
X73641500Y12900000D03*
X73800000Y85300000D03*
X73800000Y84600000D03*
X73800000Y84000000D03*
X73800000Y83400000D03*
X73800000Y82800000D03*
X73890000Y3800000D03*
X74161500Y12900000D03*
X74200000Y91030000D03*
X74200000Y44700000D03*
X74300000Y56900000D03*
X74300000Y23300000D03*
X74500000Y85300000D03*
X74500000Y84600000D03*
X74500000Y84000000D03*
X74500000Y83400000D03*
X74500000Y82800000D03*
X74500000Y77000000D03*
X74600000Y51800000D03*
X74650000Y89300000D03*
X74652000Y15848000D03*
X74655019Y57410890D03*
X74700000Y54800000D03*
X74700000Y50800000D03*
X74800000Y59700000D03*
X75000000Y23300000D03*
X75149000Y15849000D03*
X75200000Y85300000D03*
X75200000Y84600000D03*
X75200000Y84000000D03*
X75200000Y83400000D03*
X75200000Y82800000D03*
X75400000Y89300000D03*
X75604816Y57603569D03*
X75690000Y3900000D03*
X75700000Y59800000D03*
X75700000Y56800000D03*
X75700000Y54800000D03*
X75700000Y52800000D03*
X75700000Y51800000D03*
X75700000Y50800000D03*
X75900000Y85300000D03*
X75900000Y84600000D03*
X75900000Y84000000D03*
X75900000Y83400000D03*
X75900000Y82800000D03*
X76100000Y78000000D03*
X76300000Y87575000D03*
X76578184Y56783350D03*
X76600000Y52900000D03*
X76700000Y89200000D03*
X76700000Y71700000D03*
X76900000Y105400000D03*
X76900000Y102700000D03*
X77100000Y61400000D03*
X77200000Y15300000D03*
X77300000Y91600000D03*
X77500000Y73600000D03*
X77600000Y56700000D03*
X77700000Y51800000D03*
X77700000Y50800000D03*
X77900000Y117400000D03*
X78200000Y59900000D03*
X78300000Y89200000D03*
X78500000Y73500000D03*
X78700000Y52800000D03*
X78800000Y57700000D03*
X78800000Y54800000D03*
X78900000Y91500000D03*
X79200000Y60100000D03*
X79500000Y19700000D03*
X79700000Y81300000D03*
X79700000Y56700000D03*
X79700000Y55800000D03*
X79700000Y54800000D03*
X79700000Y52800000D03*
X79700000Y51800000D03*
X79700000Y50800000D03*
X79700000Y49800000D03*
X80100000Y117435000D03*
X80260000Y36080000D03*
X80500000Y89900000D03*
X80500000Y73600000D03*
X80558739Y56656757D03*
X80700000Y95800000D03*
X80700000Y82100000D03*
X80700000Y57800000D03*
X80700000Y54800000D03*
X81300000Y38400000D03*
X81400000Y71700000D03*
X81600000Y59700000D03*
X81700000Y54800000D03*
X81700000Y52800000D03*
X81700000Y51800000D03*
X82035000Y117435000D03*
X82500000Y81300000D03*
X82500000Y80300000D03*
X82600000Y59700000D03*
X82600000Y51700000D03*
X82700000Y52800000D03*
X82700000Y50800000D03*
X82808254Y58614438D03*
X82900000Y56300000D03*
X83000000Y114200000D03*
X83100000Y66000000D03*
X83610000Y56810000D03*
X84500000Y74000000D03*
X84500000Y63700000D03*
X85400000Y42300000D03*
X85500000Y32900000D03*
D11*
%TO.C,J6*%
X70525000Y110745000D03*
X70525000Y108745000D03*
X72525000Y110745000D03*
X72525000Y108745000D03*
X74525000Y110745000D03*
X74525000Y108745000D03*
X76525000Y110745000D03*
X76525000Y108745000D03*
X78525000Y110745000D03*
X78525000Y108745000D03*
X80525000Y110745000D03*
X80525000Y108745000D03*
X82525000Y110745000D03*
X82525000Y108745000D03*
D12*
%TO.C,J4*%
X5030000Y78789000D03*
X5030000Y76250000D03*
X7569000Y78789000D03*
X7569000Y76250000D03*
X10108000Y78789000D03*
X10108000Y76250000D03*
X12648000Y78789000D03*
X12648000Y76250000D03*
X15189000Y78789000D03*
X15189000Y76250000D03*
X17728000Y78789000D03*
X17728000Y76250000D03*
%TO.C,J1*%
X38480000Y95925000D03*
X39495000Y98465000D03*
X40511000Y95925000D03*
X41527000Y98465000D03*
X42543000Y95925000D03*
X43559000Y98465000D03*
X45591000Y98465000D03*
X46607000Y95925000D03*
X47623000Y98465000D03*
X48639000Y95925000D03*
X49655000Y98465000D03*
X50671000Y95925000D03*
D13*
%TO.C,J7*%
X5026000Y72625000D03*
X7565000Y72625000D03*
X10104000Y72625000D03*
X12644000Y72625000D03*
X15185000Y72625000D03*
X17724000Y72625000D03*
%TO.C,J13*%
X84465000Y72114000D03*
X84465000Y69575000D03*
X84465000Y67036000D03*
D14*
%TO.C,J1*%
X37550000Y114973000D03*
X37550000Y112435000D03*
X51601000Y114973000D03*
X51601000Y112435000D03*
D15*
X36422000Y105195000D03*
X52730000Y103793000D03*
D16*
%TO.C,MP1*%
X5500000Y99195000D03*
%TO.C,MP2*%
X84500000Y99195000D03*
D17*
%TO.C,H2*%
X13720000Y66900000D03*
%TO.C,H1*%
X65870000Y97920000D03*
M02*
